<svg width="21" height="21" viewBox="0 0 21 21" fill="none" xmlns="http://www.w3.org/2000/svg">
<path d="M18.1557 2.76195C17.9245 1.67126 16.9528 0.946542 15.8223 1.00309C14.4561 1.0714 12.3168 1.23019 9.30347 1.59435C6.2906 1.95852 4.17571 2.31364 2.83304 2.57241C1.72199 2.78638 0.957916 3.72101 1.0018 4.83432C1.04975 6.05123 1.17777 7.89107 1.49444 10.4298C1.63785 11.578 1.78351 12.5787 1.9233 13.4405" stroke="#0819D4" stroke-linecap="round" stroke-linejoin="round"/>
<path d="M2.10474 17.7191C2.20381 18.8708 3.10269 19.7308 4.25582 19.8086C5.65142 19.9027 7.84412 20 10.9524 20C14.0603 20 16.2535 19.9027 17.6491 19.8086C18.8026 19.7308 19.7011 18.8708 19.8001 17.7191C19.9024 16.5275 20.0001 14.7505 20.0001 12.3095C20.0001 9.86842 19.9024 8.09192 19.8001 6.89989C19.7011 5.74812 18.8022 4.88814 17.6491 4.81033C16.2535 4.71624 14.0608 4.61897 10.9524 4.61897C7.84457 4.61897 5.65142 4.71624 4.25582 4.81033C3.10224 4.88814 2.20381 5.74812 2.10474 6.89989C2.0025 8.09146 1.90479 9.86842 1.90479 12.3095C1.90479 14.7505 2.0025 16.5275 2.10474 17.7191Z" stroke="#0819D4" stroke-linejoin="round"/>
<path d="M8.23796 8.23804H4.6189M8.23796 13.6666H4.6189M17.2856 16.3809H4.6189M8.23796 10.9523H4.6189" stroke="#0819D4" stroke-linecap="round" stroke-linejoin="round"/>
<path d="M10.9918 12.6818C11.0307 13.454 11.6175 14.0408 12.3897 14.0797C12.838 14.1023 13.4107 14.119 14.1192 14.119C14.6959 14.1204 15.2725 14.1073 15.8486 14.0797C16.6204 14.0408 17.2076 13.454 17.2465 12.6818C17.2691 12.2335 17.2858 11.6608 17.2858 10.9523C17.2872 10.3758 17.2741 9.79925 17.2465 9.22334C17.2076 8.45112 16.6208 7.86393 15.8486 7.82548C15.2726 7.7977 14.6959 7.78443 14.1192 7.78567C13.5426 7.78429 12.9661 7.79741 12.3901 7.82502C11.6179 7.86393 11.0307 8.45067 10.9923 9.22289C10.9645 9.79895 10.9512 10.3756 10.9525 10.9523C10.9525 11.6608 10.9697 12.2335 10.9918 12.6818Z" stroke="#0819D4" stroke-linejoin="round"/>
</svg>
