<svg width="17" height="19" viewBox="0 0 17 19" fill="none" xmlns="http://www.w3.org/2000/svg">
<path d="M5.09961 11.2373H5.62402C6.5072 11.6149 7.47654 11.8311 8.5 11.8311C9.52292 11.8311 10.496 11.6154 11.377 11.2373H11.9004C14.4236 11.2375 16.4501 13.2368 16.4502 15.6748V17.2188C16.4502 17.8868 15.8921 18.4501 15.1787 18.4502H1.82129C1.1079 18.4501 0.549805 17.8868 0.549805 17.2188V15.6748C0.549913 13.2368 2.57636 11.2375 5.09961 11.2373ZM8.5 0.549805C10.8907 0.549805 12.8076 2.44162 12.8076 4.75C12.8076 7.05838 10.8907 8.9502 8.5 8.9502C6.10931 8.9502 4.19238 7.05838 4.19238 4.75C4.19238 2.44162 6.10931 0.549805 8.5 0.549805Z" stroke="#0819D4" stroke-width="1.1"/>
</svg>
