<svg width="19" height="19" viewBox="0 0 19 19" fill="none" xmlns="http://www.w3.org/2000/svg">
<path fill-rule="evenodd" clip-rule="evenodd" d="M8.78016 0C3.93162 0 0 3.92972 0 8.77827C0 13.6268 3.93162 17.5565 8.78016 17.5565C10.8626 17.5609 12.8781 16.821 14.4631 15.4702L17.7673 18.7734C17.8324 18.8434 17.911 18.8995 17.9984 18.9384C18.0857 18.9773 18.1799 18.9982 18.2755 18.9999C18.3711 19.0016 18.4661 18.984 18.5547 18.9482C18.6434 18.9124 18.7239 18.8591 18.7915 18.7915C18.8591 18.7239 18.9124 18.6434 18.9482 18.5547C18.984 18.4661 19.0016 18.3711 18.9999 18.2755C18.9982 18.1799 18.9773 18.0857 18.9384 17.9984C18.8995 17.911 18.8434 17.8324 18.7734 17.7673L15.4702 14.464C16.823 12.8789 17.5643 10.8622 17.5603 8.77827C17.5603 3.92972 13.6287 0 8.78016 0ZM1.42381 8.77827C1.42431 6.82757 2.19958 4.95694 3.57911 3.57777C4.95864 2.19859 6.82947 1.42381 8.78016 1.42381C9.75591 1.40813 10.725 1.58678 11.631 1.94934C12.5371 2.3119 13.3619 2.85112 14.0574 3.5356C14.753 4.22008 15.3054 5.03613 15.6825 5.9362C16.0595 6.83628 16.2537 7.8024 16.2537 8.77827C16.2537 9.75414 16.0595 10.7202 15.6825 11.6203C15.3054 12.5204 14.753 13.3365 14.0574 14.0209C13.3619 14.7054 12.5371 15.2446 11.631 15.6072C10.725 15.9698 9.75591 16.1484 8.78016 16.1327C6.82947 16.1327 4.95864 15.3579 3.57911 13.9788C2.19958 12.5996 1.42431 10.729 1.42381 8.77827Z" fill="#0819D4"/>
</svg>
