<svg width="24" height="23" viewBox="0 0 24 23" fill="none" xmlns="http://www.w3.org/2000/svg">
<path d="M21.4465 8.92887C21.0972 8.7258 20.7833 8.46714 20.5172 8.16308C20.5441 7.73976 20.6449 7.32442 20.8151 6.93588C21.1281 6.05285 21.482 5.05259 20.9141 4.27497C20.3462 3.49734 19.2739 3.52208 18.3328 3.54359C17.9169 3.58638 17.4968 3.55801 17.0905 3.4597C16.874 3.10746 16.7194 2.72078 16.6334 2.31639C16.3667 1.40755 16.0623 0.380397 15.1276 0.0727899C14.2263 -0.217609 13.3917 0.421268 12.6539 0.982706C12.3355 1.27345 11.9666 1.50346 11.5654 1.66138C11.16 1.50475 10.787 1.27467 10.4651 0.982706C9.72943 0.424495 8.89803 -0.220835 7.99242 0.0738655C7.05992 0.377171 6.75553 1.40755 6.48665 2.31639C6.40074 2.71947 6.24767 3.10523 6.03384 3.45755C5.62676 3.55559 5.20613 3.58468 4.78943 3.54359C3.84509 3.51778 2.78137 3.48981 2.20811 4.27497C1.63484 5.06012 1.993 6.05285 2.30706 6.9348C2.47962 7.32277 2.58195 7.73828 2.60929 8.16201C2.34371 8.46647 2.03018 8.7255 1.68109 8.92887C0.893783 9.46665 0 10.0786 0 11.0724C0 12.0663 0.893783 12.6761 1.68109 13.216C2.0301 13.4191 2.34363 13.6777 2.60929 13.9818C2.58482 14.4054 2.48541 14.8213 2.31566 15.2101C2.00375 16.092 1.65097 17.0923 2.21779 17.8699C2.7846 18.6476 3.8537 18.6228 4.79911 18.6013C5.21531 18.5585 5.63577 18.5868 6.04244 18.6852C6.25796 19.0378 6.41216 19.4244 6.49848 19.8285C6.76521 20.7373 7.0696 21.7645 8.00425 22.0721C8.1541 22.1202 8.31045 22.1448 8.46781 22.1452C9.22415 22.0367 9.9271 21.6928 10.4769 21.1622C10.7953 20.8715 11.1642 20.6414 11.5654 20.4835C11.9708 20.6401 12.3438 20.8702 12.6657 21.1622C13.4024 21.7247 14.2371 22.3668 15.1395 22.071C16.072 21.7677 16.3763 20.7373 16.6452 19.8296C16.7314 19.4258 16.8856 19.0395 17.1013 18.6873C17.5068 18.5886 17.9261 18.5595 18.3414 18.6013C19.2857 18.6239 20.3494 18.6551 20.9227 17.8699C21.496 17.0848 21.1378 16.092 20.8237 15.209C20.6524 14.8214 20.5501 14.4068 20.5215 13.984C20.7872 13.6792 21.1012 13.4202 21.4508 13.2171C22.2381 12.6793 23.1319 12.0663 23.1319 11.0724C23.1319 10.0786 22.2349 9.46773 21.4465 8.92887Z" fill="#492C82"/>
<path d="M10.4896 14.0304C10.3837 14.0306 10.2788 14.0098 10.1809 13.9692C10.0831 13.9286 9.99426 13.869 9.9196 13.7938L7.7685 11.6427C7.62601 11.4898 7.54844 11.2875 7.55213 11.0785C7.55581 10.8696 7.64047 10.6702 7.78827 10.5224C7.93606 10.3746 8.13545 10.2899 8.34444 10.2862C8.55342 10.2825 8.75567 10.3601 8.90859 10.5026L10.5649 12.159L14.3079 9.35177C14.479 9.2234 14.6941 9.16828 14.9059 9.19854C15.1177 9.2288 15.3088 9.34195 15.4372 9.5131C15.5655 9.68425 15.6207 9.89939 15.5904 10.1112C15.5601 10.323 15.447 10.5141 15.2758 10.6424L10.9736 13.8691C10.834 13.9737 10.6642 14.0303 10.4896 14.0304Z" fill="white"/>
</svg>
