<svg width="17" height="19" viewBox="0 0 17 19" fill="none" xmlns="http://www.w3.org/2000/svg">
<path d="M9.47754 17.625C9.22504 17.8552 8.88449 18 8.5 18C8.11551 18 7.77496 17.8552 7.52246 17.625H9.47754ZM8.5 1C8.63837 1 8.71387 1.10437 8.71387 1.1875V2.77832L9.51465 2.94043C11.8773 3.42045 13.5684 5.35171 13.5684 7.71875C13.5684 9.74036 13.9344 11.1399 14.4531 12.167C14.8393 12.9318 15.2996 13.4578 15.6465 13.8213L15.9492 14.1338C15.975 14.1608 15.9858 14.1825 15.9912 14.1963L16 14.2432V14.2441C15.9996 14.2855 15.9809 14.337 15.9424 14.377C15.9116 14.4089 15.8652 14.4374 15.7822 14.4375H1.21777C1.13487 14.4374 1.0884 14.4088 1.05762 14.377C1.0383 14.3569 1.02419 14.3338 1.01465 14.3105L1 14.2432C0.999892 14.2261 1.00315 14.2107 1.00879 14.1963C1.01422 14.1826 1.02569 14.1612 1.05176 14.1338L1.05078 14.1328C1.38516 13.7815 2.03196 13.1866 2.54688 12.167C3.06555 11.1399 3.43164 9.74036 3.43164 7.71875C3.43164 5.35171 5.12275 3.42045 7.48535 2.94043L8.28613 2.77832V1.1875C8.28613 1.10437 8.36163 1 8.5 1Z" stroke="#272727" stroke-width="2"/>
</svg>
