<svg width="20" height="19" viewBox="0 0 20 19" fill="none" xmlns="http://www.w3.org/2000/svg">
<path fill-rule="evenodd" clip-rule="evenodd" d="M5.88234 3.93104V1.96415C5.88234 0.87942 6.67047 0 7.64414 0H12.3559C13.3285 0 14.1177 0.881378 14.1177 1.96415V3.93104H17.6494C18.947 3.93104 20 5.10536 20 6.55016V16.3809C20 17.8267 18.9464 19 17.6493 19H2.35066C1.05297 19 0 17.8257 0 16.3809V6.55016C0 5.10432 1.05359 3.93104 2.35066 3.93104H5.88234ZM7.35293 13.1035H4.70773C3.40742 13.1035 2.35293 11.9314 2.35293 10.4846V5.24141H2.35063C1.70328 5.24141 1.17645 5.82806 1.17645 6.5502V16.3809C1.17645 17.1025 1.70301 17.6897 2.35063 17.6897H17.6493C18.2967 17.6897 18.8235 17.1031 18.8235 16.3809V6.55016C18.8235 5.82863 18.297 5.24136 17.6493 5.24136H17.647V10.4846C17.647 11.9318 16.5936 13.1035 15.2922 13.1035H12.647V13.4312C12.647 14.1553 12.1194 14.7414 11.4688 14.7414H8.53109C7.88035 14.7414 7.35289 14.1573 7.35289 13.4312V13.1035H7.35293ZM12.6471 11.7931H15.2923C15.9443 11.7931 16.4706 11.2077 16.4706 10.4846V5.24141H3.52941V10.4846C3.52941 11.2071 4.05664 11.7931 4.70777 11.7931H7.35297V11.4654C7.35297 10.7413 7.88062 10.1552 8.53117 10.1552H11.4689C12.1196 10.1552 12.6471 10.7393 12.6471 11.4654L12.6471 11.7931ZM8.52941 13.4312C8.52941 13.4319 11.4689 13.4311 11.4689 13.4311C11.4704 13.4311 11.4706 11.4654 11.4706 11.4654C11.4706 11.4647 8.53113 11.4656 8.53113 11.4656C8.52961 11.4655 8.52941 13.4312 8.52941 13.4312ZM12.9412 1.96415C12.9412 1.60426 12.678 1.31032 12.3559 1.31032H7.64414C7.3207 1.31032 7.05883 1.60252 7.05883 1.96415V3.93104H12.9412V1.96415Z" fill="#337265"/>
</svg>
