<svg width="15" height="14" viewBox="0 0 15 14" fill="none" xmlns="http://www.w3.org/2000/svg">
<path fill-rule="evenodd" clip-rule="evenodd" d="M4.39215 2.89656V1.44727C4.39215 0.647994 4.98062 0 5.70762 0H9.22571C9.95193 0 10.5412 0.649436 10.5412 1.44727V2.89656H13.1782C14.1471 2.89656 14.9333 3.76184 14.9333 4.82643V12.0701C14.9333 13.1355 14.1467 14 13.1782 14H1.75516C0.786217 14 0 13.1347 0 12.0702V4.82643C0 3.76107 0.786683 2.89656 1.75516 2.89656H4.39215ZM5.49019 9.65521H3.51511C2.54421 9.65521 1.75685 8.79156 1.75685 7.72553V3.86209H1.75513C1.27178 3.86209 0.878413 4.29436 0.878413 4.82647V12.0702C0.878413 12.6018 1.27158 13.0345 1.75513 13.0345H13.1782C13.6615 13.0345 14.0549 12.6023 14.0549 12.0702V4.82643C14.0549 4.29478 13.6617 3.86206 13.1782 3.86206H13.1765V7.72549C13.1765 8.79185 12.3899 9.65518 11.4182 9.65518H9.44312V9.89664C9.44312 10.4302 9.04913 10.8621 8.56339 10.8621H6.36988C5.884 10.8621 5.49016 10.4317 5.49016 9.89664V9.65521H5.49019ZM9.44315 8.68968H11.4182C11.9051 8.68968 12.2981 8.25834 12.2981 7.72553V3.86209H2.6353V7.72553C2.6353 8.25785 3.02896 8.68968 3.51514 8.68968H5.49022V8.44822C5.49022 7.91464 5.8842 7.48278 6.36994 7.48278H8.56345C9.04934 7.48278 9.44317 7.91316 9.44317 8.44822L9.44315 8.68968ZM6.36863 9.89667C6.36863 9.89722 8.56342 9.89657 8.56342 9.89657C8.56456 9.89657 8.5647 8.44822 8.5647 8.44822C8.5647 8.44767 6.36991 8.44831 6.36991 8.44831C6.36877 8.44828 6.36863 9.89667 6.36863 9.89667ZM9.66274 1.44727C9.66274 1.18208 9.46625 0.965498 9.22571 0.965498H5.70762C5.46613 0.965498 5.27059 1.1808 5.27059 1.44727V2.89656H9.66274V1.44727Z" fill="#1C895E"/>
</svg>
