<svg width="21" height="19" viewBox="0 0 21 19" fill="none" xmlns="http://www.w3.org/2000/svg">
<path fill-rule="evenodd" clip-rule="evenodd" d="M5.96078 3.93104V1.96415C5.96078 0.87942 6.75941 0 7.74606 0H12.5206C13.5062 0 14.3059 0.881378 14.3059 1.96415V3.93104H17.8847C19.1997 3.93104 20.2667 5.10536 20.2667 6.55016V16.3809C20.2667 17.8267 19.199 19 17.8847 19H2.38201C1.06701 19 0 17.8257 0 16.3809V6.55016C0 5.10432 1.06764 3.93104 2.38201 3.93104H5.96078ZM7.45097 13.1035H4.7705C3.45285 13.1035 2.3843 11.9314 2.3843 10.4846V5.24141H2.38197C1.72599 5.24141 1.19213 5.82806 1.19213 6.5502V16.3809C1.19213 17.1025 1.72571 17.6897 2.38197 17.6897H17.8847C18.5406 17.6897 19.0745 17.1031 19.0745 16.3809V6.55016C19.0745 5.82863 18.5409 5.24136 17.8847 5.24136H17.8823V10.4846C17.8823 11.9318 16.8149 13.1035 15.4961 13.1035H12.8157V13.4312C12.8157 14.1553 12.281 14.7414 11.6217 14.7414H8.64484C7.98542 14.7414 7.45093 14.1573 7.45093 13.4312V13.1035H7.45097ZM12.8157 11.7931H15.4962C16.1569 11.7931 16.6902 11.2077 16.6902 10.4846V5.24141H3.57647V10.4846C3.57647 11.2071 4.11073 11.7931 4.77054 11.7931H7.45101V11.4654C7.45101 10.7413 7.9857 10.1552 8.64492 10.1552H11.6218C12.2812 10.1552 12.8157 10.7393 12.8157 11.4654L12.8157 11.7931ZM8.64314 13.4312C8.64314 13.4319 11.6218 13.4311 11.6218 13.4311C11.6233 13.4311 11.6235 11.4654 11.6235 11.4654C11.6235 11.4647 8.64488 11.4656 8.64488 11.4656C8.64334 11.4655 8.64314 13.4312 8.64314 13.4312ZM13.1137 1.96415C13.1137 1.60426 12.847 1.31032 12.5206 1.31032H7.74606C7.41831 1.31032 7.15295 1.60252 7.15295 1.96415V3.93104H13.1137V1.96415Z" fill="#606060"/>
</svg>
