<svg width="20" height="20" viewBox="0 0 20 20" fill="none" xmlns="http://www.w3.org/2000/svg">
<path d="M1 7.89465C1 6.86354 1.83576 6.02778 2.86688 6.02778C3.57375 6.02778 4.22021 5.62802 4.53639 4.99566L5.36309 3.34226C5.47385 3.12073 5.52924 3.00997 5.59267 2.91431C5.75434 2.6662 5.96874 2.45681 6.22059 2.30103C6.47243 2.14526 6.75554 2.04694 7.04972 2.01309C7.16451 2 7.28837 2 7.53608 2H12.5889C12.8366 2 12.9615 2 13.0743 2.01309C13.3686 2.0468 13.6519 2.14505 13.904 2.30083C14.156 2.45661 14.3705 2.66608 14.5323 2.91431C14.5958 3.00997 14.6511 3.12073 14.7619 3.34226L15.5876 4.99566C15.7424 5.30634 15.9809 5.5676 16.2763 5.74997C16.5716 5.93233 16.912 6.02855 17.2591 6.02778C18.2892 6.02778 19.125 6.86354 19.125 7.89465V12.9324C19.125 14.9513 19.125 15.9603 18.6618 16.6984C18.4203 17.0822 18.0954 17.4068 17.7113 17.6479C16.9742 18.1111 15.9652 18.1111 13.9463 18.1111H6.17871C4.15979 18.1111 3.15083 18.1111 2.41274 17.6479C2.02888 17.4064 1.70434 17.0815 1.46319 16.6974C1 15.9603 1 14.9513 1 12.9324V7.89465Z" stroke="black"/>
<path d="M10.0624 14.5867C12.0088 14.5867 13.5867 13.0088 13.5867 11.0624C13.5867 9.11597 12.0088 7.53809 10.0624 7.53809C8.11597 7.53809 6.53809 9.11597 6.53809 11.0624C6.53809 13.0088 8.11597 14.5867 10.0624 14.5867Z" stroke="black"/>
</svg>
