<svg width="14" height="16" viewBox="0 0 14 16" fill="none" xmlns="http://www.w3.org/2000/svg">
<path d="M5.775 0H8.225C8.36424 0 8.49777 0.0555728 8.59623 0.154493C8.69469 0.253413 8.75 0.387578 8.75 0.527473C8.75 0.667367 8.69469 0.801532 8.59623 0.900452C8.49777 0.999372 8.36424 1.05495 8.225 1.05495H7.525V1.95376C8.97405 2.06082 10.3535 2.62051 11.4702 3.55446L12.404 2.61626C12.5035 2.52298 12.6352 2.47216 12.7712 2.47452C12.9073 2.47688 13.0372 2.53224 13.1334 2.62892C13.2296 2.72561 13.2847 2.85607 13.2871 2.99278C13.2894 3.1295 13.2388 3.26179 13.146 3.36176L12.2255 4.2873C13.3707 5.57423 14.0026 7.24073 14 8.96703C14 12.8513 10.8661 16 7 16C3.1339 16 8.33138e-06 12.8513 8.33138e-06 8.96703C-0.00264651 7.24073 0.629268 5.57423 1.77451 4.2873L0.854007 3.36176C0.761158 3.26179 0.710576 3.1295 0.712926 2.99278C0.715277 2.85607 0.770377 2.72561 0.866607 2.62892C0.962843 2.53224 1.09269 2.47688 1.22876 2.47452C1.36484 2.47216 1.4965 2.52298 1.59601 2.61626L2.53051 3.55446C3.64725 2.62106 5.0263 2.06143 6.475 1.95376V1.05495H5.775C5.63576 1.05495 5.50223 0.999372 5.40377 0.900452C5.30532 0.801532 5.25 0.667367 5.25 0.527473C5.25 0.387578 5.30532 0.253413 5.40377 0.154493C5.50223 0.0555728 5.63576 0 5.775 0ZM7 14.9451C7.78141 14.945 8.55516 14.7903 9.27707 14.4898C9.99898 14.1894 10.6549 13.749 11.2074 13.1938C11.7599 12.6386 12.1982 11.9795 12.4972 11.2542C12.7962 10.5288 12.95 9.75142 12.95 8.96633C12.9499 8.18124 12.796 7.40384 12.4969 6.67853C12.1978 5.95322 11.7595 5.29419 11.2069 4.73908C10.6544 4.18397 9.99837 3.74365 9.27642 3.44325C8.55448 3.14285 7.78071 2.98826 6.9993 2.98831C5.42117 2.9884 3.90772 3.61835 2.79187 4.73958C1.67603 5.86081 1.04921 7.38147 1.04931 8.96703C1.0494 10.5526 1.6764 12.0732 2.79237 13.1943C3.90834 14.3154 5.42187 14.9451 7 14.9451ZM9.821 6.13275C9.91931 6.23165 9.97453 6.36571 9.97453 6.50549C9.97453 6.64528 9.91931 6.77934 9.821 6.87824L8.1543 8.55349C8.24779 8.81671 8.24934 9.10406 8.15869 9.36827C8.06803 9.63249 7.89058 9.85784 7.65551 10.0073C7.42044 10.1567 7.14175 10.2213 6.86529 10.1904C6.58883 10.1595 6.33105 10.0351 6.13436 9.83745C5.93767 9.63983 5.81378 9.38084 5.78306 9.10308C5.75234 8.82531 5.81663 8.54532 5.96535 8.30914C6.11407 8.07296 6.33836 7.89467 6.60134 7.80359C6.86432 7.71251 7.15032 7.71407 7.4123 7.808L9.0783 6.13275C9.12705 6.08373 9.18494 6.04485 9.24866 6.01832C9.31238 5.99179 9.38068 5.97813 9.44965 5.97813C9.51862 5.97813 9.58692 5.99179 9.65063 6.01832C9.71435 6.04485 9.77224 6.08373 9.821 6.13275Z" fill="#197BFF"/>
</svg>
