<svg width="37" height="37" viewBox="0 0 37 37" fill="none" xmlns="http://www.w3.org/2000/svg">
<rect width="37" height="37" rx="5" fill="#E3E3E3"/>
<path d="M35 1.5L2 35.5" stroke="white"/>
<path d="M2 1.5L35 35.5" stroke="white"/>
<path d="M17.2926 16.1818V22H16.3551L13.6136 18.0369H13.5653V22H12.5114V16.1818H13.4545L16.1932 20.1477H16.2443V16.1818H17.2926ZM23.6399 19.0909C23.6399 19.7178 23.5225 20.2547 23.2876 20.7017C23.0547 21.1468 22.7365 21.4877 22.3331 21.7244C21.9316 21.9612 21.4761 22.0795 20.9666 22.0795C20.4571 22.0795 20.0007 21.9612 19.5973 21.7244C19.1958 21.4858 18.8776 21.1439 18.6428 20.6989C18.4098 20.2519 18.2933 19.7159 18.2933 19.0909C18.2933 18.464 18.4098 17.928 18.6428 17.483C18.8776 17.036 19.1958 16.6941 19.5973 16.4574C20.0007 16.2206 20.4571 16.1023 20.9666 16.1023C21.4761 16.1023 21.9316 16.2206 22.3331 16.4574C22.7365 16.6941 23.0547 17.036 23.2876 17.483C23.5225 17.928 23.6399 18.464 23.6399 19.0909ZM22.5803 19.0909C22.5803 18.6496 22.5111 18.2775 22.3729 17.9744C22.2365 17.6695 22.0471 17.4394 21.8047 17.2841C21.5623 17.1269 21.2829 17.0483 20.9666 17.0483C20.6503 17.0483 20.371 17.1269 20.1286 17.2841C19.8861 17.4394 19.6958 17.6695 19.5575 17.9744C19.4212 18.2775 19.353 18.6496 19.353 19.0909C19.353 19.5322 19.4212 19.9053 19.5575 20.2102C19.6958 20.5133 19.8861 20.7434 20.1286 20.9006C20.371 21.0559 20.6503 21.1335 20.9666 21.1335C21.2829 21.1335 21.5623 21.0559 21.8047 20.9006C22.0471 20.7434 22.2365 20.5133 22.3729 20.2102C22.5111 19.9053 22.5803 19.5322 22.5803 19.0909Z" fill="#E26F64"/>
</svg>
