<svg width="37" height="37" viewBox="0 0 37 37" fill="none" xmlns="http://www.w3.org/2000/svg">
<rect width="37" height="37" rx="5" fill="#E3E3E3"/>
<path d="M35 1.5L2 35.5" stroke="white"/>
<path d="M2 1.5L35 35.5" stroke="white"/>
<path d="M10.1761 16.1818H11.3665L12.7898 18.7557H12.8466L14.2699 16.1818H15.4602L13.3438 19.8295V22H12.2926V19.8295L10.1761 16.1818ZM16.2067 22V16.1818H19.9908V17.0653H17.2607V18.6449H19.7947V19.5284H17.2607V21.1165H20.0135V22H16.2067ZM24.228 17.7812C24.2015 17.5331 24.0897 17.34 23.8928 17.2017C23.6977 17.0634 23.4439 16.9943 23.1314 16.9943C22.9117 16.9943 22.7232 17.0275 22.5661 17.0938C22.4089 17.16 22.2886 17.25 22.2053 17.3636C22.1219 17.4773 22.0793 17.607 22.0774 17.7528C22.0774 17.8741 22.1049 17.9792 22.1598 18.0682C22.2166 18.1572 22.2933 18.233 22.3899 18.2955C22.4865 18.3561 22.5935 18.4072 22.7109 18.4489C22.8284 18.4905 22.9467 18.5256 23.0661 18.554L23.6115 18.6903C23.8312 18.7415 24.0424 18.8106 24.245 18.8977C24.4496 18.9848 24.6323 19.0947 24.7933 19.2273C24.9562 19.3598 25.085 19.5199 25.1797 19.7074C25.2744 19.8949 25.3217 20.1146 25.3217 20.3665C25.3217 20.7074 25.2346 21.0076 25.0604 21.267C24.8861 21.5246 24.6342 21.7263 24.3047 21.8722C23.977 22.0161 23.5803 22.0881 23.1143 22.0881C22.6617 22.0881 22.2687 22.018 21.9354 21.8778C21.6039 21.7377 21.3445 21.5331 21.157 21.2642C20.9714 20.9953 20.871 20.6676 20.8558 20.2812H21.8928C21.9079 20.4839 21.9704 20.6525 22.0803 20.7869C22.1901 20.9214 22.3331 21.0218 22.5092 21.0881C22.6873 21.1544 22.8861 21.1875 23.1058 21.1875C23.335 21.1875 23.5357 21.1534 23.7081 21.0852C23.8823 21.0152 24.0187 20.9186 24.1172 20.7955C24.2157 20.6705 24.2659 20.5246 24.2678 20.358C24.2659 20.2064 24.2214 20.0814 24.1342 19.983C24.0471 19.8826 23.925 19.7992 23.7678 19.733C23.6125 19.6648 23.4306 19.6042 23.2223 19.5511L22.5604 19.3807C22.0812 19.2576 21.7024 19.071 21.424 18.821C21.1475 18.5691 21.0092 18.2348 21.0092 17.8182C21.0092 17.4754 21.102 17.1752 21.2876 16.9176C21.4751 16.66 21.7299 16.4602 22.0518 16.3182C22.3738 16.1742 22.7384 16.1023 23.1456 16.1023C23.5585 16.1023 23.9202 16.1742 24.2308 16.3182C24.5433 16.4602 24.7886 16.6581 24.9666 16.9119C25.1446 17.1638 25.2365 17.4536 25.2422 17.7812H24.228Z" fill="#492C82"/>
</svg>
