<svg width="32" height="32" viewBox="0 0 32 32" fill="none" xmlns="http://www.w3.org/2000/svg">
<path d="M21.2804 3.97097C21.2092 3.88834 21.1081 3.83736 20.9993 3.82926C20.8905 3.82116 20.7829 3.85659 20.7003 3.92777C20.5412 4.06381 20.4134 4.23255 20.3255 4.42248C20.2376 4.61242 20.1917 4.81908 20.1909 5.02837C20.1909 5.23793 20.2369 5.44494 20.3254 5.63486C20.414 5.82478 20.5431 5.99301 20.7036 6.12773C20.7875 6.19284 20.8933 6.22299 20.9989 6.21188C21.1045 6.20076 21.2017 6.14924 21.2702 6.06809C21.3387 5.98695 21.3732 5.88246 21.3664 5.77648C21.3597 5.6705 21.3122 5.57124 21.2339 5.49947C21.1651 5.44201 21.1097 5.37015 21.0717 5.28897C21.0337 5.20779 21.0139 5.11925 21.0138 5.0296C21.0145 4.93866 21.0348 4.84893 21.0733 4.76656C21.1119 4.68418 21.1678 4.61111 21.2372 4.55234C21.2783 4.51706 21.312 4.47401 21.3365 4.42567C21.3609 4.37733 21.3755 4.32464 21.3795 4.27063C21.3835 4.21661 21.3769 4.16234 21.3598 4.11092C21.3428 4.0595 21.3158 4.01194 21.2804 3.97097Z" fill="#2C2D32"/>
<path d="M19.7921 2.84034C19.4731 3.10852 19.2167 3.44322 19.0408 3.82098C18.8648 4.19874 18.7737 4.61042 18.7737 5.02714C18.7737 5.44385 18.8648 5.85553 19.0408 6.23329C19.2167 6.61105 19.4731 6.94575 19.7921 7.21393C19.876 7.28216 19.9834 7.31462 20.091 7.30429C20.1987 7.29395 20.2979 7.24165 20.3673 7.15869C20.4367 7.07574 20.4706 6.96881 20.4617 6.86103C20.4529 6.75325 20.402 6.6533 20.32 6.58278C20.0929 6.39185 19.9103 6.15355 19.7851 5.88461C19.6599 5.61566 19.595 5.32258 19.595 5.0259C19.595 4.72922 19.6599 4.43614 19.7851 4.16719C19.9103 3.89825 20.0929 3.65995 20.32 3.46902C20.4033 3.39858 20.4553 3.29791 20.4644 3.18915C20.4736 3.0804 20.4392 2.97246 20.3687 2.8891C20.2983 2.80573 20.1976 2.75376 20.0889 2.74461C19.9801 2.73547 19.8722 2.7699 19.7888 2.84034H19.7921Z" fill="#2C2D32"/>
<path d="M23.3649 6.08285C23.4364 6.16519 23.5377 6.21577 23.6465 6.22349C23.7553 6.2312 23.8627 6.19542 23.9451 6.12399C24.1041 5.98794 24.2318 5.81918 24.3197 5.62924C24.4075 5.43931 24.4533 5.23266 24.454 5.02339C24.4536 4.81421 24.4075 4.60764 24.3189 4.41816C24.2302 4.22868 24.1013 4.06087 23.9409 3.9265C23.8569 3.86325 23.7519 3.83456 23.6474 3.84634C23.5429 3.85811 23.4469 3.90945 23.3791 3.98981C23.3112 4.07017 23.2767 4.17345 23.2827 4.27844C23.2886 4.38343 23.3346 4.48216 23.411 4.55435C23.4798 4.61185 23.5351 4.68371 23.5732 4.76488C23.6112 4.84606 23.631 4.93458 23.6311 5.02422C23.6303 5.11548 23.6098 5.20549 23.5709 5.28808C23.5321 5.37068 23.4759 5.44389 23.4061 5.50272C23.3237 5.57422 23.2732 5.67549 23.2654 5.78427C23.2577 5.89305 23.2935 6.00044 23.3649 6.08285Z" fill="#2C2D32"/>
<path d="M24.3217 6.58325C24.2794 6.61777 24.2444 6.66038 24.2187 6.70857C24.193 6.75677 24.1772 6.80959 24.1722 6.86397C24.1671 6.91834 24.1729 6.97318 24.1893 7.02528C24.2057 7.07738 24.2322 7.12571 24.2675 7.16743C24.3027 7.20916 24.3459 7.24346 24.3945 7.26832C24.4431 7.29319 24.4962 7.30813 24.5506 7.31227C24.6051 7.31641 24.6598 7.30967 24.7117 7.29244C24.7635 7.27522 24.8113 7.24784 24.8525 7.21192C25.1715 6.94379 25.428 6.6091 25.604 6.23133C25.7799 5.85356 25.8711 5.44187 25.8711 5.02513C25.8711 4.60839 25.7799 4.19669 25.604 3.81893C25.428 3.44116 25.1715 3.10647 24.8525 2.83833C24.7686 2.7701 24.6612 2.73764 24.5535 2.74798C24.4459 2.75832 24.3467 2.81062 24.2773 2.89357C24.2079 2.97652 24.174 3.08345 24.1828 3.19123C24.1917 3.29901 24.2426 3.39897 24.3246 3.46948C24.5517 3.66038 24.7343 3.89866 24.8596 4.16761C24.9849 4.43656 25.0498 4.72966 25.0498 5.02636C25.0498 5.32306 24.9849 5.61617 24.8596 5.88512C24.7343 6.15407 24.5517 6.39235 24.3246 6.58325H24.3217Z" fill="#2C2D32"/>
<path d="M22.3226 5.59337C22.4345 5.59337 22.5439 5.56018 22.6369 5.498C22.7299 5.43582 22.8025 5.34744 22.8453 5.24404C22.8881 5.14064 22.8993 5.02687 22.8774 4.91712C22.8555 4.80737 22.8016 4.70657 22.7224 4.62747C22.6433 4.54836 22.5424 4.49452 22.4327 4.47273C22.3229 4.45095 22.2092 4.46221 22.1058 4.5051C22.0024 4.54798 21.9141 4.62055 21.852 4.71364C21.7899 4.80673 21.7568 4.91615 21.7568 5.02805C21.7571 5.17799 21.8167 5.32172 21.9228 5.4277C22.0289 5.53368 22.1726 5.59326 22.3226 5.59337ZM22.3226 4.77049C22.3735 4.77049 22.4233 4.7856 22.4657 4.8139C22.508 4.8422 22.541 4.88243 22.5605 4.92949C22.58 4.97655 22.5851 5.02834 22.5752 5.0783C22.5652 5.12826 22.5407 5.17416 22.5047 5.21018C22.4687 5.2462 22.4228 5.27073 22.3728 5.28067C22.3228 5.2906 22.2711 5.2855 22.224 5.26601C22.1769 5.24651 22.1367 5.2135 22.1084 5.17115C22.0801 5.12879 22.065 5.07899 22.065 5.02805C22.065 4.95974 22.0921 4.89423 22.1404 4.84593C22.1887 4.79763 22.2543 4.77049 22.3226 4.77049Z" fill="#2C2D32"/>
<path d="M5.89728 26.6057C5.78816 26.6057 5.68351 26.649 5.60635 26.7262C5.52919 26.8034 5.48584 26.908 5.48584 27.0171C5.48584 27.1263 5.52919 27.2309 5.60635 27.3081C5.68351 27.3852 5.78816 27.4286 5.89728 27.4286H26.2676C26.3767 27.4286 26.4814 27.3852 26.5585 27.3081C26.6357 27.2309 26.679 27.1263 26.679 27.0171C26.679 26.908 26.6357 26.8034 26.5585 26.7262C26.4814 26.649 26.3767 26.6057 26.2676 26.6057H24.6905V18.9077H25.3999C25.509 18.9077 25.6136 18.8643 25.6908 18.7872C25.768 18.71 25.8113 18.6054 25.8113 18.4962V16.8957C25.8113 16.7866 25.768 16.682 25.6908 16.6048C25.6136 16.5277 25.509 16.4843 25.3999 16.4843H23.8862V16.1811C23.8892 15.8382 23.7774 15.5041 23.5687 15.232C23.3599 14.96 23.0662 14.7656 22.7342 14.6797V9.11133C22.7342 9.00221 22.6908 8.89756 22.6137 8.8204C22.5365 8.74324 22.4318 8.6999 22.3227 8.6999C22.2136 8.6999 22.1089 8.74324 22.0318 8.8204C21.9546 8.89756 21.9113 9.00221 21.9113 9.11133V14.6802C21.5815 14.7701 21.2903 14.9657 21.0822 15.2369C20.8741 15.5081 20.7607 15.8401 20.7593 16.1819V16.4843H13.6582L13.5476 14.9904H16.5889C16.9209 14.9901 17.2392 14.8581 17.474 14.6233C17.7088 14.3886 17.8409 14.0704 17.8413 13.7384V8.35347C17.8404 8.02183 17.708 7.7041 17.4733 7.46983C17.2385 7.23556 16.9206 7.10384 16.5889 7.10352H8.08819C7.7562 7.10384 7.43789 7.23584 7.2031 7.47056C6.96831 7.70527 6.8362 8.02353 6.83577 8.35552V13.7413C6.8362 14.0732 6.96831 14.3915 7.2031 14.6262C7.43789 14.8609 7.7562 14.9929 8.08819 14.9933H11.1328L11.0217 16.4843H7.06C6.95088 16.4843 6.84623 16.5277 6.76907 16.6048C6.69191 16.682 6.64856 16.7866 6.64856 16.8957V18.4962C6.64856 18.6054 6.69191 18.71 6.76907 18.7872C6.84623 18.8643 6.95088 18.9077 7.06 18.9077H7.77138V26.6057H5.89728ZM23.8677 23.64H18.7568V21.5907H23.8677V23.64ZM18.7564 24.4629H23.8677V26.6057H18.7568L18.7564 24.4629ZM23.8677 20.7678H18.7568V18.9077H23.8677V20.7678ZM21.5817 16.1819C21.5817 15.9855 21.6597 15.7971 21.7986 15.6582C21.9375 15.5193 22.1259 15.4413 22.3223 15.4413C22.5187 15.4413 22.7071 15.5193 22.846 15.6582C22.9849 15.7971 23.0629 15.9855 23.0629 16.1819V16.4843H21.5817V16.1819ZM8.08654 14.1683C7.97272 14.1682 7.86359 14.123 7.78308 14.0425C7.70256 13.9621 7.65722 13.853 7.657 13.7392V8.35347C7.65776 8.23972 7.70357 8.13091 7.78438 8.05087C7.8652 7.97082 7.97444 7.92606 8.08819 7.92639H16.5889C16.7027 7.9265 16.8119 7.97173 16.8924 8.05218C16.9729 8.13262 17.0182 8.24171 17.0185 8.35552V13.7413C17.0182 13.8551 16.9729 13.9642 16.8924 14.0446C16.8119 14.125 16.7027 14.1703 16.5889 14.1704H13.4867L13.3941 12.9213C13.3744 12.655 13.2548 12.4061 13.0592 12.2245C12.8636 12.0428 12.6065 11.9418 12.3396 11.9418C12.0726 11.9418 11.8156 12.0428 11.62 12.2245C11.4244 12.4061 11.3048 12.655 11.2851 12.9213L11.1925 14.1704L8.08654 14.1683ZM12.1038 12.9801C12.1088 12.9214 12.1356 12.8667 12.1789 12.8268C12.2223 12.7869 12.279 12.7648 12.3379 12.7648C12.3968 12.7648 12.4536 12.7869 12.497 12.8268C12.5403 12.8667 12.5671 12.9214 12.572 12.9801L12.6901 14.5769V14.5798V14.5855L12.8321 16.4843H11.8446L12.1038 12.9801ZM7.47144 17.3072H21.1584C21.1625 17.3072 21.1662 17.3097 21.1703 17.3097C21.175 17.3092 21.1797 17.3083 21.1843 17.3072H23.4649C23.469 17.3072 23.4727 17.3097 23.4768 17.3097C23.4807 17.3091 23.4845 17.3082 23.4883 17.3072H24.9901V18.0848H7.47144V17.3072ZM17.9339 18.9077V26.6057H8.59426V18.9077H17.9339Z" fill="#2C2D32"/>
</svg>
