<svg width="31" height="30" viewBox="0 0 31 30" fill="none" xmlns="http://www.w3.org/2000/svg">
<path d="M15.4976 30C23.7687 30 30.4976 23.2711 30.4976 15C30.4976 6.7289 23.7687 0 15.4976 0C7.22646 0 0.497559 6.7289 0.497559 15C0.497559 23.2711 7.22646 30 15.4976 30Z" fill="#FFD500"/>
<path d="M15.4976 0V30C23.7687 30 30.4976 23.2711 30.4976 15C30.4976 6.7289 23.7687 0 15.4976 0Z" fill="#FFC300"/>
<path d="M15.4977 28.1634C22.756 28.1634 28.661 22.2584 28.661 15.0002C28.661 7.74191 22.756 1.83691 15.4977 1.83691C8.23947 1.83691 2.33447 7.74191 2.33447 15.0002C2.33447 22.2584 8.23947 28.1634 15.4977 28.1634Z" fill="#FFC300"/>
<path d="M15.4976 1.83691V28.1634C22.7558 28.1634 28.6608 22.2584 28.6608 15.0002C28.6608 7.74191 22.7558 1.83691 15.4976 1.83691Z" fill="#FAB400"/>
<path d="M19.6526 15.0001C20.48 14.2947 21.0078 13.2318 21.0078 12.0445C21.0078 10.2311 19.7766 8.70804 18.1267 8.30648V7.31541C18.1267 6.82565 17.7398 6.42871 17.2623 6.42871C16.7849 6.42871 16.398 6.82565 16.398 7.31541V8.20211H14.6693V7.31541C14.6693 6.82565 14.2824 6.42871 13.805 6.42871C13.3275 6.42871 12.9406 6.82565 12.9406 7.31541V8.20211H12.0763C11.5988 8.20211 11.2119 8.59905 11.2119 9.08881V20.9115C11.2119 21.4012 11.5988 21.7982 12.0763 21.7982H12.9406V22.6849C12.9406 23.1746 13.3275 23.5716 13.805 23.5716C14.2824 23.5716 14.6693 23.1746 14.6693 22.6849V21.7982H16.398V22.6849C16.398 23.1746 16.7849 23.5716 17.2623 23.5716C17.7398 23.5716 18.1267 23.1746 18.1267 22.6849V21.6938C19.7766 21.2922 21.0078 19.7694 21.0078 17.9558C21.0078 16.7685 20.48 15.7056 19.6526 15.0001ZM12.9406 9.97551H17.2623C18.3745 9.97551 19.2791 10.9035 19.2791 12.0445C19.2791 13.1854 18.3745 14.1134 17.2623 14.1134H12.9406V9.97551ZM17.2623 20.0248H12.9406V15.8868H17.2623C18.3745 15.8868 19.2791 16.8149 19.2791 17.9558C19.2791 19.0967 18.3745 20.0248 17.2623 20.0248Z" fill="#2D2D55"/>
<path d="M21.0078 12.0445C21.0078 10.2311 19.7684 8.70804 18.1077 8.30648V7.31541C18.1077 6.82565 17.7182 6.42871 17.2376 6.42871C16.7571 6.42871 16.3676 6.82565 16.3676 7.31541V8.20211H15.4976V9.97551H17.2376C18.3571 9.97551 19.2677 10.9035 19.2677 12.0445C19.2677 13.1854 18.3571 14.1134 17.2376 14.1134H15.4976V15.8868H17.2376C18.3571 15.8868 19.2677 16.8149 19.2677 17.9558C19.2677 19.0967 18.3571 20.0248 17.2376 20.0248H15.4976V21.7982H16.3676V22.6849C16.3676 23.1746 16.7571 23.5716 17.2376 23.5716C17.7182 23.5716 18.1077 23.1746 18.1077 22.6849V21.6938C19.7684 21.2922 21.0078 19.7694 21.0078 17.9558C21.0078 16.7685 20.4765 15.7056 19.6436 15.0001C20.4765 14.2947 21.0078 13.2318 21.0078 12.0445Z" fill="#0A0A48"/>
</svg>
