<svg
                    width="83"
                    height="79"
                    viewBox="0 0 83 79"
                    fill="none"
                    xmlns="http://www.w3.org/2000/svg"
                  >
                    <g filter="url(#filter0_d_989_2046)">
                      <path
                        d="M80.6374 51.9979C80.4122 55.8596 80.083 59.7213 79.6498 63.5831C79.3003 66.6872 77.8413 69.5842 75.5158 71.7916C73.1903 73.9991 70.1384 75.384 66.8683 75.7159C50.0025 77.428 32.9925 77.428 16.1267 75.7159C12.8565 75.384 9.80469 73.9991 7.47917 71.7916C5.15364 69.5842 3.69468 66.6872 3.34511 63.5831C2.90849 59.7246 2.57929 55.8629 2.35752 51.9979C1.87411 43.6723 1.87411 35.3277 2.35752 27.0021C2.57929 23.1404 2.90849 19.2787 3.34511 15.4169C3.69468 12.3128 5.15364 9.41585 7.47917 7.20835C9.80469 5.00086 12.8565 3.61596 16.1267 3.28414C32.9925 1.57195 50.0025 1.57195 66.8683 3.28414C70.1384 3.61596 73.1903 5.00086 75.5158 7.20835C77.8413 9.41585 79.3003 12.3128 79.6498 15.4169C80.0865 19.2754 80.4157 23.1371 80.6374 27.0021C81.1208 35.3277 81.1208 43.6723 80.6374 51.9979Z"
                        fill="white"
                      />
                    </g>
                    <defs>
                      <filter
                        id="filter0_d_989_2046"
                        x="-0.0050354"
                        y="0"
                        width="83.005"
                        height="79"
                        filterUnits="userSpaceOnUse"
                        colorInterpolationFilters="sRGB"
                      >
                        <feFlood floodOpacity="0" result="BackgroundImageFix" />
                        <feColorMatrix
                          in="SourceAlpha"
                          type="matrix"
                          values="0 0 0 0 0 0 0 0 0 0 0 0 0 0 0 0 0 0 127 0"
                          result="hardAlpha"
                        />
                        <feOffset />
                        <feGaussianBlur stdDeviation="1" />
                        <feComposite in2="hardAlpha" operator="out" />
                        <feColorMatrix
                          type="matrix"
                          values="0 0 0 0 0 0 0 0 0 0 0 0 0 0 0 0 0 0 0.2 0"
                        />
                        <feBlend
                          mode="normal"
                          in2="BackgroundImageFix"
                          result="effect1_dropShadow_989_2046"
                        />
                        <feBlend
                          mode="normal"
                          in="SourceGraphic"
                          in2="effect1_dropShadow_989_2046"
                          result="shape"
                        />
                      </filter>
                    </defs>
                  </svg>