<svg width="56" height="56" viewBox="0 0 56 56" fill="none" xmlns="http://www.w3.org/2000/svg">
<rect width="56" height="56" rx="28" fill="#CBCBCB"/>
<rect x="3.5" y="3.5" width="49" height="49" rx="24.5" fill="#CBCBCB"/>
<rect x="3.5" y="3.5" width="49" height="49" rx="24.5" stroke="white" stroke-width="3"/>
<path d="M50.6252 18.4412C49.3883 15.517 47.618 12.8911 45.3634 10.6365C43.1088 8.38193 40.4829 6.61163 37.5587 5.37477C34.5302 4.09383 31.3142 3.44434 28 3.44434C24.6858 3.44434 21.4698 4.09383 18.4414 5.37477C15.5171 6.61163 12.8912 8.38193 10.6366 10.6365C8.38205 12.8911 6.61175 15.517 5.37489 18.4412C4.09396 21.4697 3.44446 24.6857 3.44446 27.9999C3.44446 31.3141 4.09396 34.5301 5.37489 37.5586C6.61175 40.4828 8.38205 43.1087 10.6366 45.3633C11.1396 45.8663 11.6613 46.3451 12.2005 46.7994L12.7117 45.1024C13.1444 43.4214 13.8492 41.8317 14.8064 40.3776C15.7472 38.9484 16.9071 37.6873 18.2538 36.6291C19.6145 35.5598 21.1288 34.7273 22.7547 34.1547C24.4369 33.5622 26.2017 33.2618 28 33.2618C29.7983 33.2618 31.5631 33.5622 33.2453 34.1547C34.8713 34.7273 36.3856 35.5598 37.7463 36.6291C39.0929 37.6873 40.2528 38.9484 41.1936 40.3776C42.1509 41.8317 42.8557 43.4214 43.2883 45.1024L43.7474 46.8429C44.3051 46.3757 44.8442 45.8825 45.3634 45.3633C47.618 43.1087 49.3883 40.4828 50.6252 37.5586C51.9061 34.5301 52.5556 31.3141 52.5556 27.9999C52.5556 24.6857 51.9061 21.4697 50.6252 18.4412Z" fill="#CBCBCB"/>
<path d="M43.2884 45.1023C42.8557 43.4213 42.151 41.8316 41.1937 40.3775C40.2529 38.9483 39.093 37.6872 37.7464 36.629C36.3856 35.5597 34.8713 34.7272 33.2454 34.1546C31.5632 33.5621 29.7984 33.2617 28.0001 33.2617C26.2018 33.2617 24.437 33.5621 22.7548 34.1546C21.1289 34.7272 19.6145 35.5597 18.2538 36.629C16.9072 37.6872 15.7473 38.9483 14.8065 40.3775C13.8492 41.8317 13.1445 43.4213 12.7118 45.1023L12.2006 46.7993C12.4507 47.01 12.7048 47.2153 12.9625 47.4154C14.6388 48.717 16.4723 49.7921 18.4414 50.625C21.4699 51.9059 24.6859 52.5554 28.0001 52.5554C31.3143 52.5554 34.5303 51.9059 37.5588 50.625C39.6899 49.7236 41.6624 48.5385 43.4484 47.0895C43.5487 47.0081 43.6484 46.9259 43.7475 46.8428L43.2884 45.1023Z" fill="#F2F2F2"/>
<path d="M36.08 19.1116C35.6382 18.067 35.0061 17.1293 34.2013 16.3245C33.3964 15.5196 32.4587 14.8875 31.4142 14.4458C30.3319 13.988 29.1832 13.7559 28.0001 13.7559C26.8169 13.7559 25.6682 13.988 24.5859 14.4458C23.5414 14.8876 22.6037 15.5196 21.7988 16.3245C20.994 17.1293 20.3619 18.067 19.9201 19.1116C19.4623 20.1939 19.2302 21.3426 19.2302 22.5257C19.2302 23.7089 19.4623 24.8575 19.9201 25.9399C20.3619 26.9844 20.994 27.9221 21.7988 28.7269C22.6037 29.5318 23.5414 30.1639 24.5859 30.6056C25.6682 31.0634 26.8169 31.2956 28.0001 31.2956C29.1832 31.2956 30.3319 31.0635 31.4142 30.6056C32.4587 30.1639 33.3964 29.5318 34.2013 28.7269C35.0061 27.9221 35.6382 26.9844 36.08 25.9399C36.5378 24.8576 36.7699 23.7089 36.7699 22.5257C36.7699 21.3426 36.5378 20.1939 36.08 19.1116Z" fill="#F2F2F2"/>
</svg>
