<svg width="57" height="54" viewBox="0 0 57 54" fill="none" xmlns="http://www.w3.org/2000/svg">
<path d="M56.7384 35.9985C56.5759 38.7789 56.3384 41.5594 56.0259 44.3398C55.7737 46.5748 54.7211 48.6606 53.0433 50.25C51.3655 51.8394 49.1637 52.8365 46.8043 53.0754C34.6361 54.3082 22.3639 54.3082 10.1956 53.0754C7.83632 52.8365 5.63451 51.8394 3.9567 50.25C2.2789 48.6606 1.2263 46.5748 0.974096 44.3398C0.659086 41.5617 0.421578 38.7813 0.261573 35.9985C-0.087191 30.0041 -0.087191 23.9959 0.261573 18.0015C0.421578 15.2211 0.659086 12.4406 0.974096 9.6602C1.2263 7.42519 2.2789 5.33941 3.9567 3.75002C5.63451 2.16062 7.83632 1.16349 10.1956 0.924577C22.3639 -0.308192 34.6361 -0.308192 46.8043 0.924577C49.1637 1.16349 51.3655 2.16062 53.0433 3.75002C54.7211 5.33941 55.7737 7.42519 56.0259 9.6602C56.3409 12.4383 56.5784 15.2187 56.7384 18.0015C57.0872 23.9959 57.0872 30.0041 56.7384 35.9985Z" fill="#AEAEAE"/>
</svg>
