<svg width="11" height="11" viewBox="0 0 11 11" fill="none" xmlns="http://www.w3.org/2000/svg">
<path fill-rule="evenodd" clip-rule="evenodd" d="M6.46138 0.347303C6.67117 0.137481 6.95201 0.0139526 7.24845 0.00111167C7.54488 -0.0117293 7.83535 0.0870507 8.0625 0.277945L8.13778 0.347303L10.653 2.86257C10.8626 3.07234 10.986 3.35307 10.9989 3.64937C11.0117 3.94567 10.9131 4.23603 10.7223 4.46314L10.653 4.53902L4.53897 10.6532C4.34215 10.85 4.08236 10.9713 3.8051 10.9959L3.70077 11H0.598715C0.451215 11 0.308906 10.9456 0.199075 10.8471C0.0892438 10.7486 0.0196211 10.6131 0.00355675 10.4665L0 10.4013V7.29912C6.80111e-05 7.02077 0.0980673 6.75132 0.276832 6.53796L0.347966 6.4609L6.46138 0.347303ZM5.43823 3.04694L1.18557 7.29972V9.81439H3.70136L7.95402 5.56161L5.43882 3.04634L5.43823 3.04694ZM7.29958 1.18553L6.27643 2.20871L8.79163 4.72398L9.81478 3.7008L7.29958 1.18553Z" fill="#5F5F5F"/>
</svg>
