<svg width="31" height="30" viewBox="0 0 31 30" fill="none" xmlns="http://www.w3.org/2000/svg">
<path d="M15.4804 30C23.774 30 30.4976 23.2765 30.4976 14.983C30.4976 6.72351 23.774 0 15.4804 0C7.18698 0 0.497559 6.72351 0.497559 14.983C0.497559 23.2765 7.18698 30 15.4804 30ZM15.4804 29.5563C13.6716 29.5563 11.9651 29.2492 10.3951 28.6348C11.1801 28.3276 11.8286 27.9181 12.3064 27.4402C13.3644 27.6791 14.559 27.7815 15.7535 27.7815C16.914 27.7474 18.0744 27.6108 19.0641 27.3378L21.2143 28.3958C19.4737 29.1468 17.5282 29.5563 15.4804 29.5563ZM30.0539 14.6417V14.983C30.0539 18.3276 28.9275 21.3652 27.0504 23.8225C27.0163 23.0717 26.9139 22.2867 26.6409 21.4676C27.1528 20.5802 27.6989 19.5222 28.0743 18.3276C28.3814 17.4061 28.5863 16.4505 28.6545 15.4949C29.2006 15.3242 29.6443 15.0512 30.0539 14.6417ZM27.7671 18.2594C27.3917 19.3856 26.8797 20.4436 26.3678 21.2969C25.0368 22.2867 23.5692 22.7986 21.931 22.7986C21.931 22.7645 21.8968 22.7304 21.8968 22.6962L19.1665 18.1228C19.1323 18.0887 19.0982 18.0545 19.064 18.0545L20.9753 12.3208H21.0436L25.7194 10.9897C25.7535 10.9897 25.7876 10.9556 25.7876 10.9556C27.0846 12.3208 27.9378 13.8225 28.3474 15.4607C28.2791 16.3822 28.0743 17.3379 27.7671 18.2594ZM26.9139 5.93853C26.5384 5.76786 26.163 5.66551 25.7876 5.56309V5.529C25.0367 4.70986 24.0811 3.89079 23.023 3.20816C22.1357 2.66212 21.2142 2.18425 20.2586 1.91123C20.0879 1.60412 19.849 1.29693 19.6101 1.02391C22.5453 1.87714 25.0708 3.6177 26.9139 5.93853ZM15.9241 6.04095C15.9241 5.18772 15.9241 4.36858 15.9241 3.68602C17.1528 2.93514 18.5863 2.49144 20.1221 2.18425C21.0436 2.45735 21.9993 2.93514 22.8525 3.48119C23.8764 4.12965 24.7979 4.91463 25.5488 5.7337C25.9925 7.50849 25.8218 9.07844 25.6853 10.6825H25.6512L20.9754 12.0136C20.9413 12.0136 20.9072 12.0477 20.9072 12.0818C19.2348 10.7849 17.5966 9.52214 15.9242 8.2593C15.9241 7.64507 15.9241 6.82593 15.9241 6.04095ZM18.8593 18.2253C18.8593 18.2253 18.8934 18.2594 18.8934 18.2935L21.6238 22.8669C21.6579 22.901 21.6921 22.9351 21.7262 22.9351C21.146 24.5393 20.3269 25.9386 18.9616 27.0308C18.006 27.3038 16.8797 27.4403 15.7535 27.4745C14.5248 27.4745 13.2961 27.338 12.2381 27.099C10.7705 26.1434 9.7466 24.7782 9.30291 22.9351C9.33707 22.9351 9.37123 22.901 9.37123 22.8669L12.4088 18.157V18.1229C14.593 18.5666 16.7433 18.5666 18.8593 18.2253ZM15.5829 3.68602C15.5829 4.40275 15.617 5.22181 15.617 6.04095V8.22528L10.4634 11.843C10.4293 11.8088 10.3951 11.8088 10.361 11.7747C9.64433 11.6382 8.82519 11.5017 8.00605 11.3651C7.25523 11.2286 6.50435 11.0921 5.75354 10.9556C5.24158 9.48797 5.07091 7.91802 5.20749 6.27981L5.24158 6.24572C5.99247 5.35833 6.91396 4.471 7.9037 3.75428C8.85935 3.10581 9.88326 2.59386 10.873 2.28667H10.9071C12.477 2.35493 14.047 2.76454 15.5829 3.68602ZM11.0094 1.12633C10.8388 1.39935 10.7364 1.70646 10.634 2.04782C9.64425 2.35493 8.65451 2.86688 7.73302 3.51535C6.70919 4.23207 5.75354 5.11947 5.00265 6.04095C4.52479 6.14337 4.047 6.34814 3.56921 6.587C5.37809 4.02723 7.97188 2.08191 11.0094 1.12633ZM4.047 23.9932C2.06744 21.5359 0.907021 18.3959 0.907021 14.983C0.907021 14.5393 0.941185 14.1297 0.975277 13.686C1.35072 14.4027 1.89677 14.983 2.5453 15.4267C2.61356 16.4847 2.78416 17.5768 3.05726 18.6348C3.39853 19.727 3.80807 20.785 4.35419 21.6383C4.18351 22.4232 4.08109 23.2082 4.047 23.9932ZM4.66137 21.5359C4.11533 20.6826 3.67163 19.6246 3.36444 18.5325C3.05733 17.4403 2.88665 16.2799 2.85249 15.2219C3.56921 13.6178 4.4907 12.3209 5.61702 11.2287C6.33375 11.3653 7.15288 11.5018 7.93786 11.6724C8.72284 11.809 9.50782 11.9455 10.2928 12.1161C10.327 12.1161 10.3611 12.1161 10.3952 12.082C10.9754 14.0274 11.6239 15.9728 12.2383 17.9182C12.2041 17.9523 12.1699 17.9523 12.1358 17.9865L9.13237 22.6964C9.09828 22.7305 9.09828 22.7646 9.09828 22.7988C7.59651 22.7305 6.09489 22.4575 4.69561 21.6042C4.69554 21.57 4.69554 21.5359 4.66137 21.5359Z" fill="#141515"/>
</svg>
