<svg width="20" height="20" viewBox="0 0 20 20" fill="none" xmlns="http://www.w3.org/2000/svg">
<g clip-path="url(#clip0_1930_5074)">
<path d="M14.9169 2.71423C14.6804 1.84683 13.9356 1.22028 13 1.15299C11.9046 1.07414 10.2847 1 8.07118 1C5.87097 1 4.25789 1.07328 3.16292 1.15171C2.06711 1.22971 1.22928 2.06711 1.15128 3.16335C1.07285 4.25832 1 5.87183 1 8.07118C1 10.2847 1.07457 11.9042 1.15299 12.9996C1.22028 13.9351 1.84726 14.6804 2.71423 14.9165" stroke="black" stroke-linecap="round" stroke-linejoin="round"/>
<path d="M5.00864 7.01937C5.08664 5.92355 5.92404 5.08658 7.02029 5.00815C8.11482 4.9293 9.72834 4.85645 11.9281 4.85645C14.1279 4.85645 15.741 4.92973 16.8359 5.00815C17.9322 5.08615 18.7696 5.92355 18.8476 7.0198C18.926 8.11476 18.9993 9.72828 18.9993 11.9276C18.9993 14.1274 18.926 15.7405 18.8476 16.8359C18.7696 17.9317 17.9322 18.7687 16.8359 18.8471C15.741 18.9255 14.1275 18.9988 11.9281 18.9988C9.72834 18.9988 8.11525 18.9255 7.01986 18.8471C5.92404 18.7691 5.08707 17.9317 5.00864 16.8355C4.92979 15.7409 4.85693 14.1274 4.85693 11.9276C4.85693 9.72785 4.93022 8.11476 5.00864 7.01937Z" stroke="black" stroke-linecap="round" stroke-linejoin="round"/>
<path d="M18.933 15.3096C17.9666 14.4036 17.2702 13.8002 16.7867 13.4051C16.2133 12.9358 15.4574 12.8677 14.8398 13.2795C14.3641 13.5967 13.711 14.0809 12.8577 14.8133C11.5892 13.6001 10.715 12.8377 10.1416 12.3684C9.56814 11.8991 8.81217 11.8314 8.19462 12.2428C7.50036 12.7057 6.42768 13.5251 4.90845 14.9505M13.4277 9.14309C13.4277 9.48407 13.5632 9.81109 13.8043 10.0522C14.0454 10.2933 14.3724 10.4288 14.7134 10.4288C15.0544 10.4288 15.3814 10.2933 15.6225 10.0522C15.8636 9.81109 15.9991 9.48407 15.9991 9.14309C15.9991 8.80211 15.8636 8.4751 15.6225 8.23399C15.3814 7.99288 15.0544 7.85742 14.7134 7.85742C14.3724 7.85742 14.0454 7.99288 13.8043 8.23399C13.5632 8.4751 13.4277 8.80211 13.4277 9.14309Z" stroke="black" stroke-linecap="round" stroke-linejoin="round"/>
</g>
<defs>
<clipPath id="clip0_1930_5074">
<rect width="20" height="20" fill="white"/>
</clipPath>
</defs>
</svg>
