<svg width="13" height="12" viewBox="0 0 13 12" fill="none" xmlns="http://www.w3.org/2000/svg">
<path d="M0.464286 2.20408H12.5357C12.7921 2.20408 13 1.98481 13 1.71429V0.489796C13 0.219276 12.7921 0 12.5357 0H0.464286C0.207855 0 0 0.219276 0 0.489796V1.71429C0 1.98481 0.207855 2.20408 0.464286 2.20408ZM0.464286 7.10204H12.5357C12.7921 7.10204 13 6.88277 13 6.61225V5.38776C13 5.11723 12.7921 4.89796 12.5357 4.89796H0.464286C0.207855 4.89796 0 5.11723 0 5.38776V6.61225C0 6.88277 0.207855 7.10204 0.464286 7.10204ZM0.464286 12H12.5357C12.7921 12 13 11.7807 13 11.5102V10.2857C13 10.0152 12.7921 9.79592 12.5357 9.79592H0.464286C0.207855 9.79592 0 10.0152 0 10.2857V11.5102C0 11.7807 0.207855 12 0.464286 12Z" fill="#272727"/>
</svg>
