<svg width="19" height="18" viewBox="0 0 19 18" fill="none" xmlns="http://www.w3.org/2000/svg">
<path d="M2.96875 7.125C2.33886 7.125 1.73477 7.37522 1.28937 7.82062C0.843972 8.26602 0.59375 8.87011 0.59375 9.5V11.875C0.59375 12.5049 0.843972 13.109 1.28937 13.5544C1.73477 13.9998 2.33886 14.25 2.96875 14.25H3.5625C3.71997 14.25 3.871 14.1874 3.98234 14.0761C4.09369 13.9647 4.15625 13.8137 4.15625 13.6563V7.71875C4.15625 7.56128 4.09369 7.41026 3.98234 7.29891C3.871 7.18756 3.71997 7.125 3.5625 7.125H2.96875ZM2.96875 7.125C2.96875 5.3928 3.65686 3.73156 4.88171 2.50671C6.10656 1.28186 7.76781 0.59375 9.5 0.59375C11.2322 0.59375 12.8934 1.28186 14.1183 2.50671C15.3431 3.73156 16.0313 5.3928 16.0313 7.125M16.0313 14.25H15.4375C15.28 14.25 15.129 14.1874 15.0177 14.0761C14.9063 13.9647 14.8438 13.8137 14.8438 13.6563V7.71875C14.8438 7.56128 14.9063 7.41026 15.0177 7.29891C15.129 7.18756 15.28 7.125 15.4375 7.125H16.0313M16.0313 14.25C16.6611 14.25 17.2652 13.9998 17.7106 13.5544C18.156 13.109 18.4063 12.5049 18.4063 11.875V9.5C18.4063 8.87011 18.156 8.26602 17.7106 7.82062C17.2652 7.37522 16.6611 7.125 16.0313 7.125M16.0313 14.25V14.8438C16.0313 15.4736 15.781 16.0777 15.3356 16.5231C14.8902 16.9685 14.2861 17.2188 13.6563 17.2188H11.875" stroke="black" stroke-width="1.5" stroke-linecap="round" stroke-linejoin="round"/>
</svg>
