<svg width="22" height="22" viewBox="0 0 22 22" fill="none" xmlns="http://www.w3.org/2000/svg">
<rect x="0.75" y="0.75" width="20.5" height="20.5" rx="5.25" fill="white"/>
<rect x="0.75" y="0.75" width="20.5" height="20.5" rx="5.25" stroke="#CBCBCB" stroke-width="0.5"/>
<path d="M7.84973 8.286V16H6.71573V8.286H5.46973V7.292H6.61773C6.36573 6.816 6.21173 6.326 6.21173 5.766C6.21173 4.352 7.30373 3.456 9.12373 3.456C11.7277 3.456 13.8557 4.912 15.2837 7.39H14.1077C12.9457 5.542 11.2097 4.45 9.30573 4.45C8.07373 4.45 7.34573 5.024 7.34573 5.976C7.34573 6.494 7.52773 6.9 7.76573 7.292H9.29173V8.286H7.84973ZM13.7548 15.104C14.4128 14.824 14.7628 14.404 14.7628 13.956C14.7628 13.34 14.3008 12.892 13.1668 12.892C11.8788 12.892 11.1788 13.466 11.1788 14.404C11.1788 15.524 12.3828 16.21 14.4548 17.036L13.8948 17.988C11.7108 17.106 10.0588 16.126 10.0588 14.362C10.0588 13.578 10.3668 12.976 10.8848 12.57C10.3808 12.122 10.0588 11.646 10.0588 11.044C10.0588 10.036 10.7588 9.49 12.2148 9.49H14.1468V8.286H9.09277V7.292H16.7228V8.286H15.2808V10.484H12.3688C11.5428 10.484 11.1788 10.722 11.1788 11.226C11.1788 11.576 11.4448 11.926 11.7248 12.122C12.1588 11.968 12.6628 11.898 13.1948 11.898C15.0988 11.898 15.8688 12.85 15.8688 13.97C15.8688 14.754 15.5328 15.398 14.5528 15.916L13.7548 15.104Z" fill="#2C2D32"/>
</svg>
