<svg width="11" height="17" viewBox="0 0 11 17" fill="none" xmlns="http://www.w3.org/2000/svg">
<path d="M5.49994 2.00456C5.45668 2.00456 5.42163 1.96951 5.42163 1.92625V0.0783116C5.42163 0.0350523 5.45668 0 5.49994 0C5.5432 0 5.57825 0.0350523 5.57825 0.0783116V1.92625C5.57825 1.96951 5.5432 2.00456 5.49994 2.00456Z" fill="black"/>
<path d="M9.54428 3.23689C9.52279 3.23689 9.50136 3.22808 9.48589 3.21079C9.45704 3.17856 9.45983 3.12907 9.49203 3.10022L10.8694 1.86834C10.9017 1.83949 10.9512 1.84225 10.98 1.87451C11.0088 1.90675 11.006 1.95624 10.9738 1.98509L9.59647 3.21696C9.58152 3.23031 9.56285 3.23689 9.54428 3.23689Z" fill="black"/>
<path d="M1.45565 3.23688C1.43707 3.23688 1.41844 3.2303 1.40346 3.21692L0.0260865 1.98508C-0.00611526 1.95626 -0.00890313 1.90677 0.0199469 1.8745C0.0487342 1.84227 0.0982271 1.83948 0.130523 1.86833L1.5079 3.10021C1.5401 3.12902 1.54289 3.17852 1.51404 3.21078C1.4986 3.22807 1.47714 3.23688 1.45565 3.23688Z" fill="black"/>
<path d="M5.50005 12.2123C8.04178 12.2123 10.1023 10.1517 10.1023 7.60982C10.1023 5.06793 8.04178 3.00732 5.50005 3.00732C2.95831 3.00732 0.897827 5.06793 0.897827 7.60982C0.897827 10.1517 2.95831 12.2123 5.50005 12.2123Z" fill="#FFD327"/>
<path d="M6.94647 8.70724C6.7531 8.58467 6.58276 8.56324 6.4402 8.64346C6.0924 8.83912 6.06261 9.5854 6.06155 9.80454H5.54497H5.45535H4.93875C4.93762 9.58295 4.90739 8.8388 4.56012 8.64346C4.41757 8.56324 4.24719 8.58467 4.05386 8.70724C3.81945 8.85584 3.72398 9.07534 3.79192 9.30939C3.88044 9.6144 4.2699 9.9294 4.78187 9.95894V13.0892C4.78187 13.1325 4.81692 13.1676 4.86018 13.1676C4.90344 13.1676 4.9385 13.1325 4.9385 13.0892V9.9612H5.45538H5.545H6.06189V13.0892C6.06189 13.1325 6.09694 13.1676 6.1402 13.1676C6.18346 13.1676 6.21851 13.1325 6.21851 13.0892V9.95894C6.73049 9.92943 7.11991 9.61443 7.20847 9.30939C7.27635 9.0753 7.18087 8.85584 6.94647 8.70724ZM3.94231 9.26573C3.89382 9.09867 3.96139 8.95129 4.13771 8.83952C4.22915 8.78154 4.30837 8.75272 4.37713 8.75272C4.41572 8.75272 4.45102 8.76181 4.48329 8.77998C4.72508 8.91589 4.7798 9.51892 4.78209 9.8021C4.34408 9.77425 4.01492 9.51592 3.94231 9.26573ZM7.05798 9.26573C6.98537 9.51592 6.65618 9.77425 6.2182 9.8021C6.22033 9.52065 6.27487 8.91608 6.51701 8.77998C6.54927 8.76181 6.58454 8.75272 6.62317 8.75272C6.69189 8.75272 6.77114 8.78154 6.86258 8.83952C7.03891 8.95129 7.10647 9.09867 7.05798 9.26573Z" fill="black"/>
<path d="M7.57316 11.7151V11.7578L7.52953 11.9134L7.57316 11.9791V12.9912L7.54419 13.1145L7.57316 13.2124V14.2242L7.53454 14.3738L7.57316 14.4454V14.7686C7.57316 14.9262 7.44536 15.054 7.2878 15.054H7.11019C7.03845 15.6081 6.56482 16.0367 5.99096 16.0367H5.98197L5.865 15.9969L5.76128 16.0366H5.00924C4.92842 16.0366 4.8498 16.0282 4.77399 16.0122C4.74207 16.0054 4.74846 15.9573 4.7178 15.9479C4.69161 15.9399 4.62821 15.9711 4.60293 15.9615C4.37269 15.8722 4.17879 15.7099 4.05005 15.5029C4.03479 15.4785 4.06079 15.4308 4.04748 15.4051C4.03564 15.3822 3.98427 15.3816 3.97393 15.3578C3.93227 15.2626 3.90376 15.1608 3.88998 15.054H3.71237C3.59177 15.054 3.4884 14.9791 3.44705 14.8732C3.4364 14.8471 3.48774 14.7931 3.48561 14.7637C3.48511 14.7568 3.427 14.6715 3.427 14.6715V13.6607L3.48436 13.4986L3.427 13.4384V12.4277L3.49761 12.2912L3.427 12.2062V11.7151H3.91949L3.99247 11.8068L4.13845 11.7151H5.15218L5.22215 11.7758L5.37226 11.7151H6.38414L6.47545 11.7583L6.60542 11.7151H7.57316Z" fill="#9264FF"/>
<path d="M4.13964 11.7146L3.427 12.4272V12.2058L3.91817 11.7146H4.13964Z" fill="#FFB7F7"/>
<path d="M5.37226 11.7146L3.427 13.6602V13.4384L5.15111 11.7146H5.37226Z" fill="#FFB7F7"/>
<path d="M6.6052 11.7146L3.44705 14.8728C3.43389 14.8405 3.427 14.8051 3.427 14.7681V14.6713L6.38374 11.7146H6.6052Z" fill="#FFB7F7"/>
<path d="M7.5732 11.7585V11.9803L4.05012 15.5031C4.0213 15.457 3.99593 15.4085 3.974 15.3581L7.5732 11.7585Z" fill="#FFB7F7"/>
<path d="M7.57323 12.9915V13.2129L4.77406 16.0124C4.71486 15.9999 4.65785 15.9826 4.60303 15.9617L7.57323 12.9915Z" fill="#FFB7F7"/>
<path d="M7.57313 14.2234V14.4449L5.98184 16.0361H5.76038L7.57313 14.2234Z" fill="#FFB7F7"/>
<path d="M7.11026 15.1329H3.88996C3.8467 15.1329 3.81165 15.0979 3.81165 15.0546C3.81165 15.0114 3.8467 14.9763 3.88996 14.9763H7.11029C7.15355 14.9763 7.1886 15.0114 7.1886 15.0546C7.18857 15.0979 7.15352 15.1329 7.11026 15.1329Z" fill="black"/>
</svg>
