<svg width="13" height="13" viewBox="0 0 13 13" fill="none" xmlns="http://www.w3.org/2000/svg">
<path fill-rule="evenodd" clip-rule="evenodd" d="M3.82352 2.52156V1.2599C3.82352 0.564101 4.3358 0 4.96869 0H8.03131C8.66351 0 9.17648 0.565357 9.17648 1.2599V2.52156H11.4721C12.3156 2.52156 13 3.27482 13 4.20158V10.5075C13 11.4349 12.3152 12.1875 11.4721 12.1875H1.52793C0.68443 12.1875 0 11.4343 0 10.5075V4.20158C0 3.27415 0.684836 2.52156 1.52793 2.52156H3.82352ZM4.7794 8.4052H3.06003C2.21482 8.4052 1.5294 7.65337 1.5294 6.72535V3.36209H1.52791C1.10713 3.36209 0.764689 3.7384 0.764689 4.20161V10.5075C0.764689 10.9703 1.10696 11.347 1.52791 11.347H11.4721C11.8928 11.347 12.2353 10.9707 12.2353 10.5075V4.20158C12.2353 3.73876 11.893 3.36206 11.4721 3.36206H11.4706V6.72532C11.4706 7.65362 10.7859 8.40518 9.93995 8.40518H8.22057V8.61538C8.22057 9.07988 7.87759 9.45582 7.45474 9.45582H5.54521C5.12223 9.45582 4.77938 9.08116 4.77938 8.61538V8.4052H4.7794ZM8.2206 7.56467H9.93997C10.3638 7.56467 10.7059 7.18918 10.7059 6.72535V3.36209H2.29412V6.72535C2.29412 7.18876 2.63682 7.56467 3.06005 7.56467H4.77943V7.35447C4.77943 6.88998 5.12241 6.51403 5.54526 6.51403H7.45479C7.87777 6.51403 8.22062 6.88869 8.22062 7.35447L8.2206 7.56467ZM5.54412 8.61541C5.54412 8.61588 7.45476 8.61532 7.45476 8.61532C7.45575 8.61532 7.45588 7.35447 7.45588 7.35447C7.45588 7.354 5.54524 7.35456 5.54524 7.35456C5.54425 7.35453 5.54412 8.61541 5.54412 8.61541ZM8.41176 1.2599C8.41176 1.02905 8.2407 0.840501 8.03131 0.840501H4.96869C4.75846 0.840501 4.58824 1.02793 4.58824 1.2599V2.52156H8.41176V1.2599Z" fill="#5F5F5F"/>
</svg>
