<svg width="19" height="19" viewBox="0 0 19 19" fill="none" xmlns="http://www.w3.org/2000/svg">
<path d="M8.97222 14.25H10.0278V8.44444H8.97222V14.25ZM9.5 6.94239C9.68437 6.94239 9.83883 6.88011 9.96339 6.75555C10.0879 6.631 10.1499 6.47654 10.1492 6.29217C10.1485 6.1078 10.0862 5.95368 9.96233 5.82983C9.83848 5.70598 9.68437 5.6437 9.5 5.643C9.31563 5.6423 9.16152 5.70457 9.03767 5.82983C8.91382 5.95509 8.85154 6.10955 8.85083 6.29322C8.85013 6.47689 8.91241 6.631 9.03767 6.75555C9.16293 6.88011 9.31704 6.94239 9.5 6.94239ZM9.50317 19C8.18935 19 6.95435 18.7509 5.79817 18.2527C4.64198 17.7537 3.63604 17.0768 2.78033 16.2218C1.92463 15.3668 1.24731 14.3619 0.748389 13.2071C0.249463 12.0523 0 10.8177 0 9.50317C0 8.18865 0.249463 6.95365 0.748389 5.79817C1.24661 4.64198 1.92252 3.63604 2.77611 2.78033C3.6297 1.92463 4.63494 1.24731 5.79183 0.748389C6.94872 0.249463 8.18372 0 9.49683 0C10.8099 0 12.0449 0.249463 13.2018 0.748389C14.358 1.24661 15.364 1.92287 16.2197 2.77717C17.0754 3.63146 17.7527 4.6367 18.2516 5.79289C18.7505 6.94907 19 8.18372 19 9.49683C19 10.8099 18.7509 12.0449 18.2527 13.2018C17.7544 14.3587 17.0775 15.3647 16.2218 16.2197C15.3661 17.0747 14.3612 17.752 13.2071 18.2516C12.053 18.7512 10.8184 19.0007 9.50317 19ZM9.5 17.9444C11.8574 17.9444 13.8542 17.1264 15.4903 15.4903C17.1264 13.8542 17.9444 11.8574 17.9444 9.5C17.9444 7.14259 17.1264 5.14583 15.4903 3.50972C13.8542 1.87361 11.8574 1.05556 9.5 1.05556C7.14259 1.05556 5.14583 1.87361 3.50972 3.50972C1.87361 5.14583 1.05556 7.14259 1.05556 9.5C1.05556 11.8574 1.87361 13.8542 3.50972 15.4903C5.14583 17.1264 7.14259 17.9444 9.5 17.9444Z" fill="#5F5F5F"/>
</svg>
