<svg width="11" height="10" viewBox="0 0 11 10" fill="none" xmlns="http://www.w3.org/2000/svg">
<path d="M5.50884 7.5H6.06716V4.44444H5.50884V7.5ZM5.788 3.65389C5.88552 3.65389 5.96722 3.62111 6.0331 3.55556C6.09899 3.49 6.13174 3.4087 6.13137 3.31167C6.131 3.21463 6.09806 3.13352 6.03255 3.06833C5.96704 3.00315 5.88552 2.97037 5.788 2.97C5.69048 2.96963 5.60896 3.00241 5.54345 3.06833C5.47794 3.13426 5.445 3.21556 5.44463 3.31222C5.44426 3.40889 5.4772 3.49 5.54345 3.55556C5.60971 3.62111 5.69122 3.65389 5.788 3.65389ZM5.78967 10C5.09474 10 4.4415 9.86889 3.82995 9.60667C3.21839 9.34407 2.68631 8.98778 2.23369 8.53778C1.78108 8.08778 1.42282 7.55889 1.15892 6.95111C0.895013 6.34333 0.763062 5.69352 0.763062 5.00167C0.763062 4.30981 0.895013 3.65981 1.15892 3.05167C1.42245 2.44315 1.77996 1.9137 2.23146 1.46333C2.68296 1.01296 3.21467 0.656482 3.8266 0.393889C4.43852 0.131296 5.09177 0 5.78632 0C6.48088 0 7.13412 0.131296 7.74605 0.393889C8.3576 0.656111 8.88969 1.01204 9.34231 1.46167C9.79492 1.9113 10.1532 2.44037 10.4171 3.04889C10.681 3.65741 10.8129 4.30722 10.8129 4.99833C10.8129 5.68944 10.6812 6.33944 10.4176 6.94833C10.1541 7.55722 9.79604 8.08667 9.34342 8.53667C8.89081 8.98667 8.35928 9.34315 7.74884 9.60611C7.1384 9.86907 6.48535 10.0004 5.78967 10ZM5.788 9.44444C7.03493 9.44444 8.0911 9.01389 8.9565 8.15278C9.82191 7.29167 10.2546 6.24074 10.2546 5C10.2546 3.75926 9.82191 2.70833 8.9565 1.84722C8.0911 0.986111 7.03493 0.555556 5.788 0.555556C4.54107 0.555556 3.4849 0.986111 2.6195 1.84722C1.75409 2.70833 1.32139 3.75926 1.32139 5C1.32139 6.24074 1.75409 7.29167 2.6195 8.15278C3.4849 9.01389 4.54107 9.44444 5.788 9.44444Z" fill="#AC90FF"/>
</svg>
