<svg width="17" height="17" viewBox="0 0 17 17" fill="none" xmlns="http://www.w3.org/2000/svg">
<path d="M8.41167 11.7054C9.28533 11.7054 10.1232 11.3584 10.741 10.7406C11.3587 10.1228 11.7058 9.28496 11.7058 8.41131C11.7058 7.53765 11.3587 6.69978 10.741 6.08201C10.1232 5.46425 9.28533 5.11719 8.41167 5.11719C7.53802 5.11719 6.70015 5.46425 6.08238 6.08201C5.46461 6.69978 5.11755 7.53765 5.11755 8.41131C5.11755 9.28496 5.46461 10.1228 6.08238 10.7406C6.70015 11.3584 7.53802 11.7054 8.41167 11.7054Z" stroke="#5F5F5F" stroke-linecap="round" stroke-linejoin="round"/>
<path d="M0.999954 11.7059V5.11765C0.999954 4.02558 1.43378 2.97824 2.20599 2.20603C2.97819 1.43382 4.02553 1 5.1176 1H11.7058C12.7979 1 13.8452 1.43382 14.6175 2.20603C15.3897 2.97824 15.8235 4.02558 15.8235 5.11765V11.7059C15.8235 12.798 15.3897 13.8453 14.6175 14.6175C13.8452 15.3897 12.7979 15.8235 11.7058 15.8235H5.1176C4.02553 15.8235 2.97819 15.3897 2.20599 14.6175C1.43378 13.8453 0.999954 12.798 0.999954 11.7059Z" stroke="#5F5F5F"/>
<path d="M12.9412 3.89167L12.9501 3.88184" stroke="#5F5F5F" stroke-linecap="round" stroke-linejoin="round"/>
</svg>
