<svg width="32" height="32" viewBox="0 0 32 32" fill="none" xmlns="http://www.w3.org/2000/svg">
<path d="M9.44753 4.57129H6.3999V7.61892" stroke="#2C2D32" stroke-width="1.1" stroke-miterlimit="10" stroke-linecap="round" stroke-linejoin="round"/>
<path d="M9.44753 18.2859H6.3999V15.2383" stroke="#2C2D32" stroke-width="1.1" stroke-miterlimit="10" stroke-linecap="round" stroke-linejoin="round"/>
<path d="M17.0664 4.57129H20.114V7.61892" stroke="#2C2D32" stroke-width="1.1" stroke-miterlimit="10" stroke-linecap="round" stroke-linejoin="round"/>
<path d="M17.0664 18.2859H20.114V15.2383" stroke="#2C2D32" stroke-width="1.1" stroke-miterlimit="10" stroke-linecap="round" stroke-linejoin="round"/>
<path d="M23.9237 27.4284C26.8692 27.4284 29.257 25.0406 29.257 22.0951C29.257 19.1495 26.8692 16.7617 23.9237 16.7617C20.9781 16.7617 18.5903 19.1495 18.5903 22.0951C18.5903 25.0406 20.9781 27.4284 23.9237 27.4284Z" stroke="#2C2D32" stroke-width="1.1" stroke-miterlimit="10" stroke-linecap="round" stroke-linejoin="round"/>
<path d="M23.9237 27.4284C26.8692 27.4284 29.257 25.0406 29.257 22.0951C29.257 19.1495 26.8692 16.7617 23.9237 16.7617C20.9781 16.7617 18.5903 19.1495 18.5903 22.0951C18.5903 25.0406 20.9781 27.4284 23.9237 27.4284Z" stroke="#2C2D32" stroke-width="1.1" stroke-miterlimit="10" stroke-linecap="round" stroke-linejoin="round"/>
<path d="M13.257 15.2372C15.3609 15.2372 17.0665 13.5316 17.0665 11.4277C17.0665 9.32373 15.3609 7.61816 13.257 7.61816C11.1531 7.61816 9.44751 9.32373 9.44751 11.4277C9.44751 13.5316 11.1531 15.2372 13.257 15.2372Z" stroke="#2C2D32" stroke-width="1.1" stroke-miterlimit="10" stroke-linecap="round" stroke-linejoin="round"/>
<path d="M22.0188 22.095L23.5426 23.6188L26.2092 20.9521" stroke="#2C2D32" stroke-width="1.1" stroke-miterlimit="10" stroke-linecap="round" stroke-linejoin="round"/>
<path d="M20.1142 25.8263V27.4285H6.3999V22.8571C6.3999 19.0701 9.47001 16 13.257 16C15.8342 16 18.0791 17.4217 19.2509 19.5238C18.83 20.2868 18.5904 21.1634 18.5904 22.0952C18.5904 23.547 19.1717 24.864 20.1142 25.8263Z" stroke="#2C2D32" stroke-width="1.1" stroke-miterlimit="10" stroke-linecap="round" stroke-linejoin="round"/>
</svg>
