<svg width="126" height="124" viewBox="0 0 126 124" fill="none" xmlns="http://www.w3.org/2000/svg">
<path d="M88.5853 80.8887C92.1574 75.4894 94.3547 68.8132 95.1162 61.0457V61.0454C95.6622 55.4706 95.4434 49.9234 95.1258 44.7593C94.9213 41.4346 92.6118 38.6552 89.3791 37.8433C76.5012 34.6089 70.0633 30.6114 67.3718 28.5163C64.6173 26.3722 60.7696 26.3721 58.0149 28.5163C55.3235 30.6114 48.8855 34.6089 36.0075 37.8433C32.7748 38.6553 30.4654 41.4346 30.261 44.7593C29.9433 49.9234 29.7245 55.4706 30.2705 61.0458C31.032 68.8133 33.2293 75.4895 36.8014 80.8886C39.1902 84.4999 42.532 87.9706 46.7339 91.204C50.3114 93.9569 54.5375 96.5607 59.2947 98.9431C60.3588 99.4759 61.5261 99.7423 62.6933 99.7423C63.8606 99.7423 65.0279 99.4759 66.0919 98.9431C70.8492 96.5608 75.0753 93.9569 78.6528 91.204C82.8547 87.9705 86.1965 84.4999 88.5853 80.8887ZM75.581 87.2122C72.258 89.7692 68.3066 92.2008 63.8365 94.4393C63.1207 94.7976 62.2659 94.7976 61.55 94.4393C57.0799 92.2008 53.1286 89.7692 49.8056 87.2122C46.0454 84.3186 43.0835 81.2561 41.0021 78.1096C37.8879 73.4023 35.9638 67.4958 35.2832 60.5545C34.7717 55.3308 34.9833 50.0245 35.2881 45.0685C35.3574 43.9439 36.1394 43.0034 37.2344 42.7284C43.1465 41.2435 54.1095 37.939 61.1087 32.491C61.5751 32.1279 62.1342 31.9464 62.6933 31.9464C63.2523 31.9464 63.8113 32.1279 64.2778 32.491C71.2769 37.939 82.24 41.2436 88.152 42.7284C89.247 43.0034 90.0291 43.9438 90.0983 45.0685C90.4031 50.0245 90.6148 55.3308 90.1032 60.5542C89.4226 67.4958 87.4986 73.4023 84.3842 78.1097C82.3031 81.2561 79.3412 84.3186 75.581 87.2122Z" fill="#337265"/>
<path d="M62.6931 51.0527C58.8077 51.0527 55.658 54.2026 55.658 58.0878C55.658 60.7328 57.1176 63.0366 59.2756 64.2381L58.1494 73.5196C58.0078 74.6877 58.9196 75.7171 60.096 75.7171H65.2903C66.4667 75.7171 67.3784 74.6876 67.2368 73.5196L66.1106 64.2381C68.2687 63.0366 69.7283 60.7328 69.7283 58.0878C69.7281 54.2025 66.5784 51.0527 62.6931 51.0527Z" fill="#5F5F5F"/>
<path d="M60.8944 10.0366V25.6524C61.4844 25.5315 62.0874 25.4697 62.6932 25.4697C63.2991 25.4697 63.9021 25.5315 64.4921 25.6524V10.0792C66.5013 9.36321 67.94 7.44495 67.94 5.18986C67.94 2.32359 65.6164 0 62.7502 0C59.8839 0 57.5603 2.32359 57.5603 5.18986C57.5603 7.40199 58.9449 9.28967 60.8944 10.0366Z" fill="#5F5F5F"/>
<path d="M120.196 55.0254C117.984 55.0254 116.096 56.4099 115.349 58.3592H96.7647C96.7129 59.2752 96.6445 60.194 96.5553 61.1151L96.5481 61.1856C96.5229 61.4439 96.4956 61.7008 96.4675 61.9569H115.307C116.023 63.9664 117.941 65.4051 120.196 65.4051C123.062 65.4051 125.386 63.0815 125.386 60.2153C125.386 57.349 123.062 55.0254 120.196 55.0254Z" fill="#5F5F5F"/>
<path d="M115.935 35.6469V41.3277C115.935 41.9227 115.451 42.407 114.856 42.407H96.1316C96.3662 43.1273 96.513 43.8857 96.5612 44.67C96.5885 45.1118 96.6151 45.5572 96.6403 46.0048H114.856C117.435 46.0048 119.533 43.9065 119.533 41.3277V35.6471C121.513 34.9156 122.924 33.0117 122.924 30.7778C122.924 27.9115 120.601 25.5879 117.734 25.5879C114.868 25.5879 112.545 27.9115 112.545 30.7778C112.545 33.0115 113.956 34.9152 115.935 35.6469Z" fill="#5F5F5F"/>
<path d="M82.5641 34.3705L82.5634 18.4468C82.5634 17.8517 83.0477 17.3674 83.6428 17.3674H99.3648C100.096 19.3472 102 20.7586 104.234 20.7586C107.1 20.7586 109.424 18.435 109.424 15.5688C109.424 12.7025 107.1 10.3789 104.234 10.3789C102 10.3789 100.097 11.7902 99.365 13.7697H83.6427C81.0638 13.7697 78.9656 15.8679 78.9656 18.4468L78.9663 33.0739C80.0738 33.5049 81.2704 33.9395 82.5641 34.3705Z" fill="#5F5F5F"/>
<path d="M64.4921 113.706V101C63.9014 101.119 63.2977 101.181 62.6932 101.181C62.0888 101.181 61.4851 101.119 60.8944 101V113.748C58.9449 114.495 57.5603 116.383 57.5603 118.595C57.5603 121.461 59.8839 123.785 62.7502 123.785C65.6164 123.785 67.94 121.461 67.94 118.595C67.94 116.34 66.5013 114.422 64.4921 113.706Z" fill="#5F5F5F"/>
<path d="M119.533 84.7834V79.1029C119.533 76.524 117.435 74.4258 114.856 74.4258H93.5114C93.0286 75.6692 92.4947 76.8687 91.9089 78.0236H114.856C115.451 78.0236 115.936 78.5078 115.936 79.1029V84.7836C113.956 85.5153 112.545 87.4191 112.545 89.6528C112.545 92.5191 114.868 94.8426 117.735 94.8426C120.601 94.8426 122.925 92.5191 122.925 89.6528C122.925 87.4189 121.513 85.5149 119.533 84.7834Z" fill="#5F5F5F"/>
<path d="M104.234 99.6719C102 99.6719 100.096 101.083 99.3648 103.063H83.6427C83.0476 103.063 82.5634 102.579 82.5634 101.984L82.5641 89.8398C81.6063 90.6896 80.5946 91.5243 79.5297 92.3439C79.3433 92.4871 79.1555 92.6296 78.9663 92.772L78.9656 101.984C78.9656 104.563 81.0638 106.661 83.6427 106.661H99.365C100.097 108.64 102 110.052 104.234 110.052C107.1 110.052 109.424 107.728 109.424 104.862C109.424 101.996 107.1 99.6719 104.234 99.6719Z" fill="#5F5F5F"/>
<path d="M10.0793 61.9569H28.9185C28.8904 61.7008 28.8631 61.4439 28.8379 61.1856C28.7458 60.2415 28.6746 59.2982 28.622 58.3592H10.0366C9.2896 56.4099 7.40192 55.0254 5.18986 55.0254C2.32359 55.0254 0 57.349 0 60.2153C0 63.0815 2.32359 65.4051 5.18986 65.4051C7.44502 65.4051 9.36343 63.9664 10.0793 61.9569Z" fill="#5F5F5F"/>
<path d="M5.85244 35.6471V41.3277C5.85244 43.9065 7.95067 46.0048 10.5296 46.0048H28.7451C28.7703 45.5572 28.7969 45.1125 28.8242 44.67C28.8724 43.8857 29.0192 43.1273 29.2538 42.407H10.5296C9.93448 42.407 9.45022 41.9227 9.45022 41.3277V35.6469C11.4296 34.9153 12.8409 33.0115 12.8409 30.7778C12.8409 27.9115 10.5173 25.5879 7.65104 25.5879C4.78477 25.5879 2.46118 27.9115 2.46118 30.7778C2.46125 33.0116 3.87273 34.9156 5.85244 35.6471Z" fill="#5F5F5F"/>
<path d="M21.1515 20.7586C23.3854 20.7586 25.2893 19.3471 26.0208 17.3674H41.743C42.338 17.3674 42.8223 17.8517 42.8223 18.4468L42.8216 34.3705C44.1153 33.9395 45.312 33.5049 46.4194 33.0739L46.4201 18.4468C46.4201 15.8679 44.3218 13.7697 41.743 13.7697H26.0207C25.289 11.7902 23.3852 10.3789 21.1515 10.3789C18.2853 10.3789 15.9617 12.7025 15.9617 15.5688C15.9617 18.435 18.2853 20.7586 21.1515 20.7586Z" fill="#5F5F5F"/>
<path d="M9.45015 84.7836V79.1029C9.45015 78.5078 9.93441 78.0236 10.5295 78.0236H33.4768C32.8911 76.8687 32.3572 75.6692 31.8744 74.4258H10.5295C7.95059 74.4258 5.85237 76.524 5.85237 79.1029V84.7834C3.87266 85.5149 2.46118 87.4189 2.46118 89.6528C2.46118 92.5191 4.78477 94.8426 7.65104 94.8426C10.5173 94.8426 12.8409 92.5191 12.8409 89.6528C12.8408 87.4191 11.4296 85.5153 9.45015 84.7836Z" fill="#5F5F5F"/>
<path d="M45.8559 92.3439C44.791 91.5243 43.7793 90.6896 42.8216 89.8398L42.8223 101.984C42.8223 102.579 42.338 103.063 41.743 103.063H26.0208C25.2893 101.083 23.3854 99.6719 21.1515 99.6719C18.2853 99.6719 15.9617 101.996 15.9617 104.862C15.9617 107.728 18.2853 110.052 21.1515 110.052C23.3852 110.052 25.289 108.64 26.0207 106.661H41.743C44.3218 106.661 46.4201 104.563 46.4201 101.984L46.4194 92.772C46.2301 92.6296 46.0423 92.4871 45.8559 92.3439Z" fill="#5F5F5F"/>
</svg>
