<svg width="102" height="58" viewBox="0 0 102 58" fill="none" xmlns="http://www.w3.org/2000/svg">
<rect width="101.5" height="58" transform="translate(0.5)" fill="white"/>
<path d="M75.4525 56.4229H23.4651V16.1289H24.2118V55.6762H75.4525V56.4229Z" fill="#492C82"/>
<path d="M74.2307 57.865C74.2307 57.865 78.7579 55.6257 78.6087 55.6257C78.4594 55.6257 74.2307 54.1836 74.2307 54.1836V57.865Z" fill="#492C82"/>
<path d="M25.6777 18.5684C25.6777 18.5684 23.8445 13.7545 23.839 13.9038C23.8332 14.0525 21.9998 18.4278 21.9998 18.4278L25.6777 18.5684Z" fill="#492C82"/>
<path d="M41.0282 37.2754V53.2158H34.0583L31.7004 39.1767L41.0282 37.2754Z" fill="#E26F64"/>
<path d="M57.072 27.666L55.9917 53.2151H47.5721C47.1514 48.691 45.3853 29.7954 45.3853 29.5986C45.3853 29.3696 57.072 27.666 57.072 27.666Z" fill="#E26F64"/>
<path d="M73.6309 14.9414L69.4866 53.2159H62.6665V16.1261L73.6309 14.9414Z" fill="#E26F64"/>
<path d="M65.0778 9.59045L67.5756 6.83985L64.1455 7.39119L62.8695 4.38086L62.1964 7.70454L58.1643 8.3524L61.6541 10.3821L60.8775 14.2162L63.424 11.4117L66.6434 13.284L65.0778 9.59045Z" fill="#DC8913"/>
<path d="M76.7097 9.10943L80.9998 7.81226L77.1088 6.25564L77.6553 2.34961L74.8977 5.37124L70.3226 3.54127L72.6755 7.80559L69.4939 11.2916L73.8689 9.96861L76.0392 13.9019L76.7097 9.10943Z" fill="#DC8913"/>
<path d="M68.4524 2.90105L69.7345 2.28362L68.2755 2.05984L67.91 0.320312L67.1001 1.87983L65.4171 1.62155L66.6894 2.6706L65.9424 4.10924L67.5155 3.3518L68.7631 4.38056L68.4524 2.90105Z" fill="#DC8913"/>
</svg>
