<svg width="19" height="17" viewBox="0 0 19 17" fill="none" xmlns="http://www.w3.org/2000/svg">
<path d="M4.31818 9.22727H0.863636C0.345455 9.22727 0 9.51818 0 9.95455V15.7727C0 16.2091 0.345455 16.5 0.863636 16.5H4.31818C4.83636 16.5 5.18182 16.2091 5.18182 15.7727V9.95455C5.18182 9.51818 4.83636 9.22727 4.31818 9.22727ZM18.1364 6.31818H14.6818C14.1636 6.31818 13.8182 6.60909 13.8182 7.04545V15.7727C13.8182 16.2091 14.1636 16.5 14.6818 16.5H18.1364C18.6545 16.5 19 16.2091 19 15.7727V7.04545C19 6.60909 18.6545 6.31818 18.1364 6.31818ZM11.2273 0.5H7.77273C7.25455 0.5 6.90909 0.790909 6.90909 1.22727V15.7727C6.90909 16.2091 7.25455 16.5 7.77273 16.5H11.2273C11.7455 16.5 12.0909 16.2091 12.0909 15.7727V1.22727C12.0909 0.790909 11.7455 0.5 11.2273 0.5Z" fill="#492C82"/>
</svg>
