<svg width="16" height="18" viewBox="0 0 16 18" fill="none" xmlns="http://www.w3.org/2000/svg">
<path d="M8.47415 16.8812L8.46535 16.8828L8.40855 16.9108L8.39255 16.914L8.38135 16.9108L8.32455 16.8828C8.31601 16.8801 8.30961 16.8814 8.30535 16.8868L8.30215 16.8948L8.28855 17.2371L8.29255 17.2531L8.30055 17.2635L8.38375 17.3227L8.39575 17.3259L8.40535 17.3227L8.48855 17.2635L8.49815 17.2507L8.50135 17.2371L8.48775 16.8956C8.48561 16.887 8.48108 16.8822 8.47415 16.8812ZM8.68615 16.7908L8.67575 16.7924L8.52775 16.8668L8.51975 16.8748L8.51735 16.8836L8.53175 17.2275L8.53575 17.2371L8.54215 17.2427L8.70295 17.3171C8.71308 17.3198 8.72081 17.3177 8.72615 17.3107L8.72935 17.2995L8.70215 16.8084C8.69948 16.7988 8.69415 16.7929 8.68615 16.7908ZM8.11415 16.7924C8.11062 16.7902 8.10641 16.7895 8.10238 16.7904C8.09836 16.7913 8.09484 16.7937 8.09255 16.7972L8.08775 16.8084L8.06055 17.2995C8.06108 17.3091 8.06561 17.3155 8.07415 17.3187L8.08615 17.3171L8.24695 17.2427L8.25495 17.2363L8.25815 17.2275L8.27175 16.8836L8.26935 16.874L8.26135 16.866L8.11415 16.7924Z" fill="white"/>
<path d="M9.6 0.674805C10.0243 0.674805 10.4313 0.843369 10.7314 1.14342C11.0314 1.44346 11.2 1.85041 11.2 2.27475V4.67466H14.4C14.8243 4.67466 15.2313 4.84322 15.5314 5.14327C15.8314 5.44332 16 5.85027 16 6.2746V13.4743C16 13.8987 15.8314 14.3056 15.5314 14.6057C15.2313 14.9057 14.8243 15.0743 14.4 15.0743H1.6C1.17565 15.0743 0.768687 14.9057 0.468629 14.6057C0.168571 14.3056 0 13.8987 0 13.4743V8.67451C0 8.25018 0.168571 7.84323 0.468629 7.54318C0.768687 7.24313 1.17565 7.07457 1.6 7.07457H4.8V2.27475C4.8 1.85041 4.96857 1.44346 5.26863 1.14342C5.56869 0.843369 5.97565 0.674805 6.4 0.674805H9.6ZM9.6 2.27475H6.4V13.4743H9.6V2.27475ZM14.4 6.2746H11.2V13.4743H14.4V6.2746ZM4.8 8.67451H1.6V13.4743H4.8V8.67451Z" fill="white"/>
</svg>
