<svg width="70" height="70" viewBox="0 0 70 70" fill="none" xmlns="http://www.w3.org/2000/svg">
<rect width="70" height="70" fill="#337265"/>
<rect y="47" width="70" height="23" fill="white"/>
<path d="M35 62C26.717 62 20 55.283 20 47C20 38.717 26.717 32 35 32C43.283 32 50 38.717 50 47C50 55.283 43.283 62 35 62Z" fill="#FF0000"/>
<path d="M44.546 42.1735C44.318 41.3095 43.643 40.6315 42.785 40.4005C41.231 39.9805 35.003 39.9805 35.003 39.9805C35.003 39.9805 28.772 39.9805 27.221 40.4005C26.363 40.6315 25.688 41.3095 25.46 42.1735C25.04 43.7365 25.04 47.0005 25.04 47.0005C25.04 47.0005 25.04 50.2645 25.457 51.8275C25.685 52.6915 26.36 53.3695 27.218 53.6005C28.772 54.0205 35 54.0205 35 54.0205C35 54.0205 41.231 54.0205 42.782 53.6005C43.64 53.3695 44.315 52.6915 44.543 51.8275C44.96 50.2645 44.96 47.0005 44.96 47.0005C44.96 47.0005 44.96 43.7365 44.546 42.1735ZM32.963 49.9615V44.0395L38.168 47.0005L32.963 49.9615Z" fill="white"/>
<path d="M18.7987 15.3281H16.9322C16.8981 15.0866 16.8285 14.8722 16.7234 14.6847C16.6183 14.4943 16.4833 14.3324 16.3185 14.1989C16.1538 14.0653 15.9634 13.9631 15.7475 13.892C15.5344 13.821 15.3029 13.7855 15.0529 13.7855C14.6012 13.7855 14.2077 13.8977 13.8725 14.1222C13.5373 14.3437 13.2773 14.6676 13.0927 15.0938C12.908 15.517 12.8157 16.0312 12.8157 16.6364C12.8157 17.2585 12.908 17.7812 13.0927 18.2045C13.2802 18.6278 13.5415 18.9474 13.8768 19.1634C14.212 19.3793 14.5998 19.4872 15.0401 19.4872C15.2873 19.4872 15.516 19.4545 15.7262 19.3892C15.9393 19.3239 16.1282 19.2287 16.293 19.1037C16.4577 18.9759 16.5941 18.821 16.7021 18.6392C16.8129 18.4574 16.8896 18.25 16.9322 18.017L18.7987 18.0256C18.7504 18.4261 18.6296 18.8125 18.4364 19.1847C18.2461 19.554 17.989 19.8849 17.6651 20.1776C17.3441 20.4673 16.9606 20.6974 16.5146 20.8679C16.0714 21.0355 15.57 21.1193 15.0103 21.1193C14.2319 21.1193 13.5359 20.9432 12.9222 20.5909C12.3114 20.2386 11.8285 19.7287 11.4734 19.0611C11.1211 18.3935 10.945 17.5852 10.945 16.6364C10.945 15.6847 11.1239 14.875 11.4819 14.2074C11.8398 13.5398 12.3256 13.0312 12.9393 12.6818C13.5529 12.3295 14.2433 12.1534 15.0103 12.1534C15.516 12.1534 15.9847 12.2244 16.4165 12.3665C16.8512 12.5085 17.2362 12.7159 17.5714 12.9886C17.9066 13.2585 18.1793 13.5895 18.3896 13.9815C18.6026 14.3736 18.739 14.8224 18.7987 15.3281ZM23.0451 21.1278C22.3832 21.1278 21.8107 20.9872 21.3278 20.706C20.8477 20.4219 20.4769 20.027 20.2156 19.5213C19.9542 19.0128 19.8235 18.4233 19.8235 17.7528C19.8235 17.0767 19.9542 16.4858 20.2156 15.9801C20.4769 15.4716 20.8477 15.0767 21.3278 14.7955C21.8107 14.5114 22.3832 14.3693 23.0451 14.3693C23.707 14.3693 24.2781 14.5114 24.7582 14.7955C25.2411 15.0767 25.6133 15.4716 25.8746 15.9801C26.136 16.4858 26.2667 17.0767 26.2667 17.7528C26.2667 18.4233 26.136 19.0128 25.8746 19.5213C25.6133 20.027 25.2411 20.4219 24.7582 20.706C24.2781 20.9872 23.707 21.1278 23.0451 21.1278ZM23.0536 19.7216C23.3548 19.7216 23.6062 19.6364 23.8079 19.4659C24.0096 19.2926 24.1616 19.0568 24.2638 18.7585C24.369 18.4602 24.4215 18.1207 24.4215 17.7401C24.4215 17.3594 24.369 17.0199 24.2638 16.7216C24.1616 16.4233 24.0096 16.1875 23.8079 16.0142C23.6062 15.8409 23.3548 15.7543 23.0536 15.7543C22.7496 15.7543 22.494 15.8409 22.2866 16.0142C22.082 16.1875 21.9272 16.4233 21.8221 16.7216C21.7198 17.0199 21.6687 17.3594 21.6687 17.7401C21.6687 18.1207 21.7198 18.4602 21.8221 18.7585C21.9272 19.0568 22.082 19.2926 22.2866 19.4659C22.494 19.6364 22.7496 19.7216 23.0536 19.7216ZM29.2624 17.2159V21H27.4471V14.4545H29.1772V15.6094H29.2539C29.3988 15.2287 29.6417 14.9276 29.9826 14.706C30.3235 14.4815 30.7369 14.3693 31.2227 14.3693C31.6772 14.3693 32.0735 14.4688 32.4116 14.6676C32.7496 14.8665 33.0124 15.1506 33.1999 15.5199C33.3874 15.8864 33.4812 16.3239 33.4812 16.8324V21H31.6658V17.1562C31.6687 16.7557 31.5664 16.4432 31.359 16.2188C31.1516 15.9915 30.8661 15.8778 30.5025 15.8778C30.2582 15.8778 30.0423 15.9304 29.8548 16.0355C29.6701 16.1406 29.5252 16.294 29.4201 16.4957C29.3178 16.6946 29.2653 16.9347 29.2624 17.2159ZM37.8693 21.1278C37.1989 21.1278 36.6222 20.9858 36.1392 20.7017C35.6591 20.4148 35.2898 20.017 35.0312 19.5085C34.7756 19 34.6477 18.4148 34.6477 17.7528C34.6477 17.0824 34.777 16.4943 35.0355 15.9886C35.2969 15.4801 35.6676 15.0838 36.1477 14.7997C36.6278 14.5128 37.1989 14.3693 37.8608 14.3693C38.4318 14.3693 38.9318 14.473 39.3608 14.6804C39.7898 14.8878 40.1293 15.179 40.3793 15.554C40.6293 15.929 40.767 16.3693 40.7926 16.875H39.0795C39.0313 16.5483 38.9034 16.2855 38.696 16.0866C38.4915 15.8849 38.223 15.7841 37.8906 15.7841C37.6094 15.7841 37.3636 15.8608 37.1534 16.0142C36.946 16.1648 36.7841 16.3849 36.6676 16.6747C36.5511 16.9645 36.4929 17.3153 36.4929 17.7273C36.4929 18.1449 36.5497 18.5 36.6634 18.7926C36.7798 19.0852 36.9432 19.3082 37.1534 19.4616C37.3636 19.6151 37.6094 19.6918 37.8906 19.6918C38.098 19.6918 38.2841 19.6491 38.4489 19.5639C38.6165 19.4787 38.7543 19.3551 38.8622 19.1932C38.973 19.0284 39.0455 18.831 39.0795 18.6009H40.7926C40.7642 19.1009 40.6278 19.5412 40.3835 19.9219C40.142 20.2997 39.8082 20.5952 39.3821 20.8082C38.956 21.0213 38.4517 21.1278 37.8693 21.1278ZM44.9379 21.1278C44.2646 21.1278 43.685 20.9915 43.1992 20.7188C42.7163 20.4432 42.3441 20.054 42.0827 19.5511C41.8214 19.0455 41.6907 18.4474 41.6907 17.7571C41.6907 17.0838 41.8214 16.4929 42.0827 15.9844C42.3441 15.4759 42.712 15.0795 43.1864 14.7955C43.6637 14.5114 44.2234 14.3693 44.8654 14.3693C45.2972 14.3693 45.6992 14.4389 46.0714 14.5781C46.4464 14.7145 46.7731 14.9205 47.0515 15.196C47.3327 15.4716 47.5515 15.8182 47.7077 16.2358C47.864 16.6506 47.9421 17.1364 47.9421 17.6932V18.1918H42.4151V17.0668H46.2333C46.2333 16.8054 46.1765 16.5739 46.0629 16.3722C45.9492 16.1705 45.7915 16.0128 45.5898 15.8991C45.391 15.7827 45.1594 15.7244 44.8952 15.7244C44.6197 15.7244 44.3754 15.7884 44.1623 15.9162C43.9521 16.0412 43.7873 16.2102 43.668 16.4233C43.5487 16.6335 43.4876 16.8679 43.4847 17.1264V18.196C43.4847 18.5199 43.5444 18.7997 43.6637 19.0355C43.7859 19.2713 43.9577 19.4531 44.1793 19.581C44.4009 19.7088 44.6637 19.7727 44.9677 19.7727C45.1694 19.7727 45.354 19.7443 45.5217 19.6875C45.6893 19.6307 45.8327 19.5455 45.9521 19.4318C46.0714 19.3182 46.1623 19.179 46.2248 19.0142L47.9038 19.125C47.8185 19.5284 47.6438 19.8807 47.3796 20.1818C47.1183 20.4801 46.7802 20.7131 46.3654 20.8807C45.9535 21.0455 45.4776 21.1278 44.9379 21.1278ZM49.1268 23.4545V14.4545H50.9165V15.554H50.9975C51.0771 15.3778 51.1921 15.1989 51.3427 15.017C51.4961 14.8324 51.695 14.679 51.9393 14.5568C52.1864 14.4318 52.4933 14.3693 52.8597 14.3693C53.337 14.3693 53.7773 14.4943 54.1808 14.7443C54.5842 14.9915 54.9066 15.3651 55.1481 15.8651C55.3896 16.3622 55.5103 16.9858 55.5103 17.7358C55.5103 18.4659 55.3924 19.0824 55.1566 19.5852C54.9237 20.0852 54.6055 20.4645 54.2021 20.723C53.8015 20.9787 53.3526 21.1065 52.8555 21.1065C52.5032 21.1065 52.2035 21.0483 51.9563 20.9318C51.712 20.8153 51.5117 20.669 51.3555 20.4929C51.1992 20.3139 51.0799 20.1335 50.9975 19.9517H50.9421V23.4545H49.1268ZM50.9038 17.7273C50.9038 18.1165 50.9577 18.456 51.0657 18.7457C51.1737 19.0355 51.3299 19.2614 51.5344 19.4233C51.739 19.5824 51.9876 19.6619 52.2802 19.6619C52.5756 19.6619 52.8256 19.581 53.0302 19.419C53.2347 19.2543 53.3896 19.027 53.4947 18.7372C53.6026 18.4446 53.6566 18.108 53.6566 17.7273C53.6566 17.3494 53.604 17.017 53.4989 16.7301C53.3938 16.4432 53.239 16.2187 53.0344 16.0568C52.8299 15.8949 52.5785 15.8139 52.2802 15.8139C51.9847 15.8139 51.7347 15.892 51.5302 16.0483C51.3285 16.2045 51.1737 16.4261 51.0657 16.7131C50.9577 17 50.9038 17.3381 50.9038 17.7273ZM60.2021 14.4545V15.8182H56.2603V14.4545H60.2021ZM57.1552 12.8864H58.9705V18.9886C58.9705 19.1562 58.9961 19.2869 59.0472 19.3807C59.0984 19.4716 59.1694 19.5355 59.2603 19.5724C59.354 19.6094 59.462 19.6278 59.5842 19.6278C59.6694 19.6278 59.7546 19.6207 59.8398 19.6065C59.9251 19.5895 59.9904 19.5767 60.0359 19.5682L60.3214 20.919C60.2305 20.9474 60.1026 20.9801 59.9379 21.017C59.7731 21.0568 59.5728 21.081 59.337 21.0895C58.8995 21.1065 58.516 21.0483 58.1864 20.9148C57.8597 20.7812 57.6055 20.5739 57.4237 20.2926C57.2418 20.0114 57.1523 19.6562 57.1552 19.2273V12.8864Z" fill="#FEE52B"/>
</svg>
