<svg width="70" height="70" viewBox="0 0 70 70" fill="none" xmlns="http://www.w3.org/2000/svg">
<rect width="70" height="70" fill="#337265"/>
<rect y="47" width="70" height="23" fill="white"/>
<path d="M35 62C26.717 62 20 55.283 20 47C20 38.717 26.717 32 35 32C43.283 32 50 38.717 50 47C50 55.283 43.283 62 35 62Z" fill="#FF0000"/>
<path d="M44.546 42.1735C44.318 41.3095 43.643 40.6315 42.785 40.4005C41.231 39.9805 35.003 39.9805 35.003 39.9805C35.003 39.9805 28.772 39.9805 27.221 40.4005C26.363 40.6315 25.688 41.3095 25.46 42.1735C25.04 43.7365 25.04 47.0005 25.04 47.0005C25.04 47.0005 25.04 50.2645 25.457 51.8275C25.685 52.6915 26.36 53.3695 27.218 53.6005C28.772 54.0205 35 54.0205 35 54.0205C35 54.0205 41.231 54.0205 42.782 53.6005C43.64 53.3695 44.315 52.6915 44.543 51.8275C44.96 50.2645 44.96 47.0005 44.96 47.0005C44.96 47.0005 44.96 43.7365 44.546 42.1735ZM32.963 49.9615V44.0395L38.168 47.0005L32.963 49.9615Z" fill="white"/>
<path d="M29.9796 16.6364C29.9796 17.5881 29.7992 18.3977 29.4384 19.0653C29.0804 19.733 28.5918 20.2429 27.9725 20.5952C27.356 20.9446 26.6628 21.1193 25.8929 21.1193C25.1174 21.1193 24.4213 20.9432 23.8049 20.5909C23.1884 20.2386 22.7012 19.7287 22.3432 19.0611C21.9853 18.3935 21.8063 17.5852 21.8063 16.6364C21.8063 15.6847 21.9853 14.875 22.3432 14.2074C22.7012 13.5398 23.1884 13.0312 23.8049 12.6818C24.4213 12.3295 25.1174 12.1534 25.8929 12.1534C26.6628 12.1534 27.356 12.3295 27.9725 12.6818C28.5918 13.0312 29.0804 13.5398 29.4384 14.2074C29.7992 14.875 29.9796 15.6847 29.9796 16.6364ZM28.1088 16.6364C28.1088 16.0199 28.0165 15.5 27.8319 15.0767C27.65 14.6534 27.3929 14.3324 27.0605 14.1136C26.7282 13.8949 26.339 13.7855 25.8929 13.7855C25.4469 13.7855 25.0577 13.8949 24.7253 14.1136C24.3929 14.3324 24.1344 14.6534 23.9498 15.0767C23.7679 15.5 23.677 16.0199 23.677 16.6364C23.677 17.2528 23.7679 17.7727 23.9498 18.196C24.1344 18.6193 24.3929 18.9403 24.7253 19.1591C25.0577 19.3778 25.4469 19.4872 25.8929 19.4872C26.339 19.4872 26.7282 19.3778 27.0605 19.1591C27.3929 18.9403 27.65 18.6193 27.8319 18.196C28.0165 17.7727 28.1088 17.2528 28.1088 16.6364ZM38.6461 12.2727V21H37.0524L33.2555 15.5071H33.1916V21H31.3464V12.2727H32.9657L36.7328 17.7614H36.8095V12.2727H38.6461ZM48.1905 16.6364C48.1905 17.5881 48.0101 18.3977 47.6493 19.0653C47.2914 19.733 46.8027 20.2429 46.1834 20.5952C45.5669 20.9446 44.8738 21.1193 44.1039 21.1193C43.3283 21.1193 42.6323 20.9432 42.0158 20.5909C41.3993 20.2386 40.9121 19.7287 40.5542 19.0611C40.1962 18.3935 40.0172 17.5852 40.0172 16.6364C40.0172 15.6847 40.1962 14.875 40.5542 14.2074C40.9121 13.5398 41.3993 13.0312 42.0158 12.6818C42.6323 12.3295 43.3283 12.1534 44.1039 12.1534C44.8738 12.1534 45.5669 12.3295 46.1834 12.6818C46.8027 13.0312 47.2914 13.5398 47.6493 14.2074C48.0101 14.875 48.1905 15.6847 48.1905 16.6364ZM46.3198 16.6364C46.3198 16.0199 46.2275 15.5 46.0428 15.0767C45.861 14.6534 45.6039 14.3324 45.2715 14.1136C44.9391 13.8949 44.5499 13.7855 44.1039 13.7855C43.6578 13.7855 43.2686 13.8949 42.9363 14.1136C42.6039 14.3324 42.3453 14.6534 42.1607 15.0767C41.9789 15.5 41.888 16.0199 41.888 16.6364C41.888 17.2528 41.9789 17.7727 42.1607 18.196C42.3453 18.6193 42.6039 18.9403 42.9363 19.1591C43.2686 19.3778 43.6578 19.4872 44.1039 19.4872C44.5499 19.4872 44.9391 19.3778 45.2715 19.1591C45.6039 18.9403 45.861 18.6193 46.0428 18.196C46.2275 17.7727 46.3198 17.2528 46.3198 16.6364Z" fill="#FEE52B"/>
</svg>
