<svg width="31" height="30" viewBox="0 0 31 30" fill="none" xmlns="http://www.w3.org/2000/svg">
<path d="M12.9233 17.0459H4.72761C3.60619 17.0474 2.53112 17.4935 1.73815 18.2865C0.945187 19.0795 0.499044 20.1545 0.497559 21.276V25.7704C0.49905 26.8918 0.945194 27.9669 1.73816 28.7598C2.53113 29.5528 3.60619 29.999 4.72761 30.0004H9.22205C10.3435 29.999 11.4185 29.5528 12.2115 28.7598C13.0045 27.9669 13.4506 26.8918 13.4521 25.7704V17.5747C13.4517 17.4345 13.3958 17.3003 13.2968 17.2012C13.1977 17.1022 13.0635 17.0463 12.9233 17.0459Z" fill="url(#paint0_linear_833_1540)"/>
<path d="M9.22205 0H4.72761C3.60619 0.00148573 2.53112 0.447628 1.73815 1.2406C0.945187 2.03356 0.499044 3.10863 0.497559 4.23006V8.72449C0.49905 9.84591 0.945194 10.921 1.73816 11.7139C2.53113 12.5069 3.60619 12.9531 4.72761 12.9545H12.9233C13.0635 12.9541 13.1977 12.8983 13.2968 12.7992C13.3958 12.7001 13.4517 12.5659 13.4521 12.4258V4.23006C13.4506 3.10863 13.0045 2.03356 12.2115 1.2406C11.4185 0.447628 10.3435 0.00148573 9.22205 0Z" fill="url(#paint1_linear_833_1540)"/>
<path d="M26.2675 17.0459H18.0717C17.9316 17.0463 17.7974 17.1022 17.6983 17.2012C17.5992 17.3003 17.5434 17.4345 17.543 17.5747V25.7704C17.5436 26.8921 17.9894 27.9677 18.7826 28.7608C19.5757 29.554 20.6513 29.9999 21.773 30.0004H26.2675C27.3892 29.9999 28.4647 29.554 29.2579 28.7608C30.0511 27.9677 30.4969 26.8921 30.4975 25.7704V21.276C30.496 20.1545 30.0499 19.0795 29.2569 18.2865C28.4639 17.4935 27.3889 17.0474 26.2675 17.0459Z" fill="url(#paint2_linear_833_1540)"/>
<path d="M26.2675 0H21.773C20.6516 0.00148573 19.5765 0.447628 18.7836 1.2406C17.9906 2.03356 17.5445 3.10863 17.543 4.23006V12.4258C17.5434 12.5659 17.5992 12.7001 17.6983 12.7992C17.7974 12.8983 17.9316 12.9541 18.0717 12.9545H26.2675C27.3889 12.9531 28.4639 12.5069 29.2569 11.7139C30.0499 10.921 30.496 9.84591 30.4975 8.72449V4.23006C30.496 3.10863 30.0499 2.03356 29.2569 1.2406C28.464 0.447628 27.3889 0.00148573 26.2675 0ZM27.7215 7.00603H24.549L23.4915 7.00603L20.3189 7.00603C20.1787 7.00603 20.0442 6.95032 19.9451 6.85116C19.8459 6.752 19.7902 6.61751 19.7902 6.47727C19.7902 6.33704 19.8459 6.20255 19.9451 6.10339C20.0442 6.00422 20.1787 5.94852 20.3189 5.94852H23.4915L24.549 5.94852L27.7215 5.94852C27.8618 5.94852 27.9963 6.00422 28.0954 6.10339C28.1946 6.20255 28.2503 6.33704 28.2503 6.47727C28.2503 6.61751 28.1946 6.752 28.0954 6.85116C27.9963 6.95032 27.8618 7.00603 27.7215 7.00603Z" fill="url(#paint3_linear_833_1540)"/>
<defs>
<linearGradient id="paint0_linear_833_1540" x1="12.2438" y1="17.9095" x2="1.10304" y2="31.4694" gradientUnits="userSpaceOnUse">
<stop stop-color="#FF7C7A"/>
<stop offset="0.480769" stop-color="#FAA186" stop-opacity="0.9"/>
<stop offset="1" stop-color="#F5C792" stop-opacity="0.8"/>
</linearGradient>
<linearGradient id="paint1_linear_833_1540" x1="12.2438" y1="0.863636" x2="1.10304" y2="14.4235" gradientUnits="userSpaceOnUse">
<stop stop-color="#FF7C7A"/>
<stop offset="0.480769" stop-color="#FAA186" stop-opacity="0.9"/>
<stop offset="1" stop-color="#F5C792" stop-opacity="0.8"/>
</linearGradient>
<linearGradient id="paint2_linear_833_1540" x1="29.2892" y1="17.9095" x2="18.1484" y2="31.4694" gradientUnits="userSpaceOnUse">
<stop stop-color="#FF7C7A"/>
<stop offset="0.480769" stop-color="#FAA186" stop-opacity="0.9"/>
<stop offset="1" stop-color="#F5C792" stop-opacity="0.8"/>
</linearGradient>
<linearGradient id="paint3_linear_833_1540" x1="29.2892" y1="0.863636" x2="18.1484" y2="14.4235" gradientUnits="userSpaceOnUse">
<stop stop-color="#FF7C7A"/>
<stop offset="0.480769" stop-color="#FAA186" stop-opacity="0.9"/>
<stop offset="1" stop-color="#F5C792" stop-opacity="0.8"/>
</linearGradient>
</defs>
</svg>
