<svg width="70" height="70" viewBox="0 0 70 70" fill="none" xmlns="http://www.w3.org/2000/svg">
<rect width="70" height="70" fill="#492C82"/>
<rect y="47" width="70" height="23" fill="white"/>
<path d="M35 62C26.717 62 20 55.283 20 47C20 38.717 26.717 32 35 32C43.283 32 50 38.717 50 47C50 55.283 43.283 62 35 62Z" fill="#FF0000"/>
<path d="M44.546 42.1735C44.318 41.3095 43.643 40.6315 42.785 40.4005C41.231 39.9805 35.003 39.9805 35.003 39.9805C35.003 39.9805 28.772 39.9805 27.221 40.4005C26.363 40.6315 25.688 41.3095 25.46 42.1735C25.04 43.7365 25.04 47.0005 25.04 47.0005C25.04 47.0005 25.04 50.2645 25.457 51.8275C25.685 52.6915 26.36 53.3695 27.218 53.6005C28.772 54.0205 35 54.0205 35 54.0205C35 54.0205 41.231 54.0205 42.782 53.6005C43.64 53.3695 44.315 52.6915 44.543 51.8275C44.96 50.2645 44.96 47.0005 44.96 47.0005C44.96 47.0005 44.96 43.7365 44.546 42.1735ZM32.963 49.9615V44.0395L38.168 47.0005L32.963 49.9615Z" fill="white"/>
<path d="M19.0241 21V12.2727H24.9048V13.794H20.8693V15.8736H24.6023V17.3949H20.8693V19.4787H24.9219V21H19.0241ZM32.44 14.4545L30.1516 21H28.1062L25.8178 14.4545H27.7354L29.0948 19.1378H29.163L30.5181 14.4545H32.44ZM36.141 21.1278C35.4677 21.1278 34.8881 20.9915 34.4023 20.7188C33.9194 20.4432 33.5472 20.054 33.2859 19.5511C33.0245 19.0455 32.8938 18.4474 32.8938 17.7571C32.8938 17.0838 33.0245 16.4929 33.2859 15.9844C33.5472 15.4759 33.9151 15.0795 34.3896 14.7955C34.8668 14.5114 35.4265 14.3693 36.0685 14.3693C36.5004 14.3693 36.9023 14.4389 37.2745 14.5781C37.6495 14.7145 37.9762 14.9205 38.2546 15.196C38.5359 15.4716 38.7546 15.8182 38.9109 16.2358C39.0671 16.6506 39.1452 17.1364 39.1452 17.6932V18.1918H33.6183V17.0668H37.4364C37.4364 16.8054 37.3796 16.5739 37.266 16.3722C37.1523 16.1705 36.9947 16.0128 36.793 15.8991C36.5941 15.7827 36.3626 15.7244 36.0984 15.7244C35.8228 15.7244 35.5785 15.7884 35.3654 15.9162C35.1552 16.0412 34.9904 16.2102 34.8711 16.4233C34.7518 16.6335 34.6907 16.8679 34.6879 17.1264V18.196C34.6879 18.5199 34.7475 18.7997 34.8668 19.0355C34.989 19.2713 35.1609 19.4531 35.3825 19.581C35.604 19.7088 35.8668 19.7727 36.1708 19.7727C36.3725 19.7727 36.5572 19.7443 36.7248 19.6875C36.8924 19.6307 37.0359 19.5455 37.1552 19.4318C37.2745 19.3182 37.3654 19.179 37.4279 19.0142L39.1069 19.125C39.0217 19.5284 38.8469 19.8807 38.5827 20.1818C38.3214 20.4801 37.9833 20.7131 37.5685 20.8807C37.1566 21.0455 36.6808 21.1278 36.141 21.1278ZM42.1452 17.2159V21H40.3299V14.4545H42.06V15.6094H42.1367C42.2816 15.2287 42.5245 14.9276 42.8654 14.706C43.2063 14.4815 43.6197 14.3693 44.1055 14.3693C44.56 14.3693 44.9563 14.4688 45.2944 14.6676C45.6325 14.8665 45.8952 15.1506 46.0827 15.5199C46.2702 15.8864 46.364 16.3239 46.364 16.8324V21H44.5487V17.1562C44.5515 16.7557 44.4492 16.4432 44.2418 16.2188C44.0344 15.9915 43.7489 15.8778 43.3853 15.8778C43.141 15.8778 42.9251 15.9304 42.7376 16.0355C42.5529 16.1406 42.408 16.294 42.3029 16.4957C42.2006 16.6946 42.1481 16.9347 42.1452 17.2159ZM51.2763 14.4545V15.8182H47.3345V14.4545H51.2763ZM48.2294 12.8864H50.0447V18.9886C50.0447 19.1562 50.0703 19.2869 50.1214 19.3807C50.1726 19.4716 50.2436 19.5355 50.3345 19.5724C50.4283 19.6094 50.5362 19.6278 50.6584 19.6278C50.7436 19.6278 50.8288 19.6207 50.9141 19.6065C50.9993 19.5895 51.0646 19.5767 51.1101 19.5682L51.3956 20.919C51.3047 20.9474 51.1768 20.9801 51.0121 21.017C50.8473 21.0568 50.647 21.081 50.4112 21.0895C49.9737 21.1065 49.5902 21.0483 49.2607 20.9148C48.9339 20.7812 48.6797 20.5739 48.4979 20.2926C48.3161 20.0114 48.2266 19.6562 48.2294 19.2273V12.8864Z" fill="#FEE52B"/>
</svg>
