<svg width="20" height="20" viewBox="0 0 20 20" fill="none" xmlns="http://www.w3.org/2000/svg">
<path d="M18.2143 4.85714H16.4286V3.78571C16.4286 3.31211 16.2404 2.85791 15.9055 2.52302C15.5707 2.18814 15.1165 2 14.6429 2H1.78571C1.31211 2 0.85791 2.18814 0.523024 2.52302C0.188137 2.85791 0 3.31211 0 3.78571V12.3571C0 12.8307 0.188137 13.2849 0.523024 13.6198C0.85791 13.9547 1.31211 14.1429 1.78571 14.1429H12.1429V15.2143C12.1429 15.6879 12.331 16.1421 12.6659 16.477C13.0008 16.8119 13.455 17 13.9286 17H18.2143C18.6879 17 19.1421 16.8119 19.477 16.477C19.8119 16.1421 20 15.6879 20 15.2143V6.64286C20 6.16926 19.8119 5.71505 19.477 5.38017C19.1421 5.04528 18.6879 4.85714 18.2143 4.85714ZM1.78571 13.4286C1.50155 13.4286 1.22903 13.3157 1.0281 13.1148C0.827168 12.9138 0.714286 12.6413 0.714286 12.3571V3.78571C0.714286 3.50155 0.827168 3.22903 1.0281 3.0281C1.22903 2.82717 1.50155 2.71429 1.78571 2.71429H14.6429C14.927 2.71429 15.1995 2.82717 15.4005 3.0281C15.6014 3.22903 15.7143 3.50155 15.7143 3.78571V4.85714H13.9286C13.455 4.85714 13.0008 5.04528 12.6659 5.38017C12.331 5.71505 12.1429 6.16926 12.1429 6.64286V13.4286H1.78571ZM19.2857 15.2143C19.2857 15.4984 19.1728 15.771 18.9719 15.9719C18.771 16.1728 18.4984 16.2857 18.2143 16.2857H13.9286C13.6444 16.2857 13.3719 16.1728 13.171 15.9719C12.97 15.771 12.8571 15.4984 12.8571 15.2143V6.64286C12.8571 6.3587 12.97 6.08617 13.171 5.88524C13.3719 5.68431 13.6444 5.57143 13.9286 5.57143H18.2143C18.4984 5.57143 18.771 5.68431 18.9719 5.88524C19.1728 6.08617 19.2857 6.3587 19.2857 6.64286V15.2143ZM10 16.6429C10 16.7376 9.96237 16.8284 9.8954 16.8954C9.82842 16.9624 9.73758 17 9.64286 17H6.07143C5.97671 17 5.88587 16.9624 5.81889 16.8954C5.75191 16.8284 5.71429 16.7376 5.71429 16.6429C5.71429 16.5481 5.75191 16.4573 5.81889 16.3903C5.88587 16.3233 5.97671 16.2857 6.07143 16.2857H9.64286C9.73758 16.2857 9.82842 16.3233 9.8954 16.3903C9.96237 16.4573 10 16.5481 10 16.6429ZM17.1429 8.07143C17.1429 8.16615 17.1052 8.25699 17.0383 8.32397C16.9713 8.39094 16.8804 8.42857 16.7857 8.42857H15.3571C15.2624 8.42857 15.1716 8.39094 15.1046 8.32397C15.0376 8.25699 15 8.16615 15 8.07143C15 7.97671 15.0376 7.88587 15.1046 7.81889C15.1716 7.75191 15.2624 7.71429 15.3571 7.71429H16.7857C16.8804 7.71429 16.9713 7.75191 17.0383 7.81889C17.1052 7.88587 17.1429 7.97671 17.1429 8.07143Z" fill="#E26F64"/>
</svg>
