<svg width="24" height="21" viewBox="0 0 24 21" fill="none" xmlns="http://www.w3.org/2000/svg">
<path d="M19.1931 4.53955H10.3178C9.88651 4.53955 9.53699 4.88908 9.53699 5.32036V9.38063C9.53699 9.81191 9.88651 10.1614 10.3178 10.1614H19.1931C19.6247 10.1614 19.9739 9.81191 19.9739 9.38063V5.32036C19.9739 4.88912 19.6244 4.53955 19.1931 4.53955ZM18.4123 8.59982H11.0986V6.10117H18.4123V8.59982H18.4123Z" fill="#606060" stroke="white" stroke-width="0.3"/>
<path d="M23.0192 1H6.46576C6.03448 1 5.68495 1.34953 5.68495 1.78081V4.87805H1.78081C1.34953 4.87805 1 5.22761 1 5.6589V16.8767C1 18.599 2.40104 20 4.12329 20H20.0781C22.1303 20 23.8 18.3303 23.8 16.2781V1.78081C23.8 1.34953 23.4505 1 23.0192 1ZM5.68495 16.8767C5.68495 17.7522 4.99886 18.4383 4.12329 18.4383C3.24771 18.4383 2.56167 17.7522 2.56167 16.8767V6.43971H5.68495V16.8767ZM22.2384 16.278C22.2384 17.4691 21.2691 18.4383 20.0781 18.4383H6.82753C7.09405 17.9786 7.24657 17.4448 7.24657 16.8766V2.56162H22.2384V16.278Z" fill="#606060" stroke="white" stroke-width="0.3"/>
<path d="M19.1931 11.6968H10.3178C9.88651 11.6968 9.53699 12.0463 9.53699 12.4776C9.53699 12.9089 9.88651 13.2584 10.3178 13.2584H19.1931C19.6247 13.2584 19.9739 12.9089 19.9739 12.4776C19.9739 12.0463 19.6244 11.6968 19.1931 11.6968Z" fill="#606060" stroke="white" stroke-width="0.3"/>
<path d="M19.1931 14.8203H10.3178C9.88651 14.8203 9.53699 15.1698 9.53699 15.6011C9.53699 16.0324 9.88651 16.3819 10.3178 16.3819H19.1931C19.6247 16.3819 19.9739 16.0324 19.9739 15.6011C19.9739 15.1699 19.6244 14.8203 19.1931 14.8203Z" fill="#606060" stroke="white" stroke-width="0.3"/>
</svg>
