<svg width="73" height="73" viewBox="0 0 73 73" fill="none" xmlns="http://www.w3.org/2000/svg">
<circle cx="36.5" cy="36.5" r="36.5" fill="#DEDEDE"/>
<path d="M39.6 26C40.2055 25.9998 40.7887 26.2327 41.2327 26.6521C41.6766 27.0714 41.9486 27.6461 41.994 28.2611L42 28.4444C42 28.7438 42.1079 29.0327 42.3033 29.2565C42.4986 29.4802 42.7677 29.6231 43.0596 29.6581L43.2 29.6667H44.4C45.3183 29.6666 46.2018 30.024 46.8699 30.6656C47.538 31.3072 47.9401 32.1846 47.994 33.1182L48 33.3333V44.3333C48.0001 45.2686 47.6492 46.1685 47.0193 46.849C46.3893 47.5295 45.5279 47.939 44.6112 47.9939L44.4 48H27.6C26.6817 48.0001 25.7982 47.6427 25.1301 47.0011C24.462 46.3595 24.0599 45.4821 24.006 44.5484L24 44.3333V33.3333C23.9999 32.3981 24.3508 31.4981 24.9807 30.8177C25.6107 30.1372 26.4721 29.7276 27.3888 29.6728L27.6 29.6667H28.8C29.1183 29.6667 29.4235 29.5379 29.6485 29.3087C29.8736 29.0795 30 28.7686 30 28.4444C29.9998 27.8277 30.2285 27.2338 30.6402 26.7816C31.0519 26.3294 31.6162 26.0524 32.22 26.0061L32.4 26H39.6ZM36 34.5556C35.1079 34.5555 34.2476 34.8928 33.5858 35.502C32.9239 36.1113 32.5078 36.9491 32.418 37.8531L32.4048 38.0389L32.4 38.2222L32.4048 38.4056C32.44 39.1221 32.6808 39.8123 33.0974 40.3908C33.514 40.9693 34.088 41.4106 34.7484 41.6601C35.4088 41.9095 36.1266 41.9562 36.8128 41.7943C37.4989 41.6324 38.1234 41.269 38.6088 40.7492C39.0943 40.2294 39.4193 39.5759 39.5437 38.8698C39.6681 38.1637 39.5864 37.4359 39.3087 36.7766C39.031 36.1173 38.5695 35.5555 37.9814 35.1607C37.3933 34.7659 36.7044 34.5555 36 34.5556Z" fill="white"/>
</svg>
