<svg width="18" height="20" viewBox="0 0 18 20" fill="none" xmlns="http://www.w3.org/2000/svg">
<path d="M17.2206 3.37089C17.2198 3.29796 17.1978 3.22705 17.1574 3.16766C17.1171 3.10828 17.0604 3.06327 16.9949 3.03868L8.95554 0.0209241C8.8814 -0.00697472 8.80032 -0.00697472 8.72619 0.0209241L0.686803 3.03868C0.621368 3.06327 0.564671 3.10828 0.524325 3.16766C0.48398 3.22705 0.461918 3.29796 0.461103 3.37089L0.379311 11.1393C0.384624 16.0347 4.67923 18.7743 8.84085 20C13.0054 18.7719 17.2973 16.0364 17.3024 11.1353L17.2206 3.37089ZM8.84085 19.2718C6.65176 18.6563 4.63736 17.4935 2.97005 15.8829C2.36188 15.2702 1.87891 14.534 1.55056 13.7192C1.2222 12.9044 1.05533 12.0279 1.06009 11.1433L1.1392 3.62741L8.84085 0.736428L16.5425 3.6274L16.6217 11.1393C16.6067 15.6527 12.6364 18.0491 8.84085 19.2718Z" fill="#337265"/>
<path d="M15.4744 4.05992L8.95268 1.5599C8.88039 1.53212 8.80134 1.53212 8.72905 1.5599L2.20734 4.06009C2.14353 4.08457 2.08825 4.12939 2.04891 4.18852C2.00957 4.24766 1.98806 4.31827 1.98727 4.39089L1.9179 11.1205C1.91282 11.9051 2.05684 12.6826 2.34118 13.4057C2.62552 14.1288 3.04423 14.7823 3.57183 15.3264C5.0662 16.8121 6.87404 17.888 8.84086 18.4621C10.8077 17.8881 12.6156 16.8122 14.1099 15.3264C14.6369 14.7842 15.0553 14.1328 15.3396 13.4117C15.624 12.6906 15.7683 11.9151 15.7638 11.1323L15.6945 4.39071C15.6937 4.3181 15.6722 4.24749 15.6328 4.18835C15.5935 4.12922 15.5382 4.0844 15.4744 4.05992ZM8.84086 17.7344C7.0486 17.1664 5.40174 16.1656 4.02687 14.8089C3.56541 14.3319 3.19933 13.7592 2.95088 13.1258C2.70243 12.4924 2.57682 11.8115 2.58167 11.1244L2.64844 4.64632L8.84086 2.27238L15.0333 4.64615L15.1001 11.1363C15.0994 14.7552 11.7751 16.6668 8.84086 17.7344Z" fill="#337265"/>
<path d="M13.9238 7.86597L9.08768 5.45212C9.01447 5.40944 8.9331 5.38638 8.85021 5.38485C8.76732 5.38331 8.68528 5.40334 8.6108 5.44329L3.75794 7.86596C3.75203 7.86885 3.74644 7.87191 3.74085 7.87515C3.65486 7.92446 3.58285 7.99871 3.53266 8.08981C3.48247 8.18091 3.45604 8.28537 3.45624 8.39182C3.45687 8.50158 3.48545 8.60896 3.53876 8.70185C3.59207 8.79474 3.66799 8.86943 3.75794 8.91749L4.95193 9.51345V12.9747C4.95201 13.0629 4.9808 13.1482 5.0331 13.2152C5.07781 13.2723 6.1594 14.6155 8.84085 14.6155C11.5223 14.6155 12.6039 13.2723 12.6486 13.2152C12.7009 13.1482 12.7297 13.0629 12.7298 12.9747V9.51307L13.9409 8.9083C14.0268 8.85901 14.0988 8.7848 14.149 8.69373C14.1992 8.60266 14.2256 8.49824 14.2255 8.39182C14.2249 8.28203 14.1963 8.17461 14.143 8.0817C14.0897 7.98878 14.0137 7.91406 13.9238 7.86597ZM12.0567 12.8193C11.7813 13.0866 10.8009 13.8771 8.84085 13.8771C6.87848 13.8771 5.89811 13.0848 5.625 12.8195V9.84941L8.59403 11.3313C8.67169 11.3756 8.75792 11.3988 8.84545 11.3989C8.92383 11.3996 9.00118 11.3794 9.0709 11.3402L12.0567 9.8492V12.8193ZM8.84152 10.6441L4.32915 8.392L8.84021 6.13932L13.3526 8.39146L8.84152 10.6441Z" fill="#E26F64"/>
</svg>
