<svg width="8" height="7" viewBox="0 0 8 7" fill="none" xmlns="http://www.w3.org/2000/svg">
<path d="M5.47733 0.000648946H4.19824C4.29335 1.51432 5.52522 2.72219 7.05598 2.79158V1.56829C7.05598 0.702221 6.34882 0 5.47668 0L5.47733 0.000648946Z" fill="#1D2A33"/>
<path d="M4.65771 3.50263C4.65771 2.88329 4.15177 2.38086 3.52808 2.38086C2.90438 2.38086 2.39844 2.88329 2.39844 3.50263C2.39844 4.12198 2.90438 4.6244 3.52808 4.6244C4.15177 4.6244 4.65771 4.12198 4.65771 3.50263Z" fill="#1D2A33"/>
<path d="M1.57865 0H2.85773C2.76265 1.51367 1.53142 2.72154 0 2.79156V1.56829C0 0.702221 0.707157 0 1.57865 0Z" fill="#1D2A33"/>
<path d="M0 4.2168V5.44009C0 6.30615 0.707157 7.00837 1.5793 7.00837H2.8584C2.76329 5.4947 1.53142 4.28683 0.000647024 4.21745L0 4.2168Z" fill="#1D2A33"/>
<path d="M5.47782 7.00835H4.19873L4.19938 7.00772C4.29449 5.49403 5.5257 4.28618 7.05711 4.2168V5.44007C7.05711 6.30613 6.34996 7.00835 5.47782 7.00835Z" fill="#1D2A33"/>
</svg>
