<svg width="33" height="34" viewBox="0 0 33 34" fill="none" xmlns="http://www.w3.org/2000/svg">
<path d="M17.4974 4.06836C24.203 4.06836 29.6391 9.56329 29.6391 16.3414C29.6391 23.1196 24.203 28.6145 17.4974 28.6145H6.36752L9.4333 25.5156C6.93211 23.2676 5.35571 19.9906 5.35571 16.3414C5.35571 9.56329 10.7918 4.06836 17.4974 4.06836Z" fill="#007AFF"/>
<path d="M3.66939 24.1816C4.41475 24.1816 5.01847 24.7919 5.01847 25.5453C5.01847 26.2987 4.41475 26.909 3.66939 26.909C2.92402 26.909 2.32031 26.2987 2.32031 25.5453C2.32031 24.7919 2.92402 24.1816 3.66939 24.1816Z" fill="#C9C9C9"/>
<path d="M29.9765 6.11447C31.0941 6.11447 32.0001 5.19866 32.0001 4.06895C32.0001 2.93925 31.0941 2.02344 29.9765 2.02344C28.8589 2.02344 27.9529 2.93925 27.9529 4.06895C27.9529 5.19866 28.8589 6.11447 29.9765 6.11447Z" fill="#C9C9C9"/>
<path d="M19.5211 16.0006V21.7962C19.5211 22.926 18.6152 23.8417 17.4975 23.8417C16.3798 23.8417 15.4739 22.926 15.4739 21.7962V16.0006C15.4739 14.8708 16.3798 13.9551 17.4975 13.9551C18.056 13.9551 18.5619 14.1842 18.9282 14.5544C19.2945 14.9247 19.5211 15.436 19.5211 16.0006Z" fill="#E6F2FF"/>
<path d="M18.9282 8.75949C19.2945 9.12973 19.5211 9.64111 19.5211 10.2057C19.5211 10.7702 19.2945 11.2816 18.9282 11.6518C18.5619 12.0221 18.056 12.2512 17.4975 12.2512C16.3798 12.2512 15.4739 11.3355 15.4739 10.2057C15.4739 9.64111 15.7005 9.12973 16.0668 8.75949C16.4331 8.38925 16.939 8.16016 17.4975 8.16016C18.056 8.16016 18.5619 8.38925 18.9282 8.75949Z" fill="#E6F2FF"/>
<path d="M31.1568 11.2278C31.4362 11.2278 31.6627 10.9989 31.6627 10.7165C31.6627 10.434 31.4362 10.2051 31.1568 10.2051C30.8774 10.2051 30.6509 10.434 30.6509 10.7165C30.6509 10.9989 30.8774 11.2278 31.1568 11.2278Z" fill="#8BF2CF"/>
<path d="M30.4822 26.2278C30.7616 26.2278 30.9881 25.9989 30.9881 25.7165C30.9881 25.434 30.7616 25.2051 30.4822 25.2051C30.2028 25.2051 29.9763 25.434 29.9763 25.7165C29.9763 25.9989 30.2028 26.2278 30.4822 26.2278Z" fill="#8BF2CF"/>
<path d="M24.0743 2.36455C24.3537 2.36455 24.5802 2.1356 24.5802 1.85318C24.5802 1.57075 24.3537 1.3418 24.0743 1.3418C23.7949 1.3418 23.5684 1.57075 23.5684 1.85318C23.5684 2.1356 23.7949 2.36455 24.0743 2.36455Z" fill="#8BF2CF"/>
<path d="M23.3997 31.3411C23.6791 31.3411 23.9056 31.1122 23.9056 30.8297C23.9056 30.5473 23.6791 30.3184 23.3997 30.3184C23.1203 30.3184 22.8938 30.5473 22.8938 30.8297C22.8938 31.1122 23.1203 31.3411 23.3997 31.3411Z" fill="#8BF2CF"/>
<path d="M9.57158 2.02276C9.85098 2.02276 10.0775 1.79381 10.0775 1.51138C10.0775 1.22895 9.85098 1 9.57158 1C9.29217 1 9.06567 1.22895 9.06567 1.51138C9.06567 1.79381 9.29217 2.02276 9.57158 2.02276Z" fill="#8BF2CF"/>
<path d="M2.82622 13.2728C3.10562 13.2728 3.33212 13.0438 3.33212 12.7614C3.33212 12.479 3.10562 12.25 2.82622 12.25C2.54681 12.25 2.32031 12.479 2.32031 12.7614C2.32031 13.0438 2.54681 13.2728 2.82622 13.2728Z" fill="#8BF2CF"/>
<path d="M8.05382 16.6814C7.86758 16.6814 7.71655 16.5288 7.71655 16.3405C7.71655 14.4773 8.2321 12.6623 9.20748 11.0916C10.1562 9.56379 11.4981 8.32646 13.0881 7.51337C13.2544 7.42834 13.4573 7.49564 13.5413 7.66364C13.6254 7.83165 13.5589 8.03675 13.3927 8.12177C10.3076 9.69941 8.39109 12.8487 8.39109 16.3405C8.39109 16.5288 8.24006 16.6814 8.05382 16.6814Z" fill="#492C82"/>
<path d="M21.2077 25.4626C21.0767 25.4626 20.9522 25.3851 20.8974 25.2557C20.8241 25.0826 20.9036 24.8822 21.0749 24.8082C24.4336 23.3566 26.6038 20.0329 26.6038 16.3409C26.6038 16.1526 26.7548 16 26.9411 16C27.1274 16 27.2784 16.1526 27.2784 16.3409C27.2784 20.3063 24.9474 23.876 21.3401 25.4351C21.2968 25.4538 21.2519 25.4626 21.2077 25.4626Z" fill="#492C82"/>
</svg>
