<svg width="33" height="34" viewBox="0 0 33 34" fill="none" xmlns="http://www.w3.org/2000/svg">
<path fill-rule="evenodd" clip-rule="evenodd" d="M28.4694 27.277H4.53003C3.13468 27.277 1.99951 26.1418 1.99951 24.7464V15.3849H30.9998V24.7464C30.9997 26.1418 29.8647 27.277 28.4694 27.277ZM1.99956 10.5311V9.25317C1.99956 7.85783 3.13473 6.72266 4.53007 6.72266H28.4694C29.8648 6.72266 30.9999 7.85783 30.9999 9.25317V10.5311H1.99956ZM28.3687 22.0822H15.4664C15.2994 22.0822 15.164 21.9469 15.164 21.7799C15.164 21.6129 15.2994 21.4775 15.4664 21.4775L28.3687 21.4775C28.5357 21.4775 28.6711 21.6129 28.6711 21.7799C28.6711 21.9469 28.5357 22.0822 28.3687 22.0822ZM28.3687 19.8541H17.4872C17.3202 19.8541 17.1848 19.7187 17.1848 19.5517C17.1848 19.3847 17.3202 19.2494 17.4872 19.2494H28.3687C28.5357 19.2494 28.6711 19.3847 28.6711 19.5517C28.6711 19.7187 28.5357 19.8541 28.3687 19.8541ZM11.2923 24.2974H7.30546H6.52516C5.7962 24.2974 5.20312 23.7044 5.20312 22.9754V18.4597C5.20312 17.7308 5.79618 17.1377 6.52516 17.1377L11.2923 17.1378C12.0212 17.1378 12.6143 17.7308 12.6143 18.4598V22.9755C12.6142 23.7044 12.0212 24.2974 11.2923 24.2974Z" fill="#007AFF"/>
<path fill-rule="evenodd" clip-rule="evenodd" d="M13.1214 5.72153H5.29703C5.0466 5.72153 4.84351 5.51844 4.84351 5.268C4.84351 5.01755 5.04658 4.81445 5.29703 4.81445H13.1214C13.3718 4.81445 13.5749 5.01755 13.5749 5.268C13.5749 5.51846 13.3718 5.72153 13.1214 5.72153Z" fill="#007AFF"/>
<path fill-rule="evenodd" clip-rule="evenodd" d="M28.824 29.1824H20.9997C20.7492 29.1824 20.5461 28.9794 20.5461 28.7289C20.5461 28.4785 20.7492 28.2754 20.9997 28.2754H28.824C29.0745 28.2754 29.2776 28.4785 29.2776 28.7289C29.2776 28.9794 29.0745 29.1824 28.824 29.1824Z" fill="#007AFF"/>
<path fill-rule="evenodd" clip-rule="evenodd" d="M7.60889 19.6248H12.0106V18.4595C12.0106 18.064 11.6887 17.7422 11.2932 17.7422L7.60889 17.7422V19.6248Z" fill="#D3E0DD"/>
<path fill-rule="evenodd" clip-rule="evenodd" d="M12.0106 20.2305H7.60889V21.2061H12.0106V20.2305Z" fill="#D3E0DD"/>
<path fill-rule="evenodd" clip-rule="evenodd" d="M12.0106 21.8105H7.60889V23.6932L11.2932 23.6932C11.6887 23.6932 12.0106 23.3714 12.0106 22.9759V21.8105Z" fill="#D3E0DD"/>
<path fill-rule="evenodd" clip-rule="evenodd" d="M7.00343 21.5074V19.9271V17.7422H6.52542C6.12992 17.7422 5.80811 18.064 5.80811 18.4595V22.9752C5.80811 23.3707 6.12992 23.6925 6.52542 23.6925H7.00343V21.5074Z" fill="#D3E0DD"/>
<path fill-rule="evenodd" clip-rule="evenodd" d="M1.99951 10.5311H30.9998V9.25317C30.9998 7.85783 29.8647 6.72266 28.4694 6.72266H4.53003C3.13469 6.72266 1.99951 7.85783 1.99951 9.25317V10.5311Z" fill="#007AFF"/>
<path fill-rule="evenodd" clip-rule="evenodd" d="M30.9998 11.1348H1.99951V14.7791H30.9998V11.1348ZM20.9631 13.3049C20.7961 13.3049 20.6608 13.1695 20.6608 13.0025C20.6608 12.8355 20.7961 12.7002 20.9631 12.7002H27.3366C27.5036 12.7002 27.6389 12.8355 27.6389 13.0025C27.6389 13.1695 27.5036 13.3049 27.3366 13.3049H20.9631Z" fill="#D3E0DD"/>
</svg>
