<svg width="29" height="28" viewBox="0 0 29 28" fill="none" xmlns="http://www.w3.org/2000/svg">
<path d="M11.3553 2.50426C12.1542 1.82364 12.5543 1.48264 12.9723 1.28326C13.4494 1.05563 13.9713 0.9375 14.5 0.9375C15.0286 0.9375 15.5505 1.05563 16.0276 1.28326C16.4456 1.48264 16.8457 1.82364 17.6446 2.50426C18.4682 3.20551 19.3042 3.56026 20.4042 3.64689C21.4506 3.73076 21.9745 3.77339 22.4117 3.92739C23.421 4.28489 24.2157 5.07826 24.5718 6.08889C24.7258 6.52476 24.7684 7.04864 24.8523 8.09639C24.9389 9.19639 25.2923 10.031 25.9936 10.8546C26.6756 11.6535 27.0166 12.0536 27.2159 12.4716C27.6779 13.4383 27.6779 14.5616 27.2159 15.5269C27.0166 15.9449 26.6756 16.345 25.995 17.1439C25.3136 17.9085 24.9109 18.8811 24.8523 19.9035C24.7684 20.9499 24.7258 21.4738 24.5718 21.911C24.3953 22.4094 24.1096 22.862 23.7356 23.2357C23.3616 23.6095 22.9088 23.8949 22.4103 24.0711C21.9745 24.2251 21.4506 24.2678 20.4028 24.3516C19.3028 24.4383 18.4682 24.7916 17.6446 25.4929C16.8457 26.1749 16.4456 26.5159 16.0276 26.7153C15.5505 26.9429 15.0286 27.061 14.5 27.061C13.9713 27.061 13.4494 26.9429 12.9723 26.7153C12.5543 26.5159 12.1542 26.1749 11.3553 25.4943C10.5908 24.8129 9.61817 24.4102 8.5957 24.3516C7.54933 24.2678 7.02545 24.2251 6.5882 24.0711C6.08982 23.8946 5.63721 23.6089 5.26347 23.2349C4.88972 22.8609 4.6043 22.4081 4.42808 21.9096C4.27408 21.4738 4.23145 20.9499 4.14758 19.9021C4.08912 18.8803 3.68693 17.9083 3.00633 17.1439C2.32433 16.345 1.98333 15.9449 1.78258 15.5269C1.55516 15.0497 1.43726 14.5277 1.4375 13.9991C1.43774 13.4705 1.55611 12.9486 1.78395 12.4716C1.98333 12.0536 2.32433 11.6535 3.00495 10.8546C3.71995 10.0145 4.06233 9.17301 4.14758 8.09501C4.23145 7.04864 4.27408 6.52476 4.42808 6.08751C4.60462 5.58914 4.89033 5.13652 5.26431 4.76278C5.63829 4.38904 6.09109 4.10361 6.58958 3.92739C7.02545 3.77339 7.54933 3.73076 8.59708 3.64689C9.61889 3.58844 10.5909 3.18487 11.3553 2.50426Z" stroke="#007AFF" stroke-width="1.5" stroke-linecap="round" stroke-linejoin="round"/>
<path d="M14.5 19.5V12.625H13.8125M13.8125 19.5H15.1875M14.5 9.1875V8.5" stroke="#007AFF" stroke-width="1.5" stroke-linecap="round" stroke-linejoin="round"/>
</svg>
