<svg width="18" height="30" viewBox="0 0 18 30" fill="none" xmlns="http://www.w3.org/2000/svg">
<path d="M7.29803 11.9307H11.0048V12.7015H7.29803V11.9307Z" fill="#337265"/>
<path d="M9.64241 18.2299L7.01527 15.3916C6.90734 15.2752 6.88152 15.104 6.95128 14.961C7.02143 14.818 7.1679 14.7329 7.3294 14.7456C7.33942 14.7464 8.58284 14.8354 9.17102 14.1898C9.65397 13.6602 8.77132 12.5736 8.76207 12.5625L9.35179 12.0664C9.85093 12.6588 10.4942 13.8822 9.7407 14.709C9.29821 15.1942 8.65839 15.3935 8.13997 15.4725L10.2075 17.7061L9.64241 18.2299Z" fill="#337265"/>
<path d="M7.29803 13.3608H11.0048V13.939H7.29803V13.3608Z" fill="#337265"/>
<path d="M14.3637 30.0002H3.63624C2.14883 30.0002 0.938171 28.7899 0.938171 27.3021C0.938171 27.0893 1.11046 26.9167 1.32361 26.9167C1.53676 26.9167 1.70905 27.0893 1.70905 27.3021C1.70905 28.3648 2.57358 29.2293 3.63624 29.2293H14.3637C15.4264 29.2293 16.2909 28.3648 16.2909 27.3021V2.69807C16.2909 1.63541 15.4264 0.770876 14.3637 0.770876H3.63624C2.57358 0.770876 1.70905 1.63541 1.70905 2.69807V26.2179C1.70905 26.4306 1.53676 26.6033 1.32361 26.6033C1.11046 26.6033 0.938171 26.4306 0.938171 26.2179V2.69807C0.938171 1.21028 2.14883 0 3.63624 0H14.3637C15.8511 0 17.0618 1.21028 17.0618 2.69807V27.3017C17.0618 28.7899 15.8511 30.0002 14.3637 30.0002Z" fill="#E26F64"/>
<path d="M7.6723 1.15723H10.1572V1.9281H7.6723V1.15723Z" fill="#E26F64"/>
<path d="M9.15201 20.6304C6.04807 20.6304 3.52307 18.1054 3.52307 15.0015C3.52307 11.8976 6.04846 9.37256 9.15201 9.37256C12.2556 9.37256 14.7809 11.8976 14.7809 15.0015C14.7809 18.1054 12.2556 20.6304 9.15201 20.6304ZM9.15201 10.1434C6.47321 10.1434 4.29395 12.3227 4.29395 15.0015C4.29395 17.6803 6.47321 19.8596 9.15201 19.8596C11.8304 19.8596 14.0101 17.6803 14.0101 15.0015C14.0101 12.3227 11.8304 10.1434 9.15201 10.1434Z" fill="#337265"/>
</svg>
