<svg width="12" height="13" viewBox="0 0 12 13" fill="none" xmlns="http://www.w3.org/2000/svg">
<path d="M11.6206 2.98535L9.50351 0.865768C9.01639 0.378077 8.21077 0.378077 7.72365 0.865768L0.772834 7.80598C0.679157 7.89977 0.679157 7.99355 0.660422 8.01231L0.00468384 12.0639C-0.0140515 12.1764 0.0234192 12.3077 0.117096 12.3828C0.192037 12.4766 0.323185 12.5141 0.435597 12.4953L4.48244 11.8388C4.50117 11.8388 4.59485 11.82 4.68852 11.7263L11.6206 4.76729C12.1265 4.2796 12.1265 3.47304 11.6206 2.98535ZM4.42623 10.9197L3.26464 9.75674L8.1733 4.84232L9.33489 6.00528L4.42623 10.9197ZM2.72131 9.23154C2.68384 9.19402 1.48478 7.99355 1.55972 8.06858L6.46838 3.15416L7.62998 4.31712L2.72131 9.23154ZM0.82904 11.67L1.27869 8.85639L3.62061 11.2011L0.82904 11.67ZM11.096 4.24209L9.85948 5.48007L7.01171 2.62896L8.24824 1.39097C8.4356 1.2034 8.77283 1.2034 8.97892 1.39097L11.096 3.51055C11.3021 3.71688 11.3021 4.03576 11.096 4.24209Z" fill="#492C82"/>
</svg>
