<svg width="8" height="8" viewBox="0 0 8 8" fill="none" xmlns="http://www.w3.org/2000/svg">
<path d="M7.74707 1.6569L6.33568 0.243845C6.01093 -0.0812817 5.47385 -0.0812817 5.1491 0.243845L0.515222 4.87065C0.452771 4.93318 0.452771 4.9957 0.440281 5.00821L0.00312256 7.70926C-0.00936768 7.78429 0.0156128 7.87183 0.078064 7.92184C0.128025 7.98437 0.215457 8.00938 0.290398 7.99687L2.98829 7.5592C3.00078 7.5592 3.06323 7.5467 3.12568 7.48417L7.74707 2.84486C8.08431 2.51973 8.08431 1.98202 7.74707 1.6569ZM2.95082 6.94646L2.17642 6.17116L5.44887 2.89488L6.22326 3.67018L2.95082 6.94646ZM1.81421 5.82102C1.78923 5.79601 0.989852 4.9957 1.03981 5.04572L4.31226 1.76944L5.08665 2.54474L1.81421 5.82102ZM0.552693 7.44666L0.852459 5.57093L2.41374 7.13404L0.552693 7.44666ZM7.39735 2.49472L6.57299 3.32005L4.67447 1.4193L5.49883 0.593982C5.62373 0.468933 5.84856 0.468933 5.98595 0.593982L7.39735 2.00703C7.53474 2.14459 7.53474 2.35717 7.39735 2.49472Z" fill="#1A7BFE"/>
</svg>
