<svg width="31" height="30" viewBox="0 0 31 30" fill="none" xmlns="http://www.w3.org/2000/svg">
<path d="M15.4976 30C23.7818 30 30.4976 23.2843 30.4976 15C30.4976 6.71573 23.7818 0 15.4976 0C7.21329 0 0.497559 6.71573 0.497559 15C0.497559 23.2843 7.21329 30 15.4976 30Z" fill="#0066FF"/>
<path fill-rule="evenodd" clip-rule="evenodd" d="M15.4976 9.53157C14.7662 9.53157 14.1698 8.93517 14.1698 8.19248V8.13622C14.0123 7.98993 13.7422 7.65235 13.7872 7.0672C13.8097 6.58333 14.0685 5.44679 15.6664 5.40178C16.094 5.39053 16.8705 5.60433 16.9718 6.41454C17.1068 6.52706 17.2531 6.71836 17.2868 6.97718C17.3319 7.33727 17.1856 7.71986 16.8367 8.12496V8.19248C16.8367 8.93517 16.2403 9.53157 15.4976 9.53157ZM14.6199 8.09121V8.19248C14.6199 8.6876 15.0138 9.08145 15.4976 9.08145C15.9928 9.08145 16.3866 8.6876 16.3866 8.19248V8.09121C16.3078 7.96742 16.1503 7.6636 16.1165 7.33727C15.9253 7.40478 15.6777 7.4723 15.4976 7.4723C15.3176 7.4723 15.0813 7.40478 14.89 7.33727C14.845 7.6636 14.6987 7.96742 14.6199 8.09121Z" fill="#FEFEFE"/>
<path fill-rule="evenodd" clip-rule="evenodd" d="M16.0711 10.1279C15.9473 10.1279 15.846 10.0266 15.846 9.90282V9.14888C15.846 9.01385 15.9473 8.92383 16.0711 8.92383C16.1949 8.92383 16.2961 9.01385 16.2961 9.14888V9.90282C16.2961 10.0266 16.1949 10.1279 16.0711 10.1279ZM14.9233 10.1279C14.7995 10.1279 14.6982 10.0266 14.6982 9.90282V9.14888C14.6982 9.01385 14.7995 8.92383 14.9233 8.92383C15.0471 8.92383 15.1484 9.01385 15.1484 9.14888V9.90282C15.1484 10.0266 15.0471 10.1279 14.9233 10.1279Z" fill="#FEFEFE"/>
<path fill-rule="evenodd" clip-rule="evenodd" d="M18.4908 13.6612H17.298C17.4218 13.6612 17.5231 13.5712 17.5231 13.4362V12.4122C17.5231 12.2884 17.4218 12.1871 17.298 12.1871C17.1742 12.1871 17.073 12.2884 17.073 12.4122V13.4362C17.073 13.5712 17.1742 13.6612 17.298 13.6612H12.5156C12.3918 13.6612 12.2905 13.5712 12.2905 13.4362V11.6695C12.2905 10.5667 13.1908 9.67773 14.2823 9.67773H16.7129C17.8157 9.67773 18.7159 10.5667 18.7159 11.6695V13.4362C18.7159 13.5712 18.6146 13.6612 18.4908 13.6612ZM13.6971 13.6612C13.5733 13.6612 13.4721 13.5712 13.4721 13.4362V12.4122C13.4721 12.2884 13.5733 12.1871 13.6971 12.1871C13.8209 12.1871 13.9222 12.2884 13.9222 12.4122V13.4362C13.9222 13.5712 13.8209 13.6612 13.6971 13.6612ZM16.7241 11.7595H15.9027C15.5651 11.7595 15.295 11.4894 15.295 11.1519C15.295 10.8143 15.5651 10.5442 15.9027 10.5442H16.7241C17.0617 10.5442 17.343 10.8143 17.343 11.1519C17.343 11.4894 17.0617 11.7595 16.7241 11.7595ZM15.9027 10.9943C15.8127 10.9943 15.7451 11.0618 15.7451 11.1519C15.7451 11.2419 15.8127 11.3094 15.9027 11.3094H16.7241C16.8142 11.3094 16.8929 11.2419 16.8929 11.1519C16.8929 11.0618 16.8142 10.9943 16.7241 10.9943H15.9027Z" fill="#FEFEFE"/>
<path fill-rule="evenodd" clip-rule="evenodd" d="M20.7302 24.6105H10.2763C10.1525 24.6105 10.0513 24.5092 10.0513 24.3854V15.4619H20.9552V24.3854C20.9552 24.5092 20.854 24.6105 20.7302 24.6105ZM15.4976 21.1558C14.6537 21.1558 13.9672 20.4694 13.9672 19.6255C13.9672 18.7815 14.6537 18.0838 15.4976 18.0838C16.3416 18.0838 17.0393 18.7702 17.0393 19.6255C17.0393 20.4694 16.3416 21.1558 15.4976 21.1558ZM15.4976 18.5339C14.9012 18.5339 14.4174 19.0291 14.4174 19.6142C14.4174 20.2106 14.9012 20.7057 15.4976 20.7057C16.094 20.7057 16.5779 20.2106 16.5779 19.6142C16.5779 19.0291 16.094 18.5339 15.4976 18.5339ZM15.4976 22.7762C13.7534 22.7762 12.3468 21.3584 12.3468 19.6255C12.3468 17.8813 13.7534 16.4634 15.4976 16.4634C17.2418 16.4634 18.6597 17.8813 18.6597 19.6255C18.6597 21.3584 17.2418 22.7762 15.4976 22.7762ZM15.4976 16.9135C14.0123 16.9135 12.797 18.1288 12.797 19.6255C12.797 21.1108 14.0123 22.3261 15.4976 22.3261C16.9943 22.3261 18.2096 21.1108 18.2096 19.6255C18.2096 18.1288 16.9943 16.9135 15.4976 16.9135Z" fill="#FEFEFE"/>
<path fill-rule="evenodd" clip-rule="evenodd" d="M21.5403 15.0902H9.46598C9.1509 15.0902 8.89209 14.8313 8.89209 14.505V13.7961C8.89209 13.481 9.1509 13.2109 9.46598 13.2109H21.5403C21.8553 13.2109 22.1141 13.481 22.1141 13.7961V14.505C22.1141 14.8313 21.8553 15.0902 21.5403 15.0902Z" fill="#FEFEFE"/>
<path fill-rule="evenodd" clip-rule="evenodd" d="M11.8741 13.6612C11.6153 13.6612 10.3662 13.6612 10.1074 13.6612C9.9836 13.6612 9.88232 13.5712 9.88232 13.4362V13.2224C9.88232 12.761 10.2537 12.3896 10.715 12.3896H11.2664C11.7278 12.3896 12.0991 12.761 12.0991 13.2224V13.4362C12.0991 13.5712 11.9979 13.6612 11.8741 13.6612Z" fill="#FEFEFE"/>
<path fill-rule="evenodd" clip-rule="evenodd" d="M10.9848 12.84C10.861 12.84 10.7598 12.7388 10.7598 12.615V9.97057C10.7598 9.91431 10.7823 9.85804 10.8273 9.81303L11.5025 9.12661C11.5925 9.03659 11.7388 9.03659 11.8288 9.11536C11.9188 9.20538 11.9188 9.35167 11.8288 9.44169L11.2099 10.0606V12.615C11.2099 12.7388 11.1086 12.84 10.9848 12.84Z" fill="#FEFEFE"/>
<path fill-rule="evenodd" clip-rule="evenodd" d="M20.899 13.6612C20.6402 13.6612 19.3798 13.6612 19.1323 13.6612C19.0085 13.6612 18.9072 13.5712 18.9072 13.4362V13.2224C18.9072 12.761 19.2786 12.3896 19.7399 12.3896H20.2801C20.7414 12.3896 21.124 12.761 21.124 13.2224V13.4362C21.124 13.5712 21.0228 13.6612 20.899 13.6612Z" fill="#FEFEFE"/>
<path fill-rule="evenodd" clip-rule="evenodd" d="M12.0542 9.6333C11.8517 9.6333 11.6716 9.55453 11.5253 9.40824C11.3791 9.27321 11.3003 9.08191 11.3003 8.87936C11.3003 8.67681 11.3791 8.48551 11.5253 8.33922L12.0992 7.76533C12.3918 7.47276 12.8757 7.47276 13.1683 7.76533C13.4608 8.0579 13.4608 8.54177 13.1683 8.83435L12.5944 9.40824C12.4481 9.55453 12.2568 9.6333 12.0542 9.6333Z" fill="#FEFEFE"/>
<path fill-rule="evenodd" clip-rule="evenodd" d="M18.9409 9.6333C18.7383 9.6333 18.547 9.55453 18.412 9.40824L17.8381 8.83435C17.5455 8.54177 17.5455 8.0579 17.8381 7.76533C18.1307 7.47276 18.6033 7.47276 18.9071 7.76533L19.481 8.33922C19.616 8.48551 19.6948 8.67681 19.6948 8.87936C19.6948 9.08191 19.616 9.27321 19.481 9.40824C19.3347 9.55453 19.1434 9.6333 18.9409 9.6333Z" fill="#FEFEFE"/>
<path fill-rule="evenodd" clip-rule="evenodd" d="M20.0096 12.84C19.8858 12.84 19.7845 12.7388 19.7845 12.615V10.0606L19.1769 9.44169C19.0869 9.35167 19.0869 9.20538 19.1769 9.11536C19.2669 9.03659 19.4132 9.03659 19.492 9.12661L20.1784 9.81303C20.2122 9.85804 20.2347 9.91431 20.2347 9.97057V12.615C20.2347 12.7388 20.1334 12.84 20.0096 12.84Z" fill="#FEFEFE"/>
</svg>
