<svg width="26" height="29" viewBox="0 0 26 29" fill="none" xmlns="http://www.w3.org/2000/svg">
<path d="M13 18C12.5146 18 12.1333 17.615 12.1333 17.125V4.875C12.1333 4.385 12.5146 4 13 4C13.4853 4 13.8666 4.385 13.8666 4.875V17.125C13.8666 17.615 13.4853 18 13 18Z" fill="#E26F64"/>
<path d="M13.0001 26.7506C6.79473 26.7506 1.7334 21.8156 1.7334 15.7606C1.7334 11.5431 4.26406 7.64063 8.1814 5.82063C8.61473 5.62813 9.13473 5.82063 9.3254 6.25813C9.51607 6.69563 9.3254 7.22063 8.89207 7.41313C5.5814 8.93563 3.4494 12.2081 3.4494 15.7606C3.4494 20.8531 7.73073 25.0006 12.9827 25.0006C18.2347 25.0006 22.5161 20.8531 22.5161 15.7606C22.5161 12.2256 20.3841 8.93563 17.0734 7.41313C16.8645 7.31764 16.7017 7.14248 16.6204 6.926C16.5392 6.70952 16.5463 6.46937 16.6401 6.25813C16.8307 5.82063 17.3507 5.62813 17.7841 5.82063C21.7014 7.62313 24.2321 11.5256 24.2321 15.7606C24.2321 21.8156 19.1707 26.7506 12.9654 26.7506H13.0001Z" fill="#E26F64"/>
</svg>
