<svg width="36" height="31" viewBox="0 0 36 31" fill="none" xmlns="http://www.w3.org/2000/svg">
<path d="M18.3486 28.5922L12.4925 30.5686L8.37231 18.7909L14.2285 16.8145L18.3486 28.5922Z" fill="#AE4E32"/>
<path d="M30.4582 22.448C30.4582 22.448 16.682 18.6523 7.38664 21.904L4.90405 14.8074C14.1994 11.5557 22.6053 0 22.6053 0L30.4582 22.448Z" fill="#F4F3EF"/>
<path d="M6.40967 19.1111L7.3866 21.9038C16.682 18.652 30.4583 22.4478 30.4583 22.4478L26.4888 11.1008L6.40967 19.1111Z" fill="#E0E0E0"/>
<path d="M22.6052 0C22.6052 0 21.5533 1.44552 19.7837 3.45701L26.0969 21.5036C28.7345 21.9734 30.4582 22.448 30.4582 22.448L22.6052 0Z" fill="#FF6838"/>
<path d="M22.9517 12.512L26.0971 21.5034C28.7348 21.9732 30.4585 22.4478 30.4585 22.4478L26.489 11.1008L22.9517 12.512Z" fill="#AE4E32"/>
<path d="M2.60185 23.4772L7.3866 21.9042L4.90401 14.8076L0.150635 16.4704L2.60185 23.4772Z" fill="#FF6838"/>
<path d="M1.72803 20.9791L2.60189 23.4769L7.38664 21.904L6.40971 19.1113L1.72803 20.9791Z" fill="#AE4E32"/>
<path d="M28.4506 9.67544L29.1777 11.3896L35.3223 8.78323L34.5952 7.06902L28.4506 9.67544Z" fill="#FFDC00"/>
<path d="M35.3235 8.78288L34.9149 7.81982L28.7517 10.3831L29.1787 11.3898L35.3235 8.78288Z" fill="#FFC000"/>
<path d="M25.8294 6.4754L27.5364 7.21948L29.6909 2.27684L27.984 1.53276L25.8294 6.4754Z" fill="#FFDC00"/>
<path d="M29.4997 15.978L34.7402 17.2439L35.1774 15.4341L29.9369 14.1681L29.4997 15.978Z" fill="#FFC000"/>
</svg>
