<svg width="21" height="17" viewBox="0 0 21 17" fill="none" xmlns="http://www.w3.org/2000/svg">
<path d="M19.7542 2.17021H17.4407V0.542553C17.4407 0.398659 17.3844 0.260659 17.2843 0.15891C17.1842 0.0571616 17.0484 0 16.9068 0H4.09322C3.95162 0 3.81582 0.0571616 3.7157 0.15891C3.61557 0.260659 3.55932 0.398659 3.55932 0.542553V2.17021H1.24576C0.915366 2.17021 0.598501 2.30359 0.364875 2.541C0.13125 2.77842 0 3.10042 0 3.43617V4.88298C0 5.79431 0.356249 6.66831 0.990376 7.31272C1.6245 7.95712 2.48456 8.31915 3.38136 8.31915H3.83873C4.23628 9.69188 5.03529 10.9093 6.12969 11.8097C7.2241 12.7101 8.56211 13.2509 9.9661 13.3604V15.9149H7.65254C7.51094 15.9149 7.37514 15.9721 7.27502 16.0738C7.17489 16.1756 7.11864 16.3136 7.11864 16.4574C7.11864 16.6013 7.17489 16.7393 7.27502 16.8411C7.37514 16.9428 7.51094 17 7.65254 17H13.3475C13.4891 17 13.6249 16.9428 13.725 16.8411C13.8251 16.7393 13.8814 16.6013 13.8814 16.4574C13.8814 16.3136 13.8251 16.1756 13.725 16.0738C13.6249 15.9721 13.4891 15.9149 13.3475 15.9149H11.0339V13.3604C13.9205 13.1325 16.3222 11.0726 17.1399 8.31915H17.6186C18.5154 8.31915 19.3755 7.95712 20.0096 7.31272C20.6438 6.66831 21 5.79431 21 4.88298V3.43617C21 3.10042 20.8687 2.77842 20.6351 2.541C20.4015 2.30359 20.0846 2.17021 19.7542 2.17021ZM3.38136 7.23404C2.76776 7.23404 2.1793 6.98634 1.74542 6.54543C1.31155 6.10452 1.0678 5.50652 1.0678 4.88298V3.43617C1.0678 3.38821 1.08655 3.34221 1.11992 3.30829C1.1533 3.27437 1.19856 3.25532 1.24576 3.25532H3.55932V6.32979C3.56022 6.63213 3.57953 6.93413 3.61716 7.23404H3.38136ZM16.3729 6.2484C16.3729 9.55979 13.7586 12.2735 10.5445 12.2979C9.76952 12.3038 9.00105 12.1539 8.28337 11.8566C7.5657 11.5594 6.91301 11.1207 6.36295 10.5659C5.81288 10.0111 5.3763 9.35121 5.07838 8.62417C4.78046 7.89712 4.6271 7.11735 4.62712 6.32979V1.08511H16.3729V6.2484ZM19.9322 4.88298C19.9322 5.50652 19.6885 6.10452 19.2546 6.54543C18.8207 6.98634 18.2322 7.23404 17.6186 7.23404H17.3722C17.4175 6.90751 17.4404 6.57817 17.4407 6.2484V3.25532H19.7542C19.8014 3.25532 19.8467 3.27437 19.8801 3.30829C19.9135 3.34221 19.9322 3.38821 19.9322 3.43617V4.88298Z" fill="#B962C9"/>
</svg>
