<svg width="196" height="142" viewBox="0 0 196 142" fill="none" xmlns="http://www.w3.org/2000/svg">
<path d="M171.529 26.742C179.535 49.6099 172.616 76.2809 156.57 94.4384C140.524 112.596 116.459 122.581 92.273 124.225C75.0161 125.399 52.1048 122.334 37.7169 112.733C23.3289 103.132 13.3278 89.0242 16.7971 70.8499C18.0214 64.4316 22.1647 55.8382 27.1086 51.5815C34.9981 44.7561 46.7907 46.0071 57.1021 47.6618C67.4135 49.3164 79.1928 50.5974 87.1256 43.8121C93.2104 38.5946 95.1019 30.1347 98.8682 23.0591C105.273 11.0263 118.057 2.63976 131.644 1.55557C133.531 1.40627 135.426 1.39401 137.315 1.51888C151.977 2.49298 164.807 11.7602 170.831 25.1641L171.529 26.742Z" fill="#F5F5F5"/>
<path d="M33.5439 58.9309L33.5439 137.326C33.5439 139.454 35.269 141.179 37.397 141.179H153.255C155.382 141.179 157.108 139.454 157.108 137.326V58.9309C157.108 56.8029 155.382 55.0778 153.255 55.0778L37.397 55.0778C35.269 55.0778 33.5439 56.8029 33.5439 58.9309Z" fill="#263238"/>
<path d="M41.9973 57.793L41.9973 138.466H145.188V57.793H41.9973Z" fill="white"/>
<path d="M154.124 98.8959C154.541 97.1203 153.44 95.3425 151.665 94.9251C149.889 94.5076 148.111 95.6086 147.694 97.3842C147.277 99.1598 148.378 100.938 150.153 101.355C151.929 101.772 153.707 100.671 154.124 98.8959Z" fill="#E26F64"/>
<path d="M37.1001 85.5685V110.688C37.1001 110.913 37.2823 111.095 37.5071 111.095H38.0575C38.2823 111.095 38.4645 110.913 38.4645 110.688V85.5685C38.4645 85.3437 38.2823 85.1615 38.0575 85.1615H37.5071C37.2823 85.1615 37.1001 85.3437 37.1001 85.5685Z" fill="#E26F64"/>
<path d="M71.2693 105.127C73.8004 101.281 72.7346 96.111 68.8886 93.5799C65.0426 91.0487 59.873 92.1146 57.3418 95.9606C54.8107 99.8065 55.8766 104.976 59.7225 107.507C63.5685 110.038 68.7382 108.973 71.2693 105.127Z" fill="#1E1E1E"/>
<path d="M71.2693 105.127C73.8004 101.281 72.7346 96.111 68.8886 93.5799C65.0426 91.0487 59.873 92.1146 57.3418 95.9606C54.8107 99.8065 55.8766 104.976 59.7225 107.507C63.5685 110.038 68.7382 108.973 71.2693 105.127Z" fill="#E24444"/>
<path d="M61.4157 98.4516C61.7293 98.4249 62.0162 98.7852 62.0562 99.2322C62.0962 99.6792 61.866 100.076 61.5491 100.103C61.2322 100.13 60.9487 99.7693 60.912 99.3256C60.8753 98.8819 61.1121 98.4783 61.4157 98.4516Z" fill="#263238"/>
<path d="M66.7265 98.3418C66.4129 98.3418 66.1393 98.6754 66.1193 99.1491C66.0993 99.6228 66.3428 99.9864 66.6597 99.9998C66.9767 100.013 67.2502 99.6662 67.2669 99.1958C67.2836 98.7254 67.0434 98.3551 66.7265 98.3418Z" fill="#263238"/>
<path d="M67.6372 102.208C67.6372 102.305 66.0826 102.385 64.1678 102.385C62.253 102.385 60.6951 102.305 60.6951 102.208C60.6951 102.111 62.2496 102.028 64.1678 102.028C66.086 102.028 67.6372 102.105 67.6372 102.208Z" fill="#263238"/>
<path d="M62.0828 97.4945C62.0628 97.5946 61.6658 97.5912 61.2021 97.6646C60.7384 97.738 60.3614 97.8581 60.3114 97.7714C60.2613 97.6846 60.6116 97.3977 61.1487 97.3143C61.6858 97.2309 62.0828 97.4011 62.0828 97.4945Z" fill="#263238"/>
<path d="M68.2309 97.898C68.1708 97.9781 67.8105 97.7913 67.3468 97.6512C66.8831 97.511 66.4828 97.461 66.4728 97.3576C66.4628 97.2542 66.9165 97.1441 67.4502 97.3109C67.984 97.4777 68.2942 97.828 68.2309 97.898Z" fill="#263238"/>
<path d="M133.194 101.225C133.944 96.5122 130.733 92.0836 126.02 91.333C121.308 90.5824 116.879 93.7941 116.129 98.5065C115.378 103.219 118.59 107.648 123.302 108.398C128.014 109.149 132.443 105.937 133.194 101.225Z" fill="#1E1E1E"/>
<path d="M133.194 101.225C133.944 96.5122 130.733 92.0836 126.02 91.333C121.308 90.5824 116.879 93.7941 116.129 98.5065C115.378 103.219 118.59 107.648 123.302 108.398C128.014 109.149 132.443 105.937 133.194 101.225Z" fill="#009C89"/>
<path d="M121.673 97.6845C122.006 97.6578 122.3 98.0181 122.34 98.4918C122.38 98.9655 122.147 99.3692 121.82 99.3958C121.493 99.4225 121.192 99.0622 121.152 98.5885C121.112 98.1148 121.346 97.7112 121.673 97.6845Z" fill="#263238"/>
<path d="M127.167 97.5708C126.834 97.5708 126.557 97.9311 126.537 98.4048C126.517 98.8785 126.771 99.2721 127.097 99.2855C127.424 99.2988 127.708 98.9252 127.728 98.4515C127.748 97.9778 127.498 97.5841 127.167 97.5708Z" fill="#263238"/>
<path d="M128.111 101.574C128.075 101.621 127.714 101.364 127.111 101.047C126.317 100.632 125.434 100.415 124.539 100.413C123.642 100.453 122.763 100.68 121.96 101.08C121.333 101.387 120.959 101.621 120.929 101.574C120.899 101.527 121.226 101.24 121.843 100.86C122.657 100.368 123.582 100.092 124.532 100.056C125.487 100.054 126.424 100.321 127.234 100.827C127.831 101.207 128.135 101.541 128.111 101.574Z" fill="#263238"/>
<path d="M122.333 96.6904C122.363 96.7271 122.307 96.8372 122.163 96.9606C121.975 97.1302 121.745 97.2455 121.496 97.2942C121.243 97.3425 120.982 97.3134 120.745 97.2108C120.569 97.1307 120.489 97.0373 120.509 96.994C120.529 96.9506 120.959 97.0373 121.433 96.9439C121.906 96.8505 122.27 96.6103 122.333 96.6904Z" fill="#263238"/>
<path d="M128.729 97.1108C128.729 97.1542 128.648 97.2376 128.455 97.2976C128.201 97.3697 127.93 97.3603 127.681 97.2709C127.437 97.1849 127.218 97.0392 127.044 96.8472C126.917 96.7005 126.87 96.5837 126.904 96.5504C126.937 96.517 127.327 96.7705 127.794 96.934C128.261 97.0974 128.695 97.0107 128.729 97.1108Z" fill="#263238"/>
<path d="M110.414 124.889L112.917 123.758L115.361 124.999L114.952 122.475L117 120.74L114.243 120.313L113.067 117.999L111.774 120.26L109 120.565L110.952 122.388L110.414 124.889Z" fill="#E0E0E0"/>
<path d="M74.414 124.889L76.9166 123.758L79.3566 124.999L78.952 122.475L81 120.74L78.243 120.313L77.0667 117.999L75.7737 120.26L73 120.565L74.952 122.388L74.414 124.889Z" fill="url(#paint0_linear_1758_3783)"/>
<path d="M83.2372 124.889L85.427 123.758L87.562 124.999L87.208 122.475L89 120.74L86.5876 120.313L85.5584 117.999L84.427 120.26L82 120.565L83.708 122.388L83.2372 124.889Z" fill="url(#paint1_linear_1758_3783)"/>
<path d="M92.414 124.889L94.9166 123.758L97.3566 124.999L96.952 122.475L99 120.74L96.243 120.313L95.0667 117.999L93.7737 120.26L91 120.565L92.952 122.388L92.414 124.889Z" fill="url(#paint2_linear_1758_3783)"/>
<path d="M101.414 124.889L103.917 123.758L106.357 124.999L105.952 122.475L108 120.74L105.243 120.313L104.067 117.999L102.774 120.26L100 120.565L101.952 122.388L101.414 124.889Z" fill="url(#paint3_linear_1758_3783)"/>
<path d="M113.456 74.6898C113.456 74.7398 104.496 74.7798 93.4408 74.7798C82.3854 74.7798 73.425 74.7398 73.425 74.6898C73.425 74.6397 82.3821 74.603 93.4408 74.603C104.499 74.603 113.456 74.6431 113.456 74.6898Z" fill="#263238"/>
<path d="M103.615 72.2878C103.615 72.3379 99.1919 72.3779 93.7343 72.3779C88.2767 72.3779 83.8499 72.3379 83.8499 72.2878C83.8499 72.2378 88.2733 72.1978 93.7343 72.1978C99.1952 72.1978 103.615 72.2378 103.615 72.2878Z" fill="#263238"/>
<path d="M105.995 101.372C107.922 95.3883 104.635 88.975 98.6516 87.047C92.6683 85.1191 86.255 88.4066 84.327 94.3899C82.3991 100.373 85.6866 106.787 91.6699 108.714C97.6532 110.642 104.067 107.355 105.995 101.372Z" fill="#E4A70A"/>
<path d="M91.2258 95.0021C91.6561 94.9688 92.0464 95.4425 92.0998 96.0663C92.1532 96.6901 91.8429 97.2206 91.4126 97.2573C90.9822 97.2939 90.5886 96.8169 90.5385 96.1964C90.4885 95.5759 90.7954 95.0388 91.2258 95.0021Z" fill="#263238"/>
<path d="M98.4613 94.8692C98.031 94.8492 97.6573 95.3429 97.634 95.9668C97.6106 96.5906 97.9376 97.111 98.3679 97.1277C98.7982 97.1444 99.1719 96.654 99.1986 96.0302C99.2252 95.4063 98.895 94.8692 98.4613 94.8692Z" fill="#263238"/>
<path d="M99.7025 98.5886C99.7225 98.6086 99.6291 98.7253 99.4456 98.9222C99.1843 99.2038 98.8985 99.4617 98.5916 99.6928C98.1316 100.037 97.625 100.315 97.0871 100.517C96.4204 100.767 95.7102 100.88 94.9988 100.85C94.2926 100.813 93.5984 100.652 92.9472 100.377C92.4189 100.163 91.9128 99.8981 91.436 99.586C90.6287 99.0456 90.2017 98.6253 90.225 98.5852C90.2484 98.5452 90.7454 98.8855 91.5594 99.3592C92.0395 99.6325 92.5404 99.8679 93.0573 100.063C93.6815 100.306 94.3401 100.449 95.0088 100.487C95.6746 100.515 96.3398 100.419 96.9703 100.203C97.488 100.023 97.982 99.7813 98.4415 99.4826C98.8284 99.2157 99.142 98.9922 99.3455 98.8154C99.549 98.6386 99.6858 98.5719 99.7025 98.5886Z" fill="#263238"/>
<path d="M91.7396 92.4437C91.7196 92.5438 91.1758 92.5071 90.5286 92.6105C89.8815 92.7139 89.3744 92.9107 89.3244 92.8206C89.2743 92.7306 89.7547 92.3703 90.4753 92.2602C91.1958 92.1501 91.773 92.3503 91.7396 92.4437Z" fill="#263238"/>
<path d="M100.903 92.9741C100.84 93.0542 100.36 92.7673 99.7125 92.5738C99.0653 92.3803 98.5082 92.3403 98.5049 92.2402C98.5016 92.1401 99.102 92.0133 99.8193 92.2402C100.536 92.467 100.967 92.904 100.903 92.9741Z" fill="#263238"/>
<path d="M90.412 97.771C90.4553 97.771 90.5287 97.8811 90.5387 98.1046C90.544 98.3869 90.4574 98.6632 90.2919 98.8919C90.1301 99.1256 89.8955 99.2992 89.6247 99.3856C89.4179 99.4456 89.2911 99.4156 89.2744 99.3856C89.2744 99.2855 89.6947 99.1387 89.995 98.6984C90.2952 98.258 90.3119 97.7877 90.412 97.771Z" fill="#263238"/>
<path d="M100.666 98.8186C100.666 98.862 100.58 98.932 100.403 98.9454C100.171 98.9559 99.9417 98.8851 99.7558 98.7452C99.5658 98.608 99.4301 98.4085 99.3721 98.1814C99.3354 98.0079 99.3721 97.8979 99.4188 97.8945C99.5189 97.8945 99.6323 98.2281 99.9659 98.4583C100.3 98.6885 100.643 98.7185 100.666 98.8186Z" fill="#263238"/>
<path d="M109.07 97.7715C109.07 97.7715 109.07 97.6947 109.05 97.5413L109.006 96.8741C109.006 96.7273 108.99 96.5605 108.98 96.3804C108.97 96.2002 108.92 96.0034 108.89 95.7899C108.86 95.5764 108.82 95.3462 108.78 95.1027C108.732 94.8418 108.67 94.5834 108.596 94.3288C108.266 93.0069 107.737 91.7427 107.028 90.5791C106.103 89.0273 104.888 87.6681 103.449 86.576L102.838 86.1257C102.625 85.9855 102.401 85.8554 102.171 85.7187C101.941 85.5819 101.727 85.4318 101.484 85.3217L100.753 84.9714L100.383 84.7946L99.9926 84.6545L99.1987 84.3643C98.9318 84.2742 98.6482 84.2175 98.3714 84.1441C98.0924 84.0608 97.8082 83.9961 97.5207 83.9506C96.9335 83.8409 96.3394 83.7718 95.7426 83.7438C95.4391 83.7438 95.1322 83.7037 94.8252 83.7104L93.8945 83.7571C93.7377 83.7571 93.5809 83.7571 93.4242 83.7871L92.9538 83.8605C92.6435 83.9106 92.3233 83.9473 92.0097 84.014C91.3729 84.1544 90.7465 84.3383 90.1349 84.5644C89.5058 84.7906 88.8929 85.0592 88.3001 85.3684C88.0032 85.5318 87.7197 85.7187 87.4261 85.8921C87.2827 85.9855 87.1292 86.0623 86.9924 86.1657L86.5788 86.4759C86.0184 86.8923 85.4857 87.3447 84.9842 87.8303L84.2703 88.6176L84.0902 88.8178L83.9267 89.0313L83.5931 89.4616L83.2595 89.8919L82.976 90.3556L82.6924 90.8227L82.5523 91.0562L82.4322 91.2997L81.9552 92.3005L81.5749 93.3413C80.6074 96.2189 80.6074 99.334 81.5749 102.212C81.705 102.545 81.8317 102.905 81.9585 103.252C82.0853 103.599 82.2754 103.92 82.4355 104.253L82.5556 104.5L82.6957 104.734L82.9793 105.197L83.2628 105.661L83.5964 106.095L83.93 106.525L84.0902 106.738L84.2703 106.935L84.9842 107.723C85.4856 108.209 86.0182 108.663 86.5788 109.08L86.9958 109.387C87.1325 109.494 87.286 109.571 87.4295 109.664C87.723 109.838 88.0066 110.024 88.3035 110.188C89.4774 110.795 90.7239 111.25 92.013 111.542C92.3266 111.609 92.6469 111.646 92.9605 111.696L93.4275 111.769C93.5843 111.789 93.7411 111.789 93.8979 111.799L94.8286 111.846C95.1355 111.846 95.4424 111.822 95.746 111.812C96.3427 111.785 96.9368 111.716 97.524 111.606C97.8113 111.559 98.0953 111.494 98.3747 111.412C98.6549 111.339 98.9351 111.279 99.2054 111.192L99.996 110.902L100.386 110.762L100.757 110.585L101.487 110.235C101.723 110.114 101.952 109.982 102.174 109.838C102.398 109.701 102.625 109.571 102.842 109.431L103.449 108.977C104.889 107.885 106.105 106.526 107.031 104.974C107.74 103.804 108.267 102.535 108.596 101.207C108.67 100.954 108.732 100.697 108.78 100.437C108.82 100.193 108.856 99.9632 108.89 99.7497C108.923 99.5362 108.96 99.3393 108.98 99.1592C109 98.9791 109 98.8256 109.006 98.6655C109.026 98.3753 109.04 98.1518 109.05 97.9983C109.06 97.8448 109.07 97.7681 109.07 97.7681C109.07 97.7681 109.07 97.8448 109.07 97.9983C109.07 98.1518 109.053 98.3786 109.043 98.6655C109.043 98.8156 109.043 98.9991 109.023 99.1625C109.003 99.326 108.97 99.5428 108.943 99.7563C108.916 99.9698 108.876 100.203 108.84 100.45C108.794 100.711 108.735 100.969 108.663 101.224C108.345 102.56 107.825 103.839 107.118 105.017C106.194 106.584 104.975 107.957 103.529 109.06L102.915 109.521C102.701 109.664 102.475 109.794 102.248 109.934C102.021 110.074 101.801 110.225 101.554 110.335L100.82 110.692L100.446 110.882L100.053 111.025L99.2554 111.319C98.9818 111.412 98.6983 111.469 98.4181 111.546C98.1355 111.63 97.848 111.696 97.5574 111.746C96.9636 111.857 96.3628 111.927 95.7593 111.956C95.4557 111.956 95.1455 111.999 94.8353 111.996L93.8945 111.949C93.7344 111.949 93.5609 111.949 93.4175 111.919L92.9438 111.846C92.6269 111.796 92.3033 111.759 91.9864 111.692C91.3424 111.549 90.7083 111.364 90.0882 111.139C89.4525 110.91 88.8329 110.639 88.2334 110.328C87.9298 110.165 87.643 109.974 87.3461 109.798C87.1942 109.714 87.0472 109.621 86.9057 109.521L86.4854 109.207C85.9174 108.787 85.3781 108.331 84.8708 107.839L84.1469 107.042L83.9634 106.842L83.7999 106.625L83.4663 106.191L83.1327 105.751L82.8458 105.284L82.559 104.814L82.4155 104.577L82.2954 104.327L81.8117 103.326C81.6816 102.976 81.5548 102.622 81.4247 102.272C80.4463 99.3581 80.4463 96.2048 81.4247 93.2913L81.8117 92.2371L82.2954 91.2363L82.4188 90.9861L82.5623 90.7493L82.8492 90.2789L83.1361 89.8119L83.4697 89.3749L83.8033 88.9379L83.9667 88.721L84.1469 88.5209C84.3904 88.2573 84.6306 87.9904 84.8708 87.7269C85.3789 87.2356 85.9182 86.7776 86.4854 86.3558L86.9057 86.0423C87.0458 85.9388 87.1993 85.8588 87.3461 85.7654C87.643 85.5919 87.9332 85.4017 88.2334 85.2383C88.8329 84.9269 89.4525 84.6561 90.0882 84.4277C90.7083 84.2024 91.3424 84.0174 91.9864 83.8739C92.3033 83.8072 92.6269 83.7705 92.9438 83.7204L93.4175 83.647C93.5743 83.627 93.7344 83.627 93.8912 83.617L94.8319 83.5703C95.1455 83.5703 95.4524 83.597 95.7593 83.6103C96.3628 83.6391 96.9636 83.7093 97.5574 83.8205C97.8476 83.8707 98.1349 83.9364 98.4181 84.0173C98.6983 84.0974 98.9818 84.1541 99.2521 84.2442L100.053 84.5377L100.446 84.6845L100.82 84.8647L101.557 85.2183C101.804 85.3317 102.021 85.4918 102.248 85.6219C102.475 85.752 102.701 85.8921 102.915 86.0356L103.529 86.4959C104.974 87.5974 106.193 88.9681 107.118 90.5324C107.824 91.707 108.346 92.9827 108.666 94.3154C108.726 94.5923 108.816 94.8458 108.843 95.0927C108.87 95.3395 108.913 95.5697 108.946 95.7866C108.98 96.0034 109.01 96.1969 109.026 96.3804C109.043 96.5638 109.026 96.714 109.046 96.8741C109.046 97.1676 109.066 97.3912 109.073 97.5413C109.08 97.6914 109.07 97.7715 109.07 97.7715Z" fill="#1E1E1E"/>
<path d="M145.188 57.793H41.9973V62.9403H145.188V57.793Z" fill="#E0E0E0"/>
<path d="M45.3263 60.225C45.3263 60.3629 45.2854 60.4977 45.2088 60.6124C45.1322 60.7271 45.0233 60.8164 44.8959 60.8692C44.7685 60.922 44.6283 60.9358 44.4931 60.9089C44.3578 60.882 44.2336 60.8156 44.1361 60.7181C44.0386 60.6205 43.9722 60.4963 43.9453 60.3611C43.9184 60.2258 43.9322 60.0856 43.985 59.9582C44.0377 59.8308 44.1271 59.7219 44.2417 59.6453C44.3564 59.5687 44.4912 59.5278 44.6291 59.5278C44.814 59.5278 44.9914 59.6013 45.1221 59.732C45.2529 59.8628 45.3263 60.0401 45.3263 60.225Z" fill="white"/>
<path d="M47.6415 60.225C47.6415 60.3629 47.6006 60.4977 47.524 60.6124C47.4474 60.7271 47.3385 60.8164 47.2111 60.8692C47.0837 60.922 46.9435 60.9358 46.8083 60.9089C46.673 60.882 46.5488 60.8156 46.4513 60.7181C46.3538 60.6205 46.2874 60.4963 46.2605 60.3611C46.2336 60.2258 46.2474 60.0856 46.3001 59.9582C46.3529 59.8308 46.4423 59.7219 46.5569 59.6453C46.6716 59.5687 46.8064 59.5278 46.9443 59.5278C47.1292 59.5278 47.3065 59.6013 47.4373 59.732C47.568 59.8628 47.6415 60.0401 47.6415 60.225Z" fill="white"/>
<path d="M49.9601 60.225C49.9601 60.3629 49.9192 60.4977 49.8426 60.6124C49.766 60.7271 49.6571 60.8164 49.5297 60.8692C49.4023 60.922 49.2621 60.9358 49.1269 60.9089C48.9916 60.882 48.8674 60.8156 48.7699 60.7181C48.6724 60.6205 48.606 60.4963 48.5791 60.3611C48.5522 60.2258 48.566 60.0856 48.6187 59.9582C48.6715 59.8308 48.7609 59.7219 48.8755 59.6453C48.9902 59.5687 49.125 59.5278 49.2629 59.5278C49.4475 59.5287 49.6244 59.6024 49.7549 59.733C49.8855 59.8636 49.9592 60.0404 49.9601 60.225Z" fill="white"/>
<path d="M133.806 78.7498C133.806 78.7999 115.902 78.8399 93.8178 78.8399C71.7338 78.8399 53.8264 78.7999 53.8264 78.7498C53.8264 78.6998 71.7305 78.6631 93.8178 78.6631C115.905 78.6631 133.806 78.7031 133.806 78.7498Z" fill="#E0E0E0"/>
<path d="M133.806 80.7341C133.806 80.7808 115.902 80.8209 93.8178 80.8209C71.7338 80.8209 53.8264 80.7808 53.8264 80.7341C53.8264 80.6874 71.7305 80.644 93.8178 80.644C115.905 80.644 133.806 80.6841 133.806 80.7341Z" fill="#E0E0E0"/>
<path d="M81.3313 55.6216C81.3313 55.6216 80.6274 54.0237 80.494 53.6734C80.1371 52.716 77.8252 46.3009 78.3823 45.3335C80.941 40.84 82.9259 37.6608 87.9732 37.6608L96.8902 37.6008C96.8902 37.6008 105.337 35.8794 111.292 55.0945L81.3313 55.6216Z" fill="#E26F64"/>
<path d="M62.5234 57.2293L74.1992 54.714L87.9233 47.4983L87.9733 37.6472C85.9151 37.0801 81.9686 38.5079 74.8797 42.1207L64.3415 47.5617C63.4976 47.9966 62.7642 48.6184 62.197 49.3796C61.6298 50.1409 61.2438 51.0216 61.0685 51.9545C60.8932 52.8875 60.9331 53.8482 61.1852 54.7635C61.4373 55.6787 61.895 56.5243 62.5234 57.2359V57.2293Z" fill="#E26F64"/>
<path d="M88.797 76.2977C88.6269 75.7439 88.7437 75.387 89.551 75.6605C91.3324 76.2576 92.9236 76.0608 93.3106 75.7172C93.6975 75.3736 93.3439 74.7164 92.7635 74.7665C92.1297 74.7647 91.499 74.6771 90.8887 74.5063C90.3932 74.3885 89.9208 74.1889 89.4909 73.9158C89.1173 73.679 88.797 73.4554 88.5135 73.2486C88.5135 73.2486 86.8689 72.061 86.3551 71.1069L80.7207 73.5188L81.6281 76.341C81.7358 76.8358 81.967 77.2953 82.3 77.6768C82.6331 78.0582 83.0572 78.3492 83.5329 78.5227C85.1442 79.0465 87.7062 78.8563 87.7062 78.8563C88.1766 78.5494 89.988 81.1715 90.5384 82.0955C91.0888 83.0196 91.7394 83.1364 91.9529 82.5726C92.0963 82.1856 90.485 79.3134 89.9246 78.4093C89.4722 77.7467 89.0941 77.0363 88.797 76.291" fill="#B77153"/>
<path d="M84.9807 78.8563C84.9807 78.8764 84.8406 78.8563 84.6471 78.7763C84.3969 78.649 84.1911 78.449 84.0567 78.2025C83.9187 77.958 83.8549 77.6787 83.8732 77.3985C83.8932 77.185 83.9599 77.0649 83.9799 77.0649C83.9549 77.4271 84.0362 77.7887 84.2141 78.1052C84.3919 78.4217 84.6584 78.6793 84.9807 78.8463V78.8563Z" fill="#995037"/>
<path d="M86.7689 78.9395C86.7689 78.9596 86.6355 78.9396 86.4553 78.8495C86.2216 78.7182 86.0305 78.5225 85.9049 78.2857C85.7759 78.0502 85.7158 77.7832 85.7314 77.5151C85.7514 77.3116 85.8081 77.1815 85.8315 77.2048C85.8418 77.5503 85.92 77.8904 86.0617 78.2056C86.2489 78.4928 86.4888 78.7419 86.7689 78.9395Z" fill="#995037"/>
<path d="M62.1897 56.839C62.1897 56.839 80.0771 77.3951 80.0537 77.0549C80.0304 76.7146 88.06 70.7165 88.06 70.7165L70.5362 49.8335L62.1897 56.839Z" fill="#E26F64"/>
<path d="M73.0383 52.8091C73.0383 52.8091 73.085 52.8458 73.1651 52.9292L73.4987 53.3028L74.6996 54.6906C75.7004 55.8648 77.0915 57.4994 78.6127 59.3109C80.1339 61.1223 81.505 62.7702 82.4891 63.9812L83.6467 65.4056L83.9569 65.7993C84.0236 65.8893 84.0603 65.9394 84.0536 65.9427C84.0076 65.908 83.9661 65.8677 83.9302 65.8226L83.5966 65.449C83.293 65.1154 82.8894 64.6317 82.3957 64.0612C81.3949 62.887 80.0005 61.2524 78.4793 59.441C76.9581 57.6295 75.5903 55.9816 74.6029 54.7706L73.4453 53.3462C73.3219 53.1894 73.2185 53.0593 73.1384 52.9525C73.0995 52.9088 73.0659 52.8607 73.0383 52.8091Z" fill="#263238"/>
<path d="M104.68 55.1713C104.801 54.7359 104.872 54.2883 104.893 53.8369C104.904 53.3024 104.807 52.7712 104.606 52.2757C104.405 51.7802 104.106 51.3307 103.726 50.9547C103.292 50.4976 102.825 50.104 102.448 49.6903C102.103 49.3303 101.831 48.9065 101.647 48.4427C101.522 48.125 101.471 47.7824 101.501 47.4419C101.507 47.3178 101.539 47.1964 101.594 47.085C101.534 47.526 101.593 47.9751 101.764 48.386C101.959 48.8256 102.232 49.2266 102.568 49.5702C102.942 49.9672 103.409 50.3542 103.852 50.8212C104.285 51.2561 104.615 51.7828 104.816 52.3624C104.976 52.8345 105.045 53.3325 105.02 53.8303C105.005 54.1647 104.941 54.4951 104.83 54.811C104.8 54.9386 104.749 55.0604 104.68 55.1713Z" fill="#263238"/>
<path d="M80.554 39.3587C80.554 39.3587 80.6441 39.312 80.8142 39.2353C80.9844 39.1586 81.2479 39.0618 81.5882 38.9551C82.0056 38.8266 82.4347 38.7395 82.8692 38.6949C83.4501 38.6318 84.0377 38.6863 84.5972 38.855C85.2753 39.0705 85.8842 39.4619 86.3619 39.9892C86.9048 40.606 87.2753 41.3551 87.4361 42.1609C87.6377 43.0353 87.6952 43.9368 87.6062 44.8297C87.4999 45.7887 87.1559 46.706 86.6054 47.4984C86.024 48.2652 85.2974 48.9102 84.4671 49.3966C83.6831 49.8903 82.8959 50.2906 82.1486 50.6843L78.1755 52.7726L75.5067 54.1637L74.7728 54.534C74.6891 54.5817 74.6008 54.6208 74.5093 54.6507C74.5882 54.5953 74.6706 54.5451 74.7561 54.5006L75.4734 54.1003L78.1421 52.6592L82.0919 50.5408C82.8358 50.1438 83.6264 49.7369 84.397 49.2465C85.2065 48.7704 85.9157 48.1416 86.4853 47.395C87.0177 46.6227 87.348 45.7292 87.4461 44.7963C87.533 43.9262 87.48 43.0477 87.2893 42.1943C87.1433 41.4199 86.7984 40.6968 86.2885 40.096C85.8326 39.5806 85.2477 39.196 84.5939 38.9818C84.0551 38.8126 83.4885 38.7503 82.9259 38.7983C82.4959 38.835 82.0704 38.912 81.6549 39.0285C81.3213 39.1252 81.0511 39.2119 80.8743 39.2753C80.7713 39.316 80.6638 39.344 80.554 39.3587Z" fill="#263238"/>
<path d="M75.0063 54.6938C74.9463 54.7105 74.7995 53.5129 74.0055 52.3086C73.2116 51.1044 72.1974 50.4705 72.2375 50.4238C72.4815 50.5203 72.7072 50.658 72.9047 50.8308C73.8946 51.6141 74.5982 52.7024 74.9062 53.9266C74.9836 54.1747 75.0174 54.4342 75.0063 54.6938Z" fill="#263238"/>
<path d="M101.294 52.459C101.17 52.505 101.043 52.5396 100.913 52.5625C100.542 52.6341 100.162 52.651 99.7858 52.6125C99.1875 52.5506 98.6095 52.3606 98.0912 52.0554C97.401 51.6445 96.8546 51.0305 96.5266 50.2974C96.1215 49.4063 96.0447 48.4007 96.3098 47.4585C96.4592 46.9243 96.7938 46.4607 97.2538 46.1508C97.5051 45.9841 97.811 45.9207 98.1078 45.974C98.4065 46.043 98.6698 46.2186 98.8484 46.4677C99.1781 46.9929 99.3853 47.5856 99.4546 48.2018C99.5239 48.818 99.4535 49.4418 99.2487 50.0271C99.0495 50.6534 98.7068 51.2246 98.248 51.6951C97.7669 52.176 97.1673 52.5213 96.5099 52.6959C95.8623 52.8746 95.18 52.8864 94.5267 52.73C93.8733 52.5737 93.2702 52.2544 92.7737 51.8019C92.3311 51.3666 91.9988 50.832 91.8044 50.2425C91.6101 49.653 91.5592 49.0257 91.6561 48.4125C91.7409 47.8415 91.9706 47.3017 92.3233 46.8446C92.4994 46.6213 92.7289 46.4458 92.9905 46.3342C93.2533 46.2256 93.5484 46.2256 93.8111 46.3342C94.0481 46.4452 94.2526 46.6151 94.4051 46.8277C94.5575 47.0403 94.6528 47.2885 94.6818 47.5485C94.7187 48.0184 94.6252 48.4894 94.4116 48.9096C94.0575 49.6226 93.5759 50.2648 92.9905 50.8044C92.5525 51.2112 92.0622 51.5578 91.5327 51.8352C91.1996 52.0118 90.8512 52.1581 90.4919 52.2722C90.3718 52.3123 90.275 52.3323 90.2117 52.349C90.1793 52.3599 90.1457 52.3667 90.1116 52.369C90.1407 52.3521 90.1722 52.3397 90.205 52.3323C90.2684 52.3089 90.3618 52.2822 90.4819 52.2355C90.8327 52.1094 91.173 51.9555 91.4993 51.7752C92.0169 51.4896 92.4957 51.1387 92.9238 50.731C93.491 50.1952 93.9566 49.5611 94.2982 48.8596C94.4962 48.4584 94.5816 48.0111 94.5451 47.5652C94.5167 47.3308 94.4293 47.1074 94.291 46.9161C94.1527 46.7247 93.9681 46.5715 93.7544 46.471C93.5279 46.3776 93.2737 46.3776 93.0472 46.471C92.811 46.5737 92.6044 46.7343 92.4467 46.9381C92.1072 47.3735 91.8865 47.8896 91.8062 48.4359C91.7154 49.0218 91.7655 49.6209 91.9523 50.1836C92.1391 50.7463 92.4573 51.2565 92.8804 51.6718C93.3564 52.0988 93.9325 52.3989 94.5553 52.5441C95.1781 52.6893 95.8274 52.675 96.4432 52.5024C97.0724 52.3451 97.6483 52.0226 98.1112 51.5683C98.5535 51.1228 98.8859 50.5802 99.0819 49.9838C99.2723 49.407 99.3393 48.7967 99.2788 48.1924C99.2534 47.9001 99.1917 47.6121 99.0953 47.335C99.0151 47.063 98.8887 46.8069 98.7217 46.5778C98.5657 46.3588 98.3359 46.2036 98.0745 46.1408C97.8181 46.094 97.5536 46.149 97.3372 46.2942C96.9053 46.5763 96.5882 47.0034 96.4432 47.4985C96.1811 48.4072 96.2473 49.3792 96.63 50.244C96.9418 50.9602 97.4673 51.5626 98.1345 51.9687C98.6375 52.2759 99.2007 52.4716 99.7858 52.5424C100.29 52.5986 100.799 52.5705 101.294 52.459Z" fill="#FAFAFA"/>
<path d="M102.641 32.4431C102.262 31.9804 101.989 31.4392 101.844 30.8585C101.784 30.6717 101.777 30.4719 101.824 30.2814C101.848 30.1856 101.903 30.1006 101.982 30.0401C102.06 29.9796 102.156 29.9471 102.254 29.9478C102.455 29.9478 102.588 30.1513 102.698 30.3214C103.024 30.8123 103.299 31.3355 103.519 31.8826C103.583 32.0322 103.616 32.1934 103.616 32.3563C103.615 32.4376 103.593 32.5174 103.553 32.5881C103.513 32.6587 103.455 32.7179 103.385 32.76C103.303 32.7956 103.213 32.8081 103.124 32.7964C103.035 32.7846 102.952 32.749 102.882 32.6933C102.747 32.5794 102.635 32.4428 102.548 32.2896" fill="#995037"/>
<path d="M103.499 32.0731L102.618 30.2249C102.518 30.0482 102.456 29.8529 102.435 29.6512C102.426 29.5498 102.449 29.4482 102.499 29.36C102.55 29.2718 102.626 29.2012 102.718 29.1574C102.803 29.133 102.893 29.1318 102.979 29.1541C103.065 29.1764 103.143 29.2213 103.205 29.2842C103.331 29.4086 103.432 29.5558 103.502 29.7179L103.919 30.5285C104.043 30.7433 104.135 30.9748 104.193 31.2157C104.221 31.3371 104.224 31.4631 104.2 31.5856C104.176 31.708 104.127 31.8241 104.056 31.9263C103.98 32.025 103.872 32.0945 103.75 32.123C103.629 32.1516 103.501 32.1375 103.389 32.0831" fill="#995037"/>
<path d="M99.579 37.7874C99.579 37.7874 98.3514 36.1961 98.2446 35.3588C98.1379 34.5215 99.162 33.0237 101.367 32.6901C102.172 32.6056 102.947 32.3411 103.636 31.9161C103.771 31.8242 103.87 31.6883 103.917 31.5315C103.964 31.3747 103.955 31.2065 103.892 31.0554C103.602 30.3516 103.082 29.0539 103.122 28.8704C103.225 28.42 103.519 28.4301 104.279 29.5376C105.04 30.6451 105.924 31.786 105.754 32.2998C105.584 32.8135 102.895 34.4047 102.895 34.4047L103.629 35.589L99.579 37.7874Z" fill="#B77153"/>
<path d="M106.871 54.1471L98.408 37.5641L103.859 34.5117L115.308 52.6593C115.308 52.6593 115.912 53.8202 116.756 55.1779H107.158" fill="#E26F64"/>
<path d="M103.782 34.5117C103.782 34.5117 103.752 34.5384 103.689 34.5784L103.402 34.7519L102.308 35.3891L98.3715 37.6308L98.4015 37.5308C99.2255 39.1987 100.296 41.1503 101.374 43.2619C102.978 46.381 104.376 49.2399 105.344 51.3216C105.831 52.3624 106.218 53.2097 106.481 53.7935C106.605 54.0771 106.705 54.3006 106.778 54.4607C106.818 54.5372 106.849 54.6177 106.871 54.7009C106.822 54.6298 106.779 54.5538 106.745 54.474C106.665 54.3072 106.555 54.0871 106.411 53.8069L105.224 51.3583C104.223 49.2933 102.815 46.4444 101.22 43.3253C100.143 41.217 99.0787 39.2721 98.2681 37.5841L98.238 37.5174L98.3014 37.4807L102.268 35.2957L103.385 34.6919L103.682 34.5384C103.714 34.5251 103.748 34.5161 103.782 34.5117Z" fill="#263238"/>
<path d="M81.3315 55.6215C80.6008 54.4323 80.1206 53.1064 79.9204 51.7251C79.9738 51.7251 80.204 52.6125 80.5876 53.6833C80.9712 54.7541 81.3782 55.5981 81.3315 55.6215Z" fill="#263238"/>
<path d="M99.9727 31.1757C100.645 31.4484 101.388 31.4944 102.089 31.3068C102.79 31.1191 103.411 30.708 103.857 30.1358C104.303 29.5635 104.551 28.8614 104.562 28.1358C104.573 27.4103 104.347 26.7008 103.919 26.1151C105.831 25.6314 107.022 23.4263 106.635 21.4915C106.248 19.5566 104.523 18.0488 102.595 17.6318C101.858 17.455 101.087 17.4745 100.36 17.6885C99.9981 17.7995 99.6634 17.9838 99.3764 18.2301C99.0894 18.4763 98.8563 18.7791 98.6917 19.1196" fill="#263238"/>
<path d="M99.7024 26.852C99.7024 26.872 99.4555 26.9187 99.0519 27.1289C98.4841 27.431 98.0342 27.915 97.7742 28.5033C97.5831 28.9338 97.5026 29.4052 97.5399 29.8748C97.5772 30.3443 97.7311 30.7971 97.9877 31.1921C98.1341 31.4201 98.3141 31.6248 98.5215 31.7992C98.7343 31.9842 98.9753 32.1339 99.2354 32.2429C99.7825 32.4799 100.391 32.5362 100.972 32.4036C101.554 32.2711 102.078 31.9565 102.468 31.5056C102.654 31.2936 102.806 31.0539 102.918 30.7951C103.028 30.548 103.101 30.2861 103.135 30.0178C103.183 29.6257 103.15 29.2279 103.036 28.8495C102.923 28.4711 102.733 28.1203 102.477 27.8193C102.221 27.5183 101.905 27.2736 101.55 27.1008C101.195 26.928 100.808 26.8308 100.413 26.8153C99.9559 26.7986 99.7057 26.872 99.7024 26.8487C99.7599 26.824 99.8205 26.8071 99.8825 26.7986C100.057 26.7614 100.235 26.7435 100.413 26.7452C100.979 26.7465 101.532 26.9116 102.005 27.2207C102.479 27.5297 102.853 27.9695 103.082 28.4866C103.297 28.9723 103.376 29.5072 103.312 30.0345C103.283 30.3195 103.207 30.5978 103.088 30.8585C102.973 31.1351 102.813 31.3909 102.615 31.6157C102.202 32.0964 101.645 32.432 101.027 32.5731C100.41 32.7142 99.7628 32.6534 99.182 32.3997C98.9071 32.2814 98.6526 32.1204 98.4281 31.9226C98.209 31.7384 98.0199 31.5212 97.8676 31.2788C97.5837 30.8304 97.4237 30.3147 97.4039 29.7843C97.3854 29.2222 97.5294 28.6667 97.8188 28.1844C98.1081 27.7022 98.5305 27.3136 99.0352 27.0655C99.1953 26.9847 99.3644 26.9231 99.5389 26.882C99.5921 26.8658 99.6469 26.8558 99.7024 26.852Z" fill="#1E1E1E"/>
<path d="M101.15 21.5947C101.846 21.5551 102.512 21.2947 103.05 20.8513C103.588 20.4079 103.97 19.8045 104.142 19.1288C104.314 18.4531 104.266 17.7402 104.005 17.0936C103.744 16.4471 103.284 15.9005 102.691 15.5332C102.978 14.7283 103.005 13.8535 102.768 13.0326C102.53 12.2117 102.04 11.4863 101.368 10.9591C100.695 10.4319 99.8738 10.1296 99.02 10.095C98.1661 10.0604 97.323 10.2952 96.6099 10.7662C96.0677 9.80477 95.2442 9.03244 94.25 8.55303C93.2558 8.07361 92.1387 7.9101 91.0488 8.08448C89.959 8.25886 88.9486 8.76277 88.1536 9.52845C87.3587 10.2941 86.8172 11.2849 86.6021 12.3674C85.6249 11.9635 84.5482 11.8655 83.5142 12.0866C82.4802 12.3076 81.5376 12.8372 80.811 13.6054C80.0844 14.3735 79.608 15.3441 79.4448 16.3888C79.2815 17.4335 79.4392 18.5031 79.8968 19.4563C78.8271 19.5474 77.8375 20.0598 77.1456 20.8806C76.4536 21.7014 76.1161 22.7634 76.2072 23.8331C76.2984 24.9027 76.8107 25.8924 77.6315 26.5843C78.4523 27.2762 79.5144 27.6138 80.584 27.5226C80.3679 28.2285 80.3759 28.9839 80.6069 29.685C80.8379 30.3861 81.2807 30.9983 81.8741 31.4373C82.4675 31.8764 83.1824 32.1206 83.9205 32.1365C84.6585 32.1523 85.3832 31.9389 85.9949 31.5258C86.3857 32.1556 86.9474 32.6614 87.6147 32.9842C88.2819 33.307 89.0272 33.4334 89.7635 33.3488C90.4999 33.2642 91.1971 32.972 91.7737 32.5063C92.3503 32.0406 92.7827 31.4205 93.0204 30.7185" fill="#263238"/>
<path d="M97.134 37.2469C97.204 35.6223 97.2908 34.1511 97.2908 34.1511C97.2908 34.1511 100.924 33.6941 101.08 29.9878C101.237 26.2816 100.867 17.7482 100.867 17.7482L94.195 14.5391L87.0027 20.3303L88.1302 37.3436C88.2093 38.5224 88.747 39.6233 89.6282 40.4103C90.5093 41.1973 91.6637 41.6077 92.8439 41.5536C93.9672 41.4998 95.0299 41.0283 95.8235 40.2316C96.6171 39.4348 97.0845 38.3704 97.134 37.2469Z" fill="#B77153"/>
<path d="M100.69 24.0936C100.63 24.157 100.283 23.8668 99.7859 23.8468C99.2888 23.8267 98.9185 24.0803 98.8685 24.0136C98.8184 23.9468 98.9018 23.8701 99.062 23.75C99.2773 23.5995 99.5369 23.5255 99.7992 23.5399C100.062 23.5506 100.314 23.6479 100.516 23.8167C100.667 23.9502 100.717 24.0669 100.69 24.0936Z" fill="#263238"/>
<path d="M95.1787 24.0936C95.1187 24.157 94.7751 23.8668 94.2747 23.8468C93.7743 23.8267 93.4107 24.0803 93.3573 24.0136C93.3039 23.9468 93.3907 23.8701 93.5508 23.75C93.7661 23.5995 94.0257 23.5255 94.288 23.5399C94.5511 23.5506 94.8032 23.6479 95.0053 23.8167C95.1554 23.9502 95.2054 24.0669 95.1787 24.0936Z" fill="#263238"/>
<path d="M97.047 27.8332C97.3102 27.7548 97.583 27.7132 97.8576 27.7098C97.9844 27.7098 98.1045 27.6764 98.1278 27.5864C98.1413 27.4462 98.1147 27.305 98.0511 27.1794C97.9355 26.8458 97.8154 26.4955 97.6908 26.1285C97.1904 24.6307 96.8335 23.4031 96.8902 23.3831C96.9469 23.363 97.3939 24.5607 97.891 26.0518L98.2246 27.1093C98.2997 27.2779 98.3196 27.4659 98.2813 27.6464C98.262 27.6919 98.2329 27.7326 98.1959 27.7655C98.159 27.7984 98.1152 27.8227 98.0678 27.8366C97.9982 27.8548 97.9262 27.8627 97.8543 27.8599C97.5852 27.887 97.3137 27.878 97.047 27.8332Z" fill="#263238"/>
<path d="M97.2907 34.1546C95.5692 34.1096 93.8983 33.5623 92.4836 32.5801C92.4836 32.5801 93.6145 35.2789 97.2274 35.0654L97.2907 34.1546Z" fill="#995037"/>
<path d="M92.1332 14.7459C91.5546 15.5812 91.2501 16.5759 91.2621 17.5921C91.274 18.6082 91.6018 19.5955 92.1999 20.417C92.7404 21.1242 93.5543 21.7013 94.445 21.668C95.3357 21.6346 96.1964 20.7939 96.0063 19.9233C95.9196 20.1966 95.8979 20.4863 95.943 20.7695C95.9881 21.0526 96.0987 21.3213 96.2659 21.5542C96.4332 21.787 96.6525 21.9776 96.9064 22.1108C97.1603 22.2439 97.4418 22.3159 97.7285 22.3211C98.0151 22.3262 98.2991 22.2644 98.5576 22.1404C98.8161 22.0165 99.0421 21.8339 99.2176 21.6072C99.3932 21.3805 99.5133 21.1159 99.5685 20.8346C99.6237 20.5532 99.6125 20.2629 99.5357 19.9866C99.6051 20.3868 99.7463 20.7711 99.9527 21.1209C100.058 21.2954 100.209 21.4379 100.39 21.5331C100.57 21.6283 100.773 21.6726 100.977 21.6613C101.534 21.5879 101.858 20.9941 101.978 20.437C102.15 19.6083 102.111 18.7493 101.863 17.9399C101.615 17.1305 101.167 16.3967 100.56 15.8067C99.9433 15.229 99.2132 14.7861 98.4159 14.5064C97.6187 14.2266 96.7719 14.1162 95.9295 14.1821C94.2351 14.3312 92.637 15.0347 91.3826 16.1837" fill="#263238"/>
<path d="M92.6036 16.0537C93.0736 17.1044 93.3277 18.2389 93.3509 19.3897C93.3709 20.5469 92.9402 21.6665 92.1499 22.5121C91.75 22.9237 91.2414 23.2134 90.6834 23.3474C90.1254 23.4815 89.5407 23.4544 88.9975 23.2694C89.1437 23.766 89.1783 24.2889 89.0987 24.8004C89.0191 25.312 88.8273 25.7996 88.5371 26.2284C87.9166 27.0523 86.6957 27.446 85.7916 26.9489C84.971 26.5019 84.6174 25.5078 84.5039 24.5804C84.3677 23.4548 84.4855 22.3129 84.8487 21.2388C85.212 20.1647 85.8113 19.1857 86.6028 18.3738C87.3942 17.5619 88.3576 16.9377 89.4221 16.5471C90.4865 16.1566 91.625 16.0097 92.7537 16.1171" fill="#263238"/>
<path d="M88.0201 24.8841C87.5263 24.5772 86.8525 24.8274 86.4588 25.2577C86.1489 25.598 85.9574 26.0294 85.913 26.4874C85.8686 26.9455 85.9736 27.4057 86.2124 27.7991C86.4512 28.1925 86.8109 28.4981 87.2377 28.6702C87.6645 28.8423 88.1356 28.8716 88.5805 28.7538" fill="#B77153"/>
<path d="M87.9067 27.6429C87.9067 27.6629 87.7432 27.6863 87.4864 27.6162C87.3163 27.5722 87.1589 27.4889 87.0268 27.373C86.8947 27.2572 86.7916 27.112 86.7258 26.9491C86.6584 26.7555 86.6655 26.5438 86.7458 26.3553C86.8132 26.2085 86.9193 26.0828 87.0527 25.9916C87.2829 25.8415 87.4564 25.8449 87.4597 25.8649C87.463 25.8849 87.3096 25.9349 87.1261 26.0917C87.0095 26.185 86.9244 26.3117 86.882 26.4549C86.8397 26.598 86.8422 26.7507 86.8892 26.8923C86.9475 27.0334 87.0342 27.1609 87.1438 27.2671C87.2534 27.3732 87.3836 27.4557 87.5264 27.5095C87.7699 27.5929 87.91 27.6162 87.9067 27.6429Z" fill="#995037"/>
<path d="M95.4859 22.5486C95.4392 22.6921 94.8954 22.6387 94.2516 22.6687C93.6078 22.6987 93.0707 22.7788 93.014 22.6387C92.9573 22.4986 93.481 22.1616 94.2316 22.135C94.9822 22.1083 95.5359 22.4118 95.4859 22.5486Z" fill="#263238"/>
<path d="M100.676 22.4455C100.62 22.4956 100.51 22.4455 100.379 22.4288C100.231 22.3931 100.077 22.3841 99.9258 22.4021C99.7323 22.4021 99.5188 22.4555 99.3553 22.4522C99.1919 22.4488 99.0784 22.4155 99.0584 22.3421C99.0384 22.2687 99.1118 22.182 99.2486 22.0886C99.4388 21.9672 99.6546 21.8918 99.8791 21.8684C100.01 21.8513 100.143 21.8653 100.268 21.9094C100.393 21.9534 100.505 22.0263 100.596 22.1219C100.72 22.272 100.73 22.3988 100.676 22.4455Z" fill="#263238"/>
<path d="M96.1832 28.7803C96.3204 28.6914 96.4754 28.6334 96.6372 28.6104C96.7991 28.5873 96.964 28.5998 97.1206 28.6468C97.2754 28.7003 97.4066 28.8064 97.4913 28.9466C97.576 29.0867 97.6089 29.2522 97.5843 29.4141C97.5388 29.5879 97.4322 29.7395 97.2841 29.8411C97.176 29.9247 97.0515 29.9846 96.9187 30.0168C96.7859 30.049 96.6478 30.0528 96.5135 30.0279C96.3788 30.0011 96.254 29.9382 96.1524 29.846C96.0507 29.7537 95.976 29.6356 95.9364 29.5042C95.9033 29.3712 95.9151 29.231 95.97 29.1055C96.0249 28.98 96.1198 28.8762 96.2399 28.8103" fill="#995037"/>
<path d="M98.0045 29.1775C98.0045 29.1775 97.8844 29.281 97.6475 29.331C97.332 29.3965 97.0041 29.3651 96.7068 29.2409C96.4102 29.1157 96.1572 28.9056 95.9795 28.6371C95.8461 28.4336 95.8194 28.2835 95.8394 28.2735C95.8595 28.2635 95.9328 28.3903 96.0796 28.5637C96.2691 28.7852 96.5063 28.9609 96.7735 29.0775C97.0444 29.1859 97.3366 29.2304 97.6275 29.2076C97.8543 29.1909 97.9945 29.1509 98.0045 29.1775Z" fill="#263238"/>
<path d="M90.482 30.9452C90.4586 30.9452 90.482 30.685 90.3552 30.2447C90.1873 29.6251 89.816 29.0799 89.301 28.6968C88.9502 28.4326 88.5423 28.2543 88.1101 28.1764C87.6149 28.0883 87.1052 28.1321 86.6323 28.3031C86.3771 28.3953 86.1375 28.5258 85.9217 28.6901C85.6935 28.8555 85.4941 29.0572 85.3313 29.2872C84.9782 29.7673 84.7878 30.3476 84.7878 30.9435C84.7878 31.5395 84.9782 32.1198 85.3313 32.5998C85.4941 32.8298 85.6935 33.0316 85.9217 33.197C86.1375 33.3613 86.3771 33.4918 86.6323 33.5839C87.0034 33.7185 87.3985 33.7744 87.7924 33.7482C88.1863 33.722 88.5705 33.6142 88.9206 33.4316C89.2706 33.2491 89.5789 32.9958 89.8259 32.6878C90.0728 32.3798 90.2531 32.0238 90.3552 31.6424C90.4719 31.2021 90.4586 30.9419 90.482 30.9452C90.487 31.0063 90.487 31.0676 90.482 31.1287C90.4816 31.3074 90.4603 31.4854 90.4186 31.6591C90.269 32.3078 89.8987 32.8844 89.3711 33.2904C89.0077 33.5743 88.5826 33.7685 88.1301 33.8575C87.6083 33.9577 87.0692 33.9162 86.5689 33.7374C86.2984 33.6423 86.0441 33.5062 85.815 33.3337C85.572 33.1592 85.3591 32.9462 85.1845 32.7032C84.8057 32.1948 84.6011 31.5776 84.6011 30.9435C84.6011 30.3095 84.8057 29.6923 85.1845 29.1838C85.3591 28.9409 85.572 28.7279 85.815 28.5533C86.0441 28.3809 86.2984 28.2448 86.5689 28.1497C87.0356 27.9806 87.5376 27.933 88.0277 28.0112C88.5179 28.0894 88.9801 28.2909 89.3711 28.5967C89.8987 29.0026 90.269 29.5793 90.4186 30.228C90.4603 30.4017 90.4816 30.5797 90.482 30.7584C90.4871 30.8206 90.4871 30.883 90.482 30.9452Z" fill="#1E1E1E"/>
<path d="M100.673 14.3589C100.706 14.3611 100.737 14.369 100.767 14.3822C100.854 14.4165 100.933 14.4675 101 14.5324C101.126 14.6577 101.219 14.8122 101.271 14.9821C101.323 15.1521 101.332 15.3322 101.297 15.5065C101.226 15.7712 101.079 16.0092 100.874 16.1908C100.669 16.3723 100.414 16.4894 100.143 16.5273C99.4564 16.6097 98.7631 16.444 98.188 16.0602L97.5008 15.6632L98.2547 15.9101C98.3844 15.956 98.5003 16.0339 98.5919 16.1365C98.6835 16.2391 98.7476 16.3632 98.7785 16.4972C98.8147 16.6305 98.8239 16.7697 98.8055 16.9066C98.7872 17.0436 98.7417 17.1754 98.6717 17.2945C98.5189 17.5341 98.2802 17.706 98.0045 17.7749C97.7266 17.845 97.4348 17.8381 97.1605 17.7549C96.5464 17.5156 96.033 17.0728 95.7061 16.5006L95.199 15.8067L95.8128 16.4038C95.9717 16.5679 96.0858 16.77 96.1442 16.9908C96.2026 17.2116 96.2034 17.4436 96.1464 17.6648C96.1019 17.8669 96.0122 18.0563 95.8839 18.2186C95.7556 18.381 95.5922 18.5122 95.4058 18.6022C95.1001 18.7474 94.7594 18.8029 94.4234 18.7622C94.0874 18.7214 93.7698 18.5861 93.5077 18.372C93.1617 18.0908 92.9064 17.7136 92.7738 17.2879C92.7388 17.1788 92.712 17.0673 92.6937 16.9543C92.69 16.9143 92.69 16.8741 92.6937 16.8342C92.7104 16.8342 92.7304 16.9943 92.8372 17.2712C92.9848 17.6652 93.2374 18.0113 93.5677 18.272C93.8159 18.4633 94.1124 18.5818 94.424 18.6142C94.7357 18.6467 95.0503 18.5917 95.3324 18.4554C95.4971 18.3732 95.6411 18.2549 95.7537 18.1094C95.8663 17.9638 95.9447 17.7948 95.983 17.6148C96.0316 17.4217 96.0305 17.2195 95.9797 17.0269C95.929 16.8344 95.8302 16.6579 95.6927 16.5139L95.8228 16.4038C96.1293 16.9393 96.6078 17.3555 97.1806 17.5848C97.4145 17.6713 97.67 17.6811 97.9099 17.6128C98.1499 17.5444 98.3618 17.4014 98.5149 17.2045C98.7551 16.8108 98.6117 16.2037 98.2047 16.0669L98.2714 15.9168C98.8102 16.2869 99.4621 16.4558 100.113 16.3938C100.364 16.364 100.602 16.2608 100.795 16.0971C100.989 15.9334 101.129 15.7163 101.2 15.4731C101.235 15.3123 101.232 15.1456 101.191 14.9863C101.15 14.827 101.072 14.6795 100.964 14.5557C100.876 14.477 100.779 14.4107 100.673 14.3589Z" fill="#E26F64"/>
<path d="M91.7729 20.3204C91.7729 20.3204 91.7729 20.3437 91.7295 20.3837C91.6815 20.4431 91.6291 20.4989 91.5727 20.5505C91.357 20.7468 91.104 20.8977 90.8288 20.9942C90.3978 21.1442 89.9298 21.1513 89.4944 21.0142C89.2061 20.9239 88.9391 20.776 88.7097 20.5792C88.4803 20.3825 88.2933 20.1412 88.1601 19.87L88.3002 19.85C88.2461 20.1878 88.1125 20.5079 87.9103 20.7839C87.7082 21.0599 87.4434 21.284 87.1377 21.4375C86.832 21.5911 86.4941 21.6697 86.152 21.667C85.8099 21.6644 85.4734 21.5804 85.1701 21.4221C84.8668 21.2637 84.6055 21.0356 84.4078 20.7564C84.21 20.4773 84.0814 20.1551 84.0326 19.8165C83.9839 19.4779 84.0163 19.1325 84.1272 18.8089C84.2381 18.4853 84.4244 18.1927 84.6707 17.9552L84.7874 18.0786C84.3935 18.4058 83.8983 18.5862 83.3863 18.589C82.9216 18.598 82.4641 18.4729 82.0686 18.2287C81.7151 18.0093 81.4387 17.6851 81.278 17.3013C81.1471 16.9743 81.0912 16.622 81.1145 16.2705C81.1426 15.7711 81.3349 15.2949 81.6616 14.9161C81.7758 14.781 81.9137 14.6679 82.0686 14.5825C82.0686 14.5825 81.9185 14.6959 81.7083 14.9595C81.41 15.3421 81.2396 15.809 81.2213 16.2939C81.2074 16.6276 81.2678 16.9603 81.3981 17.268C81.5539 17.6215 81.8148 17.9185 82.1453 18.1186C82.5172 18.3467 82.9469 18.4625 83.383 18.4522C83.8557 18.4456 84.3121 18.2786 84.6773 17.9785L84.7908 18.1019C84.507 18.3929 84.3155 18.7612 84.2401 19.1606C84.1648 19.5599 84.2089 19.9727 84.3671 20.347C84.5608 20.7558 84.8847 21.0886 85.2881 21.2933C85.6914 21.4979 86.1513 21.5629 86.5955 21.4779C86.9846 21.3863 87.3389 21.1842 87.6158 20.896C87.8928 20.6078 88.0806 20.2457 88.1567 19.8533L88.1934 19.6198L88.2968 19.8333C88.4183 20.0882 88.5895 20.3163 88.8003 20.5042C89.0111 20.6921 89.2573 20.836 89.5245 20.9275C89.9414 21.0661 90.3919 21.0661 90.8088 20.9275C91.0784 20.8445 91.3297 20.7109 91.5494 20.5339C91.7095 20.3937 91.7729 20.3137 91.7729 20.3204Z" fill="#E26F64"/>
<path d="M85.1711 26.2517C85.0873 26.3287 84.9885 26.3877 84.8809 26.4251C84.5889 26.5466 84.2719 26.5958 83.9569 26.5686C83.4693 26.5325 83.0142 26.3104 82.6859 25.9481C82.4789 25.7189 82.3262 25.4461 82.239 25.1498C82.1518 24.8536 82.1323 24.5415 82.1821 24.2367L82.3356 24.3035C82.0062 24.7397 81.5773 25.0908 81.0846 25.3276C80.7046 25.508 80.2874 25.596 79.867 25.5845C79.4752 25.5735 79.0919 25.4682 78.7494 25.2776C78.4537 25.1252 78.2011 24.9008 78.0151 24.625C77.8291 24.3492 77.7157 24.0309 77.6853 23.6997C77.6456 23.2564 77.7637 22.8133 78.0189 22.4487C78.0909 22.3536 78.175 22.2684 78.2691 22.1951C78.3001 22.1663 78.3363 22.1437 78.3758 22.1284C78.3758 22.1284 78.2457 22.2418 78.0756 22.4887C77.8522 22.847 77.7559 23.27 77.802 23.6896C77.8367 23.9995 77.949 24.2956 78.1287 24.5504C78.3083 24.8053 78.5493 25.0106 78.8295 25.1475C79.1643 25.3246 79.5364 25.4197 79.9151 25.4249C80.2938 25.4301 80.6683 25.3453 81.0079 25.1775C81.4754 24.9546 81.8834 24.6242 82.1988 24.2134L82.4157 23.9332L82.3523 24.2668C82.305 24.5467 82.3203 24.8337 82.397 25.1071C82.4737 25.3805 82.6099 25.6335 82.7959 25.848C83.097 26.192 83.5159 26.4109 83.9702 26.4618C84.2701 26.497 84.5741 26.4662 84.8609 26.3717C85.0611 26.3017 85.1645 26.2416 85.1711 26.2517Z" fill="#E26F64"/>
<path d="M104.062 19.0264C104.143 19.2215 104.168 19.435 104.136 19.6435C104.096 20.1565 103.88 20.64 103.524 21.0116C103.169 21.3832 102.695 21.62 102.184 21.6818C101.978 21.7254 101.764 21.7092 101.567 21.6351C101.567 21.6051 101.804 21.6351 102.164 21.5584C102.635 21.4696 103.066 21.2356 103.397 20.8891C103.728 20.5427 103.942 20.1012 104.009 19.6268C104.069 19.2632 104.032 19.0297 104.062 19.0264Z" fill="#E26F64"/>
<path d="M106.118 22.519C106.163 22.5967 106.191 22.6831 106.201 22.7726C106.241 23.0181 106.217 23.2697 106.131 23.5031C106.07 23.685 105.964 23.8486 105.823 23.9786C105.682 24.1086 105.51 24.201 105.324 24.2471C105.1 24.2928 104.868 24.272 104.656 24.187C104.538 24.1421 104.429 24.0734 104.338 23.985C104.247 23.8967 104.175 23.7906 104.126 23.6733L104.293 23.6166C104.323 23.7251 104.338 23.8375 104.336 23.9502C104.326 24.2079 104.242 24.4572 104.093 24.6679C103.945 24.8787 103.738 25.0419 103.499 25.1378C103.285 25.2162 103.052 25.2267 102.832 25.1678C102.646 25.1146 102.475 25.0199 102.331 24.8909C102.12 24.7112 101.977 24.4636 101.928 24.1904C101.898 24.0002 101.928 23.8935 101.928 23.8968C101.928 23.9001 101.928 24.0002 101.984 24.177C102.057 24.4204 102.203 24.6357 102.401 24.7942C102.541 24.9136 102.709 24.9941 102.889 25.0275C103.07 25.0609 103.256 25.046 103.429 24.9843C103.634 24.8972 103.811 24.7534 103.938 24.5697C104.065 24.386 104.137 24.17 104.146 23.9468C104.148 23.8543 104.136 23.762 104.109 23.6733L104.279 23.6166C104.369 23.7965 104.516 23.9415 104.697 24.0285C104.879 24.1155 105.084 24.1396 105.28 24.0969C105.444 24.0592 105.596 23.982 105.722 23.8721C105.849 23.7622 105.947 23.6229 106.008 23.4665C106.096 23.2556 106.136 23.0276 106.124 22.7993C106.118 22.6124 106.088 22.5224 106.118 22.519Z" fill="#E26F64"/>
<path d="M95.9296 27.4829C95.953 27.4829 95.9663 27.5596 95.9296 27.6731C95.8841 27.8195 95.7967 27.9494 95.6781 28.0467C95.5595 28.1439 95.415 28.2042 95.2624 28.2202C95.1457 28.2202 95.0756 28.2001 95.079 28.1768C95.0823 28.1534 95.3358 28.1034 95.5627 27.9066C95.7895 27.7098 95.8796 27.4829 95.9296 27.4829Z" fill="#263238"/>
<path d="M58.213 0.00109979C58.1357 0.015234 58.0578 0.025256 57.9795 0.0311234L57.3123 0.0878352C56.9442 0.112731 56.5784 0.16514 56.2181 0.244624C56.0013 0.291327 55.7644 0.311344 55.5242 0.384735C55.284 0.458125 55.0238 0.531516 54.7536 0.608243C53.4377 1.03063 52.1986 1.66257 51.0841 2.47971C49.6193 3.57362 48.3999 4.9623 47.5046 6.55624C46.132 9.02937 45.54 11.86 45.8066 14.6759C45.8266 14.9829 45.8933 15.2864 45.9367 15.5967C45.9781 15.9085 46.0405 16.2173 46.1235 16.5207C46.4177 17.7933 46.9013 19.0145 47.558 20.1436C48.9556 22.5868 51.1151 24.5049 53.7061 25.6045C55.0713 26.1745 56.5306 26.4856 58.0095 26.5219C59.5326 26.5822 61.0528 26.3419 62.483 25.8147L62.92 25.6479L62.9767 25.6279L63.0301 25.6512L69.3684 28.7803L69.1849 28.9438L67.1634 22.9091L67.14 22.8323L67.1934 22.7756C68.7068 21.2191 69.8205 19.319 70.4392 17.238C70.9957 15.3364 71.1367 13.3375 70.8529 11.3767C70.4002 8.10851 68.7646 5.11984 66.256 2.97677C65.3056 2.19783 64.2569 1.5473 63.1369 1.04192C62.2909 0.689041 61.4112 0.423023 60.5115 0.247961L59.5307 0.0945073L58.8068 0.0511396L58.3631 0.0211159C58.3126 0.0206635 58.2623 0.015075 58.213 0.00443645C58.2629 -0.00147882 58.3132 -0.00147882 58.3631 0.00443645H58.8068L59.5374 0.0244513L60.5381 0.161225C61.452 0.321702 62.3465 0.577752 63.2069 0.925158C64.3466 1.42163 65.4139 2.07026 66.3794 2.85334C67.551 3.83691 68.547 5.01231 69.325 6.3294C70.2335 7.86655 70.833 9.56635 71.0898 11.3333C71.3865 13.3261 71.2499 15.3594 70.6894 17.2947C70.0666 19.4176 68.9365 21.357 67.3969 22.9458L67.4202 22.8123C68.0874 24.7472 68.7546 26.7654 69.4485 28.8437L69.5519 29.1473L69.265 29.0072L62.9267 25.8814H63.0368L62.5898 26.0515C61.1271 26.5882 59.5727 26.8297 58.0162 26.7621C56.5051 26.7255 55.014 26.4077 53.6194 25.8247C50.9778 24.6979 48.7783 22.7363 47.3578 20.2403C46.6916 19.0966 46.2003 17.8598 45.9 16.5708C45.8158 16.2621 45.7545 15.9477 45.7165 15.63C45.6732 15.3164 45.6031 15.0095 45.5864 14.696C45.5294 14.0839 45.5138 13.4687 45.5397 12.8545C45.5743 11.6906 45.7525 10.5354 46.0701 9.41515C46.3752 8.38679 46.7984 7.39721 47.3311 6.46617C48.2512 4.85402 49.5018 3.45458 51.0007 2.35962C52.1309 1.5439 53.3875 0.919532 54.7203 0.511501L55.5042 0.297999C55.7343 0.243868 55.967 0.201558 56.2014 0.171234C56.5652 0.0966865 56.9345 0.0520575 57.3056 0.0377954L57.9895 0.00443645L58.213 0.00109979Z" fill="#263238"/>
<path d="M61.1952 11.6369H60.2711L58.2229 8.85134L58.2028 7.00656C58.2028 7.00656 56.7751 6.93651 56.9685 9.34173C57.162 11.7469 56.9685 11.1398 56.9685 11.1398C56.9685 11.1398 53.9395 11.1865 53.6893 11.4534C53.5092 11.6469 53.4591 14.6592 53.4491 16.2905C53.4308 16.6906 53.5489 17.0851 53.784 17.4093C54.0192 17.7336 54.3575 17.9684 54.7435 18.0752C54.8526 18.102 54.9647 18.1155 55.0771 18.1153C55.8343 18.1153 59.6873 17.4481 59.6873 17.4481L61.2853 17.4281L61.1952 11.6369Z" fill="url(#paint4_linear_1758_3783)"/>
<path d="M63.8339 11.1001L63.3368 17.4217L61.7556 17.4417L61.6855 11.2536L63.8339 11.1001Z" fill="url(#paint5_linear_1758_3783)"/>
<defs>
<linearGradient id="paint0_linear_1758_3783" x1="77" y1="117.999" x2="77" y2="124.999" gradientUnits="userSpaceOnUse">
<stop stop-color="#FEBF4D"/>
<stop offset="1" stop-color="#FF9240"/>
</linearGradient>
<linearGradient id="paint1_linear_1758_3783" x1="85.5" y1="117.999" x2="85.5" y2="124.999" gradientUnits="userSpaceOnUse">
<stop stop-color="#FEBF4D"/>
<stop offset="1" stop-color="#FF9240"/>
</linearGradient>
<linearGradient id="paint2_linear_1758_3783" x1="95" y1="117.999" x2="95" y2="124.999" gradientUnits="userSpaceOnUse">
<stop stop-color="#FEBF4D"/>
<stop offset="1" stop-color="#FF9240"/>
</linearGradient>
<linearGradient id="paint3_linear_1758_3783" x1="104" y1="117.999" x2="104" y2="124.999" gradientUnits="userSpaceOnUse">
<stop stop-color="#FEBF4D"/>
<stop offset="1" stop-color="#FF9240"/>
</linearGradient>
<linearGradient id="paint4_linear_1758_3783" x1="57.3663" y1="7.00635" x2="57.3663" y2="18.1153" gradientUnits="userSpaceOnUse">
<stop stop-color="#FEB84B"/>
<stop offset="1" stop-color="#FF9B43"/>
</linearGradient>
<linearGradient id="paint5_linear_1758_3783" x1="62.7597" y1="11.1001" x2="62.7597" y2="17.4417" gradientUnits="userSpaceOnUse">
<stop stop-color="#FEB84B"/>
<stop offset="1" stop-color="#FF9B43"/>
</linearGradient>
</defs>
</svg>
