<svg width="16" height="24" viewBox="0 0 16 24" fill="none" xmlns="http://www.w3.org/2000/svg">
<path d="M9.56056 0.203133L0.0971335 13.0806C-0.143404 13.4079 0.0903214 13.8697 0.496515 13.8697H5.04453C5.31825 13.8697 5.54016 14.0916 5.54016 14.3654V22.9092C5.54016 23.3919 6.16011 23.5898 6.43982 23.1963L15.0222 11.1218C15.2555 10.7936 15.0209 10.339 14.6182 10.339H10.9512C10.6775 10.339 10.4556 10.1171 10.4556 9.84336V0.496619C10.4556 0.0178146 9.84408 -0.182728 9.56056 0.203133Z" fill="#FFD550"/>
<path d="M10.2522 15.8313C8.67902 14.6003 7.33281 13.117 6.24732 11.4407C5.3904 10.1175 4.80647 8.68667 4.41917 7.19922L0.0971335 13.0805C-0.143404 13.4078 0.0903214 13.8697 0.496515 13.8697H5.04453C5.31825 13.8697 5.54016 14.0916 5.54016 14.3653V22.909C5.54016 23.3918 6.16011 23.5897 6.43982 23.1962L11.1768 16.5317C10.8523 16.2966 10.5427 16.0586 10.2522 15.8313Z" fill="#FFA31D"/>
<path d="M6.77245 11.8812C6.90787 12.1911 7.21761 12.3993 7.55739 12.3989C7.89737 12.3984 8.20664 12.1918 8.34237 11.8812C8.36492 11.8296 8.28875 11.7845 8.26604 11.8366C8.14245 12.1195 7.86904 12.3101 7.55744 12.3104C7.24594 12.3108 6.97222 12.119 6.84883 11.8366C6.82607 11.7846 6.74985 11.8295 6.77245 11.8812Z" fill="black"/>
<path d="M6.66903 11.2749C6.55978 11.0248 6.30897 10.8571 6.03494 10.8574C5.76076 10.8578 5.51036 11.0243 5.40086 11.2749C5.3783 11.3266 5.45447 11.3716 5.47718 11.3196C5.57456 11.0967 5.78914 10.9462 6.03489 10.9459C6.28059 10.9456 6.49538 11.097 6.5926 11.3196C6.61541 11.3716 6.69163 11.3266 6.66903 11.2749Z" fill="black"/>
<path d="M9.71371 11.2749C9.60446 11.0248 9.35365 10.8571 9.07962 10.8574C8.80544 10.8578 8.55504 11.0243 8.44553 11.2749C8.42298 11.3266 8.49915 11.3716 8.52186 11.3196C8.61929 11.0967 8.83382 10.9462 9.07957 10.9459C9.32527 10.9456 9.54005 11.097 9.63728 11.3196C9.66009 11.3716 9.73631 11.3266 9.71371 11.2749Z" fill="black"/>
<path d="M5.96963 11.973C5.96963 12.266 5.73209 12.5036 5.43901 12.5036C5.14599 12.5036 4.90845 12.266 4.90845 11.973C4.90845 11.6799 5.14599 11.4424 5.43901 11.4424C5.73209 11.4424 5.96963 11.6799 5.96963 11.973Z" fill="#F78595"/>
<path d="M10.2062 11.973C10.2062 12.266 9.96866 12.5036 9.67564 12.5036C9.38262 12.5036 9.14502 12.266 9.14502 11.973C9.14502 11.6799 9.38256 11.4424 9.67564 11.4424C9.96866 11.4424 10.2062 11.6799 10.2062 11.973Z" fill="#F78595"/>
<path d="M14.1858 11.0347C14.1622 11.0311 14.1441 11.012 14.1425 10.9883C14.1295 10.802 14.0909 10.667 14.0454 10.667C13.9998 10.667 13.9612 10.8021 13.9482 10.9883C13.9465 11.012 13.9284 11.0311 13.9049 11.0347C13.7965 11.0512 13.7217 11.086 13.7217 11.1264C13.7217 11.1669 13.7965 11.2017 13.9049 11.2182C13.9284 11.2218 13.9465 11.2409 13.9482 11.2646C13.9612 11.4508 13.9998 11.5859 14.0454 11.5859C14.0909 11.5859 14.1295 11.4508 14.1425 11.2646C14.1441 11.2409 14.1622 11.2218 14.1858 11.2182C14.2941 11.2018 14.369 11.1669 14.369 11.1264C14.369 11.086 14.2941 11.0512 14.1858 11.0347Z" fill="white"/>
<path d="M13.2424 11.8507C13.2045 11.845 13.1754 11.8142 13.1727 11.776C13.1518 11.4763 13.0897 11.2588 13.0163 11.2588C12.943 11.2588 12.8809 11.4763 12.86 11.776C12.8573 11.8142 12.8281 11.845 12.7903 11.8507C12.6158 11.8772 12.4954 11.9334 12.4954 11.9984C12.4954 12.0635 12.6158 12.1196 12.7903 12.1461C12.8281 12.1519 12.8573 12.1826 12.86 12.2208C12.8809 12.5206 12.943 12.738 13.0163 12.738C13.0897 12.738 13.1518 12.5206 13.1727 12.2208C13.1754 12.1826 13.2045 12.1518 13.2424 12.1461C13.4169 12.1196 13.5373 12.0635 13.5373 11.9984C13.5373 11.9334 13.4169 11.8773 13.2424 11.8507Z" fill="white"/>
</svg>
