<svg width="97" height="46" viewBox="0 0 97 46" fill="none" xmlns="http://www.w3.org/2000/svg">
<path d="M11.4707 10.6743C12.0033 13.3717 10.9111 16.5463 11.9395 19.0273C12.9865 21.5528 16.0147 23.0208 17.5174 25.2647C19.0318 27.5253 19.2378 30.8821 21.1544 32.7988C23.0731 34.7161 26.4279 34.9227 28.6892 36.4365C30.9331 37.9384 32.4011 40.9666 34.9258 42.013C37.4083 43.042 40.5814 41.9492 43.2802 42.4831C45.8972 43.0018 48.4102 45.2367 51.1797 45.2367C53.95 45.2367 56.4636 43.0018 59.0806 42.4831C61.7787 41.9499 64.9533 43.0434 67.4343 42.0137C69.9591 40.9666 71.4278 37.9384 73.6717 36.4365C75.9329 34.922 79.2884 34.7161 81.2064 32.7995C83.1231 30.8821 83.329 27.526 84.8435 25.2654C86.3454 23.0208 89.3729 21.5528 90.4207 19.0287C91.449 16.5469 90.3555 13.3717 90.8901 10.675C91.4081 8.05733 93.643 5.54367 93.643 2.77344H8.71851C8.71851 5.54298 10.9527 8.05663 11.4707 10.6743Z" fill="#D3E0DD"/>
<path d="M5.94474 0L0 5.91562H10.4354L5.94474 0Z" fill="#492C82"/>
<path d="M90.8485 0L96.7926 5.91562H86.3579L90.8485 0Z" fill="#492C82"/>
<path d="M8.93263 7.90088C9.46518 10.5983 8.37303 13.7728 9.40138 16.2539C10.4485 18.7794 13.4766 20.2473 14.9786 22.4913C16.493 24.7518 16.6997 28.1087 18.6163 30.0253C20.535 31.9426 23.8898 32.1493 26.1511 33.663C28.395 35.165 29.863 38.1932 32.3877 39.2396C34.8702 40.2686 38.0433 39.1758 40.7421 39.7097C43.3591 40.2284 45.8721 42.4633 48.6416 42.4633C51.4119 42.4633 53.9255 40.2284 56.5425 39.7097C59.2406 39.1765 62.4152 40.27 64.8962 39.2402C67.421 38.1932 68.8897 35.165 71.1336 33.663C73.3949 32.1486 76.7503 31.9426 78.6684 30.026C80.585 28.1087 80.7909 24.7525 82.3054 22.492C83.8073 20.2473 86.8348 18.7793 87.8826 16.2553C88.9109 13.7735 87.8174 10.5983 88.352 7.90158C88.87 5.2839 91.1049 2.77023 91.1049 0H6.18042C6.18042 2.76954 8.41464 5.2832 8.93263 7.90088Z" fill="url(#paint0_linear_1633_3766)"/>
<g opacity="0.5">
<path d="M48.6311 41.0693C48.3288 41.0693 48.0105 41.0408 47.6881 40.984L47.8018 40.3294C48.0951 40.3807 48.3572 40.3745 48.6409 40.4043C49.1505 40.4043 49.6845 40.3162 50.2739 40.1352L50.4687 40.7704C49.8148 40.9715 49.2164 41.0693 48.6409 41.0693C48.6381 41.0693 48.6346 41.0693 48.6311 41.0693ZM45.0961 40.0832C44.8291 39.9584 44.5635 39.8287 44.2986 39.6991C43.7723 39.4432 43.2287 39.1783 42.6989 38.964L42.9478 38.3469C43.4991 38.5702 44.0532 38.8406 44.5885 39.1013C44.8513 39.2289 45.1141 39.3565 45.3776 39.4799L45.0961 40.0832ZM52.9803 39.7018L52.6898 39.1048C53.4969 38.7116 54.3325 38.3053 55.1722 38.0494L55.3657 38.686C54.5766 38.9252 53.8013 39.3024 52.9803 39.7018ZM60.5553 38.5293C60.1323 38.5168 59.7031 38.4918 59.2724 38.4662C58.8127 38.4384 58.3523 38.4107 57.8967 38.4017L57.9113 37.7367C58.3752 37.7464 58.8446 37.7741 59.3134 37.8025C59.7357 37.8275 60.1573 37.8525 60.574 37.8643L60.5553 38.5293ZM37.5967 38.4883L37.5585 37.8247L37.9753 37.8005C38.7256 37.7568 39.5043 37.7083 40.2546 37.745L40.2234 38.4086C39.5029 38.376 38.7485 38.4211 38.0141 38.4648L37.5967 38.4883ZM34.8687 38.4343C34.3965 38.3615 33.9763 38.2456 33.5831 38.0834C33.1483 37.9031 32.7281 37.6583 32.2996 37.3331L32.7011 36.8033C33.0838 37.0932 33.4548 37.3109 33.8376 37.469C34.1809 37.6112 34.5518 37.7124 34.972 37.7769L34.8687 38.4343ZM63.2999 38.2304L63.0988 37.5973C63.2167 37.5599 63.3318 37.5183 63.4462 37.4697C64.0342 37.2256 64.5938 36.8456 65.2109 36.2701L65.6638 36.7569C64.987 37.3872 64.3643 37.8088 63.7014 38.0841C63.5689 38.1382 63.4358 38.1867 63.2999 38.2304ZM30.3524 35.4276L30.1368 35.1828C29.6278 34.6086 29.1029 34.013 28.5509 33.5206L28.994 33.0242C29.5751 33.5428 30.1132 34.153 30.6347 34.7425L30.851 34.9866L30.3524 35.4276ZM67.4999 34.7862L67.0041 34.3431C67.6983 33.5671 68.3009 32.9507 68.9901 32.4653L69.3729 33.0075C68.7363 33.4582 68.1635 34.0449 67.4999 34.7862ZM26.384 32.1976C25.8743 31.984 25.3272 31.7947 24.7974 31.611C24.4951 31.5069 24.1928 31.4009 23.8939 31.292L24.1234 30.6679C24.4174 30.7761 24.7156 30.8801 25.0145 30.9834C25.5533 31.1699 26.1108 31.3634 26.6398 31.5832L26.384 32.1976ZM71.6855 31.8925L71.4587 31.2684C71.7278 31.1706 71.9989 31.077 72.2693 30.9827C72.8296 30.7892 73.4079 30.5888 73.9439 30.3614L74.2033 30.973C73.6472 31.2095 73.0578 31.414 72.4871 31.611C72.2187 31.7039 71.9503 31.7968 71.6855 31.8925ZM21.4357 30.0688C21.2131 29.9065 21.0071 29.7311 20.8227 29.5459C20.3872 29.1125 20.0128 28.5737 19.6772 27.9004L20.2714 27.603C20.5752 28.2111 20.9087 28.693 21.2928 29.0758C21.453 29.236 21.6326 29.3892 21.8275 29.5321L21.4357 30.0688ZM76.5394 29.4669L76.0589 29.0078C76.5582 28.4857 76.9569 27.8179 77.3535 26.8423L77.9693 27.0926C77.5463 28.1348 77.0914 28.8893 76.5394 29.4669ZM18.6918 25.3812C18.3825 24.4909 18.0934 23.6941 17.6912 22.982L18.2702 22.654C18.6994 23.4147 19.0115 24.2745 19.3207 25.1628L18.6918 25.3812ZM78.8798 24.5782L78.257 24.3459C78.49 23.7212 78.818 22.9126 79.2923 22.2039C79.3617 22.1006 79.4331 21.9987 79.5094 21.8982L80.0412 22.2996C79.9726 22.3898 79.9074 22.4813 79.8457 22.5742C79.4081 23.2247 79.0996 23.9874 78.8798 24.5782ZM16.0589 21.0203C15.7746 20.754 15.4805 20.494 15.1845 20.2325C14.81 19.9004 14.4349 19.5689 14.0805 19.2264L14.543 18.7486C14.8904 19.0842 15.258 19.4094 15.6255 19.7346C15.9257 19.9995 16.2253 20.2644 16.5138 20.5342L16.0589 21.0203ZM81.8559 20.4482L81.4142 19.9503L81.6597 19.7333C82.2332 19.2264 82.826 18.7021 83.3211 18.1481L83.8169 18.5912C83.2962 19.1744 82.688 19.7111 82.1007 20.2311L81.8559 20.4482ZM12.3962 17.0338C12.3574 16.9526 12.3206 16.8701 12.2859 16.7869C11.9996 16.097 11.8574 15.3085 11.838 14.3079L12.503 14.2947C12.5203 15.21 12.6465 15.9215 12.8989 16.5317C12.9294 16.6045 12.9613 16.676 12.9946 16.7474L12.3962 17.0338ZM85.2073 16.1725L84.5658 15.9985C84.7129 15.4583 84.7815 14.8439 84.7822 14.0659C84.7822 13.8634 84.7773 13.6596 84.7697 13.4536L85.4347 13.4293C85.4423 13.6429 85.4472 13.8551 85.4472 14.0659C85.4465 14.9049 85.3709 15.5741 85.2073 16.1725ZM12.6091 11.6555L11.9448 11.623C11.9607 11.3033 11.9718 10.9843 11.9718 10.6681C11.9718 10.044 11.9267 9.51425 11.8345 9.04966L12.487 8.92137C12.5876 9.42827 12.6361 10.0004 12.6361 10.6688C12.6368 10.9947 12.6257 11.3248 12.6091 11.6555ZM85.312 10.7811H84.647V10.6709C84.647 10.0045 84.6962 9.43312 84.7974 8.92137C84.8529 8.644 84.9285 8.35971 85.0297 8.05252L85.6608 8.26054C85.5685 8.54137 85.4992 8.80003 85.4493 9.05105C85.3563 9.51911 85.312 10.0489 85.312 10.6716V10.7811ZM11.1841 7.15315C11.0225 6.79326 10.8471 6.43406 10.671 6.07278C10.456 5.63037 10.2396 5.18728 10.0455 4.74072L10.655 4.47584C10.8457 4.91408 11.0572 5.34816 11.2687 5.78155C11.4469 6.14838 11.6258 6.5145 11.7901 6.88063L11.1841 7.15315ZM86.7141 5.86476L86.1163 5.57421C86.5109 4.7629 86.8833 3.96892 87.1059 3.1701L87.7466 3.34762C87.5094 4.20054 87.1225 5.02502 86.7141 5.86476ZM9.31184 2.07589C9.30421 1.9594 9.30005 1.84357 9.30005 1.72639V1.39355H11.9677V2.05854L9.31184 2.07589ZM86.5414 2.05924H83.8787V1.39425H86.5414V2.05924ZM81.2159 2.05924H78.5525V1.39425H81.2159V2.05924ZM75.8883 2.05924H73.2256V1.39425H75.8883V2.05924ZM70.5614 2.05924H67.898V1.39425H70.5614V2.05924ZM65.2352 2.05924H62.5725V1.39425H65.2352V2.05924ZM59.9083 2.05924H57.2449V1.39425H59.9083V2.05924ZM54.5821 2.05924H51.9187V1.39425H54.5821V2.05924ZM49.2552 2.05924H46.5918V1.39425H49.2552V2.05924ZM43.9276 2.05924H41.2649V1.39425H43.9276V2.05924ZM38.6021 2.05924H35.9387V1.39425H38.6021V2.05924ZM33.2745 2.05924H30.6118V1.39425H33.2745V2.05924ZM27.9483 2.05924H25.2842V1.39425H27.9483V2.05924ZM22.6214 2.05924H19.9587V1.39425H22.6214V2.05924ZM17.2945 2.05924H14.6311V1.39425H17.2945V2.05924Z" fill="white"/>
</g>
<path d="M32.9354 13.3636H34.9297L37.9695 18.6534H38.0945L41.1342 13.3636H43.1286L38.907 20.4318V25H37.157V20.4318L32.9354 13.3636ZM44.7862 25V13.3636H52.0817V14.875H46.5419V18.4205H51.701V19.9261H46.5419V23.4886H52.1499V25H44.7862ZM60.7734 16.4205C60.7128 15.8826 60.4628 15.4659 60.0234 15.1705C59.584 14.8712 59.031 14.7216 58.3643 14.7216C57.8871 14.7216 57.4742 14.7973 57.1257 14.9489C56.7772 15.0966 56.5064 15.3011 56.3132 15.5625C56.1238 15.8201 56.0291 16.1136 56.0291 16.4432C56.0291 16.7197 56.0935 16.9583 56.2223 17.1591C56.3549 17.3598 56.5272 17.5284 56.7393 17.6648C56.9553 17.7973 57.1863 17.9091 57.4325 18C57.6787 18.0871 57.9155 18.1591 58.1428 18.2159L59.2791 18.5114C59.6503 18.6023 60.031 18.7254 60.4212 18.8807C60.8113 19.036 61.1731 19.2405 61.5064 19.4943C61.8397 19.7481 62.1087 20.0625 62.3132 20.4375C62.5215 20.8125 62.6257 21.2614 62.6257 21.7841C62.6257 22.4432 62.4553 23.0284 62.1143 23.5398C61.7772 24.0511 61.2867 24.4545 60.6428 24.75C60.0026 25.0455 59.228 25.1932 58.3189 25.1932C57.4477 25.1932 56.6939 25.0549 56.0575 24.7784C55.4212 24.5019 54.9231 24.1098 54.5632 23.6023C54.2034 23.0909 54.0045 22.4848 53.9666 21.7841H55.728C55.7621 22.2045 55.8984 22.5549 56.1371 22.8352C56.3795 23.1117 56.6882 23.3182 57.0632 23.4545C57.442 23.5871 57.8568 23.6534 58.3075 23.6534C58.8037 23.6534 59.245 23.5758 59.6314 23.4205C60.0215 23.2614 60.3284 23.0417 60.5518 22.7614C60.7753 22.4773 60.8871 22.1458 60.8871 21.767C60.8871 21.4223 60.7886 21.1402 60.5916 20.9205C60.3984 20.7008 60.1352 20.5189 59.8018 20.375C59.4723 20.2311 59.0992 20.1042 58.6825 19.9943L57.3075 19.6193C56.3757 19.3655 55.6371 18.9924 55.0916 18.5C54.55 18.0076 54.2791 17.3561 54.2791 16.5455C54.2791 15.875 54.4609 15.2898 54.8246 14.7898C55.1882 14.2898 55.6806 13.9015 56.3018 13.625C56.9231 13.3447 57.6238 13.2045 58.4041 13.2045C59.192 13.2045 59.8871 13.3428 60.4893 13.6193C61.0954 13.8958 61.5727 14.2765 61.9212 14.7614C62.2697 15.2424 62.4515 15.7955 62.4666 16.4205H60.7734Z" fill="white"/>
<defs>
<linearGradient id="paint0_linear_1633_3766" x1="48.6424" y1="42.463" x2="48.6424" y2="7.08676e-05" gradientUnits="userSpaceOnUse">
<stop stop-color="#9677D4"/>
<stop offset="0.5302" stop-color="#7051AE"/>
<stop offset="1" stop-color="#492C82"/>
</linearGradient>
</defs>
</svg>
