<svg width="22" height="31" viewBox="0 0 22 31" fill="none" xmlns="http://www.w3.org/2000/svg">
<path d="M21.2626 30.9999H0.331221C0.14828 30.9999 0 30.8516 0 30.6686V29.738L0.164344 29.5835L0 29.4291V28.0766L0.195853 27.9222L0 27.7677V26.4153L0.127521 26.2608L0 26.1064V24.7539L0.18535 24.5743L0 24.445V23.0926L0.180099 22.9381L0 22.7837V21.4312L0.122269 21.2768L0 21.1302V19.7699L0.169595 19.6154L0 19.4609V18.1085L0.138024 17.954L0 17.7996V16.4515L0.143276 16.2949L0 16.1426V14.7901L0.148527 14.6357L0 14.4812V13.1288L0.153779 12.9743L0 12.8198V11.4674L0.211608 11.3129L0 11.1585V9.80605L0.138024 9.65159L0 9.49713V8.14469L0.138024 7.99023L0 7.83578V6.48334L0.122269 6.32888L0 6.17442V4.82198L0.143276 4.66752L0 4.51306V3.16063L0.122269 2.97898L0 2.85171V1.92106C0 1.73812 0.14828 1.58984 0.331221 1.58984H21.2626C21.4456 1.58984 21.5939 1.73812 21.5939 1.92106V2.85171L21.481 3.00617L21.5939 3.19461V4.51306L21.4178 4.66752L21.5939 4.83514V6.17442L21.4284 6.32888L21.5939 6.48334V7.83578L21.3968 7.99023L21.5939 8.15829V9.49713L21.4073 9.65159L21.5939 9.80605V16.1426L21.4704 16.297L21.5939 16.4662V21.0934L21.3863 21.2768L21.5939 21.4201V22.7837L21.4704 22.9381L21.5939 23.0926V24.4376L21.4599 24.5995L21.5939 24.7539V26.1202L21.4178 26.2608L21.5939 26.4153V27.7607L21.4599 27.9222L21.5939 28.0973V29.4291L21.4284 29.5835L21.5939 29.738V30.6686C21.5938 30.8516 21.4455 30.9999 21.2626 30.9999Z" fill="#0BB592"/>
<path d="M21.5939 16.1426H0V16.4515H21.5939V16.1426Z" fill="#337265"/>
<path d="M21.5939 14.4817H0V14.7906H21.5939V14.4817Z" fill="#337265"/>
<path d="M21.5939 12.8198H0V13.1287H21.5939V12.8198Z" fill="#337265"/>
<path d="M21.5939 11.1589H0V11.4679H21.5939V11.1589Z" fill="#337265"/>
<path d="M21.5939 9.49805H0V9.80696H21.5939V9.49805Z" fill="#337265"/>
<path d="M21.5939 7.83716H0V8.14608H21.5939V7.83716Z" fill="#337265"/>
<path d="M21.5939 6.17529H0V6.48421H21.5939V6.17529Z" fill="#337265"/>
<path d="M21.5939 4.51343H0V4.82234H21.5939V4.51343Z" fill="#337265"/>
<path d="M21.5939 2.85254H0V3.16146H21.5939V2.85254Z" fill="#337265"/>
<path d="M21.5939 29.4285H0V29.7374H21.5939V29.4285Z" fill="#337265"/>
<path d="M21.5939 27.7676H0V28.0765H21.5939V27.7676Z" fill="#337265"/>
<path d="M21.5939 26.1067H0V26.4156H21.5939V26.1067Z" fill="#337265"/>
<path d="M21.5939 24.4458H0V24.7547H21.5939V24.4458Z" fill="#337265"/>
<path d="M21.5939 22.7827H0V23.0916H21.5939V22.7827Z" fill="#337265"/>
<path d="M21.5939 21.1221H0V21.431H21.5939V21.1221Z" fill="#337265"/>
<path d="M21.5939 19.4612H0V19.7701H21.5939V19.4612Z" fill="#337265"/>
<path d="M21.5939 17.8003H0V18.1092H21.5939V17.8003Z" fill="#337265"/>
<path d="M19.0105 28.8141H2.58331C2.32722 28.8141 2.11963 28.6065 2.11963 28.3504V4.23956C2.11963 3.98347 2.32722 3.77588 2.58331 3.77588H19.0105C19.2666 3.77588 19.4742 3.98347 19.4742 4.23956V28.3505C19.4742 28.6065 19.2666 28.8141 19.0105 28.8141Z" fill="#EAD590"/>
<path d="M14.9959 2.51706H12.6231C12.6843 2.32936 12.7179 2.12906 12.7179 1.92091C12.7179 0.860025 11.8579 0 10.797 0C9.73609 0 8.87607 0.860025 8.87607 1.92091C8.87607 2.12906 8.90962 2.32936 8.97084 2.51706H6.59805C6.41307 2.51706 6.26306 2.66707 6.26306 2.85205V4.56666C6.26306 4.75164 6.41307 4.90165 6.59805 4.90165H14.9959C15.1809 4.90165 15.3309 4.7517 15.3309 4.56666V2.85205C15.3309 2.66707 15.1809 2.51706 14.9959 2.51706Z" fill="#FF4521"/>
<path d="M10.797 2.80471C10.3101 2.80471 9.91394 2.40856 9.91394 1.92164C9.91394 1.43473 10.3101 1.03857 10.797 1.03857C11.2839 1.03857 11.6801 1.43473 11.6801 1.92164C11.6801 2.40862 11.2839 2.80471 10.797 2.80471ZM10.797 1.34749C10.4804 1.34749 10.2229 1.60507 10.2229 1.92164C10.2229 2.23822 10.4804 2.4958 10.797 2.4958C11.1137 2.4958 11.3712 2.23822 11.3712 1.92164C11.3712 1.60507 11.1136 1.34749 10.797 1.34749Z" fill="black"/>
<path d="M5.85873 13.8114C6.26615 13.404 6.26615 12.7435 5.85873 12.336C5.45131 11.9286 4.79075 11.9286 4.38333 12.336C3.97591 12.7435 3.97591 13.404 4.38333 13.8114C4.79075 14.2188 5.45131 14.2188 5.85873 13.8114Z" fill="white"/>
<path d="M16.4729 14.1166H8.45795C7.88176 14.1166 7.41467 13.6495 7.41467 13.0733C7.41467 12.4971 7.88176 12.03 8.45795 12.03H16.4728C17.049 12.03 17.5161 12.4971 17.5161 13.0733C17.5161 13.6495 17.049 14.1166 16.4729 14.1166Z" fill="white"/>
<path d="M5.85861 17.984C6.26603 17.5766 6.26603 16.9161 5.85861 16.5086C5.45119 16.1012 4.79063 16.1012 4.38321 16.5086C3.97579 16.9161 3.97579 17.5766 4.38321 17.984C4.79063 18.3915 5.45119 18.3915 5.85861 17.984Z" fill="white"/>
<path d="M16.4729 18.2899H8.45795C7.88176 18.2899 7.41467 17.8228 7.41467 17.2466C7.41467 16.6705 7.88176 16.2034 8.45795 16.2034H16.4728C17.049 16.2034 17.5161 16.6705 17.5161 17.2466C17.5161 17.8228 17.049 18.2899 16.4729 18.2899Z" fill="white"/>
<path d="M5.85861 22.1566C6.26603 21.7492 6.26603 21.0887 5.85861 20.6812C5.45119 20.2738 4.79063 20.2738 4.38321 20.6812C3.97579 21.0887 3.97579 21.7492 4.38321 22.1566C4.79063 22.5641 5.45119 22.5641 5.85861 22.1566Z" fill="white"/>
<path d="M16.4729 22.4625H8.45795C7.88176 22.4625 7.41467 21.9954 7.41467 21.4193C7.41467 20.8431 7.88176 20.376 8.45795 20.376H16.4728C17.049 20.376 17.5161 20.8431 17.5161 21.4193C17.5161 21.9954 17.049 22.4625 16.4729 22.4625Z" fill="white"/>
<path d="M5.85861 26.329C6.26603 25.9216 6.26603 25.261 5.85861 24.8536C5.45119 24.4462 4.79063 24.4462 4.38321 24.8536C3.97579 25.261 3.97579 25.9216 4.38321 26.329C4.79063 26.7364 5.45119 26.7364 5.85861 26.329Z" fill="white"/>
<path d="M16.4729 26.6361H8.45795C7.88176 26.6361 7.41467 26.169 7.41467 25.5928C7.41467 25.0166 7.88176 24.5496 8.45795 24.5496H16.4728C17.049 24.5496 17.5161 25.0166 17.5161 25.5928C17.5161 26.169 17.049 26.6361 16.4729 26.6361Z" fill="white"/>
<path d="M15.5908 10.2943C16.6541 10.2943 17.5161 9.43231 17.5161 8.36896C17.5161 7.30562 16.6541 6.4436 15.5908 6.4436C14.5274 6.4436 13.6654 7.30562 13.6654 8.36896C13.6654 9.43231 14.5274 10.2943 15.5908 10.2943Z" fill="white"/>
<path d="M16.5031 7.84747H16.1121V7.45651C16.1121 7.25491 15.9487 7.09155 15.7472 7.09155H15.4344C15.2328 7.09155 15.0693 7.25497 15.0693 7.45651V7.84747H14.6784C14.4768 7.84747 14.3134 8.01089 14.3134 8.21249V8.5253C14.3134 8.7269 14.4768 8.89032 14.6784 8.89032H15.0693V9.28128C15.0693 9.48288 15.2328 9.6463 15.4344 9.6463H15.7472C15.9488 9.6463 16.1121 9.48288 16.1121 9.28128V8.89032H16.5031C16.7047 8.89032 16.8681 8.7269 16.8681 8.5253V8.21249C16.8681 8.01089 16.7047 7.84747 16.5031 7.84747Z" fill="#337265"/>
<path d="M12.7179 7.68636H4.07792C3.9926 7.68636 3.92346 7.61722 3.92346 7.5319C3.92346 7.44658 3.9926 7.37744 4.07792 7.37744H12.7179C12.8032 7.37744 12.8724 7.44658 12.8724 7.5319C12.8724 7.61722 12.8032 7.68636 12.7179 7.68636Z" fill="black"/>
<path d="M12.7179 9.36067H4.07792C3.9926 9.36067 3.92346 9.29154 3.92346 9.20622C3.92346 9.12089 3.9926 9.05176 4.07792 9.05176H12.7179C12.8032 9.05176 12.8724 9.12089 12.8724 9.20622C12.8724 9.29154 12.8032 9.36067 12.7179 9.36067Z" fill="black"/>
</svg>
