<svg width="21" height="21" viewBox="0 0 21 21" fill="none" xmlns="http://www.w3.org/2000/svg">
<path fill-rule="evenodd" clip-rule="evenodd" d="M1 9.67393C1 4.88344 4.88344 1 9.67393 1C14.4644 1 18.3479 4.88344 18.3479 9.67393C18.3479 11.6223 17.7055 13.4206 16.621 14.8685L19.6371 17.8848C20.121 18.3687 20.121 19.1531 19.6371 19.6371C19.1531 20.121 18.3687 20.121 17.8848 19.6371L14.8685 16.621C13.4206 17.7055 11.6223 18.3479 9.67393 18.3479C4.88344 18.3479 1 14.4644 1 9.67393ZM9.67393 3.47827C6.25216 3.47827 3.47827 6.25216 3.47827 9.67393C3.47827 13.0958 6.25216 15.8696 9.67393 15.8696C13.0958 15.8696 15.8696 13.0958 15.8696 9.67393C15.8696 6.25216 13.0958 3.47827 9.67393 3.47827Z" fill="#606060" stroke="white"/>
</svg>
