<svg width="14" height="13" viewBox="0 0 14 13" fill="none" xmlns="http://www.w3.org/2000/svg">
<path fill-rule="evenodd" clip-rule="evenodd" d="M0.472168 5.94421C0.472168 2.72009 3.1279 0.106445 6.40392 0.106445C9.67994 0.106445 12.3357 2.72009 12.3357 5.94421C12.3357 7.25554 11.8964 8.46579 11.1547 9.44031L13.2173 11.4703C13.5482 11.796 13.5482 12.3239 13.2173 12.6496C12.8864 12.9753 12.3499 12.9753 12.019 12.6496L9.95631 10.6198C8.9661 11.3496 7.73636 11.782 6.40392 11.782C3.1279 11.782 0.472168 9.16832 0.472168 5.94421ZM6.40392 1.77438C4.06391 1.77438 2.16695 3.64127 2.16695 5.94421C2.16695 8.24718 4.06391 10.114 6.40392 10.114C8.74397 10.114 10.6409 8.24718 10.6409 5.94421C10.6409 3.64127 8.74397 1.77438 6.40392 1.77438Z" fill="#757575"/>
</svg>
