<svg width="16" height="12" viewBox="0 0 16 12" fill="none" xmlns="http://www.w3.org/2000/svg">
<path fill-rule="evenodd" clip-rule="evenodd" d="M15.632 0.283818C16.083 0.694694 16.1252 1.40548 15.7266 1.87334L7.3611 11.6204C7.26449 11.733 7.14696 11.8245 7.01546 11.8895C6.88396 11.9545 6.74116 11.9916 6.5955 11.9987C6.44983 12.0059 6.30426 11.9828 6.16738 11.931C6.0305 11.8791 5.90509 11.7995 5.79856 11.6969L0.342798 6.44846C0.132915 6.2446 0.00987273 5.96337 0.000568609 5.66627C-0.00873551 5.36917 0.0964549 5.08036 0.293146 4.86296C0.489837 4.64556 0.762031 4.51727 1.05023 4.50612C1.33842 4.49497 1.61918 4.60187 1.83113 4.80346L6.47217 9.25712L14.0957 0.379789C14.1907 0.268963 14.3061 0.178552 14.4351 0.113732C14.5641 0.0489131 14.7042 0.0109592 14.8475 0.0020444C14.9907 -0.00687036 15.1343 0.0134293 15.2699 0.0617803C15.4055 0.110131 15.5306 0.185584 15.6379 0.283818H15.632Z" fill="#337265"/>
</svg>
