<svg width="17" height="17" viewBox="0 0 17 17" fill="none" xmlns="http://www.w3.org/2000/svg">
<path d="M8.55273 4.78125C6.48086 4.78125 4.83398 6.42812 4.83398 8.5C4.83398 10.5719 6.48086 12.2188 8.55273 12.2188C10.6246 12.2188 12.2715 10.5719 12.2715 8.5C12.2715 6.42812 10.6246 4.78125 8.55273 4.78125ZM8.55273 11.1562C7.06523 11.1562 5.89648 9.9875 5.89648 8.5C5.89648 7.0125 7.06523 5.84375 8.55273 5.84375C10.0402 5.84375 11.209 7.0125 11.209 8.5C11.209 9.9875 10.0402 11.1562 8.55273 11.1562Z" fill="white"/>
<path d="M16.3625 6.74687L14.875 6.26875L14.5562 5.47188L15.3 4.09062C15.4594 3.77187 15.4062 3.34688 15.1406 3.08125L13.8656 1.80625C13.6 1.54063 13.175 1.4875 12.8563 1.64687L11.475 2.39062L10.6781 2.07188L10.2 0.584375C10.0938 0.265625 9.775 0 9.40313 0H7.59687C7.225 0 6.90625 0.265625 6.85312 0.6375L6.375 2.125C6.05625 2.17812 5.79062 2.28437 5.525 2.44375L4.14375 1.7C3.825 1.54062 3.4 1.59375 3.13438 1.85938L1.85938 3.13438C1.59375 3.4 1.54062 3.825 1.7 4.14375L2.39062 5.47188C2.28437 5.7375 2.17813 6.05625 2.07188 6.32187L0.584375 6.8C0.265625 6.90625 0 7.225 0 7.59687V9.40313C0 9.775 0.265625 10.0938 0.6375 10.2L2.125 10.6781L2.44375 11.475L1.7 12.8563C1.54062 13.175 1.59375 13.6 1.85938 13.8656L3.13438 15.1406C3.4 15.4062 3.825 15.4594 4.14375 15.3L5.525 14.5562L6.32187 14.875L6.8 16.4156C6.90625 16.7344 7.225 17 7.59687 17H9.40313C9.775 17 10.0938 16.7344 10.2 16.4156L10.6781 14.875L11.475 14.5562L12.8563 15.3C13.175 15.4594 13.6 15.4062 13.8656 15.1406L15.1406 13.8656C15.4062 13.6 15.4594 13.175 15.3 12.8563L14.5562 11.475L14.875 10.6781L16.4156 10.2C16.7344 10.0938 17 9.775 17 9.40313V7.59687C17 7.225 16.7344 6.85313 16.3625 6.74687ZM15.9375 9.24375L14.025 9.82812L13.9719 10.0938L13.4937 11.2094L13.3344 11.475L14.2906 13.2281L13.2281 14.2906L11.475 13.3344L11.2094 13.4937C10.8375 13.7063 10.4656 13.8656 10.0938 13.9719L9.82812 14.025L9.24375 15.9375H7.75625L7.17188 14.025L6.90625 13.9719L5.79062 13.4937L5.525 13.3344L3.77188 14.2906L2.70937 13.2281L3.66562 11.475L3.50625 11.2094C3.29375 10.8375 3.13437 10.4656 3.02812 10.0938L2.975 9.82812L1.0625 9.24375V7.75625L2.86875 7.225L2.975 6.95938C3.08125 6.53438 3.24062 6.1625 3.45312 5.79062L3.6125 5.525L2.70937 3.77188L3.77188 2.70937L5.47188 3.66562L5.7375 3.50625C6.10938 3.29375 6.48125 3.13437 6.90625 3.02812L7.17188 2.92188L7.75625 1.0625H9.24375L9.82812 2.92188L10.0938 3.02812C10.4656 3.13437 10.8375 3.29375 11.2094 3.50625L11.475 3.66562L13.2281 2.70937L14.2906 3.77188L13.3344 5.525L13.4937 5.79062C13.7063 6.1625 13.8656 6.53438 13.9719 6.90625L14.025 7.17188L15.9375 7.75625V9.24375Z" fill="white"/>
</svg>
