<svg width="17" height="17" viewBox="0 0 17 17" fill="none" xmlns="http://www.w3.org/2000/svg">
<path d="M13.6973 10.3888C13.1623 10.3892 12.6355 10.5199 12.1623 10.7697C11.6891 11.0195 11.2837 11.3807 10.9811 11.8224L6.37586 9.74067C6.70295 8.94995 6.70423 8.06178 6.3794 7.27013L10.9783 5.17782C11.4268 5.82716 12.0929 6.29407 12.8558 6.49387C13.6187 6.69367 14.4278 6.61312 15.1365 6.26683C15.8451 5.92054 16.4063 5.33145 16.7183 4.60642C17.0303 3.88138 17.0723 3.06842 16.8368 2.31501C16.6013 1.5616 16.1039 0.917629 15.4348 0.499918C14.7656 0.0822059 13.9691 -0.0815816 13.1897 0.0382647C12.4102 0.158111 11.6995 0.553653 11.1865 1.15314C10.6734 1.75263 10.3919 2.51636 10.3932 3.30579C10.3962 3.49264 10.4151 3.67889 10.4498 3.86252L5.56079 6.08657C5.09124 5.64616 4.50341 5.35266 3.86952 5.24211C3.23563 5.13156 2.58328 5.20879 1.99263 5.4643C1.40198 5.71981 0.898742 6.14248 0.544749 6.68038C0.190755 7.21827 0.00142171 7.84798 7.9753e-06 8.49212C-0.00140576 9.13626 0.185162 9.76679 0.536791 10.3062C0.88842 10.8457 1.38979 11.2706 1.97932 11.5287C2.56884 11.7868 3.22084 11.8669 3.85521 11.7591C4.48959 11.6514 5.0787 11.3604 5.55018 10.9221L10.4519 13.1377C10.4178 13.3211 10.3991 13.5071 10.396 13.6937C10.3959 14.3475 10.5894 14.9867 10.9522 15.5304C11.315 16.0742 11.8307 16.498 12.434 16.7482C13.0374 16.9985 13.7014 17.064 14.342 16.9365C14.9826 16.809 15.571 16.4941 16.0329 16.0318C16.4947 15.5695 16.8092 14.9804 16.9366 14.3391C17.064 13.6978 16.9985 13.0331 16.7485 12.429C16.4985 11.825 16.0752 11.3087 15.532 10.9456C14.9889 10.5824 14.3504 10.3886 13.6973 10.3888ZM13.6973 1.41677C14.0705 1.41663 14.4354 1.5273 14.7458 1.73478C15.0562 1.94227 15.2982 2.23724 15.4411 2.5824C15.584 2.92757 15.6215 3.30741 15.5488 3.67389C15.4761 4.04037 15.2964 4.37703 15.0325 4.64129C14.7687 4.90554 14.4324 5.08553 14.0664 5.15847C13.7003 5.23142 13.3209 5.19405 12.9761 5.0511C12.6312 4.90814 12.3365 4.66602 12.1291 4.35536C11.9217 4.04469 11.811 3.67944 11.811 3.30579C11.8114 2.80503 12.0102 2.32488 12.3639 1.97072C12.7175 1.61656 13.1971 1.41733 13.6973 1.41677ZM3.32078 10.3888C2.94755 10.3889 2.58265 10.2782 2.27225 10.0707C1.96185 9.86326 1.71988 9.56829 1.57695 9.22312C1.43403 8.87796 1.39656 8.49812 1.46929 8.13164C1.54202 7.76515 1.72168 7.4285 1.98554 7.16424C2.24941 6.89998 2.58563 6.72 2.95169 6.64706C3.31774 6.57411 3.69718 6.61148 4.04202 6.75443C4.38686 6.89739 4.6816 7.13951 4.88897 7.45017C5.09635 7.76084 5.20703 8.12609 5.20703 8.49973C5.20647 9.00044 5.00759 9.48049 4.65399 9.83461C4.30039 10.1887 3.82094 10.388 3.32078 10.3888ZM13.6973 15.5827C13.3241 15.5827 12.9593 15.4719 12.649 15.2643C12.3386 15.0568 12.0968 14.7617 11.954 14.4166C11.8111 14.0714 11.7738 13.6916 11.8466 13.3251C11.9194 12.9587 12.0991 12.6221 12.363 12.3579C12.6269 12.0937 12.9631 11.9138 13.3292 11.8409C13.6952 11.7681 14.0746 11.8055 14.4194 11.9484C14.7642 12.0914 15.0589 12.3335 15.2662 12.6442C15.4736 12.9548 15.5842 13.3201 15.5842 13.6937C15.5839 14.1946 15.3849 14.6748 15.0312 15.029C14.6774 15.3832 14.1976 15.5823 13.6973 15.5827Z" fill="black"/>
</svg>
