<svg width="18" height="17" viewBox="0 0 18 17" fill="none" xmlns="http://www.w3.org/2000/svg">
<path d="M11.781 1.14288C11.7061 1.07241 11.6123 1.02546 11.5112 1.00781C11.4101 0.990159 11.306 1.00258 11.2118 1.04353C11.1176 1.08449 11.0374 1.15219 10.981 1.23831C10.9247 1.32443 10.8947 1.42521 10.8947 1.52823V3.84033C10.744 3.84371 10.5684 3.85301 10.3726 3.87075C9.72628 3.93075 8.85007 4.09301 7.9406 4.50667C6.08714 5.34962 4.1823 7.1999 3.7402 11.0813C3.72816 11.1875 3.74854 11.295 3.79866 11.3893C3.84877 11.4837 3.92625 11.5606 4.02085 11.6098C4.11545 11.6591 4.22272 11.6783 4.32846 11.665C4.4342 11.6518 4.53343 11.6066 4.61304 11.5355C6.43829 9.90707 8.1486 9.20609 9.38607 8.90778C9.86716 8.78899 10.3589 8.71864 10.8539 8.69778L10.8947 8.69651V11.0352C10.8947 11.1383 10.9247 11.239 10.981 11.3251C11.0374 11.4113 11.1176 11.479 11.2118 11.5199C11.306 11.5609 11.4101 11.5733 11.5112 11.5557C11.6123 11.538 11.7061 11.491 11.781 11.4206L16.8336 6.66708C16.8861 6.61768 16.928 6.558 16.9566 6.49171C16.9852 6.42543 17 6.35397 17 6.28173C17 6.2095 16.9852 6.13803 16.9566 6.07175C16.928 6.00547 16.8861 5.94578 16.8336 5.89638L11.781 1.14288ZM11.3604 4.90512L11.3688 4.90596H11.3696C11.4428 4.91322 11.5162 4.90503 11.586 4.88191C11.6558 4.8588 11.7199 4.82128 11.7744 4.77176C11.8289 4.72225 11.8724 4.66184 11.9022 4.59442C11.9319 4.527 11.9473 4.45408 11.9473 4.38033V2.74724L15.7039 6.28173L11.9473 9.81622V8.18313C11.9473 7.91694 11.7562 7.69299 11.4863 7.65919H11.485L11.4833 7.65877L11.4791 7.65834L11.4673 7.65708L11.4286 7.65285C11.3842 7.64915 11.3397 7.64633 11.2951 7.6444C11.1814 7.63849 11.0202 7.63511 10.8172 7.64187C10.4105 7.65623 9.83617 7.7137 9.14018 7.88102C8.01176 8.15271 6.57219 8.71383 5.02314 9.84707C5.64882 7.27806 7.07071 6.06201 8.37471 5.46878C9.14986 5.11638 9.90523 4.97526 10.4694 4.92286C10.7507 4.89667 10.9814 4.89329 11.1393 4.89582C11.2131 4.89698 11.2868 4.90008 11.3604 4.90512ZM3.63157 1.63386C2.93363 1.63386 2.26428 1.91209 1.77077 2.40735C1.27725 2.9026 1 3.5743 1 4.2747V13.3592C1 14.0596 1.27725 14.7313 1.77077 15.2265C2.26428 15.7218 2.93363 16 3.63157 16H12.6842C13.3821 16 14.0514 15.7218 14.545 15.2265C15.0385 14.7313 15.3157 14.0596 15.3157 13.3592V12.4085C15.3157 12.2684 15.2603 12.134 15.1616 12.035C15.0629 11.9359 14.929 11.8803 14.7894 11.8803C14.6498 11.8803 14.516 11.9359 14.4173 12.035C14.3186 12.134 14.2631 12.2684 14.2631 12.4085V13.3592C14.2631 13.7794 14.0968 14.1824 13.8006 14.4796C13.5045 14.7767 13.1029 14.9437 12.6842 14.9437H3.63157C3.21281 14.9437 2.8112 14.7767 2.51509 14.4796C2.21898 14.1824 2.05263 13.7794 2.05263 13.3592V4.2747C2.05263 3.85446 2.21898 3.45144 2.51509 3.15429C2.8112 2.85713 3.21281 2.6902 3.63157 2.6902H7.10524C7.24483 2.6902 7.3787 2.63455 7.4774 2.5355C7.5761 2.43645 7.63155 2.30211 7.63155 2.16203C7.63155 2.02195 7.5761 1.88761 7.4774 1.78856C7.3787 1.68951 7.24483 1.63386 7.10524 1.63386H3.63157Z" fill="#5F5F5F" stroke="white" stroke-width="0.2"/>
</svg>
