<svg width="20" height="20" viewBox="0 0 20 20" fill="none" xmlns="http://www.w3.org/2000/svg">
<path fill-rule="evenodd" clip-rule="evenodd" d="M20 2.939C19.9996 2.49807 19.8992 2.06287 19.7062 1.66558C19.5131 1.26829 19.2324 0.919086 18.8848 0.643789C18.5372 0.368491 18.1316 0.174147 17.698 0.0751297C17.2643 -0.0238875 16.8138 -0.0250444 16.3796 0.0717451C15.9455 0.168535 15.5389 0.360794 15.1898 0.634303C14.8408 0.907811 14.5583 1.25557 14.3631 1.65186C14.168 2.04815 14.0653 2.48283 14.0627 2.92376C14.06 3.36468 14.1573 3.80056 14.3476 4.19916L6.38553 8.29027C6.02023 7.78284 5.5017 7.40351 4.90474 7.20698C4.30778 7.01045 3.66324 7.0069 3.06411 7.19682C2.46497 7.38674 1.94221 7.76033 1.57123 8.2637C1.20024 8.76706 1.00022 9.37418 1 9.99747C0.999784 10.6208 1.19939 11.228 1.57002 11.7316C1.94066 12.2353 2.46316 12.6092 3.06216 12.7995C3.66116 12.9899 4.3057 12.9868 4.9028 12.7906C5.4999 12.5945 6.01869 12.2155 6.38435 11.7084L14.1683 16.2783C14.0481 16.715 14.031 17.1732 14.1184 17.6174C14.2058 18.0616 14.3952 18.4799 14.6721 18.8398C14.949 19.1998 15.3059 19.4916 15.715 19.6928C16.1241 19.894 16.5745 19.9991 17.0313 20C17.5338 20 18.028 19.8735 18.4677 19.6326C18.9074 19.3916 19.2782 19.0441 19.5453 18.6224C19.8125 18.2007 19.9672 17.7188 19.9951 17.2217C20.023 16.7246 19.9231 16.2286 19.7047 15.7802C19.4864 15.3318 19.1568 14.9456 18.7467 14.6579C18.3366 14.3702 17.8596 14.1903 17.3602 14.135C16.8609 14.0798 16.3555 14.1511 15.8915 14.3422C15.4276 14.5333 15.0201 14.8379 14.7074 15.2276L6.94365 10.6694L6.86884 10.6317C6.96158 10.2147 6.96158 9.78271 6.86884 9.3657L6.91396 9.34452L14.9295 5.22635C14.9764 5.20238 15.02 5.17231 15.0589 5.13693C15.4866 5.51367 16.0151 5.75989 16.5807 5.84595C17.1464 5.93201 17.7251 5.85425 18.2471 5.62201C18.7692 5.38978 19.2124 5.01298 19.5234 4.53697C19.8344 4.06096 19.9999 3.50604 20 2.939ZM17.0313 1.17407C17.5037 1.17407 17.9568 1.36001 18.2908 1.691C18.6249 2.02199 18.8125 2.47091 18.8125 2.939C18.8125 3.40709 18.6249 3.856 18.2908 4.18699C17.9568 4.51798 17.5037 4.70393 17.0313 4.70393C16.5589 4.70393 16.1058 4.51798 15.7718 4.18699C15.4377 3.856 15.2501 3.40709 15.2501 2.939C15.2501 2.47091 15.4377 2.02199 15.7718 1.691C16.1058 1.36001 16.5589 1.17407 17.0313 1.17407ZM3.96901 8.23379C4.44142 8.23379 4.89448 8.41974 5.22852 8.75073C5.56257 9.08172 5.75023 9.53063 5.75023 9.99872C5.75023 10.4668 5.56257 10.9157 5.22852 11.2467C4.89448 11.5777 4.44142 11.7637 3.96901 11.7637C3.4966 11.7637 3.04354 11.5777 2.7095 11.2467C2.37545 10.9157 2.18779 10.4668 2.18779 9.99872C2.18779 9.53063 2.37545 9.08172 2.7095 8.75073C3.04354 8.41974 3.4966 8.23379 3.96901 8.23379ZM17.0313 15.2935C17.5037 15.2935 17.9568 15.4795 18.2908 15.8105C18.6249 16.1414 18.8125 16.5904 18.8125 17.0584C18.8125 17.5265 18.6249 17.9755 18.2908 18.3064C17.9568 18.6374 17.5037 18.8234 17.0313 18.8234C16.5589 18.8234 16.1058 18.6374 15.7718 18.3064C15.4377 17.9755 15.2501 17.5265 15.2501 17.0584C15.2501 16.5904 15.4377 16.1414 15.7718 15.8105C16.1058 15.4795 16.5589 15.2935 17.0313 15.2935Z" fill="#2C2D32"/>
</svg>
