<svg width="20" height="15" viewBox="0 0 20 15" fill="none" xmlns="http://www.w3.org/2000/svg">
<path d="M8.88689 10.7092L17.6133 2.09385C17.7167 1.99873 17.8534 1.94695 17.9947 1.94941C18.136 1.95187 18.2708 2.00839 18.3707 2.10704C18.4707 2.2057 18.5279 2.33879 18.5304 2.47829C18.5329 2.61779 18.4804 2.7528 18.3841 2.85487L9.65772 11.4703C9.55433 11.5654 9.41758 11.6172 9.27629 11.6147C9.13499 11.6122 9.00018 11.5557 8.90025 11.4571C8.80033 11.3584 8.74309 11.2253 8.74059 11.0858C8.7381 10.9463 8.79055 10.8113 8.88689 10.7092ZM9.9995 4.44872C10.651 4.44807 11.2982 4.55234 11.9157 4.75744C12.0528 4.80302 12.2027 4.79293 12.3324 4.7294C12.462 4.66586 12.5608 4.55408 12.607 4.41865C12.6531 4.28322 12.6429 4.13523 12.5786 4.00724C12.5142 3.87925 12.401 3.78173 12.2638 3.73615C11.1339 3.36012 9.92614 3.2715 8.75232 3.4785C7.57849 3.6855 6.47651 4.18143 5.54831 4.92042C4.6201 5.6594 3.89567 6.61757 3.44202 7.70628C2.98837 8.79498 2.82016 9.97906 2.95294 11.149C2.96777 11.2813 3.03172 11.4035 3.13244 11.492C3.23316 11.5805 3.36351 11.629 3.49834 11.6282C3.51862 11.6295 3.53897 11.6295 3.55925 11.6282C3.7029 11.6124 3.83432 11.541 3.92465 11.4296C4.01499 11.3182 4.05684 11.1759 4.04102 11.0341C4.0154 10.8142 4.00175 10.5931 4.00011 10.3718C4.00204 8.80148 4.63473 7.29603 5.75942 6.18565C6.8841 5.07526 8.40896 4.45062 9.9995 4.44872ZM18.9077 5.87564C18.875 5.81271 18.83 5.75675 18.7754 5.71097C18.7208 5.66518 18.6576 5.63046 18.5894 5.6088C18.5212 5.58713 18.4493 5.57894 18.3779 5.58469C18.3065 5.59044 18.237 5.61002 18.1732 5.64231C18.1095 5.6746 18.0528 5.71897 18.0064 5.77289C17.96 5.82681 17.9249 5.88921 17.9029 5.95655C17.881 6.02388 17.8727 6.09482 17.8785 6.16532C17.8843 6.23583 17.9042 6.3045 17.9369 6.36744C18.4861 7.43156 18.8108 8.59465 18.8914 9.7863C18.9721 10.9779 18.8069 12.1733 18.4059 13.3001C18.3938 13.3361 18.3705 13.3674 18.3393 13.3894C18.3082 13.4115 18.2707 13.4233 18.2323 13.4231H1.76943C1.73084 13.4221 1.69348 13.4095 1.66242 13.3868C1.63136 13.3642 1.60811 13.3327 1.59581 13.2965C1.12699 11.97 0.986124 10.552 1.18494 9.16081C1.38375 7.76961 1.91649 6.44547 2.73876 5.29876C3.56102 4.15204 4.64899 3.21598 5.91199 2.56857C7.17498 1.92116 8.57642 1.58117 9.9995 1.57692H10.0813C11.4638 1.58564 12.8248 1.91519 14.0545 2.53897C14.1185 2.57133 14.1883 2.59092 14.26 2.59663C14.3316 2.60235 14.4037 2.59407 14.4721 2.57228C14.5406 2.55049 14.604 2.5156 14.6587 2.46962C14.7135 2.42364 14.7585 2.36746 14.7913 2.30429C14.8241 2.24113 14.8439 2.1722 14.8497 2.10146C14.8555 2.03072 14.8471 1.95955 14.825 1.89201C14.8029 1.82446 14.7676 1.76187 14.721 1.70781C14.6745 1.65375 14.6176 1.60927 14.5536 1.57692C13.172 0.877332 11.6431 0.508422 10.0904 0.5H9.9995C8.40076 0.500779 6.82549 0.879822 5.40567 1.60537C3.98585 2.33092 2.76282 3.38185 1.83906 4.6701C0.915304 5.95836 0.317714 7.44642 0.0963586 9.00962C-0.124997 10.5728 0.0363301 12.1656 0.566823 13.6546C0.654309 13.9009 0.816888 14.1144 1.03222 14.2657C1.24756 14.4171 1.50509 14.499 1.76943 14.5H18.2287C18.4924 14.4994 18.7494 14.4182 18.9646 14.2677C19.1797 14.1171 19.3424 13.9045 19.4304 13.6591C19.8816 12.3944 20.0679 11.0524 19.978 9.71442C19.8882 8.37648 19.524 7.07049 18.9077 5.87564Z" fill="#2C2D32"/>
</svg>
