<svg width="33" height="34" viewBox="0 0 33 34" fill="none" xmlns="http://www.w3.org/2000/svg">
<path d="M20.8803 2.70178C19.3053 2.97747 16.5703 4.90627 12.6877 6.32206C7.04037 8.38138 3.03393 8.1755 3.03393 8.1755C1.07303 8.10572 0.0542326 8.2286 0.000761403 9.68984C-0.0527095 11.1511 2.72196 21.4594 4.59393 26.8231C6.46591 32.1868 5.63297 32.8998 8.37456 33.4114C10.7679 33.858 20.0143 32.6023 24.6783 30.668C26.0551 30.2946 27.9492 29.1673 28.5703 27.9468C28.995 27.112 28.1052 24.069 27.4303 22.5376C24.8999 16.7939 23.061 5.98984 22.3078 3.55393C22.0724 2.79271 21.5962 2.57646 20.8803 2.70178Z" fill="#0BB592"/>
<path d="M24.5278 0.502594C22.9312 0.587723 19.9849 2.17516 15.9607 3.11588C10.1074 4.48418 6.15443 3.80006 6.15443 3.80006C4.21599 3.49599 3.18981 3.496 2.96176 4.94032C2.7337 6.38465 4.25412 16.9511 5.47039 22.5003C6.68666 28.0496 5.77435 28.6577 8.43495 29.4939C10.7576 30.2238 20.0879 30.0843 24.9499 28.7224C25.0325 28.6373 25.0961 28.5592 25.1969 28.4677C25.4035 28.28 25.6002 28.0875 25.7874 27.8916C25.9746 27.6958 26.1523 27.4966 26.3209 27.2952C26.4896 27.0938 26.649 26.8904 26.7999 26.6861C26.9509 26.4819 27.0931 26.2769 27.2272 26.0725C27.4954 25.6636 27.7307 25.257 27.9367 24.8632C28.1427 24.4693 28.3194 24.0883 28.4702 23.7308C28.6211 23.3733 28.7462 23.0393 28.8488 22.7393C28.9221 22.5251 28.9715 22.3528 29.0233 22.1773C28.9047 21.7929 28.7958 21.4416 28.6556 20.98C26.8311 14.9746 26.2991 4.02811 25.843 1.51954C25.7004 0.735613 25.2535 0.463899 24.5278 0.502594Z" fill="#FFC517"/>
<path d="M4.90234 19.6653C5.09395 20.6902 5.28559 21.6572 5.47035 22.5001C6.68662 28.0494 5.77433 28.6574 8.43493 29.4936C10.7576 30.2236 20.0878 30.0842 24.9499 28.7222C25.0325 28.6372 25.0961 28.559 25.1969 28.4675C25.4036 28.2799 25.6002 28.0873 25.7874 27.8914C25.9746 27.6956 26.1523 27.4963 26.3209 27.295C26.4895 27.0936 26.649 26.8902 26.7999 26.686C26.9508 26.4817 27.0931 26.2768 27.2272 26.0723C27.4953 25.6635 27.7306 25.2568 27.9366 24.863C27.9661 24.8066 27.9937 24.7511 28.022 24.6953C25.3048 26.1019 21.4702 27.3481 16.503 27.2335C10.1102 27.0859 6.66818 23.0451 4.90234 19.6653Z" fill="#FFAC17"/>
<path d="M29.0233 22.177C29.0233 22.177 26.375 24.0204 25.5768 24.4765C24.7786 24.9326 24.9499 28.7221 24.9499 28.7221C24.9499 28.7221 28.2507 26.7191 29.0233 22.177Z" fill="#337265"/>
<path d="M7.07464 6.54525C7.07464 6.54525 11.2696 6.85034 14.5494 6.08762C17.8291 5.32489 19.3837 4.4121 19.6888 4.75533C19.9939 5.09855 20.6422 6.70028 19.9939 7.0435C19.3456 7.38673 17.6765 8.29952 13.1383 8.71902C8.6001 9.13852 7.95178 9.29106 6.9221 8.83343C5.89242 8.37579 5.93056 6.54525 7.07464 6.54525Z" fill="#337265"/>
<path d="M8.31547 11.8176C8.31547 11.8176 11.5365 11.0123 11.8184 11.576C12.1002 12.1397 12.7847 14.636 12.06 14.8373C11.3352 15.0386 9.40258 15.2802 8.79863 15.24C8.19468 15.1997 7.5102 12.0189 8.31547 11.8176Z" fill="white"/>
<path d="M13.4905 11.3068C13.6939 11.3068 18.6788 9.98428 20.4421 9.713C22.2055 9.44171 23.4263 8.72959 23.4602 9.4078C23.4941 10.086 22.409 10.3573 21.256 10.5269C20.103 10.6964 14.5756 11.9172 13.9313 12.0867C13.287 12.2563 12.6088 11.612 13.4905 11.3068Z" fill="#FF4B3D"/>
<path d="M13.9991 13.6133C14.2026 13.6133 15.9999 13.0707 17.7632 12.7994C19.5266 12.5281 20.7473 11.816 20.7813 12.4942C20.8152 13.1724 19.73 13.4437 18.5771 13.6133C17.4241 13.7828 15.0843 14.2237 14.44 14.3932C13.7957 14.5628 13.1175 13.9185 13.9991 13.6133Z" fill="white"/>
<path d="M9.57401 17.5383C9.57401 17.5383 12.7951 16.733 13.0769 17.2967C13.3588 17.8604 14.0432 20.3567 13.3185 20.558C12.5938 20.7593 10.6611 21.0009 10.0572 20.9607C9.45322 20.9204 8.76875 17.7396 9.57401 17.5383Z" fill="white"/>
<path d="M14.749 17.0275C14.9525 17.0275 19.9373 15.705 21.7007 15.4337C23.464 15.1624 24.6848 14.4503 24.7187 15.1285C24.7526 15.8067 23.6675 16.078 22.5145 16.2476C21.3616 16.4171 15.8341 17.6379 15.1898 17.8074C14.5455 17.977 13.8673 17.3327 14.749 17.0275Z" fill="#FF4B3D"/>
<path d="M15.2577 19.334C15.4611 19.334 17.2584 18.7914 19.0218 18.5201C20.7851 18.2488 22.0059 17.5367 22.0398 18.2149C22.0737 18.8931 20.9886 19.1644 19.8356 19.334C18.6826 19.5035 16.3428 19.9444 15.6985 20.1139C15.0542 20.2835 14.376 19.6392 15.2577 19.334Z" fill="white"/>
<path d="M10.7563 23.2207C10.7563 23.2207 13.9773 22.4154 14.2592 22.9791C14.541 23.5428 15.2255 26.0391 14.5008 26.2404C13.776 26.4417 11.8434 26.6833 11.2394 26.643C10.6355 26.6028 9.951 23.422 10.7563 23.2207Z" fill="white"/>
<path d="M15.9313 22.7099C16.1347 22.7099 21.1196 21.3874 22.8829 21.1161C24.6463 20.8448 25.8671 20.1327 25.901 20.8109C25.9349 21.4891 24.8498 21.7604 23.6968 21.9299C22.5438 22.0995 17.0164 23.3203 16.3721 23.4898C15.7278 23.6594 15.0496 23.0151 15.9313 22.7099Z" fill="#FF4B3D"/>
<path d="M16.4399 25.0156C16.6434 25.0156 18.4407 24.4731 20.204 24.2018C21.9674 23.9305 23.1881 23.2184 23.2221 23.8966C23.256 24.5748 22.1708 24.8461 21.0179 25.0156C19.8649 25.1852 17.5251 25.626 16.8808 25.7956C16.2365 25.9651 15.5582 25.3208 16.4399 25.0156Z" fill="white"/>
<path d="M27.882 0.502197C27.2097 0.502182 26.5441 0.634573 25.923 0.891812C25.3019 1.14905 24.7376 1.5261 24.2623 2.00143C23.7869 2.47676 23.4099 3.04106 23.1526 3.66212C22.8954 4.28317 22.7629 4.94882 22.7629 5.62104C22.7629 6.29329 22.8953 6.95895 23.1526 7.58002C23.4098 8.2011 23.7869 8.76542 24.2622 9.24076C24.7376 9.71611 25.3019 10.0932 25.923 10.3504C26.544 10.6077 27.2097 10.7401 27.882 10.7401C27.9194 10.74 27.9568 10.7395 27.9942 10.7386C27.9901 11.3658 27.8035 12.264 26.9245 12.9721C25.4181 14.1856 28.7866 12.8257 29.7281 11.5075C30.0653 11.0354 30.2318 10.5536 30.3087 10.1282C31.1226 9.69001 31.8026 9.0396 32.2766 8.24604C32.7506 7.45248 33.0008 6.54538 33.0008 5.62104C33.0008 4.26344 32.4615 2.96145 31.5015 2.00149C30.5415 1.04152 29.2395 0.50221 27.882 0.502197Z" fill="#337265"/>
<path d="M26.2402 4.99793C26.2402 4.99793 25.6762 3.44187 27.1739 2.50824C28.6716 1.5746 30.8889 3.05286 30.4416 4.80342C29.9942 6.55399 28.6716 6.22333 28.2631 7.35147C27.8546 8.47961 27.4851 8.1684 27.3878 7.70158C27.2906 7.23476 27.7768 6.04827 29.1773 5.34804C30.5777 4.64782 29.0606 2.68329 27.9519 3.44187C26.8432 4.20045 27.7094 4.58607 27.4267 5.07573C27.1088 5.62644 26.3764 5.4842 26.2402 4.99793Z" fill="white"/>
<path d="M23.4177 8.18945C23.8682 8.95925 24.5122 9.59773 25.2859 10.0414C26.0596 10.4851 26.936 10.7186 27.8279 10.7185C27.8653 10.7184 27.9026 10.7179 27.94 10.717C27.9359 11.3431 27.7496 12.2397 26.8722 12.9465C25.3685 14.1578 28.7309 12.8003 29.6707 11.4846C30.0073 11.0133 30.1734 10.5324 30.2502 10.1079C30.9652 9.72283 31.5782 9.17292 32.0383 8.50371C31.3051 8.70928 30.4296 8.88227 29.3832 9.00301C26.1076 9.38096 24.3544 8.83622 23.4177 8.18945Z" fill="#0BB592"/>
<path d="M27.9887 9.14627C27.9887 9.40408 27.704 9.55119 27.4462 9.55119C27.1884 9.55119 26.9794 9.34219 26.9794 9.08437C26.9794 8.82656 27.1884 8.55566 27.4462 8.55566C27.704 8.55566 27.9887 8.88845 27.9887 9.14627Z" fill="white"/>
</svg>
