<svg width="31" height="30" viewBox="0 0 31 30" fill="none" xmlns="http://www.w3.org/2000/svg">
<path fill-rule="evenodd" clip-rule="evenodd" d="M15.4976 0C23.7819 0 30.4976 6.71571 30.4976 15C30.4976 23.2843 23.7819 30 15.4976 30C7.21326 30 0.497559 23.2843 0.497559 15C0.497559 6.71571 7.21326 0 15.4976 0ZM23.1427 22.1678H8.33627V7.34837C8.33627 7.22004 8.28529 7.09696 8.19455 7.00622C8.1038 6.91547 7.98073 6.8645 7.8524 6.8645C7.72407 6.8645 7.60099 6.91547 7.51025 7.00622C7.41951 7.09696 7.36853 7.22004 7.36853 7.34837V22.6516C7.36853 22.78 7.41951 22.903 7.51025 22.9938C7.60099 23.0845 7.72407 23.1355 7.8524 23.1355H23.1433C23.2717 23.1355 23.3947 23.0845 23.4855 22.9938C23.5762 22.903 23.6272 22.78 23.6272 22.6516C23.6272 22.5233 23.5762 22.4002 23.4855 22.3095C23.3947 22.2187 23.2717 22.1678 23.1433 22.1678H23.1427ZM22.8609 17.2822V16.1583H23.1427C23.271 16.1583 23.3941 16.1073 23.4849 16.0166C23.5756 15.9259 23.6266 15.8028 23.6266 15.6745V9.53026C23.6266 9.40193 23.5756 9.27886 23.4849 9.18811C23.3941 9.09737 23.271 9.04639 23.1427 9.04639H22.8609V7.34837C22.8609 7.22004 22.8099 7.09696 22.7192 7.00622C22.6285 6.91547 22.5054 6.8645 22.3771 6.8645C22.2487 6.8645 22.1256 6.91547 22.0349 7.00622C21.9442 7.09696 21.8932 7.22004 21.8932 7.34837V9.04639H21.6115C21.4831 9.04639 21.36 9.09737 21.2693 9.18811C21.1786 9.27886 21.1276 9.40193 21.1276 9.53026V15.6745C21.1276 15.8028 21.1786 15.9259 21.2693 16.0166C21.36 16.1073 21.4831 16.1583 21.6115 16.1583H21.8932V17.2822C21.8932 17.4105 21.9442 17.5336 22.0349 17.6243C22.1256 17.7151 22.2487 17.766 22.3771 17.766C22.5054 17.766 22.6285 17.7151 22.7192 17.6243C22.8099 17.5336 22.8609 17.4105 22.8609 17.2822ZM22.6588 10.0141H22.0953V15.1906H22.6588V10.0141ZM19.2173 18.2449V17.2058H19.4991C19.6274 17.2058 19.7505 17.1549 19.8412 17.0641C19.9319 16.9734 19.9829 16.8503 19.9829 16.722V12.1115C19.9829 11.9832 19.9319 11.8601 19.8412 11.7694C19.7505 11.6786 19.6274 11.6277 19.4991 11.6277H19.2173V9.97379C19.2173 9.84546 19.1663 9.72239 19.0756 9.63164C18.9848 9.5409 18.8618 9.48992 18.7334 9.48992C18.6051 9.48992 18.482 9.5409 18.3913 9.63164C18.3006 9.72239 18.2496 9.84546 18.2496 9.97379V11.6275H17.9678C17.8394 11.6275 17.7164 11.6785 17.6256 11.7693C17.5349 11.86 17.4839 11.9831 17.4839 12.1114V16.722C17.4839 16.8503 17.5349 16.9734 17.6256 17.0641C17.7164 17.1549 17.8394 17.2058 17.9678 17.2058H18.2496V18.2449C18.2496 18.3732 18.3006 18.4963 18.3913 18.587C18.482 18.6778 18.6051 18.7288 18.7334 18.7288C18.8618 18.7288 18.9848 18.6778 19.0756 18.587C19.1663 18.4963 19.2173 18.3732 19.2173 18.2449ZM19.0152 12.5957H18.4517V16.2381H19.0152V12.5954V12.5957ZM15.5733 20.3268V19.6565H15.8551C15.9835 19.6565 16.1065 19.6056 16.1973 19.5148C16.288 19.4241 16.339 19.301 16.339 19.1727V16.7694C16.339 16.6411 16.288 16.518 16.1973 16.4272C16.1065 16.3365 15.9835 16.2855 15.8551 16.2855H15.5733V15.6215C15.5733 15.4932 15.5224 15.3701 15.4316 15.2794C15.3409 15.1886 15.2178 15.1377 15.0895 15.1377C14.9611 15.1377 14.8381 15.1886 14.7473 15.2794C14.6566 15.3701 14.6056 15.4932 14.6056 15.6215V16.2855H14.3242C14.1958 16.2855 14.0728 16.3365 13.982 16.4272C13.8913 16.518 13.8403 16.6411 13.8403 16.7694V19.1727C13.8403 19.301 13.8913 19.4241 13.982 19.5148C14.0728 19.6056 14.1958 19.6565 14.3242 19.6565H14.606V20.3268C14.606 20.3904 14.6185 20.4533 14.6428 20.512C14.6671 20.5707 14.7028 20.624 14.7477 20.669C14.7926 20.7139 14.846 20.7495 14.9047 20.7739C14.9634 20.7982 15.0263 20.8107 15.0898 20.8107C15.1534 20.8107 15.2163 20.7982 15.275 20.7739C15.3337 20.7495 15.3871 20.7139 15.432 20.669C15.4769 20.624 15.5126 20.5707 15.5369 20.512C15.5612 20.4533 15.5737 20.3904 15.5737 20.3268H15.5733ZM15.3713 17.2533H14.808V18.6888H15.3716V17.2533H15.3713ZM11.9297 19.6363V17.9825H12.2115C12.3399 17.9825 12.4629 17.9315 12.5537 17.8408C12.6444 17.7501 12.6954 17.627 12.6954 17.4986V13.957C12.6954 13.8287 12.6444 13.7056 12.5537 13.6149C12.4629 13.5241 12.3399 13.4731 12.2115 13.4731H11.9297V11.8194C11.9297 11.6911 11.8788 11.568 11.788 11.4772C11.6973 11.3865 11.5742 11.3355 11.4459 11.3355C11.3175 11.3355 11.1945 11.3865 11.1037 11.4772C11.013 11.568 10.962 11.6911 10.962 11.8194V13.4731H10.6803C10.5519 13.4731 10.4289 13.5241 10.3381 13.6149C10.2474 13.7056 10.1964 13.8287 10.1964 13.957V17.4986C10.1964 17.627 10.2474 17.7501 10.3381 17.8408C10.4289 17.9315 10.5519 17.9825 10.6803 17.9825H10.962V19.6363C10.962 19.7646 11.013 19.8877 11.1037 19.9784C11.1945 20.0692 11.3175 20.1201 11.4459 20.1201C11.5742 20.1201 11.6973 20.0692 11.788 19.9784C11.8788 19.8877 11.9297 19.7647 11.9297 19.6363ZM11.7277 14.4408H11.1641V17.0147H11.7277V14.4408Z" fill="#00812F"/>
</svg>
