<svg width="28" height="30" viewBox="0 0 28 30" fill="none" xmlns="http://www.w3.org/2000/svg">
<path d="M11.0386 4.74782H14.0568C14.2825 4.74782 14.4656 4.56475 14.4656 4.339C14.4656 4.11325 14.2825 3.93018 14.0568 3.93018H11.0386C10.8128 3.93018 10.6298 4.11325 10.6298 4.339C10.6298 4.56475 10.8128 4.74782 11.0386 4.74782Z" fill="#0C0C0C"/>
<path d="M11.0386 6.42506H20.3087C20.5345 6.42506 20.7176 6.24199 20.7176 6.01624C20.7176 5.79049 20.5345 5.60742 20.3087 5.60742H11.0386C10.8128 5.60742 10.6298 5.79049 10.6298 6.01624C10.6298 6.24199 10.8128 6.42506 11.0386 6.42506Z" fill="#0C0C0C"/>
<path d="M11.0386 8.10524H20.3087C20.5345 8.10524 20.7176 7.92217 20.7176 7.69642C20.7176 7.47067 20.5345 7.2876 20.3087 7.2876H11.0386C10.8128 7.2876 10.6298 7.47067 10.6298 7.69642C10.6298 7.92217 10.8128 8.10524 11.0386 8.10524Z" fill="#0C0C0C"/>
<path d="M27.1025 3.84641L23.7905 0.53447C23.4459 0.189819 22.9877 0 22.5003 0H9.11267C8.10651 0 7.28796 0.818511 7.28796 1.82467V9.76365C7.28796 9.9894 7.471 10.1725 7.69678 10.1725C7.92257 10.1725 8.10561 9.9894 8.10561 9.76365V1.82466C8.10561 1.26936 8.55736 0.817634 9.11267 0.817634H22.5003C22.5626 0.817634 22.6239 0.823841 22.6839 0.834834C22.6803 0.85668 22.6779 0.878972 22.6779 0.901836V4.65548C22.6779 4.88123 22.861 5.0643 23.0868 5.0643H26.8158C26.8174 5.08832 26.8193 5.11235 26.8193 5.13667V25.017C26.8193 25.5723 26.3675 26.0241 25.8122 26.0241H19.8251C19.5993 26.0241 19.4163 26.2071 19.4163 26.4329C19.4163 26.6586 19.5993 26.8417 19.8251 26.8417H25.8122C26.8184 26.8417 27.6369 26.0231 27.6369 25.017V5.13668C27.6369 4.64924 27.4471 4.19098 27.1025 3.84641ZM23.4956 1.39577L26.3465 4.24666H23.4956V1.39577Z" fill="#0C0C0C"/>
<path d="M14.7798 26.0245H9.11267C8.55736 26.0245 8.10561 25.5727 8.10561 25.0174V24.4757C8.10561 24.25 7.92257 24.0669 7.69678 24.0669C7.471 24.0669 7.28796 24.25 7.28796 24.4757V25.0174C7.28796 26.0235 8.10651 26.8421 9.11267 26.8421H14.7798C15.0055 26.8421 15.1886 26.659 15.1886 26.4333C15.1886 26.2075 15.0055 26.0245 14.7798 26.0245Z" fill="#0C0C0C"/>
<path d="M20.6141 16.0149C20.6141 15.0969 19.8673 14.3501 18.9493 14.3501C18.0313 14.3501 17.2845 15.0969 17.2845 16.0149C17.2845 16.9328 18.0313 17.6797 18.9493 17.6797C19.8673 17.6797 20.6141 16.9328 20.6141 16.0149ZM18.1021 16.0149C18.1021 15.5477 18.4822 15.1677 18.9493 15.1677C19.4164 15.1677 19.7965 15.5477 19.7965 16.0149C19.7965 16.482 19.4164 16.862 18.9493 16.862C18.4822 16.862 18.1021 16.482 18.1021 16.0149Z" fill="#0C0C0C"/>
<path d="M21.8892 20.5071C21.8892 21.4251 22.636 22.1719 23.554 22.1719C24.4719 22.1719 25.2188 21.4251 25.2188 20.5071C25.2188 19.5892 24.4719 18.8423 23.554 18.8423C22.636 18.8423 21.8892 19.5892 21.8892 20.5071ZM24.4011 20.5071C24.4011 20.9742 24.0211 21.3543 23.554 21.3543C23.0868 21.3543 22.7068 20.9742 22.7068 20.5071C22.7068 20.04 23.0868 19.6599 23.554 19.6599C24.0211 19.6599 24.4011 20.04 24.4011 20.5071Z" fill="#0C0C0C"/>
<path d="M24.0724 15.3903C23.9127 15.2307 23.6538 15.2305 23.4942 15.3903L18.3565 20.528C18.1968 20.6876 18.1968 20.9465 18.3565 21.1061C18.4363 21.1859 18.5409 21.2258 18.6456 21.2258C18.7502 21.2258 18.8549 21.1859 18.9347 21.1061L24.0724 15.9684C24.2321 15.8088 24.2321 15.5499 24.0724 15.3903Z" fill="#0C0C0C"/>
<path d="M20.1984 26.5046L17.6023 23.9086C17.2155 23.5217 16.7013 23.3087 16.1543 23.3087C15.7462 23.3087 15.3564 23.4274 15.0241 23.6483L13.5167 22.1408C14.7624 20.7555 15.444 18.9831 15.444 17.1059C15.444 15.0917 14.6597 13.1981 13.2355 11.774C11.8113 10.3498 9.9177 9.56543 7.90358 9.56543C5.88946 9.56543 3.9959 10.3498 2.57168 11.774C1.14748 13.1981 0.363159 15.0917 0.363159 17.1059C0.363159 19.12 1.14749 21.0136 2.57168 22.4378C4.04171 23.9078 5.97265 24.6428 7.90358 24.6428C9.70714 24.6428 11.5106 24.0013 12.9385 22.7189L14.4462 24.2266C13.9202 25.0214 14.0068 26.1051 14.7062 26.8046L17.3023 29.4006C17.6891 29.7875 18.2033 30.0005 18.7503 30.0005C19.2974 30.0005 19.8116 29.7875 20.1984 29.4006C20.9968 28.6022 20.9968 27.303 20.1984 26.5046ZM3.14984 21.8597C1.88008 20.5899 1.1808 18.9016 1.1808 17.1059C1.1808 15.3101 1.88008 13.6219 3.14984 12.3521C4.4196 11.0824 6.10788 10.3831 7.90358 10.3831C9.69932 10.3831 11.3876 11.0824 12.6573 12.3521C13.9271 13.6219 14.6264 15.3101 14.6264 17.1059C14.6264 18.9016 13.9271 20.5899 12.6573 21.8597C11.3465 23.1704 9.62536 23.8257 7.90358 23.8255C6.18225 23.8254 4.46029 23.17 3.14984 21.8597ZM19.6202 28.8225C19.3878 29.0549 19.0789 29.1829 18.7503 29.1829C18.4218 29.1829 18.1128 29.0549 17.8805 28.8225L15.2844 26.2265C14.8048 25.7468 14.8048 24.9663 15.2844 24.4867C15.5168 24.2543 15.8257 24.1263 16.1543 24.1263C16.4829 24.1263 16.7918 24.2543 17.0242 24.4867L19.6202 27.0827C20.0999 27.5624 20.0999 28.3429 19.6202 28.8225Z" fill="#FD5426"/>
<path d="M5.71938 16.0314C5.71938 15.8056 5.53635 15.6226 5.31056 15.6226H2.73743C2.51165 15.6226 2.32861 15.8056 2.32861 16.0314C2.32861 16.2571 2.51165 16.4402 2.73743 16.4402H3.61518V18.5857C3.61518 18.8115 3.79821 18.9945 4.024 18.9945C4.24979 18.9945 4.43282 18.8115 4.43282 18.5857V16.4402H5.31057C5.53635 16.4402 5.71938 16.2571 5.71938 16.0314Z" fill="#FD5426"/>
<path d="M7.6493 15.9788C7.57627 15.8523 7.4413 15.7744 7.29524 15.7744C7.14919 15.7744 7.01421 15.8523 6.94119 15.9788L5.56661 18.3597C5.45373 18.5552 5.52073 18.8052 5.71625 18.9181C5.91188 19.0313 6.16187 18.964 6.27472 18.7685L6.65726 18.1059H7.9332L8.31573 18.7685C8.39145 18.8997 8.52886 18.973 8.67019 18.973C8.73951 18.973 8.80981 18.9553 8.8742 18.9181C9.06972 18.8052 9.13671 18.5552 9.02384 18.3597L7.6493 15.9788ZM7.12932 17.2883L7.29524 17.0009L7.46116 17.2883H7.12932Z" fill="#FD5426"/>
<path d="M12.2635 15.7215C12.0923 15.5741 11.8341 15.5937 11.6869 15.7649L10.908 16.6708L10.1291 15.7649C9.98189 15.5938 9.72381 15.5744 9.55257 15.7215C9.38137 15.8686 9.36192 16.1268 9.50913 16.298L10.3688 17.2979L9.50913 18.2978C9.36191 18.469 9.38136 18.7271 9.55257 18.8743C9.62973 18.9407 9.72457 18.9731 9.81894 18.9731C9.93392 18.9731 10.0482 18.9249 10.1291 18.8309L10.908 17.925L11.6869 18.8309C11.7678 18.9249 11.8821 18.9731 11.9971 18.9731C12.0915 18.9731 12.1863 18.9406 12.2635 18.8743C12.4347 18.7271 12.4541 18.469 12.3069 18.2978L11.4472 17.2979L12.3069 16.298C12.4541 16.1268 12.4347 15.8686 12.2635 15.7215Z" fill="#FD5426"/>
</svg>
