<svg width="33" height="34" viewBox="0 0 33 34" fill="none" xmlns="http://www.w3.org/2000/svg">
<g clip-path="url(#clip0_2300_8450)">
<path d="M26.5121 30.7045H9.03114C8.48175 30.7045 8.03638 30.2591 8.03638 29.7097V7.58656C8.03638 7.03717 8.48175 6.5918 9.03114 6.5918H26.5121C27.0615 6.5918 27.5069 7.03717 27.5069 7.58656V29.7097C27.5069 30.2591 27.0615 30.7045 26.5121 30.7045Z" fill="#FF9F1C"/>
<path d="M10.0418 7.97465C9.64269 7.94513 9.27888 8.2478 9.10946 8.61032C8.9107 9.03561 8.87229 9.19808 8.78903 15.0476C8.77135 16.2898 8.7755 17.5923 9.36118 18.6879C9.9115 19.7174 10.9233 20.4388 12.0087 20.8683C13.0942 21.2978 14.2621 21.4666 15.4176 21.6323L10.0418 7.97465Z" fill="#FFCA28"/>
<path d="M29.4638 7.64641V29.6465C29.4638 30.2326 29.0032 30.7043 28.4379 30.7043H11.026C10.4608 30.7043 9.99316 30.2326 9.99316 29.6465V7.64641C9.99316 7.06746 10.4608 6.5957 11.026 6.5957H28.4379C29.0032 6.5957 29.4638 7.06746 29.4638 7.64641Z" fill="#F2F8FD"/>
<path d="M29.4638 28.4958V29.6465C29.4638 30.2326 29.0032 30.7043 28.4379 30.7043H11.026C10.4608 30.7043 9.99316 30.2326 9.99316 29.6465V7.64641C9.99316 7.06746 10.4608 6.5957 11.026 6.5957H13.0219C12.7916 10.2767 12.6381 13.9934 13.4965 17.5672C14.4177 21.4054 16.7067 25.1007 20.2449 26.6731C23.1201 27.9525 26.435 27.6881 29.4638 28.4958Z" fill="#D0DCEE"/>
<path d="M23.4523 4.52306V7.87267C23.4523 8.06878 23.2933 8.22776 23.0972 8.22776H13.8365C13.6404 8.22776 13.4814 8.06878 13.4814 7.87267V4.52306C13.4814 4.32695 13.6404 4.16797 13.8365 4.16797H15.3172C15.4972 4.16797 15.6376 4.03117 15.667 3.85355C15.888 2.51837 17.0417 1.50195 18.4418 1.50195C19.842 1.50195 21.0019 2.51844 21.2237 3.85368C21.2532 4.03123 21.3936 4.16797 21.5736 4.16797H23.0972C23.2933 4.16797 23.4523 4.32695 23.4523 4.52306Z" fill="#19345D"/>
<path d="M16.6154 4.1328C16.2574 3.55175 16.3975 2.71535 16.9253 2.28262C17.453 1.8499 18.3006 1.87644 18.8003 2.34133" fill="#095DA4"/>
<path d="M14.616 7.65082C14.2861 7.61348 14.0155 7.34425 13.8982 7.03365C13.6964 6.49898 13.8484 5.49194 14.2785 5.06606C14.5375 4.80969 14.9729 4.70413 15.2748 4.90824" fill="#095DA4"/>
<path d="M24.4362 4.52344V7.87559C24.4362 8.06859 24.2789 8.22585 24.0859 8.22585H14.8227C14.6298 8.22585 14.4653 8.06859 14.4653 7.87559V4.52344C14.4653 4.33044 14.6298 4.16606 14.8227 4.16606H16.3023C16.4809 4.16606 16.6239 4.03025 16.6525 3.85157C16.8785 2.48292 18.0826 1.5 19.4257 1.5C20.8267 1.5 21.9917 2.52209 22.2133 3.85157C22.2419 4.03025 22.3777 4.16606 22.5635 4.16606H24.0859C24.2789 4.16606 24.4362 4.33044 24.4362 4.52344Z" fill="#FF9F1C"/>
<path d="M26.0662 10.3192V11.9346C26.0662 12.2419 25.816 12.4921 25.5087 12.4921H15.3163C15.0089 12.4921 14.7588 12.2419 14.7588 11.9346V10.3192C14.7588 10.0119 15.0089 9.76172 15.3163 9.76172H25.5087C25.816 9.76172 26.0662 10.0119 26.0662 10.3192Z" fill="#F72F43"/>
<path d="M26.0662 10.7124V11.9346C26.0662 12.2419 25.816 12.4921 25.5087 12.4921H15.3163C15.0089 12.4921 14.7588 12.2419 14.7588 11.9346V10.3192C14.7588 10.0119 15.0089 9.76172 15.3163 9.76172H15.9953C16.0168 10.3335 16.4742 10.841 17.0102 11.0769C17.7863 11.4207 18.654 11.3871 22.907 11.3199C24.0091 11.3048 25.1288 11.2737 26.0662 10.7124Z" fill="#E2212E"/>
<path d="M29.3799 28.4945V8.82563C29.3799 8.71434 29.548 8.7144 29.548 8.82563V28.4945C29.548 28.6058 29.3799 28.6058 29.3799 28.4945Z" fill="black"/>
<path d="M23.2159 28.6633C22.8519 27.8426 23.3882 27.0886 24.3802 27.4094C25.0517 27.6257 25.2125 28.1179 25.0472 28.4432C24.9301 28.6737 24.6077 28.7855 24.392 28.6337C24.3024 28.5698 24.3955 28.4339 24.4892 28.4958C24.6171 28.5868 24.8248 28.5088 24.8975 28.367C24.9704 28.2232 24.9375 28.0183 24.817 27.8685C24.7129 27.7398 24.5533 27.6419 24.329 27.5696C23.5093 27.3079 23.0463 27.8655 23.3696 28.595C23.7251 29.395 24.7018 29.7181 25.4643 29.2853C25.9927 28.9845 26.2673 28.3396 25.8782 27.8757C25.6949 27.8127 25.5261 27.7122 25.376 27.6222C25.303 27.5784 25.3338 27.4658 25.419 27.4658H25.4213C25.6322 27.4711 25.8292 27.5736 25.976 27.7306C26.6896 27.9486 26.9533 27.2538 26.5652 27.0927C26.51 27.0921 26.4545 27.0888 26.3997 27.0822C26.3071 27.0717 26.2989 26.9399 26.3882 26.9174C26.4552 26.9003 26.5258 26.9036 26.5941 26.9246C27.0549 26.9207 27.5095 26.6973 27.7876 26.3275C27.8562 26.2382 27.9883 26.3401 27.9223 26.4287C27.6566 26.7814 27.2467 27.0146 26.8122 27.0763C27.0924 27.424 26.7644 28.0122 26.1195 27.9322C26.4124 28.4804 26.0857 29.1254 25.5474 29.4312C24.7181 29.901 23.6206 29.5736 23.2159 28.6633Z" fill="black"/>
<path d="M24.4362 4.52374V7.87589C24.4362 8.06889 24.2789 8.22616 24.0859 8.22616H14.8227C14.6298 8.22616 14.4653 8.06889 14.4653 7.87589V4.52374C14.4653 4.33074 14.6298 4.16636 14.8227 4.16636H16.3023C16.4809 4.16636 16.6239 4.03056 16.6525 3.85187C16.7811 3.07277 17.2314 2.4009 17.8604 1.98633C17.5192 2.52832 17.4493 3.23458 17.6719 3.89039C17.7642 4.16234 18.2125 4.6291 18.0545 4.90843C17.884 5.20998 17.2122 5.04823 16.9312 5.03118C16.4666 5.00261 15.9235 5.05265 15.6375 5.42429C15.3874 5.7674 15.4517 6.27485 15.709 6.61796C15.9592 6.96103 16.3523 7.16829 16.7454 7.32556C18.3893 7.96881 20.2262 7.8259 21.9774 7.60432C22.4563 7.53998 22.9495 7.46852 23.3783 7.24695C23.8072 7.01822 24.1717 6.61081 24.2003 6.12478C24.2432 5.44575 23.6571 4.81677 23.6571 4.16636H24.0859C24.2789 4.16636 24.4362 4.33074 24.4362 4.52374Z" fill="#F58210"/>
<path d="M28.2408 13.2695C28.5858 13.3637 28.8111 13.2256 28.6673 12.8648C28.4496 12.3182 28.003 11.867 27.4585 11.6437C26.8829 11.4077 26.5914 12.0277 26.905 12.4691C27.1792 12.8552 27.8032 13.15 28.2408 13.2695Z" fill="#D0DCEE"/>
<path d="M26.3535 13.6827C26.5594 13.7389 26.6938 13.6565 26.608 13.4412C26.4781 13.115 26.2116 12.8458 25.8867 12.7126C25.5433 12.5718 25.3693 12.9418 25.5564 13.2051C25.7201 13.4355 26.0923 13.6114 26.3535 13.6827Z" fill="#D0DCEE"/>
<path d="M20.9937 5.44103C21.0478 5.20204 20.8445 5.02672 20.6351 4.90182C20.3752 4.74682 19.9017 4.44457 19.5913 4.59598C19.347 4.71512 19.339 4.96543 19.4414 5.18868C19.6395 5.62096 20.8361 6.13698 20.9937 5.44103Z" fill="#F58210"/>
<path d="M22.2849 5.14933C22.3071 5.05114 22.2236 4.9791 22.1375 4.92779C22.0308 4.8641 21.8362 4.73991 21.7086 4.80212C21.6083 4.85107 21.605 4.95392 21.647 5.04565C21.7284 5.22326 22.2201 5.43529 22.2849 5.14933Z" fill="#F58210"/>
<path d="M7.88756 26.391L7.80077 26.7146V26.7225C7.78226 26.7898 6.17511 32.6355 6.27767 32.2625L6.00933 33.2489L6.07248 33.6909H5.88308C5.85851 33.6204 5.17847 31.6693 5.22016 31.7889L3.8786 32.8701L3.80756 33.0753H3.61816C3.63678 33.0076 5.02441 27.9639 4.93607 28.285C5.00519 28.0291 5.41195 26.5235 5.3859 26.6199C5.40484 26.5517 5.64144 25.6993 5.62264 25.7676C5.69083 25.7866 6.36951 25.976 6.30132 25.957H6.30922L7.88756 26.391Z" fill="#095DA4"/>
<path d="M11.4317 33.0742L11.2739 33.1689C11.2038 33.1127 9.56765 31.7989 9.67181 31.8826L9.12728 33.4452L9.16673 33.6898L9.00894 33.7845C8.79796 33.0162 6.93824 26.2432 7.00441 26.4847C7.07267 26.4659 9.41618 25.8208 9.26933 25.8612C9.2879 25.9289 11.07 32.4218 10.9503 31.9852L11.187 32.8612L11.4317 33.0742Z" fill="#095DA4"/>
<path d="M8.07788 26.3911C8.05932 26.4587 6.44634 32.3413 6.46799 32.2625L6.0734 33.6909L5.41052 31.789C5.34051 31.8452 3.70431 33.159 3.80848 33.0753C4.01357 32.3281 3.06619 35.7822 5.81296 25.7676C5.88122 25.7864 8.22473 26.4315 8.07788 26.3911Z" fill="#19345D"/>
<path d="M7.96653 26.8019C7.94739 26.8713 7.15898 29.7292 7.20891 29.5482C7.02602 29.3959 6.56343 28.9436 6.12775 28.6801C5.76443 28.4659 5.26058 28.3148 4.90454 28.4039C4.93938 28.2748 5.41596 26.5091 5.38592 26.6204C5.45697 26.5888 5.52797 26.5651 5.59902 26.5494C5.61477 26.5415 5.62267 26.5336 5.63846 26.5336C6.46922 26.3107 7.60074 26.5281 7.96653 26.8019Z" fill="black"/>
<path d="M11.4305 33.0753L9.82854 31.789C9.80396 31.8595 9.12392 33.8105 9.16561 33.6909C8.88802 32.6785 7.66236 28.216 7.16113 26.3911L9.42605 25.7676C9.44463 25.8352 11.1287 31.9704 11.107 31.8916L11.4305 33.0753Z" fill="#19345D"/>
<path d="M10.0812 28.1524C8.83641 28.3304 8.18777 29.5074 7.87942 29.6834L7.46118 28.1603C7.62405 27.5082 8.5881 26.6224 9.44991 26.5188C9.50516 26.5031 9.56826 26.4952 9.6235 26.5031L10.0812 28.1524Z" fill="black"/>
<path d="M12.2076 24.5819C11.2173 25.8807 11.1415 25.8892 11.12 26.0589L10.9125 27.6994C10.8929 27.8543 10.7706 27.9762 10.6156 27.9951C8.86234 28.21 8.91269 28.1839 8.80795 28.2658L7.58044 29.2255C7.61199 29.3202 7.64616 29.304 7.64616 29.304C7.62541 29.3124 7.36883 29.418 7.34708 29.4234C7.25785 29.4455 7.2375 29.4008 6.68706 28.973C5.67395 28.1855 5.73113 28.211 5.60874 28.196L3.97019 27.9953C3.81471 27.9762 3.69221 27.8537 3.67316 27.6982C3.45833 25.945 3.48452 25.9966 3.40315 25.8919L2.385 24.5819C2.28912 24.4586 2.28933 24.2858 2.3855 24.1627C3.47284 22.7706 3.45624 22.8243 3.47244 22.692L3.67329 21.0528C3.69228 20.8978 3.81409 20.7755 3.969 20.7559L5.6095 20.5484C5.73728 20.5323 5.67655 20.5567 7.07633 19.4687C7.16417 19.4005 7.26224 19.2845 7.38429 19.313C7.47008 19.3331 7.5593 19.3434 7.64616 19.3585C7.64616 19.3585 7.59619 19.3767 7.54094 19.4951C8.79128 20.4469 8.80545 20.527 8.97516 20.5484L10.6168 20.7561C10.7712 20.7756 10.8928 20.8972 10.9124 21.0516C11.134 22.8041 11.1075 22.7549 11.1895 22.8599L12.2071 24.1627C12.3033 24.2858 12.3035 24.4586 12.2076 24.5819Z" fill="#FFCA28"/>
<path d="M7.87905 19.4377C9.29466 20.5413 9.19846 20.4899 9.33853 20.5072L10.9401 20.7056C11.1128 20.727 11.2488 20.863 11.2702 21.0357C11.4908 22.8171 11.4591 22.7127 11.5459 22.824L12.5381 24.0967C12.6451 24.234 12.6451 24.4264 12.5381 24.5636C11.4345 25.9792 11.4859 25.883 11.4685 26.0231L11.2702 27.6246C11.2488 27.7973 11.1128 27.9334 10.9401 27.9548C9.15871 28.1754 9.26307 28.1437 9.15176 28.2305L7.87905 29.2227C7.74181 29.3297 7.54941 29.3297 7.41217 29.2227C5.99656 28.1191 6.09276 28.1705 5.95269 28.1531L4.35115 27.9548C4.17845 27.9334 4.0424 27.7973 4.02101 27.6246C3.8004 25.8433 3.83209 25.9476 3.74531 25.8363L2.7531 24.5636C2.6461 24.4264 2.6461 24.234 2.7531 24.0967C3.85672 22.6811 3.80532 22.7773 3.82267 22.6373L4.02101 21.0357C4.0424 20.863 4.17845 20.727 4.35115 20.7056C6.13251 20.485 6.02815 20.5167 6.13946 20.4299L7.41217 19.4377C7.54941 19.3307 7.74181 19.3307 7.87905 19.4377Z" fill="#F72F43"/>
<path d="M11.0619 24.3309C11.0619 26.2002 9.54643 27.7494 7.64332 27.7494C4.6071 27.7494 3.10694 24.0876 5.19211 21.9452C7.31059 19.7711 11.0619 21.2481 11.0619 24.3309Z" fill="#FFCA28"/>
<path d="M10.5481 24.3319C10.5481 25.92 9.26065 27.2361 7.64391 27.2361C6.04209 27.2361 4.73975 25.9338 4.73975 24.3319C4.73975 22.7268 6.0359 21.4277 7.64391 21.4277C9.2527 21.4277 10.5481 22.7301 10.5481 24.3319Z" fill="#F2F8FD"/>
<path d="M10.505 24.791C10.289 26.1769 9.09118 27.2355 7.64256 27.2355C5.06322 27.2355 3.78879 24.1247 5.5602 22.3047C5.82056 24.543 7.5282 25.6223 8.93101 25.3899C9.48816 25.2994 9.98958 25.0208 10.505 24.791Z" fill="#D0DCEE"/>
<path d="M5.85147 25.3361C5.69809 25.2316 5.65835 25.0221 5.76312 24.8684C5.86756 24.7153 6.07776 24.6766 6.23047 24.7804L7.29261 25.5049L8.57775 22.7494C8.65657 22.5805 8.85659 22.5076 9.02474 22.5865C9.1929 22.6646 9.26581 22.865 9.18731 23.0331L7.735 26.1479C7.69329 26.2379 7.61447 26.3043 7.51923 26.3305C7.28369 26.3941 7.29213 26.295 5.85147 25.3361Z" fill="#F72F43"/>
<path d="M11.1078 31.8925C10.5733 31.925 9.74064 31.8749 9.36371 31.498C8.69737 30.8316 9.05395 29.0017 10.2555 28.7832L11.1078 31.8925Z" fill="#095DA4"/>
<path d="M7.11478 29.8953L6.46765 32.2628C6.07307 32.1207 5.71003 31.8761 5.43384 31.5604C4.53932 30.5334 5.10164 29.3528 6.26246 29.5638C6.56235 29.619 6.83859 29.7532 7.11478 29.8953Z" fill="#095DA4"/>
<path d="M7.28734 23.719C7.37766 23.7471 7.48989 23.7516 7.5527 23.6809C7.61559 23.61 7.59794 23.4998 7.56388 23.4114C7.41528 23.026 7.0588 22.8767 6.9211 22.9306C6.72469 23.0074 6.82185 23.3164 6.91466 23.4313C7.00243 23.5399 7.15269 23.6771 7.28734 23.719Z" fill="#D0DCEE"/>
<path d="M7.58013 22.6273C7.53962 22.5222 7.45491 22.4298 7.34589 22.4016C7.2053 22.3651 7.19153 22.5333 7.27496 22.6366C7.45082 22.8542 7.64933 22.8068 7.58013 22.6273Z" fill="#D0DCEE"/>
<path d="M26.8371 17.0753H12.9146C12.704 17.0753 12.5332 16.9046 12.5332 16.6939C12.5332 16.4833 12.704 16.3125 12.9146 16.3125H26.8371C27.0478 16.3125 27.2186 16.4833 27.2186 16.6939C27.2186 16.9046 27.0478 17.0753 26.8371 17.0753Z" fill="#19345D"/>
<path d="M24.7336 20.8117H14.4815C14.2709 20.8117 14.1001 20.6409 14.1001 20.4303C14.1001 20.2196 14.2709 20.0488 14.4815 20.0488H24.7336C24.9443 20.0488 25.1151 20.2196 25.1151 20.4303C25.1151 20.6409 24.9443 20.8117 24.7336 20.8117Z" fill="#19345D"/>
<path d="M22.1794 24.8273H17.4522C17.2416 24.8273 17.0708 24.6565 17.0708 24.4459C17.0708 24.2352 17.2416 24.0645 17.4522 24.0645H22.1794C22.39 24.0645 22.5608 24.2352 22.5608 24.4459C22.5608 24.6565 22.39 24.8273 22.1794 24.8273Z" fill="#19345D"/>
<path d="M9.99792 17.8327L9.95752 7.97523C9.95674 7.86347 10.1249 7.86183 10.1257 7.97391L10.1661 17.8314C10.1669 17.9431 9.99872 17.9448 9.99792 17.8327Z" fill="black"/>
</g>
<defs>
<clipPath id="clip0_2300_8450">
<rect width="33" height="33" fill="white" transform="translate(0 0.5)"/>
</clipPath>
</defs>
</svg>
