<svg width="16" height="24" viewBox="0 0 16 24" fill="none" xmlns="http://www.w3.org/2000/svg">
<path d="M8.40151 8.93878C5.18189 9.79701 6.73293 8.12753 5.01735 7.8455C3.30178 7.56347 1.84473 10.0546 1.84473 10.0546C1.84473 10.0546 1.95725 9.97149 2.1419 9.86376L1.84473 10.0546L3.61907 10.3719L6.63308 11.8289L11.0219 9.56107L12.7614 9.21422C12.1382 8.14635 10.9594 8.25726 8.40151 8.93878Z" fill="#0C1835"/>
<path d="M5.56632 4.90519C6.21375 6.09952 5.77037 7.59255 4.57603 8.23993C3.38175 8.88731 1.88872 8.44393 1.24134 7.24959C0.593955 6.05531 1.03734 4.56228 2.23163 3.91494C3.42596 3.26751 4.91899 3.71094 5.56632 4.90519Z" fill="#FFD550"/>
<path d="M5.80542 6.2206L5.81066 6.1268L5.476 6.10812C5.47662 5.98157 5.4678 5.85445 5.4489 5.72785L5.76627 5.79997L5.7871 5.70828L5.43169 5.62756C5.41413 5.53546 5.39106 5.44381 5.36271 5.35301L5.66517 5.36998L5.67041 5.27618L5.33104 5.2571C5.2883 5.13759 5.23603 5.01977 5.17367 4.90483C5.15275 4.86622 5.13076 4.82841 5.10805 4.79123L5.38641 4.7338L5.36741 4.6417L5.05317 4.70652C4.96031 4.56748 4.85446 4.43914 4.7375 4.32271L4.94759 4.23415L4.91104 4.14748L4.66381 4.25167C4.33663 3.95167 3.93213 3.74046 3.48677 3.64648L3.46729 3.73845C4.16139 3.88502 4.75322 4.32643 5.09103 4.94958C5.72501 6.11923 5.28924 7.58659 4.11959 8.22062C3.97562 8.29866 3.82386 8.36213 3.66868 8.40926L3.69605 8.49921C3.85727 8.45024 4.01482 8.38426 4.16443 8.30323C4.32592 8.2157 4.47343 8.11253 4.60719 7.99718L4.96847 8.02084L4.9746 7.92704L4.70372 7.9093C4.81025 7.80716 4.90678 7.69688 4.99234 7.57965L5.2849 7.61683L5.29673 7.52356L5.05277 7.49252C5.14173 7.35903 5.21726 7.21779 5.27894 7.07091L5.58126 7.15539L5.60653 7.06486L5.31375 6.98306C5.3598 6.86068 5.39644 6.73499 5.42305 6.60692L5.73164 6.65019L5.74468 6.5571L5.44025 6.51441C5.45767 6.41134 5.46905 6.30706 5.47358 6.2021L5.80542 6.2206Z" fill="#FFA31D"/>
<path d="M4.76031 5.29953C4.41207 4.65698 3.77078 4.25781 3.08689 4.25781C2.80907 4.25781 2.54567 4.32424 2.30409 4.45518C1.45231 4.91689 1.16826 6.04689 1.67086 6.9742C2.0191 7.61665 2.66035 8.01583 3.34424 8.01583C3.62206 8.01583 3.8855 7.94939 4.12713 7.81841C4.97886 7.35671 5.26291 6.2267 4.76031 5.29953ZM3.34424 7.92184C2.69484 7.92184 2.08531 7.54153 1.75347 6.9294C1.27555 6.0477 1.5427 4.97485 2.34889 4.53783C2.57654 4.41442 2.82488 4.35184 3.08684 4.35184C3.73624 4.35184 4.34582 4.73215 4.67766 5.34432C5.15554 6.22594 4.88847 7.29874 4.08229 7.73576C3.85459 7.85922 3.60629 7.92184 3.34424 7.92184Z" fill="#FFA31D"/>
<path d="M2.43005 4.87109C2.80629 5.75423 2.3186 6.76146 2.3186 6.76146C3.21039 6.73126 3.79533 7.51312 3.79533 7.51312C3.66918 6.61471 4.16184 5.60018 4.16184 5.60018C3.17858 5.7468 2.43005 4.87109 2.43005 4.87109Z" fill="#FFA31D"/>
<path d="M10.5295 4.60019C9.6419 5.62864 8.08858 5.74278 7.06017 4.85516C6.03171 3.96759 5.91762 2.41427 6.80524 1.38586C7.69281 0.357401 9.24609 0.243308 10.2745 1.13088C11.3029 2.0185 11.4171 3.57178 10.5295 4.60019Z" fill="#FFD550"/>
<path d="M10.9386 3.78513L11.0067 3.72032L10.8216 3.52599C10.9863 3.11383 11.0405 2.66068 10.9707 2.21094L10.8778 2.22536C10.9866 2.92641 10.7833 3.63619 10.3202 4.17279C9.45099 5.17993 7.92436 5.292 6.91719 4.42284C6.79306 4.31569 6.67995 4.19627 6.58104 4.06797L6.50659 4.12535C6.60935 4.25871 6.72685 4.3827 6.85577 4.49398C6.99446 4.61367 7.1434 4.71329 7.29817 4.79737L7.40469 5.14584L7.49455 5.11838L7.41522 4.85883C7.5484 4.92226 7.68569 4.97293 7.82559 5.01141L7.89453 5.29868L7.98596 5.27673L7.92813 5.03573C8.08464 5.0717 8.2434 5.0924 8.40273 5.098L8.431 5.41241L8.52462 5.40399L8.49747 5.10171C8.62819 5.10144 8.75877 5.09105 8.88791 5.07058L8.95667 5.37402L9.04837 5.35328L8.98046 5.05347C9.08308 5.03327 9.18463 5.00702 9.28435 4.974L9.38456 5.29093L9.47415 5.26257L9.373 4.9426C9.49166 4.89839 9.60728 4.84472 9.71904 4.78223L9.76411 5.1053L9.85719 5.09231L9.80675 4.73076C9.88662 4.68171 9.96416 4.62782 10.039 4.56914L10.1304 4.85843L10.22 4.83016L10.1174 4.50535C10.214 4.42311 10.3059 4.33303 10.3913 4.23407C10.42 4.20083 10.4476 4.16688 10.4743 4.13239L10.6266 4.37236L10.7061 4.32196L10.5342 4.05117C10.6313 3.91509 10.7138 3.77062 10.7813 3.61997L10.9386 3.78513Z" fill="#FFA31D"/>
<path d="M7.29599 4.28525C7.59921 4.54695 7.97804 4.68527 8.39168 4.68527C8.95099 4.68527 9.4919 4.43017 9.87584 3.9853C10.2092 3.59908 10.3848 3.11677 10.3702 2.62715C10.3555 2.13602 10.1515 1.6964 9.79552 1.38928C9.4923 1.12754 9.11347 0.989258 8.69978 0.989258C8.14047 0.989258 7.59952 1.24437 7.21553 1.68923C6.88221 2.07545 6.70666 2.55777 6.72131 3.04733C6.73595 3.53847 6.94004 3.97809 7.29599 4.28525ZM7.28667 1.75064C7.65278 1.32648 8.16784 1.08324 8.69978 1.08324C9.09058 1.08324 9.44818 1.21364 9.73411 1.46041C10.0698 1.75015 10.2623 2.16549 10.2762 2.63002C10.2901 3.09603 10.1226 3.55554 9.8047 3.92389C9.43864 4.34801 8.92362 4.59129 8.39172 4.59129C8.00097 4.59129 7.64337 4.46085 7.35745 4.21412C7.02175 3.92438 6.82917 3.50899 6.81533 3.04451C6.80131 2.57851 6.96876 2.119 7.28667 1.75064Z" fill="#FFA31D"/>
<path d="M9.3819 3.533C8.89654 2.66545 9.45039 1.65527 9.45039 1.65527C8.75776 2.3199 7.64308 2.22059 7.64308 2.22059C7.9872 3.04384 7.46313 3.86776 7.46313 3.86776C8.25861 3.43163 9.3819 3.533 9.3819 3.533Z" fill="#FFA31D"/>
<path d="M10.825 8.77951C10.4546 10.0865 9.0948 10.8459 7.78777 10.4755C6.48077 10.105 5.72149 8.74524 6.09186 7.4382C6.46227 6.13116 7.82208 5.37188 9.12907 5.74225C10.4361 6.11271 11.1954 7.47251 10.825 8.77951Z" fill="#FFD550"/>
<path d="M10.6386 7.78308L10.8509 7.8664L10.8852 7.77891L10.6355 7.6809C10.6107 7.2377 10.4685 6.80403 10.2153 6.42578L10.1372 6.4781C10.5318 7.0677 10.6473 7.79692 10.4541 8.4788C10.0913 9.75878 8.75484 10.5051 7.47482 10.1424C7.31718 10.0977 7.16425 10.0372 7.02028 9.9626L6.97705 10.046C7.12662 10.1236 7.28551 10.1863 7.44924 10.2328C7.62479 10.2825 7.80272 10.3123 7.98056 10.3235L8.22209 10.5919L8.29197 10.529L8.11109 10.328C8.1196 10.3281 8.12802 10.3289 8.13653 10.3289C8.27455 10.3289 8.41189 10.3162 8.54766 10.2933L8.73074 10.5237L8.80439 10.4652L8.65208 10.2736C8.80739 10.2405 8.95987 10.1924 9.10801 10.1295L9.26506 10.4003L9.34641 10.3532L9.19464 10.0914C9.24871 10.066 9.30229 10.0392 9.35492 10.0097C9.4171 9.975 9.47703 9.93742 9.53545 9.89814L9.72542 10.1437L9.79978 10.0861L9.61245 9.84407C9.69765 9.78203 9.77877 9.71559 9.85475 9.64406L10.0781 9.88761L10.1474 9.82409L9.92172 9.57798C10.0111 9.48723 10.0934 9.39011 10.1676 9.28695L10.3438 9.55908L10.4228 9.50806L10.2252 9.20282C10.277 9.12416 10.3248 9.04259 10.3676 8.95802L10.5717 9.18074L10.641 9.11722L10.4114 8.86668C10.4645 8.75052 10.5092 8.62967 10.5447 8.50446C10.5566 8.46222 10.5673 8.41975 10.577 8.37724L10.8164 8.53053L10.867 8.45138L10.5968 8.27834C10.6272 8.11389 10.6411 7.94811 10.6386 7.78308Z" fill="#FFA31D"/>
<path d="M7.76117 9.85957C7.90585 9.9006 8.0552 9.92134 8.20513 9.92134C9.00867 9.92134 9.73574 9.33622 9.97316 8.49837C10.2607 7.48358 9.73632 6.44312 8.80418 6.17896C8.65949 6.13793 8.51014 6.11719 8.3603 6.11719C7.55667 6.11719 6.8296 6.70235 6.59219 7.54025C6.45305 8.03107 6.49762 8.54236 6.71757 8.98001C6.93819 9.41905 7.30887 9.73141 7.76117 9.85957ZM6.68254 7.56587C6.90862 6.76824 7.59847 6.21121 8.36026 6.21121C8.50145 6.21121 8.64215 6.23074 8.77856 6.2694C9.6608 6.51941 10.1561 7.50786 9.88272 8.47275C9.65663 9.27033 8.96683 9.82732 8.20509 9.82732C8.06385 9.82732 7.92314 9.80778 7.78674 9.76913C7.36011 9.64822 7.01022 9.35298 6.80147 8.93777C6.59214 8.52126 6.5499 8.03402 6.68254 7.56587Z" fill="#FFA31D"/>
<path d="M7.73576 9.41109C8.27277 8.67985 9.33375 8.29743 9.33375 8.29743C8.52747 7.71594 8.60295 6.56641 8.60295 6.56641C8.25579 7.46133 7.20337 7.84191 7.20337 7.84191C7.86294 8.44297 7.73576 9.41109 7.73576 9.41109Z" fill="#FFA31D"/>
<path d="M14.3709 21.0985C10.6812 25.2582 -0.411228 23.4721 0.0117737 19.3359C0.434776 15.1998 4.94696 13.2727 4.94696 13.2727C4.59447 10.9931 1.84484 10.0531 1.84484 10.0531C1.84484 10.0531 3.98342 8.46721 5.01747 10.1471C6.05153 11.8269 8.84904 8.16076 12.7615 9.21269C10.0439 10.1076 10.3992 12.4267 10.3992 12.4267C12.6788 12.5912 18.0605 16.9389 14.3709 21.0985Z" fill="#FFA31D"/>
<path d="M6.63316 13.6839C6.75323 13.6839 6.85055 13.4945 6.85055 13.2609C6.85055 13.0273 6.75323 12.8379 6.63316 12.8379C6.5131 12.8379 6.41577 13.0273 6.41577 13.2609C6.41577 13.4945 6.5131 13.6839 6.63316 13.6839Z" fill="#0C1835"/>
<path d="M9.17706 13.0058C9.17706 13.2161 9.09024 13.3866 8.98318 13.3866C8.87608 13.3866 8.78931 13.2161 8.78931 13.0058C8.78931 12.7955 8.87612 12.625 8.98318 12.625C9.09024 12.625 9.17706 12.7955 9.17706 13.0058Z" fill="#0C1835"/>
<path d="M5.80143 13.5283C5.42748 13.5283 5.12242 13.4433 4.88971 13.2734C4.50169 12.9903 4.47065 12.5777 4.46948 12.5602L4.75084 12.541C4.75183 12.5534 4.77799 12.8458 5.06051 13.049C5.37784 13.2773 5.9092 13.3069 6.59708 13.135L6.66548 13.4086C6.34587 13.4884 6.05748 13.5283 5.80143 13.5283Z" fill="#FFD550"/>
<path d="M8.9182 13.1082L8.88818 12.8277C9.52889 12.7591 9.9957 12.5626 10.2381 12.2597C10.4523 11.9921 10.4252 11.7322 10.4239 11.7212L10.7037 11.6855C10.7057 11.7009 10.7499 12.0654 10.4646 12.4279C10.1713 12.8007 9.651 13.0296 8.9182 13.1082Z" fill="#FFD550"/>
<path d="M7.16424 13.2228C7.3441 15.5606 6.14206 16.6681 6.12988 16.679L6.18032 16.7354L5.74634 17.2148L5.81599 17.2779L6.24321 16.806L6.31748 16.8895C6.37141 16.8416 7.63661 15.6864 7.44542 13.2012L7.16424 13.2228Z" fill="#FFD550"/>
<path d="M11.3102 18.1302L10.4421 17.7741L10.4671 17.721C8.24611 16.6775 8.38421 13.1436 8.38587 13.108L8.10415 13.0947C8.09694 13.2476 7.95494 16.8523 10.3472 17.9762L10.4021 17.8593L11.2745 18.2171L11.3102 18.1302Z" fill="#FFD550"/>
<path d="M3.93776 20.0596L2.86652 20.3016L2.80448 20.0678L4.27981 19.5921L4.25097 19.5026L2.78029 19.9768L2.64152 19.4541L3.8289 19.1937L3.80879 19.1019L2.61737 19.3632L2.40724 18.5717L2.31635 18.5958L2.52541 19.3833L2.12135 19.472L1.72496 18.252L1.63555 18.281L2.02907 19.4922L1.73665 19.5563L1.5602 19.0386L1.47124 19.0689L1.64424 19.5766L0.6479 19.7951L0.668013 19.8869L1.67479 19.6661L1.87964 20.2672L0.643555 20.6657L0.672403 20.7553L1.91001 20.3562L1.96103 20.506L1.25859 20.6646L1.27933 20.7563L1.99149 20.5955L2.18805 21.1722L2.27702 21.1419L2.08372 20.5747L2.36056 20.5121L2.84587 22.0059L2.93528 21.9769L2.45266 20.4915L2.79888 20.4133L3.02142 21.2514L3.11231 21.2273L2.89071 20.3925L3.95854 20.1513L3.93776 20.0596ZM2.5496 19.4743L2.6907 20.0058L2.33234 20.1213L2.15056 19.5619L2.5496 19.4743ZM1.7672 19.6459L2.05833 19.5821L2.24288 20.1502L1.96914 20.2384L1.7672 19.6459ZM2.05322 20.4853L1.99942 20.3275L2.27191 20.2396L2.33135 20.4225L2.05322 20.4853ZM2.42345 20.4017L2.36141 20.2107L2.71484 20.0968L2.77474 20.3223L2.42345 20.4017Z" fill="#FFD550"/>
<path d="M14.1828 16.0468H13.0171L12.9943 15.7244L13.5402 15.6824L13.533 15.5887L12.9877 15.6307L12.9254 14.751L12.8317 14.7576L12.894 15.6379L12.5801 15.662L12.5372 15.3932L12.4444 15.4079L12.486 15.6692L12.0054 15.7062L12.0126 15.7999L12.501 15.7624L12.5463 16.0468H11.7388V16.1408H12.5613L12.6207 16.5125L12.7135 16.4977L12.6565 16.1408H12.9296L13.008 17.2487L13.1017 17.242L13.0238 16.1408H14.1829V16.0468H14.1828ZM12.6415 16.0468L12.5949 15.7551L12.9006 15.7316L12.9229 16.0468H12.6415V16.0468Z" fill="#FFD550"/>
</svg>
