<svg width="8" height="8" viewBox="0 0 8 8" fill="none" xmlns="http://www.w3.org/2000/svg">
<path fill-rule="evenodd" clip-rule="evenodd" d="M6.04997 5.4821C6.09384 5.29301 6.26724 5.17928 6.43722 5.22812C6.77821 5.32604 7.0803 5.54721 7.29604 5.85686C7.51179 6.16648 7.62903 6.54707 7.62928 6.93888V7.64642C7.62928 7.84174 7.48696 8.00006 7.3114 8.00006C7.13583 8.00006 6.99351 7.84174 6.99351 7.64642V6.93937C6.99351 6.93934 6.99351 6.93941 6.99351 6.93937C6.99332 6.70434 6.92301 6.47592 6.79356 6.29019C6.66412 6.10438 6.48286 5.97169 6.27827 5.91292C6.1083 5.86411 6.00607 5.67123 6.04997 5.4821Z" fill="#606060"/>
<path fill-rule="evenodd" clip-rule="evenodd" d="M0.465532 5.68881C0.763605 5.3572 1.16788 5.1709 1.58942 5.1709H4.13249C4.55404 5.1709 4.95832 5.3572 5.25637 5.68881C5.55445 6.02039 5.72191 6.47016 5.72191 6.93913V7.64642C5.72191 7.84174 5.5796 8.00007 5.40403 8.00007C5.22846 8.00007 5.08615 7.84174 5.08615 7.64642V6.93913C5.08615 6.65777 4.98566 6.3879 4.80682 6.18894C4.62798 5.98998 4.3854 5.87819 4.13249 5.87819H1.58942C1.3365 5.87819 1.09393 5.98998 0.915087 6.18894C0.736242 6.3879 0.635768 6.65777 0.635768 6.93913V7.64642C0.635768 7.84174 0.493445 8.00007 0.317884 8.00007C0.142321 8.00007 0 7.84174 0 7.64642V6.93913C0 6.47016 0.167456 6.02039 0.465532 5.68881Z" fill="#606060"/>
<path fill-rule="evenodd" clip-rule="evenodd" d="M4.77819 1.23916C4.82174 1.04995 4.99492 0.935835 5.16499 0.984281C5.50691 1.08167 5.80991 1.30287 6.02633 1.61302C6.24271 1.92318 6.36017 2.30463 6.36017 2.69725C6.36017 3.08988 6.24271 3.47133 6.02633 3.7815C5.80991 4.09164 5.50691 4.31285 5.16499 4.41024C4.99492 4.45866 4.82174 4.34457 4.77819 4.15534C4.73467 3.96614 4.83722 3.77347 5.00732 3.72504C5.21245 3.66661 5.39425 3.53388 5.5241 3.34779C5.65393 3.1617 5.7244 2.93283 5.7244 2.69725C5.7244 2.46168 5.65393 2.23281 5.5241 2.04672C5.39425 1.86063 5.21245 1.7279 5.00732 1.66947C4.83722 1.62102 4.73467 1.42837 4.77819 1.23916Z" fill="#606060"/>
<path fill-rule="evenodd" clip-rule="evenodd" d="M2.86103 1.63454C2.33434 1.63454 1.90737 2.10954 1.90737 2.69548C1.90737 3.28141 2.33434 3.75641 2.86103 3.75641C3.38773 3.75641 3.81468 3.28141 3.81468 2.69548C3.81468 2.10954 3.38773 1.63454 2.86103 1.63454ZM1.27161 2.69548C1.27161 1.71891 1.98322 0.927246 2.86103 0.927246C3.73883 0.927246 4.45045 1.71891 4.45045 2.69548C4.45045 3.67204 3.73883 4.46371 2.86103 4.46371C1.98322 4.46371 1.27161 3.67204 1.27161 2.69548Z" fill="#606060"/>
</svg>
