<svg width="32" height="32" viewBox="0 0 32 32" fill="none" xmlns="http://www.w3.org/2000/svg">
<path d="M23.547 11.716C25.923 11.716 27.8338 13.6269 27.8338 16.0028C27.8338 18.3788 25.923 20.2896 23.547 20.2896C21.1708 20.2896 19.2605 18.3788 19.2605 16.0028C19.2605 13.6269 21.1708 11.716 23.547 11.716ZM23.547 10.2871C20.3987 10.2871 17.8315 12.8547 17.8315 16.0028C17.8315 19.1512 20.3987 21.7188 23.547 21.7188C26.6951 21.7188 29.2627 19.1512 29.2627 16.0028C29.2627 12.8547 26.6951 10.2871 23.547 10.2871Z" fill="#2C2D32"/>
<mask id="mask0_1794_4150" style="mask-type:luminance" maskUnits="userSpaceOnUse" x="6" y="4" width="19" height="24">
<path d="M6.3999 4.57129H24.257V27.4284H6.3999V4.57129Z" fill="white"/>
</mask>
<g mask="url(#mask0_1794_4150)">
<path d="M8.543 4.57129C7.36788 4.57129 6.3999 5.5395 6.3999 6.71438V26.7144C6.3999 26.962 6.528 27.1919 6.73865 27.3222C6.94931 27.4524 7.21228 27.464 7.43365 27.3533L11.3855 25.3774L14.9867 27.3415C15.1997 27.4577 15.4573 27.4577 15.6705 27.3415L19.2714 25.3774L23.2233 27.3533C23.4449 27.464 23.7079 27.4524 23.9183 27.3222C24.1289 27.1919 24.257 26.962 24.257 26.7144V23.1432C24.2573 22.9537 24.1819 22.7719 24.048 22.638C23.9138 22.5038 23.7322 22.4287 23.5428 22.4287C23.3533 22.4287 23.1714 22.504 23.0375 22.638C22.9036 22.7719 22.8285 22.9537 22.8285 23.1432V25.5588L19.5765 23.9328C19.3675 23.8282 19.1203 23.8326 18.915 23.9447L15.3287 25.9008L11.7419 23.9447C11.5366 23.8326 11.2895 23.8282 11.0804 23.9328L7.82847 25.5588V6.71438C7.82847 6.31141 8.14002 5.99986 8.543 5.99986H22.1144C22.5173 5.99986 22.8285 6.31141 22.8285 6.71438V8.85724C22.8285 9.04653 22.9036 9.22831 23.0375 9.36224C23.1714 9.49617 23.3533 9.57153 23.5428 9.57153C23.7323 9.57176 23.9138 9.49641 24.048 9.36248C24.1819 9.22831 24.2573 9.04677 24.257 8.85724V6.71438C24.257 5.5395 23.2893 4.57129 22.1144 4.57129L8.543 4.57129Z" fill="#2C2D32"/>
</g>
<path d="M22.8326 13.1445C22.6431 13.1445 22.4615 13.2197 22.3273 13.3539C22.1933 13.4878 22.1179 13.6697 22.1179 13.8592V17.0741C22.1179 17.2637 22.1933 17.4452 22.3273 17.5794C22.4615 17.7134 22.6431 17.7888 22.8326 17.7888H24.976C25.1656 17.7888 25.3472 17.7134 25.4814 17.5794C25.6153 17.4455 25.6907 17.2636 25.6905 17.0741C25.6905 16.8845 25.6151 16.7029 25.4811 16.569C25.3472 16.435 25.1653 16.3596 24.976 16.3599H23.5471V13.8592C23.5471 13.6697 23.4717 13.4878 23.3377 13.3539C23.2038 13.2199 23.0222 13.1445 22.8326 13.1445Z" fill="#2C2D32"/>
<path d="M10.6869 8.14355C10.2924 8.14379 9.97266 8.46358 9.97266 8.85802C9.97266 9.04735 10.0478 9.22918 10.1818 9.36314C10.3157 9.49711 10.4973 9.57248 10.6869 9.57248H19.9749C20.1645 9.57271 20.3463 9.49735 20.4803 9.36338C20.6142 9.22918 20.6896 9.04759 20.6896 8.85802C20.6896 8.66845 20.6142 8.48685 20.4803 8.35289C20.3461 8.21893 20.1644 8.14355 19.9749 8.14355H10.6869Z" fill="#2C2D32"/>
<path d="M10.6869 12.4307C10.2924 12.4307 9.97266 12.7504 9.97266 13.1449C9.97266 13.3345 10.0478 13.5161 10.1818 13.65C10.3157 13.7842 10.4973 13.8596 10.6869 13.8596H15.6881C15.8777 13.8596 16.0593 13.7842 16.1935 13.6503C16.3275 13.5163 16.4028 13.3345 16.4028 13.1449C16.4026 12.9553 16.3272 12.7737 16.1933 12.6398C16.0593 12.5058 15.8775 12.4304 15.6881 12.4307H10.6869Z" fill="#2C2D32"/>
<path d="M10.6869 16.7178C10.4973 16.718 10.3157 16.7934 10.1818 16.9273C10.0478 17.0613 9.97266 17.243 9.97266 17.4325C9.97266 17.8269 10.2924 18.1467 10.6869 18.1469H15.6881C15.8775 18.1469 16.0593 18.0716 16.1933 17.9376C16.3272 17.8036 16.4026 17.622 16.4028 17.4325C16.4028 17.2429 16.3275 17.0613 16.1935 16.9271C16.0593 16.7932 15.8777 16.7178 15.6881 16.7178H10.6869Z" fill="#2C2D32"/>
</svg>
