<svg width="30" height="30" viewBox="0 0 30 30" fill="none" xmlns="http://www.w3.org/2000/svg">
<path d="M16.7194 29.3982C16.453 29.3982 16.1834 29.3292 15.9382 29.1841L15.127 28.702C14.9323 28.5862 14.8682 28.3345 14.984 28.1397C15.0997 27.945 15.3515 27.8809 15.5463 27.9966L16.3568 28.4783C16.6963 28.6793 17.1373 28.567 17.3394 28.2276C17.5347 27.8997 17.4307 27.4639 17.1077 27.256C16.9196 27.1349 16.8632 26.8853 16.981 26.6951C17.0988 26.5048 17.3475 26.4441 17.5395 26.5584C17.6256 26.6096 17.7123 26.6624 17.7994 26.7153C17.9732 26.821 18.1528 26.9303 18.3248 27.0249C18.659 27.2077 19.0904 27.0895 19.2861 26.7609C19.4867 26.4221 19.3748 25.9817 19.0362 25.7794L19.0352 25.7788H19.0351C18.8404 25.6629 18.7764 25.4112 18.8922 25.2165C19.008 25.0218 19.2598 24.9577 19.4544 25.0735L19.9294 25.3559C20.093 25.4532 20.2856 25.4806 20.4717 25.4331C20.6581 25.3855 20.8144 25.2691 20.912 25.1051C21.0092 24.9417 21.0366 24.7491 20.9891 24.5631C20.9415 24.3767 20.825 24.2204 20.661 24.1228C20.5321 24.0461 20.4605 23.9099 20.4605 23.77C20.4605 23.6986 20.4791 23.6263 20.5183 23.5605C20.634 23.3658 20.8859 23.3018 21.0806 23.4177C21.2441 23.515 21.4368 23.5424 21.6235 23.4948C21.8098 23.4472 21.9658 23.3311 22.0624 23.1676C22.2624 22.8316 22.1465 22.3909 21.799 22.1637C21.6094 22.0397 21.5561 21.7854 21.6802 21.5958C21.8042 21.4062 22.0585 21.353 22.2481 21.477C22.9646 21.9456 23.193 22.8722 22.768 23.5864C22.56 23.9379 22.2254 24.188 21.8264 24.2898C21.8071 24.2947 21.7878 24.2993 21.7685 24.3034C21.774 24.3221 21.7792 24.341 21.7841 24.3601C21.8859 24.759 21.8267 25.1725 21.6171 25.5246C21.4077 25.8766 21.073 26.1265 20.6746 26.2281C20.5173 26.2683 20.3579 26.2833 20.2006 26.2741C20.2254 26.5801 20.1593 26.8963 19.9916 27.1798C19.6279 27.7903 18.9162 28.0604 18.2621 27.8792C18.2589 28.141 18.1883 28.4055 18.0443 28.6473C17.7573 29.1298 17.2446 29.3982 16.7194 29.3982V29.3982ZM8.10816 23.1142C7.93208 23.1142 7.76931 22.9999 7.71569 22.8227C7.58685 22.3971 7.35798 22.1021 7.03519 21.9456L5.90058 21.4712C5.69157 21.3838 5.5929 21.1435 5.68027 20.9345C5.76763 20.7255 6.00792 20.6269 6.21698 20.7142L7.36132 21.1926C7.36735 21.1951 7.37333 21.1977 7.37925 21.2005C7.9162 21.4557 8.30409 21.9345 8.50103 22.5849C8.56665 22.8018 8.44407 23.0308 8.22722 23.0964C8.18761 23.1084 8.14759 23.1141 8.10821 23.1141L8.10816 23.1142ZM15.0591 16.6033C14.9646 16.6033 14.8697 16.5708 14.7923 16.5045C14.0057 15.8304 13.0123 15.7117 12.067 16.1788C10.5746 16.9168 9.45757 16.428 8.27509 15.9103L8.13698 15.8499C7.92927 15.7593 7.83435 15.5175 7.92493 15.3098C8.01552 15.1022 8.25733 15.0072 8.46499 15.0978L8.60415 15.1586C9.73571 15.6541 10.5533 16.012 11.7035 15.4433C12.9394 14.8327 14.2937 14.9965 15.3263 15.8815C15.4984 16.0289 15.5183 16.2879 15.3709 16.46C15.2897 16.5546 15.1747 16.6033 15.0592 16.6033H15.0591Z" fill="#337265"/>
<path d="M17.3293 27.3212C17.2579 27.3212 17.1856 27.3026 17.1199 27.2635L16.3443 26.8017C16.1496 26.6858 16.0857 26.4341 16.2016 26.2394C16.3175 26.0447 16.5692 25.9807 16.7639 26.0967L17.5395 26.5584C17.7343 26.6743 17.7981 26.9261 17.6823 27.1208C17.6055 27.2497 17.4692 27.3212 17.3294 27.3212H17.3293ZM19.2444 25.8363C19.1731 25.8363 19.101 25.8178 19.0353 25.7787L15.5822 23.7275C15.3875 23.6118 15.3234 23.3601 15.4391 23.1653C15.5548 22.9705 15.8064 22.9064 16.0013 23.0221L19.4544 25.0733C19.6492 25.1891 19.7133 25.4408 19.5975 25.6355C19.5208 25.7646 19.3844 25.8363 19.2445 25.8363H19.2444ZM20.8704 24.1804C20.7991 24.1804 20.7269 24.1619 20.6612 24.1228L17.5802 22.2908C17.3854 22.1749 17.3215 21.9232 17.4373 21.7285C17.553 21.5337 17.8047 21.4697 17.9996 21.5855L21.0805 23.4175C21.2753 23.5334 21.3393 23.7851 21.2235 23.9799C21.1468 24.1089 21.0104 24.1805 20.8705 24.1805L20.8704 24.1804Z" fill="#337265"/>
<path d="M22.1581 22.3364C22.0654 22.3364 21.9738 22.305 21.8994 22.2447C21.302 21.7595 20.5407 21.3485 19.8044 20.9509C19.4479 20.7585 19.0793 20.5595 18.7375 20.356C17.498 19.6806 16.2784 19.603 15.1128 20.1257C13.426 20.9382 12.1549 20.9379 11.3341 20.1249C11.0975 19.8902 10.987 19.5994 11.0141 19.2836C11.0524 18.837 11.362 18.4718 11.6154 18.2947C11.7744 18.1835 11.9374 18.071 12.1035 17.9565C12.8792 17.4214 13.6814 16.868 14.4983 16.1565C15.5623 15.0498 17.0629 14.789 18.4188 15.4764C19.5684 16.061 20.3908 15.711 21.5289 15.2263L21.6323 15.1824C21.8408 15.0938 22.0817 15.1911 22.1703 15.3996C22.2589 15.6081 22.1617 15.849 21.9531 15.9376L21.8503 15.9813C20.661 16.4877 19.5376 16.9659 18.0474 16.208C17.0221 15.6883 15.8843 15.8906 15.0791 16.7365C15.0704 16.7456 15.0612 16.7543 15.0517 16.7627C14.1948 17.5108 13.3313 18.1064 12.5694 18.632C12.4048 18.7455 12.2433 18.8569 12.0855 18.9672C11.9717 19.0469 11.844 19.2094 11.8316 19.354C11.8274 19.4036 11.8335 19.4648 11.9118 19.5424C12.4598 20.0852 13.4186 20.0322 14.7615 19.3844C14.7648 19.3828 14.7681 19.3813 14.7714 19.3797C16.1874 18.7427 17.6564 18.8301 19.1377 19.6397C19.1422 19.6422 19.1466 19.6447 19.151 19.6473C19.4798 19.8433 19.8268 20.0307 20.1943 20.2291C20.8905 20.6049 21.608 20.9923 22.225 21.4578L23.7133 20.8627C23.9236 20.7787 24.1624 20.881 24.2466 21.0914C24.3307 21.3017 24.2283 21.5405 24.018 21.6246L22.3105 22.3073C22.2612 22.3269 22.2095 22.3366 22.1582 22.3366L22.1581 22.3364Z" fill="#337265"/>
<path d="M14.2938 29.3444C14.0271 29.3444 13.7573 29.2756 13.512 29.1309C13.1591 28.922 12.9094 28.5879 12.8083 28.1898C12.7071 27.7913 12.7674 27.3779 12.9781 27.0256C13.0943 26.8312 13.3462 26.7678 13.5407 26.8841C13.7352 27.0004 13.7986 27.2523 13.6823 27.4468C13.5844 27.6104 13.5565 27.8025 13.6036 27.9879C13.6505 28.1729 13.7662 28.3279 13.9295 28.4245C14.2708 28.6259 14.7146 28.5134 14.9181 28.1733L15.9079 26.5159C16.0058 26.3525 16.0336 26.161 15.9866 25.9757C15.9395 25.7902 15.8234 25.6348 15.6596 25.5382C15.3188 25.3366 14.876 25.4494 14.672 25.7896L14.4282 26.1976C14.312 26.392 14.0599 26.4555 13.8655 26.3393C13.6711 26.2231 13.6076 25.9711 13.7239 25.7767L13.968 25.3681C14.4038 24.6418 15.3498 24.4015 16.0771 24.8318C16.4301 25.0402 16.6806 25.3748 16.7819 25.7738C16.8832 26.1726 16.8228 26.5858 16.6119 26.9373L15.6224 28.5941C15.3341 29.0762 14.8201 29.3443 14.2938 29.3443V29.3444Z" fill="#337265"/>
<path d="M12.0698 28.6757C11.803 28.6757 11.533 28.6066 11.2876 28.4614C10.9354 28.2529 10.6856 27.9186 10.5842 27.5201C10.4828 27.1215 10.5424 26.7084 10.7523 26.3568C10.8684 26.1623 11.1202 26.0988 11.3149 26.2148C11.5094 26.3309 11.573 26.5828 11.4568 26.7773C11.3596 26.9402 11.3321 27.1322 11.3794 27.3179C11.4266 27.5035 11.5424 27.6588 11.7055 27.7554C12.0468 27.9572 12.4893 27.8446 12.6923 27.5045L13.777 25.689C13.8742 25.5257 13.9018 25.3328 13.8542 25.1465C13.8069 24.9611 13.6911 24.806 13.5282 24.7095C13.1874 24.5076 12.7445 24.6201 12.5414 24.9603C12.4253 25.1548 12.1735 25.2185 11.9789 25.1023C11.7843 24.9862 11.7208 24.7344 11.8369 24.5398C12.2711 23.8126 13.2174 23.5719 13.9461 24.0034C14.2979 24.2116 14.5477 24.5456 14.6492 24.9436C14.751 25.3426 14.6915 25.7565 14.4817 26.1091L13.3967 27.9252C13.1088 28.4075 12.5955 28.6758 12.0698 28.6758V28.6757Z" fill="#337265"/>
<path d="M8.30966 26.1722C8.04318 26.1722 7.7737 26.1033 7.52896 25.9585C7.17593 25.7502 6.92538 25.4155 6.82413 25.0165C6.72283 24.6177 6.78324 24.2045 6.99411 23.853L7.93724 22.2757C8.37007 21.5484 9.31642 21.3075 10.0463 21.7396C10.3991 21.9477 10.6495 22.2818 10.7509 22.6801C10.8523 23.0785 10.7922 23.4921 10.5813 23.8445C10.465 24.039 10.2132 24.1024 10.0187 23.986C9.82425 23.8697 9.76085 23.6178 9.87716 23.4234C9.97501 23.2598 10.0029 23.0678 9.95574 22.8825C9.90863 22.6976 9.79255 22.5426 9.62878 22.4459C9.28683 22.2434 8.84421 22.3558 8.64183 22.696L7.698 24.2746C7.60009 24.4377 7.57226 24.6293 7.61931 24.8146C7.66642 25.0001 7.78255 25.1555 7.94632 25.2521C8.28693 25.4537 8.7299 25.3408 8.93404 25.0007C9.05064 24.8064 9.30253 24.7433 9.49689 24.86C9.69113 24.9766 9.75417 25.2286 9.63757 25.4228C9.34859 25.9043 8.8349 26.1722 8.30954 26.1722L8.30966 26.1722Z" fill="#337265"/>
<path d="M9.85049 28.0003C9.5833 28.0003 9.31318 27.9308 9.06785 27.7848C8.71681 27.577 8.46709 27.2431 8.36554 26.845C8.26377 26.446 8.32324 26.0321 8.53306 25.6794L9.87691 23.4237C10.0862 23.0719 10.4212 22.822 10.8202 22.7204C11.2198 22.6187 11.6334 22.678 11.9855 22.8875C12.3369 23.0948 12.5873 23.4288 12.6892 23.827C12.7912 24.226 12.7318 24.64 12.5219 24.9928C12.5219 24.9928 12.5219 24.9929 12.5218 24.993L11.178 27.2486C10.8891 27.7318 10.3758 28.0003 9.8506 28.0003H9.85049ZM11.2029 23.4928C11.143 23.4928 11.0825 23.5003 11.0228 23.5156C10.836 23.5631 10.6794 23.6796 10.5819 23.8435L9.23801 26.0992C9.14056 26.263 9.11297 26.456 9.16054 26.6422C9.20789 26.8276 9.32361 26.9828 9.48656 27.0792C9.82728 27.282 10.2696 27.169 10.4735 26.828L11.8168 24.5732C11.9143 24.4092 11.9418 24.2164 11.8942 24.0304C11.8467 23.8451 11.7306 23.6899 11.5671 23.5934C11.4551 23.5268 11.3301 23.4928 11.2029 23.4928Z" fill="#337265"/>
<path d="M24.9766 23.0829C24.8361 23.0829 24.6955 23.0532 24.5627 22.994C24.3126 22.8828 24.1213 22.6814 24.0239 22.427L21.0407 14.6018C20.8413 14.0813 21.1034 13.4916 21.6253 13.2879L25.0331 11.9703C25.3048 11.8648 25.6227 11.8811 25.8834 12.0143C26.1265 12.1385 26.297 12.3469 26.3635 12.6011L28.4978 20.7579C28.6417 21.3054 28.3885 21.84 27.8955 22.0288L25.3386 23.0151C25.3386 23.0151 25.3385 23.0151 25.3384 23.0151C25.2213 23.0602 25.0989 23.0827 24.9766 23.0827L24.9766 23.0829ZM25.4076 12.7214C25.3805 12.7214 25.3536 12.726 25.3294 12.7354L21.9223 14.0527C21.8222 14.0918 21.7689 14.2093 21.807 14.3089L24.7902 22.1342C24.8156 22.2003 24.8675 22.2317 24.8962 22.2444C24.9241 22.2568 24.9803 22.2739 25.0435 22.2495L27.6011 21.2631C27.7144 21.2196 27.7337 21.0788 27.7041 20.9662L25.5697 12.8089C25.563 12.7833 25.5429 12.7618 25.51 12.7451C25.4794 12.7294 25.4433 12.7214 25.4076 12.7214V12.7214Z" fill="#337265"/>
<path d="M23.7444 16.3175C23.5815 16.3175 23.4275 16.2199 23.3633 16.0594L22.8767 14.8419C22.7925 14.6316 22.8949 14.3928 23.1053 14.3087C23.3154 14.2246 23.5543 14.327 23.6385 14.5374L24.1252 15.7549C24.2093 15.9652 24.1069 16.204 23.8965 16.2881C23.8466 16.308 23.7951 16.3175 23.7444 16.3175Z" fill="#337265"/>
<path d="M5.06496 22.9608C4.93664 22.9608 4.80838 22.9361 4.68615 22.8865L2.14494 21.8617C1.65668 21.6659 1.41216 21.127 1.56433 20.5806L3.82482 12.4587C3.89507 12.2061 4.06839 12.0006 4.31273 11.8802C4.57476 11.751 4.89246 11.7389 5.1624 11.8478L8.54947 13.2182C9.06961 13.4307 9.32279 14.0242 9.11519 14.5418L6.01119 22.3192C5.90924 22.5734 5.71441 22.7721 5.46228 22.8792C5.33425 22.9335 5.19955 22.9608 5.06496 22.9608V22.9608ZM4.77515 12.5939C4.74058 12.5939 4.70554 12.6014 4.6756 12.6161C4.64267 12.6323 4.62234 12.6534 4.61531 12.6788L2.35482 20.8007C2.3233 20.9139 2.34 21.056 2.45115 21.1005L4.99306 22.1256L4.99412 22.126C5.05757 22.1518 5.11382 22.1358 5.14166 22.124C5.17048 22.1118 5.22281 22.0813 5.24959 22.0145L8.35359 14.2371C8.39408 14.136 8.34328 14.0203 8.24056 13.9783L4.85531 12.6086C4.83088 12.5987 4.80322 12.5939 4.77533 12.5939H4.77515Z" fill="#337265"/>
<path d="M6.39069 16.2161C6.3379 16.2161 6.28428 16.2058 6.23255 16.1842C6.02354 16.0968 5.92499 15.8564 6.01241 15.6474L6.51901 14.4366C6.60643 14.2276 6.84696 14.129 7.05579 14.2164C7.26479 14.3039 7.36335 14.5442 7.27592 14.7532L6.76932 15.9641C6.70352 16.1213 6.55112 16.2161 6.39069 16.2161Z" fill="#337265"/>
<path d="M15.0277 14.1221C14.9786 14.1221 14.9295 14.1133 14.8828 14.0956C10.1974 12.3264 8.09479 8.50965 8.63332 2.75141C8.65143 2.55793 8.80277 2.40365 8.99584 2.38192C11.5513 2.09405 13.4993 1.47155 14.7857 0.531643C14.9297 0.42635 15.1253 0.426292 15.2695 0.531526C16.558 1.47172 18.506 2.09428 21.0596 2.38192C21.2527 2.40365 21.404 2.55781 21.4222 2.75129C21.9623 8.50959 19.8596 12.3264 15.1726 14.0956C15.1259 14.1133 15.0768 14.1221 15.0277 14.1221ZM9.42217 3.15723C9.02555 8.32748 10.8618 11.6401 15.0277 13.2722C19.1954 11.64 21.0318 8.32795 20.6334 3.15723C18.2464 2.85524 16.3636 2.25254 15.0278 1.36291C13.6936 2.25242 11.811 2.85512 9.42217 3.15723Z" fill="#E26F64"/>
<path d="M15.0277 11.9226C14.968 11.9226 14.9084 11.9095 14.8531 11.8835C11.9858 10.5346 10.5864 8.13605 10.5748 4.55099C10.5741 4.35283 10.7152 4.18255 10.91 4.14634C12.4362 3.86257 13.7579 3.43378 14.8385 2.87193C14.9571 2.81029 15.0982 2.81029 15.2168 2.87181C16.3001 3.43443 17.6224 3.86322 19.147 4.14634C19.3418 4.18255 19.483 4.35283 19.4824 4.55099C19.4708 8.13628 18.0708 10.5348 15.2023 11.8835C15.1471 11.9095 15.0874 11.9226 15.0278 11.9226H15.0277ZM11.4008 4.88667C11.4896 7.90126 12.6489 9.87177 15.0278 11.0565C17.4077 9.87189 18.5675 7.90144 18.6564 4.88673C17.2792 4.6066 16.0611 4.20681 15.0278 3.69587C13.9968 4.20628 12.7791 4.60607 11.4008 4.88667Z" fill="#337265"/>
<path d="M14.4065 8.84341C14.3999 8.84341 14.3933 8.84329 14.3867 8.84294C14.2705 8.83732 14.1622 8.78265 14.0886 8.69253L13.2349 7.64616C13.0917 7.47062 13.1178 7.21216 13.2934 7.06896C13.4688 6.9257 13.7274 6.95189 13.8706 7.12749L14.436 7.82048L16.2128 6.02687C16.3723 5.86579 16.632 5.86462 16.793 6.02411C16.9539 6.18355 16.9551 6.44329 16.7957 6.60425L14.6979 8.72195C14.6207 8.79993 14.5157 8.84347 14.4064 8.84347L14.4065 8.84341Z" fill="#E26F64"/>
</svg>
