<svg width="19" height="15" viewBox="0 0 19 15" fill="none" xmlns="http://www.w3.org/2000/svg">
<path d="M18 1.00729C18 1.00729 16.4406 1.87088 15.5736 2.11575C15.1083 1.61405 14.4898 1.25846 13.8018 1.09707C13.1138 0.935677 12.3896 0.976274 11.7271 1.21337C11.0645 1.45046 10.4956 1.87262 10.0973 2.42273C9.69899 2.97285 9.49049 3.62438 9.5 4.28922V5.01371C8.14203 5.04672 6.79644 4.76435 5.58305 4.19174C4.36967 3.61913 3.32615 2.77405 2.54545 1.73177C2.54545 1.73177 -0.545455 8.25217 6.40909 11.1501C4.81768 12.1629 2.92189 12.6708 1 12.5991C7.95455 16.2216 16.4545 12.5991 16.4545 4.26749C16.454 4.06559 16.4334 3.86515 16.3927 3.66616C17.1809 2.93732 18 1.00729 18 1.00729Z" stroke="#5F5F5F" stroke-linecap="round" stroke-linejoin="round"/>
</svg>
