<svg width="9" height="11" viewBox="0 0 9 11" fill="none" xmlns="http://www.w3.org/2000/svg">
<path d="M3.49242 0.844683L3.92507 0.422342L3.49242 0L3.05977 0.422342L3.49242 0.844683ZM8.38805 11C8.55035 11 8.706 10.9371 8.82076 10.825C8.93553 10.713 9 10.5611 9 10.4026C9 10.2442 8.93553 10.0923 8.82076 9.98022C8.706 9.86819 8.55035 9.80526 8.38805 9.80526V11ZM6.98484 3.4092L3.92507 0.422342L3.05977 1.26702L6.11953 4.25388L6.98484 3.4092ZM3.05977 0.422342L0 3.4092L0.865302 4.25388L3.92507 1.26702L3.05977 0.422342ZM2.88047 0.844683L2.88047 6.8184L4.10437 6.8184L4.10437 0.844683L2.88047 0.844683ZM7.16414 11H8.38805V9.80526H7.16414L7.16414 11ZM2.88047 6.8184C2.88047 7.92743 3.33178 8.99103 4.13512 9.77524C4.93847 10.5594 6.02804 11 7.16414 11L7.16414 9.80526C6.35264 9.80526 5.57437 9.49057 5.00056 8.93043C4.42674 8.37028 4.10437 7.61056 4.10437 6.8184L2.88047 6.8184Z" fill="#A2845E"/>
</svg>
