<svg width="20" height="20" viewBox="0 0 20 20" fill="none" xmlns="http://www.w3.org/2000/svg">
<path d="M0.349609 2.46484L0.349609 12.1074C0.350083 12.4364 0.486092 12.7545 0.731445 12.9912C0.977447 13.2284 1.31381 13.3639 1.66699 13.3643L3.75 13.3643C3.7717 13.3643 3.79015 13.3559 3.80176 13.3447C3.81277 13.334 3.81641 13.322 3.81641 13.3125C3.8163 13.303 3.81277 13.2909 3.80176 13.2803C3.79014 13.2692 3.77159 13.2607 3.75 13.2607L1.66602 13.2607C1.35662 13.2604 1.05754 13.1422 0.834961 12.9277C0.61185 12.7126 0.483719 12.4174 0.483398 12.1074L0.483398 2.46387C0.483816 2.15405 0.611935 1.85959 0.834961 1.64453C1.05755 1.42999 1.35658 1.31092 1.66602 1.31055L18.334 1.31055C18.6434 1.31092 18.9425 1.42999 19.165 1.64453C19.3881 1.8596 19.5162 2.15405 19.5166 2.46387V12.1074C19.5163 12.4174 19.3882 12.7126 19.165 12.9277C18.9425 13.1422 18.6434 13.2604 18.334 13.2607L16.25 13.2607L16.2207 13.2666C16.2118 13.2701 16.2038 13.2749 16.1982 13.2803C16.1927 13.2856 16.1888 13.2916 16.1865 13.2969C16.1843 13.3021 16.1836 13.3076 16.1836 13.3125V13.3135C16.1836 13.3183 16.1843 13.3239 16.1865 13.3291C16.1888 13.3343 16.1929 13.3395 16.1982 13.3447C16.2039 13.3502 16.2117 13.3558 16.2207 13.3594C16.2296 13.3629 16.2397 13.3643 16.25 13.3643L18.333 13.3643L18.4648 13.3584C18.769 13.3289 19.0534 13.1987 19.2686 12.9912C19.5139 12.7545 19.6499 12.4364 19.6504 12.1074V2.46484L19.6436 2.3418C19.6139 2.05736 19.4832 1.78814 19.2686 1.58105C19.0226 1.34384 18.6862 1.20744 18.333 1.20703L1.66699 1.20703L1.53516 1.21387C1.23098 1.2434 0.946618 1.37356 0.731445 1.58105C0.516847 1.78814 0.386098 2.05736 0.356445 2.3418L0.349609 2.46484Z" fill="#2C2D32" stroke="#2C2D32" stroke-width="0.7"/>
<path d="M6.06689 14.3311V14.332C6.06698 14.3324 6.06807 14.3333 6.06885 14.335L6.0835 14.3535L9.88818 17.6143C9.89804 17.6227 9.91276 17.6318 9.93213 17.6387C9.95153 17.6456 9.97413 17.6504 9.99756 17.6504C10.0208 17.6503 10.0427 17.6455 10.062 17.6387C10.0814 17.6318 10.0961 17.6227 10.106 17.6143L13.9155 14.3496L13.9204 14.3457C13.9304 14.3374 13.935 14.3301 13.937 14.3262C13.9385 14.3232 13.939 14.3213 13.939 14.3213C13.9389 14.3208 13.938 14.3194 13.937 14.3174C13.9352 14.3138 13.9309 14.307 13.9214 14.2988C13.9115 14.2903 13.8969 14.2813 13.8774 14.2744C13.8577 14.2675 13.8347 14.2635 13.811 14.2637C13.7874 14.2638 13.7649 14.2673 13.7456 14.2744C13.7263 14.2815 13.7122 14.2914 13.7026 14.2998L13.6978 14.3037L10.7007 16.8721L10.1235 17.3672V6.97852C10.1234 6.97793 10.1223 6.97705 10.1216 6.97559C10.1199 6.97206 10.1156 6.96533 10.106 6.95703C10.085 6.93909 10.0468 6.92099 9.99756 6.9209C9.94815 6.9209 9.90917 6.93904 9.88818 6.95703C9.87855 6.96534 9.87425 6.9721 9.87256 6.97559C9.87183 6.97708 9.87076 6.97794 9.87061 6.97852V17.3672L9.29346 16.8721L6.30029 14.3066C6.27847 14.289 6.23999 14.2731 6.19189 14.2734C6.14314 14.2738 6.10518 14.2908 6.08447 14.3086C6.07502 14.3167 6.07067 14.3235 6.06885 14.3271C6.06797 14.3289 6.06799 14.3306 6.06787 14.3311H6.06689Z" fill="#2C2D32" stroke="#2C2D32" stroke-width="0.7"/>
</svg>
