<svg width="32" height="32" viewBox="0 0 32 32" fill="none" xmlns="http://www.w3.org/2000/svg">
<path d="M4.66821 17.6442V14.0156" stroke="#2C2D32" stroke-width="1.3" stroke-miterlimit="10" stroke-linecap="round" stroke-linejoin="round"/>
<path d="M4.66846 8.62844V7.0109C4.66846 6.16837 5.35148 5.48535 6.194 5.48535H25.0858C25.9283 5.48535 26.6113 6.16837 26.6113 7.0109V25.9027C26.6113 26.7452 25.9283 27.4282 25.0858 27.4282H6.194C5.35148 27.4282 4.66846 26.7452 4.66846 25.9027V23.0167" stroke="#2C2D32" stroke-width="1.3" stroke-miterlimit="10" stroke-linecap="round" stroke-linejoin="round"/>
<path d="M3.65723 9.93457H5.67928V13.9126H3.65723V9.93457Z" stroke="#2C2D32" stroke-width="1.3" stroke-miterlimit="10" stroke-linecap="round" stroke-linejoin="round"/>
<path d="M3.65723 18.9746H5.67928V22.9526H3.65723V18.9746Z" stroke="#2C2D32" stroke-width="1.3" stroke-miterlimit="10" stroke-linecap="round" stroke-linejoin="round"/>
<path d="M8.22339 8.73047H23.0567V24.1824H8.22339V8.73047Z" stroke="#2C2D32" stroke-width="1.3" stroke-miterlimit="10" stroke-linecap="round" stroke-linejoin="round"/>
<path d="M15.6399 20.3574C17.7943 20.3574 19.5408 18.6109 19.5408 16.4565C19.5408 14.3021 17.7943 12.5557 15.6399 12.5557C13.4855 12.5557 11.739 14.3021 11.739 16.4565C11.739 18.6109 13.4855 20.3574 15.6399 20.3574Z" stroke="#2C2D32" stroke-width="1.3" stroke-miterlimit="10" stroke-linecap="round" stroke-linejoin="round"/>
<path d="M15.6399 18.088C16.5407 18.088 17.2708 17.3578 17.2708 16.4571C17.2708 15.5564 16.5407 14.8262 15.6399 14.8262C14.7392 14.8262 14.009 15.5564 14.009 16.4571C14.009 17.3578 14.7392 18.088 15.6399 18.088Z" stroke="#2C2D32" stroke-width="1.3" stroke-miterlimit="10" stroke-linecap="round" stroke-linejoin="round"/>
<path d="M12.8815 13.6986L11.3206 12.1377" stroke="#2C2D32" stroke-width="1.3" stroke-miterlimit="10" stroke-linecap="round" stroke-linejoin="round"/>
<path d="M20.0216 20.8382L18.4607 19.2773" stroke="#2C2D32" stroke-width="1.3" stroke-miterlimit="10" stroke-linecap="round" stroke-linejoin="round"/>
<path d="M12.8815 19.2773L11.3206 20.8382" stroke="#2C2D32" stroke-width="1.3" stroke-miterlimit="10" stroke-linecap="round" stroke-linejoin="round"/>
<path d="M20.0216 12.1377L18.4607 13.6986" stroke="#2C2D32" stroke-width="1.3" stroke-miterlimit="10" stroke-linecap="round" stroke-linejoin="round"/>
</svg>
