<svg width="17" height="16" viewBox="0 0 17 16" fill="none" xmlns="http://www.w3.org/2000/svg">
<path d="M15.1133 7.16036L14.2067 6.10703C14.0333 5.90703 13.8933 5.5337 13.8933 5.26703V4.1337C13.8933 3.42703 13.3133 2.84703 12.6067 2.84703H11.4733C11.2133 2.84703 10.8333 2.70703 10.6333 2.5337L9.57999 1.62703C9.11999 1.2337 8.36666 1.2337 7.89999 1.62703L6.85333 2.54036C6.65333 2.70703 6.27333 2.84703 6.01333 2.84703H4.85999C4.15333 2.84703 3.57333 3.42703 3.57333 4.1337V5.2737C3.57333 5.5337 3.43333 5.90703 3.26666 6.10703L2.36666 7.16703C1.97999 7.62703 1.97999 8.3737 2.36666 8.8337L3.26666 9.8937C3.43333 10.0937 3.57333 10.467 3.57333 10.727V11.867C3.57333 12.5737 4.15333 13.1537 4.85999 13.1537H6.01333C6.27333 13.1537 6.65333 13.2937 6.85333 13.467L7.90666 14.3737C8.36666 14.767 9.11999 14.767 9.58666 14.3737L10.64 13.467C10.84 13.2937 11.2133 13.1537 11.48 13.1537H12.6133C13.32 13.1537 13.9 12.5737 13.9 11.867V10.7337C13.9 10.4737 14.04 10.0937 14.2133 9.8937L15.12 8.84036C15.5067 8.38036 15.5067 7.62036 15.1133 7.16036ZM11.5133 6.74036L8.29333 9.96036C8.19999 10.0537 8.07333 10.107 7.93999 10.107C7.80666 10.107 7.67999 10.0537 7.58666 9.96036L5.97333 8.34703C5.77999 8.1537 5.77999 7.8337 5.97333 7.64036C6.16666 7.44703 6.48666 7.44703 6.67999 7.64036L7.93999 8.90036L10.8067 6.0337C11 5.84036 11.32 5.84036 11.5133 6.0337C11.7067 6.22703 11.7067 6.54703 11.5133 6.74036Z" fill="#2ABAFF"/>
</svg>
