<svg width="4" height="18" viewBox="0 0 4 18" fill="none" xmlns="http://www.w3.org/2000/svg">
<path d="M4.00002 2.23453C4.0001 2.46238 3.95529 2.68802 3.86816 2.89856C3.78103 3.1091 3.65328 3.30041 3.49221 3.46158C3.33114 3.62275 3.13991 3.75062 2.92942 3.83788C2.71893 3.92515 2.49332 3.9701 2.26546 3.97017C2.0376 3.97025 1.81196 3.92544 1.60142 3.83831C1.39088 3.75118 1.19956 3.62344 1.03838 3.46237C0.877211 3.30131 0.749343 3.11007 0.662077 2.89959C0.574812 2.68911 0.529858 2.4635 0.529785 2.23564C0.529637 1.77547 0.712303 1.33409 1.0376 1.00859C1.36289 0.683093 1.80416 0.500148 2.26435 0.5C2.72453 0.499852 3.16592 0.682514 3.49142 1.0078C3.81693 1.33309 3.99987 1.77436 4.00002 2.23453Z" fill="#5F5F5F"/>
<path d="M2.26532 10.7347C3.22329 10.7347 3.99988 9.95811 3.99988 9.00015C3.99988 8.0422 3.22329 7.26562 2.26532 7.26562C1.30735 7.26562 0.530762 8.0422 0.530762 9.00015C0.530762 9.95811 1.30735 10.7347 2.26532 10.7347Z" fill="#5F5F5F"/>
<path d="M2.26532 17.5003C3.22329 17.5003 3.99988 16.7237 3.99988 15.7658C3.99988 14.8078 3.22329 14.0312 2.26532 14.0312C1.30735 14.0312 0.530762 14.8078 0.530762 15.7658C0.530762 16.7237 1.30735 17.5003 2.26532 17.5003Z" fill="#5F5F5F"/>
</svg>
