<svg width="17" height="17" viewBox="0 0 17 17" fill="none" xmlns="http://www.w3.org/2000/svg">
<path d="M16.1004 8.746V6.61444C16.1004 5.49221 15.1955 4.58248 14.0866 4.58248H13.8826L12.4348 1.84664H15.4456C15.6265 1.84664 15.7746 1.69723 15.7746 1.51462C15.7746 1.33201 15.6265 1.1826 15.4456 1.1826H12.086L11.78 0.601567C11.4838 0.0504153 10.8027 -0.162077 10.2565 0.13342L8.30849 1.1826H2.01378C0.904885 1.1826 0 2.09233 0 3.21456V14.968C0 16.0869 0.904885 17 2.01378 17H14.0866C15.1988 17 16.1004 16.0869 16.1004 14.968V12.8C16.5314 12.6572 16.8473 12.2488 16.8473 11.7641V9.78522C16.8473 9.30047 16.5347 8.88877 16.1004 8.746ZM11.7207 1.9064L12.0695 2.56712L8.33153 4.57916C8.32824 4.57916 8.32495 4.58248 8.32495 4.58248H6.74551L11.7207 1.9064ZM12.3788 3.15148L13.1356 4.58248H9.72011L12.3788 3.15148ZM10.5658 0.721094C10.7928 0.598247 11.0758 0.684572 11.1975 0.913665L11.4114 1.31873L5.35692 4.57916C5.35363 4.57916 5.35034 4.58248 5.35034 4.58248H3.38921L10.5658 0.721094ZM2.01378 1.84664H7.07456L2.00062 4.57916C1.99733 4.57916 1.99733 4.58248 1.99404 4.58248C1.25368 4.57252 0.658098 3.9616 0.658098 3.21456C0.658098 2.46088 1.26684 1.84664 2.01378 1.84664ZM14.0866 16.336H2.01378C1.26684 16.336 0.658098 15.7217 0.658098 14.968V4.71529C1.01676 5.04399 1.49388 5.24652 2.01378 5.24652H14.0866C14.8335 5.24652 15.4423 5.86075 15.4423 6.61444V8.69288H12.8C11.6648 8.69288 10.7402 9.62585 10.7402 10.7713C10.7402 11.9168 11.6648 12.8498 12.8 12.8498H15.4423V14.9647C15.4423 15.7217 14.8335 16.336 14.0866 16.336ZM16.1892 11.7607C16.1892 11.9965 16.0017 12.1857 15.768 12.1857H12.8C12.0267 12.1857 11.3983 11.5516 11.3983 10.7713C11.3983 9.99107 12.0267 9.35692 12.8 9.35692H15.768C16.0017 9.35692 16.1892 9.54617 16.1892 9.7819V11.7607Z" fill="white"/>
<path d="M13.2572 9.80957C12.7307 9.80957 12.303 10.2412 12.303 10.7724C12.303 11.3037 12.7307 11.7353 13.2572 11.7353C13.7837 11.7353 14.2115 11.3037 14.2115 10.7724C14.2115 10.2412 13.7837 9.80957 13.2572 9.80957ZM13.2572 11.0712C13.0927 11.0712 12.9611 10.9384 12.9611 10.7724C12.9611 10.6064 13.0927 10.4736 13.2572 10.4736C13.4217 10.4736 13.5534 10.6064 13.5534 10.7724C13.5534 10.9384 13.4217 11.0712 13.2572 11.0712Z" fill="white"/>
</svg>
