<svg width="33" height="33" viewBox="0 0 33 33" fill="none" xmlns="http://www.w3.org/2000/svg">
<path d="M15.2991 23.0649C15.251 22.9721 15.1784 22.8944 15.089 22.8402C14.9997 22.786 14.8972 22.7574 14.7927 22.7577H13.0858V19.3439C13.0858 19.193 13.0259 19.0482 12.9192 18.9415C12.8125 18.8348 12.6677 18.7749 12.5168 18.7749H10.241C10.0901 18.7749 9.94537 18.8348 9.83867 18.9415C9.73196 19.0482 9.67202 19.193 9.67202 19.3439V22.7577H7.96512C7.8622 22.7579 7.76127 22.7861 7.6731 22.8392C7.58493 22.8923 7.51281 22.9684 7.46443 23.0592C7.41875 23.1482 7.39733 23.2476 7.40232 23.3475C7.40732 23.4474 7.43855 23.5442 7.49288 23.6282L10.9067 28.7489C10.9569 28.8292 11.0264 28.8958 11.1089 28.9425C11.1913 28.9892 11.2842 29.0146 11.3789 29.0163C11.4726 29.0158 11.5648 28.9922 11.6472 28.9475C11.7295 28.9028 11.7996 28.8385 11.8512 28.7602L15.265 23.6396C15.3212 23.5555 15.3541 23.4579 15.3601 23.3569C15.3661 23.2559 15.345 23.1551 15.2991 23.0649Z" fill="#2C2D32"/>
<path d="M0.568934 5.12041C0.418043 5.12041 0.273333 5.06047 0.166637 4.95377C0.0599411 4.84707 0 4.70236 0 4.55147V2.84467C0 2.09022 0.299706 1.36666 0.833185 0.833185C1.36666 0.299706 2.09022 0 2.84467 0H29.5846C29.7355 0 29.8802 0.0599411 29.9869 0.166637C30.0936 0.273333 30.1535 0.418043 30.1535 0.568934C30.1535 0.719825 30.0936 0.864535 29.9869 0.971231C29.8802 1.07793 29.7355 1.13787 29.5846 1.13787H2.84467C2.392 1.13787 1.95787 1.31769 1.63778 1.63778C1.31769 1.95787 1.13787 2.392 1.13787 2.84467V4.55147C1.13787 4.70236 1.07793 4.84707 0.971231 4.95377C0.864535 5.06047 0.719825 5.12041 0.568934 5.12041Z" fill="#337265"/>
<path d="M31.2914 2.84448H1.7068C1.25413 2.84448 0.819999 3.02431 0.499911 3.34439C0.179823 3.66448 0 4.09861 0 4.55129V25.0329C0 25.4856 0.179823 25.9197 0.499911 26.2398C0.819999 26.5599 1.25413 26.7397 1.7068 26.7397H2.73657C3.33784 28.5568 4.49654 30.1381 6.048 31.2589C7.59945 32.3797 9.46472 32.983 11.3787 32.983C13.2926 32.983 15.1579 32.3797 16.7094 31.2589C18.2608 30.1381 19.4195 28.5568 20.0208 26.7397H31.2914C31.7441 26.7397 32.1782 26.5599 32.4983 26.2398C32.8184 25.9197 32.9982 25.4856 32.9982 25.0329V4.55129C32.9982 4.09861 32.8184 3.66448 32.4983 3.34439C32.1782 3.02431 31.7441 2.84448 31.2914 2.84448ZM11.3787 31.2912C9.91586 31.2912 8.4859 30.8574 7.26961 30.0447C6.05332 29.232 5.10533 28.0769 4.54554 26.7254C3.98574 25.374 3.83927 23.8868 4.12465 22.4521C4.41004 21.0174 5.11445 19.6996 6.14882 18.6652C7.18319 17.6308 8.50106 16.9264 9.93577 16.641C11.3705 16.3556 12.8576 16.5021 14.2091 17.0619C15.5605 17.6217 16.7157 18.5697 17.5284 19.786C18.3411 21.0023 18.7748 22.4322 18.7748 23.8951C18.7748 25.8566 17.9956 27.7379 16.6085 29.1249C15.2215 30.512 13.3403 31.2912 11.3787 31.2912Z" fill="#E26F64"/>
<path d="M30.154 11.9475H23.8954C23.1409 11.9475 22.4173 12.2472 21.8838 12.7807C21.3503 13.3142 21.0505 14.0378 21.0505 14.7923C21.0505 15.5468 21.3503 16.2704 21.8838 16.8039C22.4173 17.3374 23.1409 17.6372 23.8954 17.6372H30.154C30.3049 17.6372 30.4496 17.5772 30.5563 17.4705C30.663 17.3638 30.723 17.2191 30.723 17.0682V12.5165C30.723 12.3656 30.663 12.2209 30.5563 12.1142C30.4496 12.0075 30.3049 11.9475 30.154 11.9475Z" fill="#2C2D32"/>
<path d="M24.4643 15.9302C24.2393 15.9302 24.0193 15.8634 23.8321 15.7384C23.645 15.6133 23.4992 15.4356 23.413 15.2277C23.3269 15.0198 23.3044 14.791 23.3483 14.5702C23.3922 14.3495 23.5006 14.1467 23.6597 13.9876C23.8189 13.8284 24.0216 13.7201 24.2423 13.6762C24.4631 13.6323 24.6919 13.6548 24.8998 13.7409C25.1077 13.827 25.2855 13.9729 25.4105 14.16C25.5355 14.3472 25.6023 14.5672 25.6023 14.7922C25.6023 15.094 25.4824 15.3835 25.269 15.5969C25.0556 15.8103 24.7661 15.9302 24.4643 15.9302Z" fill="#337265"/>
<path d="M3.41381 7.39622C3.18875 7.39622 2.96874 7.32949 2.78161 7.20445C2.59448 7.07941 2.44863 6.90169 2.3625 6.69376C2.27637 6.48583 2.25384 6.25703 2.29774 6.03629C2.34165 5.81556 2.45003 5.6128 2.60917 5.45365C2.76831 5.29451 2.97107 5.18613 3.19181 5.14223C3.41255 5.09832 3.64135 5.12085 3.84928 5.20698C4.05721 5.29311 4.23493 5.43896 4.35997 5.62609C4.485 5.81322 4.55174 6.03323 4.55174 6.25829C4.55174 6.56009 4.43185 6.84953 4.21845 7.06293C4.00505 7.27634 3.71561 7.39622 3.41381 7.39622Z" fill="#337265"/>
<path d="M29.5847 24.4646C29.3596 24.4646 29.1396 24.3978 28.9525 24.2728C28.7654 24.1478 28.6195 23.97 28.5334 23.7621C28.4473 23.5542 28.4247 23.3254 28.4686 23.1047C28.5126 22.8839 28.6209 22.6812 28.7801 22.522C28.9392 22.3629 29.142 22.2545 29.3627 22.2106C29.5834 22.1667 29.8122 22.1892 30.0202 22.2753C30.2281 22.3615 30.4058 22.5073 30.5309 22.6945C30.6559 22.8816 30.7226 23.1016 30.7226 23.3267C30.7226 23.6285 30.6028 23.9179 30.3893 24.1313C30.1759 24.3447 29.8865 24.4646 29.5847 24.4646Z" fill="#337265"/>
<path d="M29.5847 7.39647C29.3596 7.39647 29.1396 7.32973 28.9525 7.20469C28.7654 7.07965 28.6195 6.90193 28.5334 6.694C28.4473 6.48607 28.4247 6.25727 28.4686 6.03654C28.5126 5.8158 28.6209 5.61304 28.7801 5.4539C28.9392 5.29476 29.142 5.18638 29.3627 5.14247C29.5834 5.09856 29.8122 5.1211 30.0202 5.20723C30.2281 5.29335 30.4058 5.4392 30.5309 5.62634C30.6559 5.81347 30.7226 6.03348 30.7226 6.25854C30.7226 6.56034 30.6028 6.84977 30.3893 7.06318C30.1759 7.27658 29.8865 7.39647 29.5847 7.39647Z" fill="#337265"/>
</svg>
