<svg width="21" height="19" viewBox="0 0 21 19" fill="none" xmlns="http://www.w3.org/2000/svg">
<path d="M0 8.11699C0 7.28387 -1.24249e-07 6.62464 0.038294 6.08799C0.0790587 5.53759 0.161823 5.07224 0.347118 4.63067C0.652807 3.9046 1.14664 3.27573 1.77635 2.81058C2.15929 2.52912 2.58794 2.34274 3.10924 2.18012C3.61694 2.02125 4.25065 1.87239 5.05112 1.686L9.30423 0.69152C10.5198 0.407561 11.4722 0.184897 12.2405 0.0760671C13.0212 -0.034014 13.6834 -0.0402689 14.2998 0.16238C15.2964 0.488517 16.1423 1.16994 16.6802 2.08004C16.8568 2.37901 16.9804 2.703 17.0668 3.05951L17.0952 3.07202C17.62 3.29191 18.0968 3.61432 18.4984 4.02084C18.9001 4.42736 19.2187 4.91003 19.4361 5.44127C19.6128 5.87409 19.6906 6.34193 19.7276 6.89734C19.7647 7.44149 19.7647 8.11449 19.7647 8.97012V8.99263H19.1471C19.6385 8.99263 20.1098 9.19032 20.4573 9.54221C20.8048 9.8941 21 10.3714 21 10.869C21 11.3667 20.8048 11.8439 20.4573 12.1958C20.1098 12.5477 19.6385 12.7454 19.1471 12.7454H19.7647V12.7679C19.7647 13.6235 19.7647 14.2965 19.7276 14.8407C19.6906 15.3961 19.6128 15.8639 19.4361 16.2968C19.2188 16.8282 18.9003 17.3111 18.4986 17.7179C18.0969 18.1246 17.6201 18.4472 17.0952 18.6673C16.6678 18.8461 16.2058 18.9249 15.6586 18.9625C15.12 19 14.4554 19 13.6105 19H6.51988C5.50571 19 4.70647 19 4.06165 18.9462C3.40694 18.8924 2.85847 18.7798 2.36065 18.5234C1.54684 18.1036 0.885208 17.4336 0.470647 16.6095C0.217412 16.1054 0.106235 15.55 0.0531176 14.8857C-2.30091e-08 14.2352 0 13.4259 0 12.3976V8.11699ZM9.55253 1.91742L6.04059 2.73803H13.6117C14.4517 2.73803 15.1151 2.73803 15.6512 2.77555L15.6215 2.72176C15.2374 2.07179 14.6335 1.58507 13.9218 1.35201C13.5635 1.23567 13.1176 1.2144 12.4135 1.31448C11.7044 1.41455 10.8051 1.62471 9.55377 1.91742M18.4973 6.9824C18.4639 6.49079 18.3997 6.17556 18.2959 5.91912C18.1374 5.53216 17.9038 5.18139 17.6088 4.88764C17.3138 4.59389 16.9636 4.36315 16.5789 4.20911L16.3862 4.15907C15.7636 3.99645 14.9001 3.98895 13.3226 3.98895H6.54706C5.49953 3.98895 4.74971 3.98895 4.16294 4.03898C3.58359 4.08652 3.21671 4.17659 2.92147 4.3292C2.30228 4.64928 1.80784 5.17156 1.51818 5.81154C1.39959 6.09175 1.32547 6.44075 1.28347 6.95363L1.26741 7.18505C1.2377 7.91226 1.227 8.64013 1.23529 9.36791V12.3701C1.23529 13.4309 1.23529 14.1902 1.28471 14.7844C1.33165 15.3711 1.42059 15.7426 1.57129 16.0416C1.86763 16.6298 2.34027 17.108 2.92147 17.4076C3.21671 17.5602 3.58359 17.6515 4.16294 17.7003C4.74971 17.7491 5.49953 17.7491 6.54706 17.7491H13.5882C14.4604 17.7491 15.0829 17.7491 15.5734 17.7153C16.0588 17.6815 16.3701 17.6165 16.6234 17.5114C16.998 17.3542 17.3385 17.1239 17.6253 16.8335C17.912 16.5431 18.1395 16.1983 18.2947 15.8189C18.3985 15.5625 18.4627 15.2472 18.4961 14.7556C18.5294 14.259 18.5294 13.6285 18.5294 12.7454H16.6765C16.185 12.7454 15.7137 12.5477 15.3662 12.1958C15.0187 11.8439 14.8235 11.3667 14.8235 10.869C14.8235 10.3714 15.0187 9.8941 15.3662 9.54221C15.7137 9.19032 16.185 8.99263 16.6765 8.99263H18.5294C18.5294 8.10948 18.5294 7.47902 18.4961 6.9824M16.6765 10.2436C16.5127 10.2436 16.3556 10.3094 16.2397 10.4267C16.1239 10.544 16.0588 10.7031 16.0588 10.869C16.0588 11.0349 16.1239 11.194 16.2397 11.3113C16.3556 11.4286 16.5127 11.4945 16.6765 11.4945H19.1471C19.3109 11.4945 19.468 11.4286 19.5838 11.3113C19.6996 11.194 19.7647 11.0349 19.7647 10.869C19.7647 10.7031 19.6996 10.544 19.5838 10.4267C19.468 10.3094 19.3109 10.2436 19.1471 10.2436H16.6765Z" fill="#007AFF"/>
</svg>
