<svg width="14" height="14" viewBox="0 0 14 14" fill="none" xmlns="http://www.w3.org/2000/svg">
<path d="M13.2591 7.13816V5.39846C13.2591 4.48254 12.5139 3.74005 11.6007 3.74005H11.4327L10.2404 1.50716H12.7199C12.8689 1.50716 12.9909 1.38522 12.9909 1.23618C12.9909 1.08714 12.8689 0.965195 12.7199 0.965195H9.95316L9.70115 0.490977C9.45726 0.0411471 8.89633 -0.132281 8.4465 0.108893L6.84229 0.965195H1.65841C0.7452 0.965195 0 1.70768 0 2.6236V12.2164C0 13.1296 0.7452 13.8748 1.65841 13.8748H11.6007C12.5166 13.8748 13.2591 13.1296 13.2591 12.2164V10.4468C13.6141 10.3303 13.8743 9.99701 13.8743 9.60138V7.98633C13.8743 7.5907 13.6168 7.25468 13.2591 7.13816ZM9.65237 1.55594L9.93961 2.09519L6.86126 3.73734C6.85855 3.73734 6.85584 3.74005 6.85584 3.74005H5.55513L9.65237 1.55594ZM10.1943 2.57212L10.8176 3.74005H8.0048L10.1943 2.57212ZM8.70122 0.58853C8.8882 0.488267 9.12124 0.558722 9.22151 0.7457L9.39765 1.0763L4.41158 3.73734C4.40887 3.73734 4.40616 3.74005 4.40616 3.74005H2.79111L8.70122 0.58853ZM1.65841 1.50716H5.82611L1.64757 3.73734C1.64486 3.73734 1.64486 3.74005 1.64215 3.74005C1.03244 3.73192 0.541963 3.23331 0.541963 2.6236C0.541963 2.00847 1.04328 1.50716 1.65841 1.50716ZM11.6007 13.3328H1.65841C1.04328 13.3328 0.541963 12.8315 0.541963 12.2164V3.84844C0.837334 4.11671 1.23026 4.28201 1.65841 4.28201H11.6007C12.2159 4.28201 12.7172 4.78333 12.7172 5.39846V7.0948H10.5412C9.6063 7.0948 8.84484 7.85626 8.84484 8.79115C8.84484 9.72603 9.6063 10.4875 10.5412 10.4875H12.7172V12.2136C12.7172 12.8315 12.2159 13.3328 11.6007 13.3328ZM13.3323 9.59867C13.3323 9.79107 13.1778 9.94553 12.9854 9.94553H10.5412C9.90438 9.94553 9.38681 9.42795 9.38681 8.79115C9.38681 8.15434 9.90438 7.63676 10.5412 7.63676H12.9854C13.1778 7.63676 13.3323 7.79122 13.3323 7.98362V9.59867Z" fill="black"/>
</svg>
