<svg width="31" height="34" viewBox="0 0 31 34" fill="none" xmlns="http://www.w3.org/2000/svg">
<path d="M19.4769 16.8206L18.8105 15.4641C21.559 14.1131 28.7596 9.96024 29.0682 7.00721C29.1371 6.34661 28.9868 5.84881 28.6086 5.4853C27.5567 4.4745 25.0266 4.58647 24.1403 4.71479L23.9235 3.21901C24.3245 3.16076 27.8916 2.70017 29.6559 4.39551C30.3722 5.08383 30.6887 6.04126 30.5714 7.16426C30.1212 11.4739 20.5651 16.2861 19.4769 16.8206Z" fill="#F9AC00"/>
<path d="M11.1183 16.8204L11.7847 15.4638C9.0363 14.1128 1.83567 9.95999 1.52711 7.00697C1.45814 6.34637 1.60847 5.84857 1.98669 5.48505C3.03861 4.47425 5.56873 4.58623 6.45495 4.71454L6.67179 3.21877C6.2708 3.16052 2.7037 2.69993 0.939431 4.39527C0.223128 5.08359 -0.0934228 6.04102 0.0238671 7.16401C0.474137 11.4736 10.0301 16.2859 11.1183 16.8204Z" fill="#F9AC00"/>
<path d="M26.2889 0.300473V2.11245C26.2889 2.27797 26.154 2.41292 25.9884 2.41292H4.4577C4.29218 2.41292 4.15723 2.27797 4.15723 2.11245V0.300473C4.15723 0.134949 4.29218 0 4.4577 0H25.9884C26.154 0 26.2889 0.134949 26.2889 0.300473Z" fill="#FDC72E"/>
<path d="M25.5546 2.41284C25.4125 8.27681 24.1979 13.1638 21.0509 16.2928C19.6528 17.6801 18.584 19.3751 18.0856 21.2805C17.6178 23.0654 17.3983 25.1904 17.3911 27.6123H13.2041C13.1969 25.1904 12.9756 23.0654 12.5095 21.2805C12.0111 19.3751 10.9405 17.6801 9.54424 16.2928C6.39542 13.1638 5.18268 8.27681 5.04053 2.41284H25.5546Z" fill="#FDC72E"/>
<path d="M20.2473 10.2699C20.2473 12.7458 18.24 14.7532 15.764 14.7532C13.285 14.7532 11.2776 12.7458 11.2776 10.2699C11.2776 7.79082 13.285 5.78345 15.764 5.78345C18.24 5.78345 20.2473 7.79082 20.2473 10.2699Z" fill="#F9AC00"/>
<path d="M25.5305 3.11816C25.5399 2.88429 25.5489 2.65006 25.5546 2.41284H5.04053C5.04628 2.65006 5.05522 2.88429 5.06464 3.11816H25.5305Z" fill="#F9AC00"/>
<path d="M17.391 27.6125H13.204C13.204 27.6125 12.9886 31.7118 9.14697 31.9192V31.9293L15.2966 31.9309H21.4386V31.9206C17.6042 31.7072 17.391 27.6125 17.391 27.6125Z" fill="#337265"/>
<path d="M10.1001 31.7625C9.80766 31.84 9.49723 31.9005 9.14697 31.9194V31.9295L15.2966 31.9311H21.4386V31.9207C21.089 31.9012 20.7792 31.8403 20.4871 31.7625H10.1001Z" fill="#337265"/>
<path d="M21.7527 32.1541V33.7753C21.7527 33.8995 21.652 34.0002 21.5278 34.0002H9.06743C8.94322 34.0002 8.84253 33.8995 8.84253 33.7753V32.1541C8.84253 32.0299 8.94322 31.9292 9.06743 31.9292H21.5278C21.652 31.9292 21.7527 32.0299 21.7527 32.1541Z" fill="#337265"/>
<path d="M27.9679 29.1136C28.0954 29.305 27.9572 29.5598 27.7288 29.5598H22.6873C22.5279 29.5598 22.4004 29.4324 22.4004 29.2731V24.614C22.4004 24.4545 22.5279 24.3271 22.6873 24.3271H27.7288C27.9572 24.3271 28.0954 24.5821 27.9679 24.7733L26.6238 26.7868C26.5601 26.8825 26.5601 27.0047 26.6238 27.1056L27.9679 29.1136Z" fill="#E26F64"/>
<path d="M24.5892 24.3271V27.8493C24.5892 28.0034 24.4616 28.1362 24.3023 28.1362H22.4004V24.614C22.4004 24.4545 22.5279 24.3271 22.6873 24.3271H24.5892Z" fill="#DD5245"/>
<path d="M8.19477 24.614V29.2731C8.19477 29.4324 8.06727 29.5598 7.90787 29.5598H2.86631C2.63791 29.5598 2.49978 29.305 2.62728 29.1136L3.97136 27.1056C4.03504 27.0047 4.03504 26.8825 3.97136 26.7868L2.62728 24.7733C2.49978 24.5821 2.63791 24.3271 2.86631 24.3271H7.90787C8.06727 24.3271 8.19477 24.4545 8.19477 24.614Z" fill="#E26F64"/>
<path d="M8.19479 24.614V28.1362H6.29287C6.13347 28.1362 6.0061 28.0034 6.0061 27.8493V24.3271H7.90789C8.06729 24.3271 8.19479 24.4545 8.19479 24.614Z" fill="#DD5245"/>
<path d="M19.7825 9.97103C19.7825 12.447 17.7751 14.4544 15.2992 14.4544C12.8201 14.4544 10.8127 12.447 10.8127 9.97103C10.8127 7.49199 12.8201 5.48462 15.2992 5.48462C17.7751 5.48462 19.7825 7.49199 19.7825 9.97103Z" fill="#E9E9FF"/>
<path d="M17.1988 10.5802C17.16 10.618 17.1423 10.6724 17.1514 10.7258L17.4161 12.2816C17.4391 12.4164 17.2976 12.5191 17.1765 12.4555L15.7806 11.7224C15.7324 11.6971 15.6749 11.6972 15.6268 11.7225L14.2308 12.4569C14.1094 12.5207 13.9675 12.4177 13.9907 12.2825L14.2579 10.726C14.2671 10.6726 14.2494 10.6181 14.2106 10.5803L13.0815 9.47927C12.9836 9.38384 13.0376 9.21761 13.1729 9.19791L14.7339 8.97057C14.7878 8.96272 14.8344 8.92883 14.8585 8.87994L15.5567 7.46503C15.6172 7.34239 15.792 7.34239 15.8526 7.46503L16.551 8.88064C16.5749 8.92908 16.6211 8.96267 16.6746 8.97045L18.2371 9.19802C18.3721 9.21768 18.4259 9.38355 18.3283 9.47878L17.1988 10.5802Z" fill="#CFCFFF"/>
<path d="M16.792 10.5802C16.7533 10.618 16.7355 10.6724 16.7446 10.7258L17.0094 12.2816C17.0323 12.4164 16.8908 12.5191 16.7697 12.4555L15.3739 11.7224C15.3257 11.6971 15.2682 11.6972 15.22 11.7225L13.824 12.4569C13.7027 12.5207 13.5608 12.4177 13.584 12.2825L13.8512 10.726C13.8604 10.6726 13.8427 10.6181 13.8039 10.5803L12.6747 9.47927C12.5769 9.38384 12.6309 9.21761 12.7661 9.19791L14.3271 8.97057C14.3811 8.96272 14.4277 8.92883 14.4518 8.87994L15.1499 7.46503C15.2104 7.34239 15.3853 7.34239 15.4458 7.46503L16.1443 8.88064C16.1682 8.92908 16.2144 8.96267 16.2678 8.97045L17.8304 9.19802C17.9653 9.21768 18.0192 9.38355 17.9216 9.47878L16.792 10.5802Z" fill="#FDC72E"/>
<g opacity="0.2">
<path d="M19.3191 18.4671C18.7667 19.333 18.347 20.2787 18.0866 21.2829C17.8476 22.1859 17.6775 23.1742 17.5608 24.247H13.0504L13.0239 24.1674C12.9124 23.1262 12.737 22.1646 12.5085 21.2829C12.1898 20.0715 11.6426 18.94 10.9254 17.9252V17.92L4.89575 0.000976562H13.1035L19.3191 18.4671Z" fill="white"/>
<path d="M22.4537 14.5997C22.0393 15.2106 21.5717 15.7792 21.0511 16.2944C20.9608 16.3846 20.8705 16.4749 20.7908 16.5706L15.2126 0.000976562H17.5448L22.4537 14.5997Z" fill="white"/>
</g>
<path d="M24.0594 22.09V27.3154C24.0594 27.4741 23.9308 27.6027 23.7721 27.6027H6.82316C6.6645 27.6027 6.53589 27.4741 6.53589 27.3154V22.09C6.53589 21.9313 6.6645 21.8027 6.82316 21.8027H23.7721C23.9308 21.8027 24.0594 21.9313 24.0594 22.09Z" fill="#E26F64"/>
<path d="M16.1555 23.0348C16.214 23.0934 16.2406 23.1624 16.2406 23.2475V26.1639C16.2406 26.249 16.214 26.318 16.1555 26.3712C16.0971 26.4296 16.028 26.4563 15.9483 26.4563C15.8634 26.4563 15.7943 26.4296 15.7359 26.3712C15.6827 26.318 15.6509 26.2436 15.6509 26.1639V23.2475C15.6509 23.1624 15.6827 23.0934 15.7359 23.0348C15.8474 22.9181 16.0387 22.9181 16.1555 23.0348Z" fill="#E9E9FF"/>
<path d="M20.0443 23.2475V26.0682C20.0443 26.1746 20.0019 26.2703 19.9274 26.3448C19.8478 26.419 19.7575 26.4563 19.6512 26.4563H19.5928C19.529 26.4563 19.4706 26.4402 19.4121 26.4138C19.359 26.3819 19.3166 26.3448 19.2793 26.2968L17.59 23.8584V26.164C17.59 26.2491 17.5634 26.3181 17.505 26.3712C17.388 26.4828 17.1969 26.4828 17.0853 26.3712C17.0322 26.3181 17.0002 26.2436 17.0002 26.164V23.3378C17.0002 23.2315 17.0375 23.1412 17.1119 23.0667C17.1916 22.9871 17.2818 22.95 17.388 22.95H17.4519C17.5794 22.95 17.6856 23.0084 17.7759 23.1199L19.4547 25.5479V23.2475C19.4547 23.1625 19.4812 23.0935 19.5343 23.0348C19.6459 22.9233 19.8425 22.9181 19.954 23.0348C20.0125 23.0935 20.0443 23.1625 20.0443 23.2475Z" fill="#E9E9FF"/>
<path d="M15.1462 23.0298C15.2047 23.0881 15.2312 23.1574 15.2259 23.2422C15.2259 23.2635 15.2206 23.2954 15.21 23.3379L14.2803 26.1908C14.2484 26.2756 14.2005 26.3394 14.1422 26.3872C14.0784 26.4352 14.004 26.4564 13.9243 26.4564C13.8446 26.4564 13.7702 26.4297 13.7065 26.382C13.6374 26.334 13.595 26.265 13.5684 26.1854L12.883 24.0178L12.1978 26.1908C12.1765 26.265 12.1287 26.334 12.065 26.382C11.9321 26.4829 11.7515 26.4777 11.6294 26.3872C11.5655 26.3394 11.5231 26.2756 11.4912 26.1908L10.5615 23.3431C10.5509 23.2954 10.5456 23.2635 10.5456 23.237C10.5403 23.1574 10.5669 23.0881 10.6199 23.0298C10.7209 22.9289 10.8962 22.9182 11.013 23.0137C11.0662 23.0562 11.0981 23.1094 11.1193 23.1732L11.8418 25.5371L12.5644 23.1839C12.5803 23.1149 12.6227 23.0562 12.6865 23.0137C12.8034 22.9289 12.9681 22.9289 13.085 23.0137C13.1433 23.0562 13.1859 23.1149 13.2072 23.1839L13.9296 25.5371L14.6468 23.1732C14.6681 23.1094 14.7053 23.0562 14.753 23.0137C14.8699 22.9182 15.0506 22.9289 15.1462 23.0298Z" fill="#E9E9FF"/>
</svg>
