<svg width="21" height="18" viewBox="0 0 21 18" fill="none" xmlns="http://www.w3.org/2000/svg">
<path d="M19.7542 2.67021H17.4407V1.04255C17.4407 0.898659 17.3844 0.760659 17.2843 0.65891C17.1842 0.557162 17.0484 0.5 16.9068 0.5H4.09322C3.95162 0.5 3.81582 0.557162 3.7157 0.65891C3.61557 0.760659 3.55932 0.898659 3.55932 1.04255V2.67021H1.24576C0.915366 2.67021 0.598501 2.80359 0.364875 3.041C0.13125 3.27842 0 3.60042 0 3.93617V5.38298C0 6.29431 0.356249 7.16831 0.990376 7.81272C1.6245 8.45712 2.48456 8.81915 3.38136 8.81915H3.83873C4.23628 10.1919 5.03529 11.4093 6.12969 12.3097C7.2241 13.2101 8.56211 13.7509 9.9661 13.8604V16.4149H7.65254C7.51094 16.4149 7.37514 16.4721 7.27502 16.5738C7.17489 16.6756 7.11864 16.8136 7.11864 16.9574C7.11864 17.1013 7.17489 17.2393 7.27502 17.3411C7.37514 17.4428 7.51094 17.5 7.65254 17.5H13.3475C13.4891 17.5 13.6249 17.4428 13.725 17.3411C13.8251 17.2393 13.8814 17.1013 13.8814 16.9574C13.8814 16.8136 13.8251 16.6756 13.725 16.5738C13.6249 16.4721 13.4891 16.4149 13.3475 16.4149H11.0339V13.8604C13.9205 13.6325 16.3222 11.5726 17.1399 8.81915H17.6186C18.5154 8.81915 19.3755 8.45712 20.0096 7.81272C20.6438 7.16831 21 6.29431 21 5.38298V3.93617C21 3.60042 20.8687 3.27842 20.6351 3.041C20.4015 2.80359 20.0846 2.67021 19.7542 2.67021ZM3.38136 7.73404C2.76776 7.73404 2.1793 7.48634 1.74542 7.04543C1.31155 6.60452 1.0678 6.00652 1.0678 5.38298V3.93617C1.0678 3.88821 1.08655 3.84221 1.11992 3.80829C1.1533 3.77437 1.19856 3.75532 1.24576 3.75532H3.55932V6.82979C3.56022 7.13213 3.57953 7.43413 3.61716 7.73404H3.38136ZM16.3729 6.7484C16.3729 10.0598 13.7586 12.7735 10.5445 12.7979C9.76952 12.8038 9.00105 12.6539 8.28337 12.3566C7.5657 12.0594 6.91301 11.6207 6.36295 11.0659C5.81288 10.5111 5.3763 9.85121 5.07838 9.12417C4.78046 8.39712 4.6271 7.61735 4.62712 6.82979V1.58511H16.3729V6.7484ZM19.9322 5.38298C19.9322 6.00652 19.6885 6.60452 19.2546 7.04543C18.8207 7.48634 18.2322 7.73404 17.6186 7.73404H17.3722C17.4175 7.40751 17.4404 7.07817 17.4407 6.7484V3.75532H19.7542C19.8014 3.75532 19.8467 3.77437 19.8801 3.80829C19.9135 3.84221 19.9322 3.88821 19.9322 3.93617V5.38298Z" fill="#5F5F5F"/>
</svg>
