<svg width="31" height="30" viewBox="0 0 31 30" fill="none" xmlns="http://www.w3.org/2000/svg">
<path d="M15.4976 30C7.21456 30 0.497559 23.283 0.497559 15C0.497559 6.717 7.21456 0 15.4976 0C23.7806 0 30.4976 6.717 30.4976 15C30.4976 23.283 23.7806 30 15.4976 30Z" fill="#FF0000"/>
<path d="M25.0436 10.1735C24.8156 9.30947 24.1406 8.63147 23.2826 8.40047C21.7286 7.98047 15.5006 7.98047 15.5006 7.98047C15.5006 7.98047 9.2696 7.98047 7.7186 8.40047C6.8606 8.63147 6.1856 9.30947 5.9576 10.1735C5.5376 11.7365 5.5376 15.0005 5.5376 15.0005C5.5376 15.0005 5.5376 18.2645 5.9546 19.8275C6.1826 20.6915 6.8576 21.3695 7.7156 21.6005C9.2696 22.0205 15.4976 22.0205 15.4976 22.0205C15.4976 22.0205 21.7286 22.0205 23.2796 21.6005C24.1376 21.3695 24.8126 20.6915 25.0406 19.8275C25.4576 18.2645 25.4576 15.0005 25.4576 15.0005C25.4576 15.0005 25.4576 11.7365 25.0436 10.1735ZM13.4606 17.9615V12.0395L18.6656 15.0005L13.4606 17.9615Z" fill="white"/>
</svg>
