<svg width="30" height="31" viewBox="0 0 30 31" fill="none" xmlns="http://www.w3.org/2000/svg">
<path d="M13.2045 2.96316C13.3144 2.96316 13.4218 2.93058 13.5132 2.86953C13.6046 2.80849 13.6758 2.72172 13.7178 2.62021C13.7599 2.51869 13.7709 2.40699 13.7494 2.29922C13.728 2.19146 13.6751 2.09247 13.5974 2.01477C13.5197 1.93707 13.4207 1.88416 13.3129 1.86273C13.2052 1.84129 13.0935 1.85229 12.9919 1.89434C12.8904 1.93639 12.8037 2.0076 12.7426 2.09896C12.6816 2.19032 12.649 2.29773 12.649 2.40761C12.6492 2.5549 12.7077 2.69611 12.8119 2.80026C12.916 2.90441 13.0573 2.96299 13.2045 2.96316ZM13.2045 2.12983C13.2595 2.12983 13.3132 2.14612 13.3589 2.17664C13.4045 2.20717 13.4402 2.25055 13.4612 2.30131C13.4822 2.35206 13.4877 2.40791 13.477 2.4618C13.4663 2.51568 13.4398 2.56518 13.401 2.60403C13.3621 2.64287 13.3126 2.66933 13.2587 2.68005C13.2049 2.69077 13.149 2.68526 13.0982 2.66424C13.0475 2.64322 13.0041 2.60761 12.9736 2.56193C12.9431 2.51625 12.9268 2.46255 12.9268 2.40761C12.9268 2.33396 12.9561 2.26335 13.0082 2.21127C13.0603 2.15919 13.1309 2.1299 13.2045 2.12983Z" fill="#337265"/>
<path d="M28.2046 12.2222C28.1313 12.2222 28.0597 12.2439 27.9988 12.2846C27.9379 12.3253 27.8905 12.3831 27.8624 12.4508C27.8344 12.5185 27.8271 12.5929 27.8413 12.6648C27.8556 12.7366 27.8909 12.8026 27.9427 12.8544C27.9945 12.9062 28.0605 12.9415 28.1323 12.9558C28.2042 12.9701 28.2787 12.9627 28.3463 12.9347C28.414 12.9067 28.4719 12.8592 28.5126 12.7983C28.5532 12.7374 28.575 12.6658 28.575 12.5925C28.5749 12.4943 28.5358 12.4002 28.4664 12.3308C28.3969 12.2613 28.3028 12.2223 28.2046 12.2222ZM28.2046 12.7777C28.168 12.7777 28.1322 12.7669 28.1017 12.7465C28.0713 12.7262 28.0475 12.6972 28.0335 12.6634C28.0195 12.6296 28.0158 12.5923 28.023 12.5564C28.0301 12.5205 28.0478 12.4875 28.0737 12.4616C28.0996 12.4357 28.1325 12.4181 28.1685 12.4109C28.2044 12.4038 28.2416 12.4074 28.2755 12.4214C28.3093 12.4355 28.3382 12.4592 28.3586 12.4897C28.3789 12.5201 28.3898 12.5559 28.3898 12.5925C28.3897 12.6416 28.3702 12.6887 28.3355 12.7234C28.3008 12.7581 28.2537 12.7777 28.2046 12.7777Z" fill="#337265"/>
<path d="M19.686 0C19.6128 0 19.5412 0.0217218 19.4803 0.0624186C19.4194 0.103115 19.3719 0.160959 19.3439 0.228636C19.3158 0.296312 19.3085 0.370781 19.3228 0.442626C19.3371 0.514471 19.3724 0.580465 19.4242 0.632262C19.476 0.684059 19.5419 0.719333 19.6138 0.733624C19.6856 0.747915 19.7601 0.74058 19.8278 0.712548C19.8955 0.684516 19.9533 0.637044 19.994 0.576137C20.0347 0.51523 20.0564 0.443623 20.0564 0.37037C20.0563 0.272176 20.0172 0.178037 19.9478 0.108603C19.8784 0.0391693 19.7842 0.000112239 19.686 0ZM19.686 0.555556C19.6494 0.555556 19.6136 0.544695 19.5832 0.524346C19.5527 0.503998 19.529 0.475076 19.515 0.441238C19.5009 0.407399 19.4973 0.370165 19.5044 0.334243C19.5116 0.29832 19.5292 0.265323 19.5551 0.239425C19.581 0.213526 19.614 0.195889 19.6499 0.188743C19.6858 0.181598 19.7231 0.185265 19.7569 0.199282C19.7907 0.213298 19.8197 0.237033 19.84 0.267487C19.8604 0.297941 19.8712 0.333744 19.8712 0.37037C19.8712 0.419469 19.8517 0.466544 19.8169 0.501262C19.7822 0.53598 19.7351 0.555507 19.686 0.555556Z" fill="#337265"/>
<path d="M5.2416 5.55592C5.2416 5.48267 5.21987 5.41106 5.17918 5.35015C5.13848 5.28924 5.08064 5.24177 5.01296 5.21374C4.94528 5.18571 4.87081 5.17837 4.79897 5.19266C4.72712 5.20695 4.66113 5.24223 4.60933 5.29403C4.55754 5.34582 4.52226 5.41182 4.50797 5.48366C4.49368 5.55551 4.50101 5.62998 4.52905 5.69765C4.55708 5.76533 4.60455 5.82317 4.66546 5.86387C4.72637 5.90457 4.79797 5.92629 4.87123 5.92629C4.96942 5.92618 5.06356 5.88712 5.13299 5.81768C5.20243 5.74825 5.24148 5.65411 5.2416 5.55592ZM4.68604 5.55592C4.68604 5.51929 4.6969 5.48349 4.71725 5.45303C4.7376 5.42258 4.76652 5.39884 4.80036 5.38483C4.8342 5.37081 4.87143 5.36715 4.90735 5.37429C4.94328 5.38144 4.97627 5.39907 5.00217 5.42497C5.02807 5.45087 5.04571 5.48387 5.05285 5.51979C5.06 5.55571 5.05633 5.59295 5.04231 5.62678C5.0283 5.66062 5.00456 5.68955 4.97411 5.70989C4.94365 5.73024 4.90785 5.7411 4.87123 5.7411C4.82213 5.74105 4.77505 5.72153 4.74033 5.68681C4.70561 5.65209 4.68609 5.60502 4.68604 5.55592Z" fill="#337265"/>
<path d="M0.9052 12.2247L1.18057 11.8627L1.00668 11.7642L0.82983 12.1697H0.824089L0.644459 11.7669L0.467607 11.8684L0.740015 12.2219V12.2277L0.313904 12.1727V12.3697L0.742793 12.3147V12.3205L0.467607 12.6738L0.632608 12.7782L0.821126 12.3697H0.826867L1.00076 12.7753L1.18335 12.671L0.9052 12.3232V12.3175L1.34261 12.3697V12.1727L0.9052 12.2305V12.2247Z" fill="#E26F64"/>
<path d="M27.6491 8.28041V8.08726L27.22 8.14412V8.13838L27.49 7.78319L27.3195 7.68652L27.1461 8.0843H27.1404L26.9643 7.6893L26.7908 7.78893L27.058 8.1356V8.14134L26.64 8.08726V8.28041L27.0608 8.22652V8.23226L26.7908 8.57893L26.9528 8.68134L27.1376 8.28041H27.1432L27.3137 8.67838L27.4928 8.57615L27.22 8.23504V8.2293L27.6491 8.28041Z" fill="#E26F64"/>
<path d="M22.3607 3.81267L22.5937 3.50618L22.4465 3.42285L22.297 3.766H22.292L22.1402 3.42526L21.9904 3.51118L22.2209 3.81026V3.81507L21.8605 3.76859V3.93526L22.2233 3.88859V3.89359L21.9904 4.19267L22.1302 4.281L22.2896 3.93526H22.2944L22.4416 4.27841L22.5961 4.19026L22.3607 3.896V3.891L22.7307 3.93526V3.76859L22.3607 3.81748V3.81267Z" fill="#E26F64"/>
<path d="M0.925926 26.8521H0.37037C0.272142 26.8521 0.177937 26.8911 0.108479 26.9605C0.039021 27.03 0 27.1242 0 27.2224C0 27.3206 0.039021 27.4149 0.108479 27.4843C0.177937 27.5538 0.272142 27.5928 0.37037 27.5928H0.925926C1.02415 27.5928 1.11836 27.5538 1.18782 27.4843C1.25728 27.4149 1.2963 27.3206 1.2963 27.2224C1.2963 27.1242 1.25728 27.03 1.18782 26.9605C1.11836 26.8911 1.02415 26.8521 0.925926 26.8521Z" fill="#337265"/>
<path d="M28.5185 26.8521H27.963C27.8647 26.8521 27.7705 26.8911 27.7011 26.9605C27.6316 27.03 27.5926 27.1242 27.5926 27.2224C27.5926 27.3206 27.6316 27.4149 27.7011 27.4843C27.7705 27.5538 27.8647 27.5928 27.963 27.5928H28.5185C28.6167 27.5928 28.711 27.5538 28.7804 27.4843C28.8499 27.4149 28.8889 27.3206 28.8889 27.2224C28.8889 27.1242 28.8499 27.03 28.7804 26.9605C28.711 26.8911 28.6167 26.8521 28.5185 26.8521Z" fill="#337265"/>
<path d="M29.6296 27.5928C29.8342 27.5928 30 27.427 30 27.2224C30 27.0179 29.8342 26.8521 29.6296 26.8521C29.4251 26.8521 29.2593 27.0179 29.2593 27.2224C29.2593 27.427 29.4251 27.5928 29.6296 27.5928Z" fill="#337265"/>
<path d="M20.7693 28.3335H19.2308C19.1377 28.341 19.0508 28.3832 18.9875 28.4518C18.9241 28.5205 18.8889 28.6105 18.8889 28.7039C18.8889 28.7973 18.9241 28.8873 18.9875 28.9559C19.0508 29.0245 19.1377 29.0668 19.2308 29.0742H20.7693C20.8624 29.0668 20.9493 29.0245 21.0126 28.9559C21.076 28.8873 21.1111 28.7973 21.1111 28.7039C21.1111 28.6105 21.076 28.5205 21.0126 28.4518C20.9493 28.3832 20.8624 28.341 20.7693 28.3335Z" fill="#E26F64"/>
<path d="M9.65812 28.3335H8.11965C8.02654 28.341 7.93966 28.3832 7.87631 28.4518C7.81295 28.5205 7.77777 28.6105 7.77777 28.7039C7.77777 28.7973 7.81295 28.8873 7.87631 28.9559C7.93966 29.0245 8.02654 29.0668 8.11965 29.0742H9.65812C9.75123 29.0668 9.83811 29.0245 9.90147 28.9559C9.96482 28.8873 10 28.7973 10 28.7039C10 28.6105 9.96482 28.5205 9.90147 28.4518C9.83811 28.3832 9.75123 28.341 9.65812 28.3335Z" fill="#E26F64"/>
<path d="M18.1481 28.3335H10.7407C10.6425 28.3335 10.5483 28.3725 10.4788 28.442C10.4094 28.5114 10.3704 28.6056 10.3704 28.7039C10.3704 28.8021 10.4094 28.8963 10.4788 28.9658C10.5483 29.0352 10.6425 29.0742 10.7407 29.0742H13.6926V29.4446H12.2222C12.124 29.4446 12.0298 29.4836 11.9603 29.5531C11.8909 29.6225 11.8518 29.7167 11.8518 29.815C11.8518 29.9132 11.8909 30.0074 11.9603 30.0769C12.0298 30.1463 12.124 30.1853 12.2222 30.1853H16.8518C16.9501 30.1853 17.0443 30.1463 17.1137 30.0769C17.1832 30.0074 17.2222 29.9132 17.2222 29.815C17.2222 29.7167 17.1832 29.6225 17.1137 29.5531C17.0443 29.4836 16.9501 29.4446 16.8518 29.4446H15.1963V29.0742H18.1481C18.2464 29.0742 18.3406 29.0352 18.41 28.9658C18.4795 28.8963 18.5185 28.8021 18.5185 28.7039C18.5185 28.6056 18.4795 28.5114 18.41 28.442C18.3406 28.3725 18.2464 28.3335 18.1481 28.3335Z" fill="#E26F64"/>
<path d="M12.0096 10.391L11.6009 9.99581C11.601 9.98263 11.604 9.96963 11.6098 9.95776C11.6155 9.9459 11.6239 9.93548 11.6342 9.92727L11.9561 9.61352C11.9677 9.60038 11.9824 9.5903 11.9989 9.58416C12.0153 9.57802 12.033 9.57602 12.0504 9.57833L12.462 9.97881C12.5215 10.0366 12.5985 10.0727 12.6809 10.0816C12.7633 10.0905 12.8463 10.0715 12.9167 10.0277C13.1991 9.85148 13.5102 9.72607 13.8359 9.65718C13.919 9.63961 13.9935 9.59403 14.047 9.52808C14.1005 9.46212 14.1297 9.37979 14.1297 9.29487L14.1279 8.73725C14.1392 8.72533 14.153 8.71613 14.1684 8.71031C14.1838 8.7045 14.2003 8.70224 14.2167 8.70368H14.6729C14.7036 8.70371 14.7336 8.71226 14.7596 8.72837V9.29487C14.7597 9.3798 14.7889 9.46214 14.8424 9.5281C14.8959 9.59406 14.9704 9.63963 15.0535 9.65718C15.3793 9.72611 15.6904 9.85155 15.9728 10.0278C16.0432 10.0716 16.1261 10.0906 16.2085 10.0817C16.2909 10.0729 16.3679 10.0367 16.4273 9.9789L16.8383 9.57908C16.8557 9.57604 16.8735 9.57756 16.8901 9.58348C16.9066 9.58941 16.9214 9.59954 16.9328 9.61288L17.2558 9.92746C17.2739 9.94424 17.2863 9.96632 17.2912 9.99057L16.8796 10.3914C16.8179 10.4515 16.7791 10.5311 16.7698 10.6166C16.7606 10.7022 16.7814 10.7883 16.8287 10.8602C17.0075 11.1308 17.1358 11.4316 17.2072 11.748C17.2257 11.8301 17.2716 11.9034 17.3374 11.9559C17.4031 12.0084 17.4847 12.037 17.5688 12.037H18.1506C18.2488 12.037 18.343 11.998 18.4125 11.9285C18.4819 11.8591 18.521 11.7649 18.521 11.6666C18.521 11.5684 18.4819 11.4742 18.4125 11.4048C18.343 11.3353 18.2488 11.2963 18.1506 11.2963H17.8518C17.7879 11.0964 17.7056 10.9029 17.6061 10.7182L17.8085 10.5211C17.8792 10.4521 17.9353 10.3696 17.9733 10.2784C18.0114 10.1873 18.0306 10.0894 18.0299 9.99057C18.0286 9.87954 18.0052 9.76987 17.9611 9.66795C17.9171 9.56604 17.8531 9.47392 17.7731 9.39697L17.4497 9.08193C17.3024 8.9321 17.103 8.84489 16.893 8.83847C16.683 8.83205 16.4786 8.90692 16.3224 9.04747L16.1097 9.25418C15.9148 9.15359 15.711 9.07111 15.5009 9.00778V8.72837C15.4921 8.51726 15.4 8.31825 15.2449 8.17482C15.0897 8.03139 14.8841 7.95521 14.6729 7.96294H14.2167C14.0055 7.95518 13.7998 8.03133 13.6446 8.17476C13.4894 8.31819 13.3973 8.51723 13.3884 8.72837V9.00777C13.1784 9.0711 12.9747 9.15355 12.7797 9.25409L12.5675 9.04755C12.4111 8.90703 12.2065 8.83224 11.9963 8.83876C11.7862 8.84528 11.5866 8.9326 11.4392 9.08255L11.1173 9.3964C11.037 9.47324 10.9729 9.56529 10.9286 9.66718C10.8843 9.76907 10.8607 9.87876 10.8593 9.98985C10.8584 10.0888 10.8775 10.1869 10.9155 10.2782C10.9535 10.3695 11.0096 10.4523 11.0804 10.5213L11.2833 10.7184C11.1838 10.903 11.1015 11.0965 11.0377 11.2963H10.7383C10.6401 11.2963 10.5459 11.3353 10.4764 11.4048C10.4069 11.4742 10.3679 11.5684 10.3679 11.6666C10.3679 11.7649 10.4069 11.8591 10.4764 11.9285C10.5459 11.998 10.6401 12.037 10.7383 12.037H11.3209C11.4051 12.037 11.4867 12.0084 11.5525 11.9558C11.6182 11.9032 11.6641 11.8298 11.6826 11.7477C11.7537 11.4313 11.8819 11.1306 12.0608 10.8603C12.1082 10.7883 12.1291 10.7021 12.1197 10.6164C12.1104 10.5308 12.0714 10.4511 12.0096 10.391Z" fill="#337265"/>
<path d="M13.1472 6.66701H15.7416C15.8399 6.66701 15.9341 6.62799 16.0035 6.55853C16.073 6.48907 16.112 6.39487 16.112 6.29664C16.112 6.19841 16.073 6.10421 16.0035 6.03475C15.9341 5.96529 15.8399 5.92627 15.7416 5.92627H13.1472C13.049 5.92627 12.9548 5.96529 12.8853 6.03475C12.8159 6.10421 12.7769 6.19841 12.7769 6.29664C12.7769 6.39487 12.8159 6.48907 12.8853 6.55853C12.9548 6.62799 13.049 6.66701 13.1472 6.66701Z" fill="#E26F64"/>
<path d="M15.2535 23.2242C15.0133 23.2884 14.7662 23.3238 14.5176 23.3296L14.9852 25.4197L14.4611 25.7394C14.4547 25.7412 14.4407 25.7412 14.4486 25.7463L13.8996 25.4131L14.2886 23.3254C14.0409 23.314 13.7954 23.2733 13.5572 23.2041L13.162 25.3252C13.1357 25.4591 13.1515 25.5979 13.2072 25.7225C13.263 25.8471 13.3559 25.9514 13.4733 26.021L14.0634 26.3792C14.1804 26.4458 14.3128 26.4808 14.4474 26.4808C14.5821 26.4809 14.7144 26.446 14.8315 26.3795L15.4224 26.0209C15.5409 25.9498 15.6338 25.8428 15.6874 25.7154C15.741 25.588 15.7527 25.4468 15.7207 25.3123L15.2535 23.2242Z" fill="#337265"/>
<path d="M14.4444 17.7778C13.9683 17.7782 13.5031 17.9196 13.1074 18.1843C12.7117 18.4491 12.4034 18.8252 12.2214 19.2651C12.0395 19.705 11.992 20.189 12.0851 20.6559C12.1782 21.1228 12.4076 21.5516 12.7443 21.8881C13.0811 22.2246 13.51 22.4537 13.977 22.5465C14.4439 22.6393 14.9279 22.5915 15.3677 22.4092C15.8075 22.227 16.1834 21.9184 16.4478 21.5226C16.7123 21.1267 16.8535 20.6613 16.8535 20.1852C16.8531 19.5466 16.5991 18.9342 16.1474 18.4828C15.6956 18.0313 15.0831 17.7778 14.4444 17.7778ZM14.4444 21.8519C14.1148 21.8517 13.7927 21.7538 13.5188 21.5705C13.2448 21.3872 13.0314 21.1268 12.9054 20.8223C12.7794 20.5177 12.7466 20.1826 12.811 19.8594C12.8754 19.5362 13.0343 19.2393 13.2674 19.0063C13.5005 18.7734 13.7975 18.6147 14.1208 18.5505C14.444 18.4863 14.7791 18.5194 15.0836 18.6455C15.3881 18.7717 15.6483 18.9853 15.8314 19.2594C16.0145 19.5335 16.1122 19.8557 16.1122 20.1852C16.1115 20.6273 15.9356 21.051 15.6229 21.3634C15.3103 21.6759 14.8864 21.8515 14.4444 21.8519Z" fill="#337265"/>
<path d="M14.0738 14.0744V15.3707C14.074 15.4689 14.1132 15.5629 14.1826 15.6323C14.2521 15.7016 14.3463 15.7405 14.4444 15.7405C14.5426 15.7405 14.6368 15.7016 14.7062 15.6323C14.7757 15.5629 14.8149 15.4689 14.8151 15.3707V14.0744C14.8149 13.9763 14.7757 13.8822 14.7062 13.8129C14.6368 13.7435 14.5426 13.7046 14.4444 13.7046C14.3463 13.7046 14.2521 13.7435 14.1826 13.8129C14.1132 13.8822 14.074 13.9763 14.0738 14.0744Z" fill="#E26F64"/>
<path d="M12.5913 14.0742V16.2965C12.5913 16.3948 12.6304 16.489 12.6999 16.5586C12.7694 16.6281 12.8636 16.6671 12.9619 16.6671C13.0602 16.6671 13.1545 16.6281 13.224 16.5586C13.2935 16.489 13.3326 16.3948 13.3326 16.2965V14.0742C13.3326 13.976 13.2935 13.8817 13.224 13.8122C13.1545 13.7427 13.0602 13.7036 12.9619 13.7036C12.8636 13.7036 12.7694 13.7427 12.6999 13.8122C12.6304 13.8817 12.5913 13.976 12.5913 14.0742Z" fill="#337265"/>
<path d="M15.5563 14.0742V16.2965C15.5563 16.3948 15.5953 16.489 15.6648 16.5586C15.7343 16.6281 15.8286 16.6671 15.9269 16.6671C16.0252 16.6671 16.1195 16.6281 16.189 16.5586C16.2585 16.489 16.2975 16.3948 16.2975 16.2965V14.0742C16.2975 13.976 16.2585 13.8817 16.189 13.8122C16.1195 13.7427 16.0252 13.7036 15.9269 13.7036C15.8286 13.7036 15.7343 13.7427 15.6648 13.8122C15.5953 13.8817 15.5563 13.976 15.5563 14.0742Z" fill="#337265"/>
<path d="M21.7191 17.0408C21.6709 17.1265 21.6588 17.2278 21.6853 17.3224C21.7119 17.417 21.7749 17.4973 21.8606 17.5454C21.9462 17.5936 22.0475 17.6057 22.1422 17.5792C22.2368 17.5527 22.317 17.4896 22.3652 17.404C23.2905 15.7598 22.4033 14.1458 22.3652 14.0778C22.3169 13.9925 22.2369 13.9298 22.1425 13.9034C22.0481 13.8769 21.9471 13.889 21.8615 13.9369C21.776 13.9848 21.713 14.0646 21.6861 14.1588C21.6593 14.2531 21.6709 14.3542 21.7185 14.4399C21.9165 14.8318 22.0269 15.262 22.0421 15.7008V15.8928C22.0281 16.2959 21.9174 16.6896 21.7191 17.0408Z" fill="#E26F64"/>
<path d="M6.52371 17.4038C6.57186 17.4895 6.65208 17.5525 6.74671 17.579C6.84134 17.6056 6.94264 17.5934 7.02831 17.5453C7.11399 17.4971 7.17702 17.4169 7.20355 17.3223C7.23008 17.2276 7.21793 17.1263 7.16977 17.0406C6.97162 16.6896 6.86084 16.296 6.8468 15.8931V15.6954C6.86264 15.2584 6.97301 14.8301 7.17031 14.4399C7.21819 14.3542 7.23008 14.253 7.20337 14.1585C7.17667 14.064 7.11355 13.9839 7.02788 13.936C6.94221 13.888 6.841 13.8759 6.74647 13.9025C6.65194 13.9291 6.57182 13.9921 6.5237 14.0777C6.48556 14.1456 5.59834 15.7597 6.52371 17.4038Z" fill="#E26F64"/>
<path d="M5.92049 19.2596C5.99014 19.2596 6.05837 19.2399 6.11736 19.2029C6.17634 19.1659 6.22369 19.113 6.25397 19.0503C6.28425 18.9875 6.29623 18.9176 6.28853 18.8483C6.28084 18.7791 6.25379 18.7135 6.21048 18.6589C3.92695 15.7853 6.11653 12.9423 6.21085 12.8227C6.27186 12.7457 6.29977 12.6476 6.28844 12.55C6.27712 12.4524 6.22748 12.3632 6.15045 12.3022C6.07343 12.2412 5.97532 12.2133 5.87771 12.2246C5.7801 12.236 5.691 12.2856 5.62999 12.3626C5.60321 12.3964 2.97599 15.7797 5.62999 19.1196C5.66469 19.1633 5.70886 19.1987 5.75917 19.2229C5.80948 19.2472 5.86464 19.2597 5.92049 19.2596Z" fill="#337265"/>
<path d="M22.6784 18.6587C22.6482 18.6968 22.6257 18.7405 22.6124 18.7873C22.599 18.8341 22.595 18.883 22.6006 18.9314C22.6061 18.9797 22.6212 19.0265 22.6448 19.069C22.6685 19.1115 22.7002 19.149 22.7384 19.1792C22.7765 19.2095 22.8202 19.2319 22.867 19.2453C22.9138 19.2586 22.9627 19.2627 23.0111 19.2571C23.0594 19.2515 23.1062 19.2365 23.1487 19.2129C23.1912 19.1892 23.2287 19.1574 23.2589 19.1193C25.9129 15.7795 23.2857 12.3961 23.2589 12.3624C23.1978 12.2854 23.1087 12.2358 23.0111 12.2246C22.9134 12.2134 22.8153 12.2414 22.7384 12.3024C22.6614 12.3635 22.6118 12.4527 22.6006 12.5503C22.5893 12.6479 22.6173 12.746 22.6784 12.823C22.7017 12.8522 24.9706 15.7742 22.6784 18.6587Z" fill="#337265"/>
<path d="M16.6681 12.0371C16.6681 11.9388 16.629 11.8446 16.5595 11.7752C16.49 11.7057 16.3958 11.6667 16.2976 11.6667H14.8151V10.926C14.8149 10.8278 14.7757 10.7338 14.7062 10.6644C14.6368 10.5951 14.5426 10.5562 14.4444 10.5562C14.3463 10.5562 14.2521 10.5951 14.1826 10.6644C14.1132 10.7338 14.074 10.8278 14.0738 10.926V12.0371C14.0738 12.0857 14.0834 12.1339 14.102 12.1789C14.1207 12.2238 14.148 12.2646 14.1824 12.299C14.2168 12.3334 14.2577 12.3607 14.3026 12.3793C14.3476 12.3979 14.3958 12.4075 14.4444 12.4075H16.2975C16.3958 12.4075 16.49 12.3685 16.5595 12.299C16.629 12.2296 16.6681 12.1353 16.6681 12.0371Z" fill="#337265"/>
<path d="M26.8003 26.8521H20.5545C20.7978 26.5328 20.9298 26.1425 20.9303 25.741V5.74101C20.9287 5.25014 20.7329 4.77986 20.3857 4.43288C20.0385 4.0859 19.568 3.89043 19.0772 3.88916H9.81175C9.32089 3.89043 8.85047 4.0859 8.50325 4.43288C8.15604 4.77986 7.96025 5.25014 7.95865 5.74101V25.741C7.9591 26.1425 8.09107 26.5328 8.33438 26.8521H2.08866C2.03597 26.8452 1.98242 26.8497 1.93158 26.8651C1.88074 26.8806 1.83379 26.9067 1.79385 26.9418C1.75392 26.9768 1.72192 27.02 1.7 27.0684C1.67809 27.1168 1.66675 27.1694 1.66675 27.2225C1.66675 27.2756 1.67809 27.3282 1.7 27.3766C1.72192 27.425 1.75392 27.4681 1.79385 27.5032C1.83379 27.5383 1.88074 27.5644 1.93158 27.5798C1.98242 27.5953 2.03597 27.5997 2.08866 27.5929H26.8003C26.8529 27.5997 26.9065 27.5953 26.9573 27.5798C27.0082 27.5644 27.0551 27.5383 27.0951 27.5032C27.135 27.4681 27.167 27.425 27.1889 27.3766C27.2108 27.3282 27.2222 27.2756 27.2222 27.2225C27.2222 27.1694 27.2108 27.1168 27.1889 27.0684C27.167 27.02 27.135 26.9768 27.0951 26.9418C27.0551 26.9067 27.0082 26.8806 26.9573 26.8651C26.9065 26.8497 26.8529 26.8452 26.8003 26.8521ZM10.1823 26.8521V26.4988C10.1823 24.7494 11.15 23.2901 12.5506 22.6952C12.338 22.5352 12.1463 22.3491 11.9803 22.1411C10.4647 22.9138 9.44109 24.5551 9.44109 26.4988V26.7873C9.22466 26.7107 9.03723 26.5691 8.90452 26.3817C8.77182 26.1944 8.70035 25.9706 8.69992 25.741V5.74101C8.70033 5.44633 8.81762 5.16384 9.02606 4.95554C9.23451 4.74723 9.51707 4.63012 9.81175 4.6299H19.0772C19.3718 4.63012 19.6544 4.74723 19.8629 4.95554C20.0713 5.16384 20.1886 5.44633 20.189 5.74101V25.741C20.1886 25.9706 20.1171 26.1944 19.9844 26.3817C19.8517 26.5691 19.6642 26.7107 19.4478 26.7873V26.4988C19.4478 24.5554 18.4242 22.9143 16.9084 22.1415C16.7422 22.3494 16.5506 22.5355 16.3379 22.6955C17.7388 23.2906 18.7066 24.7497 18.7066 26.4988V26.8521H10.1823Z" fill="#337265"/>
</svg>
