<svg width="17" height="20" viewBox="0 0 17 20" fill="none" xmlns="http://www.w3.org/2000/svg">
<path fill-rule="evenodd" clip-rule="evenodd" d="M15.887 19.8498H4.72145C4.17869 19.8498 3.67469 19.3846 3.67469 18.803V11.9021C3.67469 11.747 3.82976 11.6307 3.94607 11.6307C4.10115 11.6307 4.25623 11.747 4.25623 11.9021V18.803C4.25623 19.0744 4.45007 19.307 4.76022 19.307H15.887C16.1971 19.307 16.391 19.0744 16.391 18.803V1.04677C16.391 0.775383 16.1971 0.542768 15.887 0.542768H4.72145C4.45007 0.542768 4.21746 0.775383 4.21746 1.04677V5.54399C4.21746 5.69906 4.10115 5.81537 3.94607 5.81537C3.82976 5.81537 3.67469 5.69906 3.67469 5.54399V1.04677C3.67469 0.46523 4.17869 0 4.72145 0H15.887C16.4685 0 16.9337 0.46523 16.9337 1.04677V18.803C16.9337 19.3846 16.4685 19.8498 15.887 19.8498Z" fill="#337265"/>
<path fill-rule="evenodd" clip-rule="evenodd" d="M16.6623 2.71464H3.94607C3.82976 2.71464 3.67469 2.59834 3.67469 2.44326C3.67469 2.28818 3.82976 2.17188 3.94607 2.17188H16.6623C16.8174 2.17188 16.9337 2.28818 16.9337 2.44326C16.9337 2.59834 16.8174 2.71464 16.6623 2.71464Z" fill="#337265"/>
<path fill-rule="evenodd" clip-rule="evenodd" d="M11.3122 1.62871H9.29621C9.1799 1.62871 9.02483 1.5124 9.02483 1.35732C9.02483 1.20224 9.1799 1.08594 9.29621 1.08594H11.3122C11.4673 1.08594 11.5836 1.20224 11.5836 1.35732C11.5836 1.5124 11.4673 1.62871 11.3122 1.62871Z" fill="#337265"/>
<path fill-rule="evenodd" clip-rule="evenodd" d="M11.3122 18.4539H9.29621C9.1799 18.4539 9.02483 18.3376 9.02483 18.1825C9.02483 18.0274 9.1799 17.9111 9.29621 17.9111H11.3122C11.4673 17.9111 11.5836 18.0274 11.5836 18.1825C11.5836 18.3376 11.4673 18.4539 11.3122 18.4539Z" fill="#337265"/>
<path fill-rule="evenodd" clip-rule="evenodd" d="M14.026 8.83902H9.37375C9.02483 8.83902 8.67591 8.52886 8.67591 8.14117V5.03964C8.67591 4.65195 9.02483 4.3418 9.37375 4.3418H14.026C14.4137 4.3418 14.7239 4.65195 14.7239 5.03964V8.14117C14.7239 8.52886 14.4137 8.83902 14.026 8.83902ZM9.37375 4.88456C9.29621 4.88456 9.21867 4.9621 9.21867 5.03964V8.14117C9.21867 8.21871 9.29621 8.29625 9.37375 8.29625H14.026C14.1424 8.29625 14.1811 8.21871 14.1811 8.14117V5.03964C14.1811 4.9621 14.1424 4.88456 14.026 4.88456H9.37375Z" fill="#337265"/>
<path fill-rule="evenodd" clip-rule="evenodd" d="M13.367 6.24199H10.0716C9.95529 6.24199 9.80021 6.12568 9.80021 5.9706C9.80021 5.81553 9.95529 5.69922 10.0716 5.69922H13.367C13.522 5.69922 13.6384 5.81553 13.6384 5.9706C13.6384 6.12568 13.522 6.24199 13.367 6.24199Z" fill="#337265"/>
<path fill-rule="evenodd" clip-rule="evenodd" d="M13.367 7.52128H10.0716C9.95529 7.52128 9.80021 7.40498 9.80021 7.2499C9.80021 7.09482 9.95529 6.97852 10.0716 6.97852H13.367C13.522 6.97852 13.6384 7.09482 13.6384 7.2499C13.6384 7.40498 13.522 7.52128 13.367 7.52128Z" fill="#337265"/>
<path fill-rule="evenodd" clip-rule="evenodd" d="M14.026 15.6242H9.37375C9.02483 15.6242 8.67591 15.314 8.67591 14.9263V11.8248C8.67591 11.4371 9.02483 11.127 9.37375 11.127H14.026C14.4137 11.127 14.7239 11.4371 14.7239 11.8248V14.9263C14.7239 15.314 14.4137 15.6242 14.026 15.6242ZM9.37375 11.6697C9.29621 11.6697 9.21867 11.7473 9.21867 11.8248V14.9263C9.21867 15.0039 9.29621 15.0814 9.37375 15.0814H14.026C14.1424 15.0814 14.1811 15.0039 14.1811 14.9263V11.8248C14.1811 11.7473 14.1424 11.6697 14.026 11.6697H9.37375Z" fill="#337265"/>
<path fill-rule="evenodd" clip-rule="evenodd" d="M13.367 13.0262H10.0716C9.95529 13.0262 9.80021 12.9099 9.80021 12.7548C9.80021 12.5997 9.95529 12.4834 10.0716 12.4834H13.367C13.522 12.4834 13.6384 12.5997 13.6384 12.7548C13.6384 12.9099 13.522 13.0262 13.367 13.0262Z" fill="#337265"/>
<path fill-rule="evenodd" clip-rule="evenodd" d="M13.367 14.2674H10.0716C9.95529 14.2674 9.80021 14.1511 9.80021 13.996C9.80021 13.8409 9.95529 13.7246 10.0716 13.7246H13.367C13.522 13.7246 13.6384 13.8409 13.6384 13.996C13.6384 14.1511 13.522 14.2674 13.367 14.2674Z" fill="#337265"/>
<path fill-rule="evenodd" clip-rule="evenodd" d="M6.0396 13.6075C6.00083 13.6075 5.9233 13.5688 5.84576 13.53L4.60515 12.1731H1.15469C0.767002 12.1731 0.379311 11.8242 0.379311 11.3977V6.04755C0.379311 5.62109 0.767002 5.27217 1.15469 5.27217L7.28022 5.2334C7.70668 5.2334 8.0556 5.58232 8.0556 6.00878V11.3589C8.0556 11.7854 7.70668 12.1343 7.28022 12.1343H6.31099V13.3361C6.31099 13.4525 6.27222 13.53 6.15591 13.5688C6.11714 13.6075 6.07837 13.6075 6.0396 13.6075ZM7.28022 5.77617L1.15469 5.81494C1.03839 5.81494 0.922078 5.93124 0.922078 6.04755V11.3977C0.922078 11.514 1.03839 11.6303 1.15469 11.6303H4.72145C4.79899 11.6303 4.87653 11.6691 4.95407 11.7078L5.76822 12.6383V11.8629C5.76822 11.7078 5.9233 11.5915 6.0396 11.5915H7.28022C7.43529 11.5915 7.51283 11.4752 7.51283 11.3589V6.00878C7.51283 5.89247 7.43529 5.77617 7.28022 5.77617Z" fill="#E26F64"/>
<path fill-rule="evenodd" clip-rule="evenodd" d="M6.00083 11.1659C5.9233 11.1659 5.80699 11.0884 5.76822 11.0108L3.98484 6.59114C3.94607 6.43606 3.98484 6.28098 4.13992 6.20344C4.25622 6.16468 4.45007 6.24221 4.48884 6.35852L6.27222 10.7782C6.31099 10.9333 6.27222 11.0884 6.11714 11.1271C6.07837 11.1659 6.0396 11.1659 6.00083 11.1659Z" fill="#E26F64"/>
<path fill-rule="evenodd" clip-rule="evenodd" d="M2.43408 11.2046C2.43408 11.2046 2.39531 11.2046 2.35654 11.1658C2.20146 11.1271 2.16269 10.972 2.20146 10.8169L3.98484 6.35846C4.02361 6.24215 4.21746 6.16461 4.33376 6.24215C4.48884 6.28092 4.52761 6.43599 4.48884 6.59107L2.70546 11.0495C2.66669 11.1271 2.55038 11.2046 2.43408 11.2046Z" fill="#E26F64"/>
<path fill-rule="evenodd" clip-rule="evenodd" d="M5.34176 9.57597H3.09315C2.97684 9.57597 2.82176 9.45966 2.82176 9.30459C2.82176 9.14951 2.97684 9.0332 3.09315 9.0332H5.34176C5.49683 9.0332 5.65191 9.14951 5.65191 9.30459C5.65191 9.45966 5.49683 9.57597 5.34176 9.57597Z" fill="#E26F64"/>
</svg>
