<svg width="33" height="34" viewBox="0 0 33 34" fill="none" xmlns="http://www.w3.org/2000/svg">
<path d="M3.50625 31.9738H13.257V29.9357L13.6861 29.5908L14.5857 30.4187L15.7683 29.5615L16.6998 30.3776L18.1693 29.4958L19.4153 30.3402L20.557 29.6752V31.9732H31.1953V24.4644H32.6133V16.4775H26.7005V4.53191C26.6998 3.86737 26.4355 3.23026 25.9656 2.76036C25.4957 2.29046 24.8586 2.02614 24.194 2.02539H5.03211C4.36753 2.02621 3.73041 2.29058 3.26048 2.76052C2.79056 3.23045 2.5262 3.86759 2.5254 4.53217V9.38033H6.10448V18.2126C5.24618 18.3937 4.45275 18.8033 3.80809 19.3982C3.16343 19.9931 2.69148 20.7511 2.44215 21.5921C2.19282 22.4332 2.17537 23.3259 2.39164 24.176C2.60792 25.0262 3.04988 25.802 3.6708 26.4217H2.24116V27.7945H0.386719V30.6011H3.50625V31.9738Z" fill="white"/>
<path d="M5.03217 2.74219H24.1941C23.959 2.74212 23.7262 2.78836 23.5091 2.87826C23.2919 2.96817 23.0945 3.09998 22.9283 3.26616C22.762 3.43235 22.6302 3.62966 22.5402 3.84682C22.4502 4.06398 22.4039 4.29673 22.4039 4.53179V8.66324H3.24243V4.53179C3.24247 4.05715 3.43104 3.60196 3.76668 3.26634C4.10231 2.93073 4.55752 2.74219 5.03217 2.74219Z" fill="#B2ACA3"/>
<path d="M25.9834 4.53154V28.9191L25.0547 29.4933L23.3592 28.6451L21.8188 29.4933L20.9003 28.6451L19.4437 29.4933L18.1925 28.6451L16.779 29.4933L15.8107 28.6451L14.6396 29.4933L13.7179 28.6451L12.6624 29.4933L11.9495 28.6451L10.5225 29.1502L9.59378 28.6451L8.62318 29.4933L7.656 28.6451L6.82127 29.3404V4.53154C6.8212 4.057 6.63266 3.60192 6.29713 3.26637C5.96159 2.93082 5.50651 2.74227 5.03198 2.74219H24.1939C24.6685 2.74222 25.1236 2.93075 25.4592 3.26631C25.7947 3.60186 25.9833 4.05697 25.9834 4.53154Z" fill="#DBEFFF"/>
<path d="M13.6828 8.49779C13.5712 8.49779 13.4597 8.44275 13.4597 8.3373V5.80114C13.4597 5.68641 13.5813 5.63672 13.6828 5.63672H14.4422C14.9379 5.63672 15.2289 5.83768 15.2289 6.32559C15.2289 6.58927 15.136 6.84354 14.8962 6.94795C14.9733 6.97455 15.0449 7.01503 15.1075 7.06738C15.2929 7.22452 15.2993 7.4541 15.2993 7.66822C15.2993 8.22896 15.0083 8.49799 14.5166 8.49799L13.6828 8.49779ZM13.9686 6.74815H14.4069C14.6177 6.74815 14.72 6.61351 14.72 6.41151C14.72 6.19746 14.5905 6.0828 14.4029 6.0828H13.9685L13.9686 6.74815ZM13.9686 8.05158H14.4069C14.6736 8.05158 14.7905 7.89271 14.7905 7.62497C14.7905 7.49729 14.7912 7.33209 14.6886 7.23941C14.6097 7.17424 14.509 7.14136 14.4069 7.14737H13.9686V8.05158Z" fill="#00ABFE"/>
<path d="M15.9178 8.49779C15.807 8.49779 15.6594 8.45397 15.6594 8.33337V5.79721C15.6594 5.67687 15.798 5.63672 15.9178 5.63672C16.0344 5.63672 16.1683 5.67778 16.1683 5.79721V8.33357C16.1683 8.45203 16.0271 8.49779 15.9178 8.49779Z" fill="#00ABFE"/>
<path d="M16.865 8.49779C16.7635 8.49779 16.6418 8.44804 16.6418 8.33337V5.79721C16.6418 5.6761 16.7831 5.63672 16.8962 5.63672C17.0162 5.63672 17.1507 5.67674 17.1507 5.79721V8.05178H18.1097C18.2187 8.05178 18.2584 8.16831 18.2584 8.27491C18.2584 8.3734 18.2201 8.49799 18.1097 8.49799L16.865 8.49779Z" fill="#00ABFE"/>
<path d="M18.7559 8.49779C18.6543 8.49779 18.5327 8.44804 18.5327 8.33337V5.79721C18.5327 5.6761 18.674 5.63672 18.7871 5.63672C18.9071 5.63672 19.0416 5.67674 19.0416 5.79721V8.05178H20.0006C20.1096 8.05178 20.1493 8.16831 20.1493 8.27491C20.1493 8.3734 20.111 8.49799 20.0006 8.49799L18.7559 8.49779Z" fill="#00ABFE"/>
<path d="M24.1939 14.6074H8.61157C8.56884 14.6074 8.52785 14.6244 8.49763 14.6546C8.46742 14.6848 8.45044 14.7258 8.45044 14.7686V25.4568C8.45044 25.4996 8.46742 25.5405 8.49763 25.5708C8.52785 25.601 8.56884 25.618 8.61157 25.618H24.1939C24.2366 25.618 24.2776 25.601 24.3078 25.5708C24.338 25.5405 24.355 25.4996 24.355 25.4568V14.7686C24.355 14.7258 24.338 14.6848 24.3078 14.6546C24.2776 14.6244 24.2366 14.6074 24.1939 14.6074ZM24.0328 14.9297V16.4146H19.6048V14.9297H24.0328ZM8.77271 14.9297H19.2828V16.4146H8.77271V14.9297ZM8.77271 16.7368H19.2828V25.2957H8.77271V16.7368ZM19.605 25.2957V16.7368H24.0329V25.2957H19.605Z" fill="#B2ACA3"/>
<path d="M14.1345 10.334H8.66479C8.62206 10.334 8.58107 10.317 8.55086 10.2868C8.52064 10.2566 8.50366 10.2156 8.50366 10.1729C8.50366 10.1301 8.52064 10.0891 8.55086 10.0589C8.58107 10.0287 8.62206 10.0117 8.66479 10.0117H14.1345C14.1773 10.0117 14.2183 10.0287 14.2485 10.0589C14.2787 10.0891 14.2957 10.1301 14.2957 10.1729C14.2957 10.2156 14.2787 10.2566 14.2485 10.2868C14.2183 10.317 14.1773 10.334 14.1345 10.334Z" fill="#1D1D3D"/>
<path d="M24.1938 10.334H20.1489C20.1062 10.334 20.0652 10.317 20.035 10.2868C20.0048 10.2566 19.9878 10.2156 19.9878 10.1729C19.9878 10.1301 20.0048 10.0891 20.035 10.0589C20.0652 10.0287 20.1062 10.0117 20.1489 10.0117H24.1938C24.2365 10.0117 24.2775 10.0287 24.3077 10.0589C24.338 10.0891 24.3549 10.1301 24.3549 10.1729C24.3549 10.2156 24.338 10.2566 24.3077 10.2868C24.2775 10.317 24.2365 10.334 24.1938 10.334Z" fill="#1D1D3D"/>
<path d="M17.4425 11.7422H8.66479C8.62206 11.7422 8.58107 11.7252 8.55086 11.695C8.52064 11.6648 8.50366 11.6238 8.50366 11.5811C8.50366 11.5383 8.52064 11.4973 8.55086 11.4671C8.58107 11.4369 8.62206 11.4199 8.66479 11.4199H17.4425C17.4853 11.4199 17.5263 11.4369 17.5565 11.4671C17.5867 11.4973 17.6037 11.5383 17.6037 11.5811C17.6037 11.6238 17.5867 11.6648 17.5565 11.695C17.5263 11.7252 17.4853 11.7422 17.4425 11.7422Z" fill="#1D1D3D"/>
<path d="M17.4425 13.1504H8.66479C8.62206 13.1504 8.58107 13.1334 8.55086 13.1032C8.52064 13.073 8.50366 13.032 8.50366 12.9893C8.50366 12.9465 8.52064 12.9055 8.55086 12.8753C8.58107 12.8451 8.62206 12.8281 8.66479 12.8281H17.4425C17.4853 12.8281 17.5263 12.8451 17.5565 12.8753C17.5867 12.9055 17.6037 12.9465 17.6037 12.9893C17.6037 13.032 17.5867 13.073 17.5565 13.1032C17.5263 13.1334 17.4853 13.1504 17.4425 13.1504Z" fill="#1D1D3D"/>
<path d="M21.2739 23.748H30.478V31.2566H21.2739V23.748Z" fill="#E26F64"/>
<path d="M24.8667 23.748H26.8851V29.4804H24.8667V23.748Z" fill="#DA5A4E"/>
<path d="M18.3489 17.1953H31.8963V23.7485H18.3489V17.1953Z" fill="#A369F7"/>
<path d="M18.3489 17.1953H24.9021V23.7485H18.3489V17.1953Z" fill="#00ABFE"/>
<path d="M20.9846 17.1953H22.2659V23.7485H20.9846V17.1953Z" fill="#7AD001"/>
<path d="M30.6318 21.5391L29.9387 22.2448H30.3252V23.1942H30.9385V22.2448H31.325L30.6318 21.5391Z" fill="white"/>
<path d="M2.95825 27.1387H11.2747V28.5113H2.95825V27.1387Z" fill="#FFB020"/>
<path d="M3.43042 27.1387H3.99671V28.5113H3.43042V27.1387Z" fill="#D6880B"/>
<path d="M4.79175 27.1387H5.35803V28.5113H4.79175V27.1387Z" fill="#D6880B"/>
<path d="M6.15332 27.1387H6.71961V28.5113H6.15332V27.1387Z" fill="#D6880B"/>
<path d="M7.51343 27.1387H8.07971V28.5113H7.51343V27.1387Z" fill="#D6880B"/>
<path d="M8.87476 27.1387H9.44104V28.5113H8.87476V27.1387Z" fill="#D6880B"/>
<path d="M10.2361 27.1387H10.8024V28.5113H10.2361V27.1387Z" fill="#D6880B"/>
<path d="M1.10376 28.5117H9.42021V29.8844H1.10376V28.5117Z" fill="#FFB020"/>
<path d="M1.57617 28.5117H2.14246V29.8844H1.57617V28.5117Z" fill="#FFC269"/>
<path d="M2.9375 28.5117H3.50379V29.8844H2.9375V28.5117Z" fill="#FFC269"/>
<path d="M4.29883 28.5117H4.86511V29.8844H4.29883V28.5117Z" fill="#FFC269"/>
<path d="M5.65894 28.5117H6.22522V29.8844H5.65894V28.5117Z" fill="#FFC269"/>
<path d="M7.02026 28.5117H7.58655V29.8844H7.02026V28.5117Z" fill="#FFC269"/>
<path d="M8.38159 28.5117H8.94788V29.8844H8.38159V28.5117Z" fill="#FFC269"/>
<path d="M4.22339 29.8848H12.5398V31.2574H4.22339V29.8848Z" fill="#FFB020"/>
<path d="M4.6958 29.8828H5.26209V31.2555H4.6958V29.8828Z" fill="#FFC269"/>
<path d="M6.05713 29.8828H6.62341V31.2555H6.05713V29.8828Z" fill="#FFC269"/>
<path d="M7.41846 29.8828H7.98474V31.2555H7.41846V29.8828Z" fill="#FFC269"/>
<path d="M8.77881 29.8828H9.34509V31.2555H8.77881V29.8828Z" fill="#FFC269"/>
<path d="M10.1401 29.8828H10.7064V31.2555H10.1401V29.8828Z" fill="#FFC269"/>
<path d="M11.5015 29.8828H12.0677V31.2555H11.5015V29.8828Z" fill="#FFC269"/>
<path d="M7.1165 27.1383C9.4129 27.1383 11.2745 25.2767 11.2745 22.9803C11.2745 20.6839 9.4129 18.8223 7.1165 18.8223C4.8201 18.8223 2.9585 20.6839 2.9585 22.9803C2.9585 25.2767 4.8201 27.1383 7.1165 27.1383Z" fill="#FFC269"/>
<path d="M7.11634 26.156C8.87022 26.156 10.292 24.7342 10.292 22.9804C10.292 21.2265 8.87022 19.8047 7.11634 19.8047C5.36247 19.8047 3.94067 21.2265 3.94067 22.9804C3.94067 24.7342 5.36247 26.156 7.11634 26.156Z" fill="#FFB020"/>
<path d="M8.98407 22.4629L8.86343 22.8066H6L6.11836 22.4629H8.98407ZM7.82549 25.5L6.03642 23.6973L6.03187 23.4453H6.81487C7.05159 23.4453 7.25341 23.416 7.42033 23.3574C7.58725 23.2975 7.71472 23.209 7.80273 23.0918C7.89226 22.9746 7.93703 22.8294 7.93703 22.6562C7.93703 22.401 7.8437 22.2005 7.65706 22.0547C7.47193 21.9076 7.20637 21.834 6.86039 21.834H6L6.11836 21.5H6.86039C7.19423 21.5 7.47344 21.5495 7.69803 21.6484C7.92413 21.7474 8.09408 21.8841 8.20789 22.0586C8.32322 22.2318 8.38088 22.431 8.38088 22.6562C8.38088 22.8672 8.32549 23.0573 8.21472 23.2266C8.10546 23.3945 7.93627 23.528 7.70713 23.627C7.47951 23.7246 7.18892 23.7734 6.83536 23.7734H6.67147L8.35584 25.4707V25.5H7.82549ZM9 21.5L8.88164 21.8437L6.46889 21.834L6.57815 21.5H9Z" fill="white"/>
</svg>
