<svg width="40" height="40" viewBox="0 0 40 40" fill="none" xmlns="http://www.w3.org/2000/svg">
<path fill-rule="evenodd" clip-rule="evenodd" d="M19.9961 0.262695C27.4927 0.262695 34.0601 4.23891 37.7058 10.1971H2.28638C5.93213 4.23891 12.4995 0.262695 19.9961 0.262695Z" fill="#102966"/>
<path fill-rule="evenodd" clip-rule="evenodd" d="M37.7058 29.8037C34.0601 35.7618 27.4927 39.7381 19.9961 39.7381C12.4995 39.7381 5.93213 35.7618 2.28638 29.8037H37.7058Z" fill="#102966"/>
<path fill-rule="evenodd" clip-rule="evenodd" d="M10.6652 4.02655C10.6652 4.02655 12.2544 2.85265 13.2295 3.0513C13.2295 3.0513 14.0242 2.22057 14.6201 2.41937C14.6201 2.41937 17.2927 1.19134 17.8345 2.27493C17.8345 2.27493 19.1528 1.87755 19.1887 2.16652C19.1887 2.16652 19.3332 2.2205 18.5569 2.38311C18.5569 2.38311 18.1053 2.83455 17.4733 3.01533C17.4733 3.01533 18.3581 3.37653 17.2927 3.34035C17.2927 3.34035 16.9857 3.52076 17.7081 3.4848C17.7081 3.4848 17.8886 4.21616 16.444 4.31552C16.444 4.31552 15.8841 4.52315 16.426 4.55933C16.426 4.55933 17.1573 4.73765 16.9045 5.20726C16.9045 5.20726 16.3176 5.19134 16.2093 4.96562C16.2093 4.96562 16.1732 5.30662 15.9925 5.29758C15.9925 5.29758 17.1935 5.23432 16.2725 5.55036C16.2725 5.55036 14.8843 6.2673 14.1889 6.52898C14.1889 6.52898 13.5569 7.35059 12.8344 7.35059C12.8344 7.35059 12.5455 7.41384 12.5275 7.62161C12.5275 7.62161 12.5276 8.091 11.9136 8.34386C11.9136 8.34386 11.4079 9.6984 10.8301 9.19268C10.8301 9.19268 9.90895 9.33713 10.2522 8.36203C10.2522 8.36203 9.89093 7.29646 11.2454 6.75477C11.2454 6.75477 10.1055 6.643 11.1801 5.89346C11.1801 5.89346 11.3605 4.97249 10.5661 5.16217C10.5661 5.16217 8.96786 5.89347 10.0062 4.99971C10.0062 4.99971 8.74214 5.16435 9.79859 4.63164C9.79844 4.63156 11.2612 4.18012 10.6652 4.02655Z" fill="white"/>
<path fill-rule="evenodd" clip-rule="evenodd" d="M7.27075 10.2717C7.44391 10.0578 7.80413 9.70144 8.10664 9.97785C8.10664 9.97785 8.34492 10.1119 7.96907 10.2717H7.27075Z" fill="white"/>
<path fill-rule="evenodd" clip-rule="evenodd" d="M21.2372 29.8799C21.1138 30.1769 21.1325 30.5121 21.7712 30.5926C21.7712 30.5926 22.3593 31.3229 21.8612 31.5364C21.8612 31.5364 22.6472 32.5454 21.6999 32.6958C21.6999 32.6958 21.2577 32.7184 21.1499 32.8334C21.1499 32.8334 21.049 33.0336 21.6217 32.7883C21.6217 32.7883 21.7509 32.8606 21.7237 32.9805C21.7237 32.9805 22.8821 33.2992 21.6608 33.9796C21.6608 33.9796 22.6996 34.4092 21.6301 34.7102C21.6301 34.7102 22.8253 34.6104 22.5547 35.6302C22.5547 35.6302 22.7729 36.1851 23.4298 35.6089C23.4298 35.6089 23.8495 35.6255 23.7666 36.7612C23.7666 36.7612 24.6674 37.2591 25.616 36.6761C25.616 36.6761 24.3545 39.0044 22.147 37.1998C22.147 37.1998 20.1599 36.185 19.8186 35.2507C19.8186 35.2507 19.4534 35.5447 18.8818 34.3947C18.8818 34.3947 16.3472 32.2391 15.6003 31.3215C15.6003 31.3215 15.3299 30.9657 14.1515 31.3332C14.1515 31.3332 12.7121 30.221 11.7872 30.5387C11.7872 30.5387 11.486 30.2962 11.2537 29.8799H21.2372Z" fill="white"/>
<path fill-rule="evenodd" clip-rule="evenodd" d="M25.4756 7.90296C25.4756 7.90296 26.1636 6.25534 27.9379 6.61743C27.9379 6.61743 29.7121 7.23305 30.0381 7.19671C30.0381 7.19671 30.88 7.25122 30.4183 7.74012C30.4183 7.74012 30.8892 7.57705 31.043 7.7037C31.043 7.7037 31.6031 6.71327 33.2273 6.83275C34.3292 7.86034 35.3115 9.01458 36.1515 10.2719H25.3975C25.788 8.50266 24.3099 11.0258 24.4248 9.2154C24.4249 9.21548 23.9359 8.74483 25.4756 7.90296Z" fill="white"/>
<path fill-rule="evenodd" clip-rule="evenodd" d="M31.4089 29.8799C31.3863 30.0026 31.2122 30.8133 30.5449 30.9299C30.5449 30.9299 30.491 31.6524 29.3533 31.5982C29.3533 31.5982 28.0891 32.5551 28.3962 30.7674C28.3962 30.7674 28.1607 30.3834 27.9675 29.88L31.4089 29.8799Z" fill="white"/>
<path fill-rule="evenodd" clip-rule="evenodd" d="M22.0278 10.271C21.9809 10.0766 22.0808 9.89128 22.5417 9.81217C22.5417 9.81217 22.7999 9.72185 23.0329 10.271H22.0278Z" fill="white"/>
<path d="M0 17.1571V11.5575H2.01456C2.36172 11.5575 2.67205 11.589 2.94557 11.652C3.21915 11.715 3.45053 11.8108 3.64128 11.9382C3.83057 12.0668 3.97659 12.2283 4.07653 12.4212C4.1764 12.6155 4.2264 12.8426 4.2264 13.1038C4.2264 13.2324 4.21195 13.3558 4.18432 13.4752C4.15536 13.5947 4.11068 13.7062 4.04756 13.8112C3.98444 13.9162 3.90295 14.0107 3.80294 14.0948C3.70307 14.1774 3.58069 14.2457 3.43741 14.2995C3.6044 14.3429 3.74515 14.4059 3.86087 14.4886C3.97659 14.5699 4.07 14.6658 4.14224 14.7735C4.21328 14.881 4.26582 14.9966 4.29744 15.1212C4.33027 15.2446 4.34612 15.372 4.34612 15.4993C4.34612 16.0532 4.16854 16.468 3.81486 16.7437C3.45978 17.0193 2.93512 17.1571 2.23814 17.1571L0 17.1571ZM1.35314 14.776V16.1188H2.23814C2.3749 16.1188 2.49062 16.1017 2.58789 16.0689C2.6839 16.0348 2.76147 15.9901 2.82193 15.9324C2.88245 15.8746 2.92713 15.8077 2.95476 15.7302C2.98372 15.6541 2.99817 15.57 2.99817 15.4808C2.99817 15.3732 2.98499 15.2747 2.95869 15.1881C2.93372 15.1014 2.89164 15.0266 2.83638 14.9675C2.77985 14.9072 2.70621 14.8599 2.61679 14.8271C2.52604 14.793 2.41691 14.7758 2.28934 14.7758H1.35314V14.776ZM1.35314 13.8926H2.05797C2.35253 13.89 2.56426 13.8362 2.6891 13.7312C2.81534 13.6261 2.87852 13.47 2.87852 13.2651C2.87852 13.0289 2.81014 12.8595 2.67338 12.7558C2.53789 12.6522 2.31831 12.5997 2.01456 12.5997H1.35314V13.8926ZM7.45394 15.1803H6.72281V17.1571H5.36967V11.5575H7.57752C7.90097 11.5575 8.19426 11.5942 8.45593 11.6678C8.7176 11.7413 8.94118 11.8489 9.12661 11.9906C9.3107 12.1324 9.45272 12.3096 9.55133 12.5196C9.65127 12.7297 9.69994 12.9725 9.69994 13.2494C9.69994 13.4646 9.67757 13.6563 9.63156 13.8243C9.58422 13.9924 9.51844 14.1407 9.43302 14.2667C9.34619 14.394 9.24366 14.5043 9.12268 14.5975C9.00163 14.692 8.86754 14.7734 8.72159 14.8416L9.89323 17.0992V17.157H8.44415L7.45394 15.1803ZM6.72281 14.1381H7.57752C7.83399 14.1381 8.02728 14.0711 8.15744 13.9359C8.28761 13.802 8.35206 13.6144 8.35206 13.3729C8.35206 13.1327 8.28635 12.9437 8.15485 12.8058C8.02461 12.6693 7.83133 12.5997 7.57752 12.5997H6.72281V14.1381ZM14.2768 14.7839H12.1504V16.1189H14.662V17.1571H10.7973V11.5576H14.6699V12.5998H12.1504V13.7811H14.2768V14.7839ZM18.6787 16.111H16.8258L16.5023 17.1571H15.0572L17.1151 11.5575H18.3854L20.4591 17.1571H19.0061L18.6787 16.111ZM17.1493 15.0687H18.3551L17.7502 13.1274L17.1493 15.0687ZM23.0543 15.0727L22.5007 15.6804V17.1571H21.1475V11.5575H22.5007V14.0265L22.9701 13.315L24.1799 11.5575H25.8512L23.9563 14.0344L25.8512 17.1571H24.2496L23.0543 15.0727ZM27.9163 17.1571H26.5685V11.5575H27.9163V17.1571ZM33.8226 17.1571H32.4773L30.4904 13.6734V17.1571H29.1372V11.5575H30.4904L32.4734 15.0425V11.5575H33.8226V17.1571ZM39.5513 16.4653C39.4789 16.5441 39.379 16.6294 39.2501 16.7187C39.1213 16.8079 38.9648 16.8919 38.7807 16.968C38.5953 17.0455 38.3809 17.1085 38.1389 17.1584C37.8957 17.2096 37.6235 17.2345 37.3197 17.2345C36.9449 17.2345 36.6056 17.1742 36.3032 17.0534C35.9995 16.9326 35.7404 16.7567 35.5247 16.5257C35.3091 16.296 35.142 16.0111 35.0264 15.6752C34.9093 15.3378 34.8501 14.9506 34.8501 14.5149V14.2037C34.8501 13.768 34.9093 13.3808 35.0277 13.0422C35.146 12.7035 35.3104 12.4186 35.5235 12.1863C35.7351 11.9553 35.9877 11.7781 36.2796 11.6587C36.5729 11.5379 36.8937 11.4775 37.2435 11.4775C37.6315 11.4775 37.9628 11.5248 38.2403 11.618C38.5177 11.7112 38.7492 11.8425 38.9346 12.0118C39.1186 12.1811 39.2607 12.3819 39.3581 12.6156C39.4554 12.8492 39.5185 13.1052 39.5474 13.3848H38.2443C38.2246 13.2456 38.1929 13.1236 38.1509 13.016C38.1075 12.9083 38.0483 12.8164 37.9734 12.7429C37.8971 12.668 37.8038 12.6116 37.692 12.5736C37.5802 12.5342 37.4461 12.5159 37.2896 12.5159C37.1278 12.5159 36.9806 12.55 36.8477 12.6195C36.7162 12.6891 36.6032 12.7928 36.5111 12.9332C36.419 13.0724 36.3467 13.247 36.2968 13.4583C36.2468 13.6683 36.2218 13.9137 36.2218 14.1959V14.5149C36.2218 15.0741 36.3178 15.4942 36.5098 15.775C36.7004 16.0559 37.0016 16.1964 37.4131 16.1964C37.521 16.1964 37.617 16.1885 37.7012 16.1741C37.7866 16.1609 37.8603 16.1426 37.9247 16.119C37.9891 16.0953 38.0431 16.0704 38.0891 16.0416C38.1338 16.014 38.1706 15.9864 38.1983 15.9614V15.0925H37.2581V14.1658H39.5514V16.4653H39.5513Z" fill="#D80E36"/>
<path d="M8.55759 28.4577H6.10059L2.47146 22.0743V28.4577H0V18.1971H2.47146L6.09333 24.583V18.1971H8.55753V28.4577H8.55759ZM16.9865 24.109H13.1028V26.5552H17.6902V28.4577H10.6314V18.197H17.7046V20.1067H13.1028V22.2714H16.9865V24.109ZM27.1446 24.631L28.3191 18.1971H30.769L28.5929 28.4577H26.0326L24.6612 22.6083L23.3163 28.4577H20.7632L18.5824 18.1971H21.037L22.2115 24.631L23.6189 18.1971H25.7157L27.1446 24.631ZM37.5285 25.7302C37.5285 25.5715 37.507 25.4272 37.4637 25.2973C37.418 25.1674 37.3316 25.0471 37.1995 24.9317C37.0674 24.8163 36.8825 24.7008 36.6471 24.5902C36.4094 24.4771 36.0995 24.3568 35.7152 24.2294C35.2637 24.0802 34.829 23.9095 34.4135 23.7219C33.9955 23.5344 33.6233 23.3106 33.3014 23.0533C32.9772 22.7936 32.7178 22.4929 32.5233 22.1466C32.3287 21.8027 32.2303 21.3985 32.2303 20.9392C32.2303 20.4966 32.3288 20.0997 32.5257 19.7437C32.7227 19.3902 32.9988 19.0871 33.3495 18.8393C33.7025 18.5892 34.1181 18.3968 34.5984 18.2621C35.0788 18.125 35.6048 18.0576 36.1717 18.0576C36.7288 18.0576 37.2428 18.1322 37.7136 18.2837C38.1819 18.4329 38.5854 18.6469 38.924 18.9235C39.2602 19.2001 39.5244 19.5344 39.7142 19.9289C39.904 20.321 40 20.7587 40 21.2422H37.5357C37.5357 21.0498 37.5069 20.8718 37.4493 20.7106C37.3892 20.5471 37.3004 20.41 37.1803 20.2946C37.0626 20.1792 36.9136 20.0877 36.7383 20.0228C36.563 19.9579 36.3541 19.9242 36.1163 19.9242C35.8809 19.9242 35.6744 19.9506 35.4966 20.0059C35.3189 20.0588 35.17 20.1358 35.05 20.232C34.9298 20.3282 34.8386 20.4364 34.7785 20.5615C34.7185 20.6866 34.6873 20.8189 34.6873 20.9608C34.6873 21.1147 34.7305 21.2543 34.817 21.3793C34.9035 21.5043 35.0283 21.6222 35.1892 21.7328C35.3526 21.841 35.5495 21.9445 35.7801 22.0407C36.0131 22.1393 36.2749 22.2331 36.5655 22.3269C37.1107 22.5001 37.5959 22.6949 38.0233 22.9042C38.4484 23.1158 38.8088 23.3588 39.1018 23.6305C39.3947 23.9023 39.6181 24.2102 39.7718 24.5541C39.9231 24.8981 40 25.2853 40 25.7158C40 26.1776 39.9087 26.5865 39.7286 26.9473C39.5484 27.3057 39.2915 27.6064 38.9624 27.8517C38.6309 28.097 38.2323 28.2822 37.7663 28.4073C37.298 28.5348 36.7792 28.5997 36.2076 28.5997C35.8545 28.5997 35.5063 28.5684 35.1581 28.5107C34.8122 28.4529 34.4783 28.3615 34.1637 28.2389C33.8467 28.1162 33.5513 27.9623 33.2775 27.7771C33.0012 27.5919 32.7659 27.3706 32.5665 27.1108C32.3672 26.8534 32.2086 26.56 32.0934 26.2305C31.978 25.901 31.9228 25.5354 31.9228 25.1312H34.3991C34.3991 25.4319 34.4375 25.6845 34.5192 25.8889C34.5984 26.0933 34.7161 26.2593 34.8699 26.3868C35.026 26.5119 35.2133 26.6032 35.4367 26.6561C35.6601 26.7114 35.917 26.7379 36.2076 26.7379C36.4405 26.7379 36.6424 26.7114 36.808 26.6561C36.9761 26.6032 37.1131 26.5311 37.2212 26.4397C37.3269 26.3483 37.4061 26.2401 37.4565 26.1174C37.5046 25.9971 37.5285 25.8673 37.5285 25.7302Z" fill="#102966"/>
</svg>
