<svg width="20" height="20" viewBox="0 0 20 20" fill="none" xmlns="http://www.w3.org/2000/svg">
<path d="M18.071 3.40033C18.071 3.133 17.967 2.88167 17.778 2.69333L17.307 2.222C16.9883 1.903 16.4697 1.85667 16.0883 2.07667C14.3547 0.74 12.2063 0 10 0C7.79367 0 5.64533 0.74 3.912 2.07667C3.53033 1.85667 3.01167 1.90267 2.69367 2.222L2.22233 2.693C2.03367 2.88167 1.92933 3.133 1.92933 3.40033C1.92933 3.58467 1.98233 3.76033 2.07533 3.91433C0.739333 5.64733 0 7.795 0 10C0 12.205 0.739333 14.3527 2.075 16.0857C1.982 16.2397 1.929 16.4153 1.929 16.5997C1.929 16.867 2.033 17.1183 2.222 17.3067L2.693 17.778C2.88167 17.9667 3.133 18.071 3.40033 18.071C3.58467 18.071 3.76033 18.018 3.91433 17.925C5.64733 19.2603 7.79467 20 10 20C12.2053 20 14.3527 19.2607 16.0857 17.925C16.2397 18.018 16.4153 18.071 16.5997 18.071C16.867 18.071 17.1183 17.967 17.3067 17.778L17.778 17.307C17.9667 17.1183 18.071 16.867 18.071 16.5997C18.071 16.4153 18.018 16.2397 17.925 16.0857C19.2603 14.3527 20 12.2053 20 10C20 7.79467 19.2607 5.64733 17.925 3.91433C18.018 3.76033 18.071 3.58467 18.071 3.40033ZM16.5997 2.59567C16.689 2.59567 16.7723 2.63033 16.8353 2.69333L17.3067 3.165C17.3697 3.22767 17.4043 3.311 17.4043 3.40033C17.4043 3.48967 17.3697 3.573 17.3067 3.636L14.4787 6.46433C14.3483 6.59467 14.1373 6.59467 14.007 6.46433L13.5357 5.993C13.4057 5.86267 13.4057 5.65167 13.5357 5.52133L16.364 2.69333C16.427 2.63067 16.5107 2.59567 16.5997 2.59567ZM14.5217 12.816C14.1827 12.7177 13.8023 12.7973 13.5357 13.0643L13.0643 13.5357C12.7977 13.8023 12.718 14.1827 12.816 14.5217C11.9747 15.0517 11.0083 15.3337 10 15.3337C8.99167 15.3337 8.02533 15.052 7.184 14.5217C7.28233 14.1827 7.20267 13.8023 6.93567 13.5357L6.46433 13.0643C6.19733 12.7973 5.81733 12.718 5.47833 12.816C4.94833 11.9747 4.66633 11.0083 4.66633 10C4.66633 8.99167 4.948 8.02533 5.478 7.18433C5.56933 7.21067 5.66267 7.22867 5.757 7.22867C6.013 7.22867 6.269 7.131 6.464 6.936L6.93533 6.46467C7.202 6.198 7.282 5.81767 7.18367 5.47867C8.02467 4.94867 8.99133 4.66667 9.99967 4.66667C11.008 4.66667 11.9743 4.94833 12.8157 5.47867C12.7173 5.81767 12.797 6.198 13.064 6.46467L13.5353 6.936C13.7303 7.131 13.9867 7.22867 14.2423 7.22867C14.3367 7.22867 14.43 7.211 14.5213 7.18433C15.0513 8.02533 15.333 8.992 15.333 10C15.333 11.008 15.0513 11.9747 14.521 12.816H14.5217ZM15.5833 2.53133L13.1883 4.926C12.237 4.32167 11.142 4 10 4C8.858 4 7.763 4.32167 6.81167 4.926L4.41667 2.53133C6.017 1.331 7.98167 0.666667 10 0.666667C12.0183 0.666667 13.983 1.331 15.5833 2.53133ZM2.69333 3.16467L3.165 2.69333C3.22767 2.63033 3.311 2.59567 3.40033 2.59567C3.48967 2.59567 3.573 2.63033 3.636 2.69333L6.46433 5.52133C6.59433 5.65167 6.59433 5.86267 6.46433 5.993L5.993 6.46433C5.86333 6.59433 5.65233 6.595 5.52133 6.46433L2.69333 3.636C2.63067 3.573 2.59567 3.48933 2.59567 3.40033C2.59567 3.31133 2.63033 3.22767 2.69333 3.16467ZM2.53133 4.41667L4.926 6.81167C4.32167 7.763 4 8.858 4 10C4 11.142 4.32167 12.237 4.926 13.1883L2.53133 15.5833C1.331 13.983 0.666667 12.0183 0.666667 10C0.666667 7.98167 1.331 6.017 2.53133 4.41667ZM3.16467 17.3067L2.69333 16.835C2.63033 16.7723 2.59567 16.689 2.59567 16.5997C2.59567 16.5103 2.63033 16.427 2.69333 16.364L5.52133 13.5357C5.58633 13.4707 5.67167 13.438 5.75733 13.438C5.843 13.438 5.928 13.4707 5.993 13.5357L6.46433 14.007C6.59433 14.1373 6.59433 14.3483 6.46433 14.4787L3.636 17.3067C3.50967 17.4327 3.291 17.433 3.16467 17.3067ZM4.41667 17.4687L6.81167 15.074C7.763 15.6783 8.858 16 10 16C11.142 16 12.237 15.6783 13.1883 15.074L15.5833 17.4687C13.983 18.669 12.0183 19.3333 10 19.3333C7.98167 19.3333 6.017 18.669 4.41667 17.4687ZM17.3067 16.8353L16.835 17.3067C16.7097 17.433 16.4907 17.4323 16.364 17.3067L13.5357 14.4787C13.4057 14.3483 13.4057 14.1373 13.5357 14.007L14.007 13.5357C14.072 13.4707 14.1573 13.438 14.243 13.438C14.3287 13.438 14.4137 13.4707 14.4787 13.5357L17.3067 16.364C17.3693 16.427 17.4043 16.5107 17.4043 16.5997C17.4043 16.6887 17.3697 16.7723 17.3067 16.8353ZM17.4687 15.5833L15.074 13.1883C15.6783 12.237 16 11.142 16 10C16 8.858 15.6783 7.763 15.074 6.81167L17.4687 4.41667C18.669 6.017 19.3333 7.98167 19.3333 10C19.3333 12.0183 18.669 13.983 17.4687 15.5833Z" fill="#337265"/>
<path d="M10 7.00098C8.897 7.00098 8 7.89798 8 9.00098C8 9.18531 8.149 9.33431 8.33334 9.33431C8.51767 9.33431 8.66667 9.18531 8.66667 9.00098C8.66667 8.26564 9.26467 7.66764 10 7.66764C10.7353 7.66764 11.3333 8.26564 11.3333 9.00098C11.3333 9.73631 10.7353 10.3343 10 10.3343C9.81567 10.3343 9.66667 10.4833 9.66667 10.6676V11.3343C9.66667 11.5186 9.81567 11.6676 10 11.6676C10.1843 11.6676 10.3333 11.5186 10.3333 11.3343V10.9733C11.278 10.814 12 9.99031 12 9.00098C12 7.89798 11.103 7.00098 10 7.00098Z" fill="#E26F64"/>
<path d="M10 12.3311C9.81567 12.3311 9.66667 12.4831 9.66667 12.6674C9.66667 12.8517 9.81567 13.0007 10 13.0007C10.1843 13.0007 10.3333 12.8517 10.3333 12.6674V12.6611C10.3333 12.4767 10.1843 12.3311 10 12.3311Z" fill="#E26F64"/>
</svg>
