<svg width="19" height="20" viewBox="0 0 19 20" fill="none" xmlns="http://www.w3.org/2000/svg">
<path d="M17.4144 19.9998H1.95939C1.62288 19.999 1.30038 19.865 1.06244 19.627C0.824488 19.3891 0.690456 19.0666 0.689655 18.7301V8.7298C0.689655 8.64943 0.721583 8.57235 0.778413 8.51552C0.835244 8.45869 0.912323 8.42676 0.992694 8.42676C1.07307 8.42676 1.15014 8.45869 1.20698 8.51552C1.26381 8.57235 1.29573 8.64943 1.29573 8.7298V18.7301C1.29573 18.9061 1.36565 19.0749 1.49011 19.1994C1.61457 19.3238 1.78338 19.3937 1.95939 19.3937H17.4144C17.5904 19.3937 17.7592 19.3238 17.8836 19.1994C18.0081 19.0749 18.078 18.9061 18.078 18.7301V8.7298C18.078 8.64943 18.11 8.57235 18.1668 8.51552C18.2236 8.45869 18.3007 8.42676 18.3811 8.42676C18.4614 8.42676 18.5385 8.45869 18.5953 8.51552C18.6522 8.57235 18.6841 8.64943 18.6841 8.7298V18.7301C18.6833 19.0666 18.5493 19.3891 18.3113 19.627C18.0734 19.865 17.7509 19.999 17.4144 19.9998Z" fill="#337265"/>
<path d="M12.3536 3.00847C12.2737 3.00733 12.1974 2.97466 12.1415 2.91756L9.92628 0.705375C9.89499 0.673673 9.85771 0.648502 9.81662 0.631321C9.77552 0.614141 9.73142 0.605294 9.68688 0.605294C9.64233 0.605294 9.59823 0.614141 9.55714 0.631321C9.51604 0.648502 9.47877 0.673673 9.44748 0.705375L7.23226 2.91756C7.17548 2.974 7.09868 3.00568 7.01862 3.00568C6.93856 3.00568 6.86176 2.974 6.80498 2.91756C6.74854 2.86078 6.71686 2.78398 6.71686 2.70392C6.71686 2.62386 6.74854 2.54705 6.80498 2.49027L9.02019 0.27506C9.19735 0.0988891 9.43704 0 9.68688 0C9.93672 0 10.1764 0.0988891 10.3536 0.27506L12.5688 2.49027C12.6252 2.54705 12.6569 2.62386 12.6569 2.70392C12.6569 2.78398 12.6252 2.86078 12.5688 2.91756C12.5407 2.94619 12.5072 2.96897 12.4703 2.98458C12.4334 3.00018 12.3937 3.0083 12.3536 3.00847Z" fill="#337265"/>
<path d="M9.68688 17.4603C9.5624 17.4602 9.43915 17.4356 9.32422 17.3877C9.2093 17.3399 9.10495 17.2698 9.01717 17.1815L0.780569 8.94191C0.724128 8.88513 0.692448 8.80832 0.692448 8.72826C0.692448 8.64821 0.724128 8.5714 0.780569 8.51462L3.117 6.17819C3.14417 6.14647 3.1776 6.1207 3.21519 6.10251C3.25279 6.08433 3.29374 6.0741 3.33547 6.07249C3.37721 6.07088 3.41883 6.07791 3.45771 6.09315C3.4966 6.10838 3.53192 6.13149 3.56145 6.16102C3.59098 6.19056 3.61409 6.22587 3.62933 6.26476C3.64456 6.30365 3.6516 6.34527 3.64998 6.387C3.64837 6.42874 3.63815 6.46969 3.61996 6.50728C3.60177 6.54488 3.57601 6.57831 3.54428 6.60548L1.42301 8.72675L9.44748 16.7542C9.51219 16.8154 9.59785 16.8495 9.68688 16.8495C9.77592 16.8495 9.86158 16.8154 9.92628 16.7542L17.9508 8.72978L15.8295 6.60851C15.7978 6.58134 15.772 6.54791 15.7538 6.51031C15.7356 6.47272 15.7254 6.43177 15.7238 6.39003C15.7222 6.3483 15.7292 6.30668 15.7444 6.26779C15.7597 6.22891 15.7828 6.19359 15.8123 6.16405C15.8418 6.13452 15.8772 6.11141 15.9161 6.09618C15.9549 6.08094 15.9966 6.07391 16.0383 6.07552C16.08 6.07713 16.121 6.08736 16.1586 6.10554C16.1962 6.12373 16.2296 6.1495 16.2568 6.18122L18.5932 8.51765C18.6496 8.57443 18.6813 8.65124 18.6813 8.73129C18.6813 8.81135 18.6496 8.88816 18.5932 8.94494L10.3536 17.1815C10.2666 17.27 10.1628 17.3402 10.0483 17.3881C9.93383 17.4359 9.81096 17.4605 9.68688 17.4603Z" fill="#337265"/>
<path d="M18.0962 19.715C18.0167 19.7147 17.9405 19.6831 17.8841 19.6272L12.6809 14.427C12.6242 14.3699 12.5926 14.2927 12.5928 14.2123C12.5931 14.1319 12.6253 14.0549 12.6824 13.9982C12.7395 13.9415 12.8167 13.9099 12.8971 13.9102C12.9775 13.9104 13.0546 13.9427 13.1112 13.9997L18.3114 19.1999C18.3678 19.2566 18.3995 19.3335 18.3995 19.4135C18.3995 19.4936 18.3678 19.5704 18.3114 19.6272C18.283 19.6552 18.2495 19.6775 18.2125 19.6925C18.1756 19.7076 18.1361 19.7153 18.0962 19.715Z" fill="#337265"/>
<path d="M1.27755 19.715C1.23767 19.7153 1.19813 19.7076 1.16121 19.6925C1.12429 19.6775 1.09071 19.6552 1.06239 19.6272C1.00595 19.5704 0.97427 19.4936 0.97427 19.4135C0.97427 19.3335 1.00595 19.2566 1.06239 19.1999L6.26254 13.9997C6.3192 13.9427 6.39621 13.9104 6.47663 13.9102C6.55704 13.9099 6.63428 13.9415 6.69134 13.9982C6.7484 14.0549 6.78062 14.1319 6.7809 14.2123C6.78119 14.2927 6.74952 14.3699 6.69285 14.427L1.50483 19.6272C1.47509 19.6567 1.43953 19.6798 1.40041 19.6949C1.36129 19.7101 1.31945 19.7169 1.27755 19.715Z" fill="#337265"/>
<path d="M16.0507 11.3694C15.9703 11.3694 15.8932 11.3375 15.8364 11.2807C15.7796 11.2239 15.7477 11.1468 15.7477 11.0664V3.348C15.7477 3.25798 15.7119 3.17166 15.6482 3.10801C15.5846 3.04435 15.4983 3.0086 15.4083 3.0086H3.9746C3.92927 3.00738 3.88415 3.01526 3.84192 3.03178C3.79969 3.04829 3.76119 3.07309 3.7287 3.10473C3.69622 3.13637 3.6704 3.1742 3.65278 3.21598C3.63516 3.25776 3.62609 3.30265 3.6261 3.348V11.0664C3.6261 11.1468 3.59418 11.2239 3.53734 11.2807C3.48051 11.3375 3.40344 11.3694 3.32306 11.3694C3.24269 11.3694 3.16561 11.3375 3.10878 11.2807C3.05195 11.2239 3.02003 11.1468 3.02003 11.0664V3.348C3.02003 3.22384 3.04448 3.10089 3.092 2.98618C3.13951 2.87147 3.20915 2.76724 3.29695 2.67944C3.38475 2.59165 3.48898 2.522 3.60369 2.47449C3.7184 2.42697 3.84134 2.40252 3.96551 2.40252H15.3901C15.5158 2.4001 15.6407 2.42277 15.7575 2.4692C15.8743 2.51563 15.9807 2.58489 16.0704 2.67293C16.1601 2.76097 16.2314 2.86602 16.2801 2.98193C16.3287 3.09784 16.3538 3.22229 16.3537 3.348V11.0664C16.3537 11.1468 16.3218 11.2239 16.265 11.2807C16.2081 11.3375 16.1311 11.3694 16.0507 11.3694Z" fill="#337265"/>
<path d="M9.68688 12.582C8.91958 12.5826 8.16933 12.3556 7.53105 11.9298C6.89277 11.5039 6.39513 10.8983 6.10108 10.1896C5.80704 9.48089 5.72979 8.70087 5.87911 7.94824C6.02844 7.19561 6.39763 6.50417 6.93998 5.9614C7.48233 5.41862 8.17348 5.04889 8.926 4.89897C9.67851 4.74906 10.4586 4.8257 11.1675 5.11919C11.8765 5.41269 12.4825 5.90986 12.9088 6.5478C13.3352 7.18575 13.5627 7.93581 13.5627 8.70312C13.5619 9.73109 13.1534 10.7168 12.4268 11.444C11.7002 12.1711 10.7149 12.5804 9.68688 12.582ZM9.68688 5.43333C9.03932 5.43273 8.40613 5.62424 7.86746 5.98363C7.32878 6.34303 6.90883 6.85414 6.66074 7.45229C6.41265 8.05045 6.34758 8.70875 6.47377 9.3439C6.59995 9.97905 6.91172 10.5625 7.36962 11.0204C7.82751 11.4783 8.41095 11.79 9.0461 11.9162C9.68124 12.0424 10.3395 11.9773 10.9377 11.7293C11.5359 11.4812 12.047 11.0612 12.4064 10.5225C12.7658 9.98386 12.9573 9.35068 12.9567 8.70312C12.9559 7.83616 12.6111 7.00494 11.9981 6.39191C11.3851 5.77888 10.5538 5.43413 9.68688 5.43333Z" fill="#E26F64"/>
<path d="M9.68688 10.6268C9.39192 10.6268 9.10904 10.5096 8.90047 10.3011C8.6919 10.0925 8.57473 9.80962 8.57473 9.51466C8.57473 9.43429 8.60666 9.35721 8.66349 9.30038C8.72032 9.24355 8.7974 9.21162 8.87777 9.21162C8.95814 9.21162 9.03522 9.24355 9.09205 9.30038C9.14888 9.35721 9.18081 9.43429 9.18081 9.51466C9.18141 9.61462 9.21159 9.71217 9.26756 9.79499C9.32354 9.87782 9.40278 9.94221 9.49531 9.98005C9.58783 10.0179 9.68949 10.0275 9.78746 10.0076C9.88542 9.98774 9.97531 9.9393 10.0458 9.86841C10.1163 9.79751 10.1642 9.70734 10.1834 9.60925C10.2027 9.51117 10.1925 9.40957 10.1541 9.31727C10.1157 9.22497 10.0509 9.14611 9.96772 9.09064C9.88457 9.03516 9.78684 9.00556 9.68688 9.00556C9.46692 9.00556 9.25189 8.94033 9.069 8.81812C8.88611 8.69592 8.74356 8.52223 8.65939 8.31901C8.57521 8.11579 8.55319 7.89217 8.5961 7.67643C8.63901 7.4607 8.74493 7.26253 8.90047 7.10699C9.05601 6.95146 9.25417 6.84553 9.46991 6.80262C9.68565 6.75971 9.90926 6.78173 10.1125 6.86591C10.3157 6.95008 10.4894 7.09263 10.6116 7.27552C10.7338 7.45842 10.799 7.67344 10.799 7.8934C10.799 7.97377 10.7671 8.05085 10.7103 8.10768C10.6534 8.16452 10.5764 8.19644 10.496 8.19644C10.4156 8.19644 10.3385 8.16452 10.2817 8.10768C10.2249 8.05085 10.193 7.97377 10.193 7.8934C10.193 7.79331 10.1633 7.69547 10.1077 7.61224C10.0521 7.52902 9.97302 7.46415 9.88055 7.42585C9.78807 7.38755 9.68632 7.37753 9.58815 7.39705C9.48998 7.41658 9.39981 7.46478 9.32903 7.53555C9.25826 7.60633 9.21006 7.6965 9.19053 7.79467C9.171 7.89284 9.18103 7.9946 9.21933 8.08707C9.25763 8.17954 9.3225 8.25858 9.40572 8.31419C9.48894 8.3698 9.58679 8.39948 9.68688 8.39948C9.9722 8.41437 10.2409 8.53819 10.4376 8.74541C10.6343 8.95263 10.744 9.22744 10.744 9.51315C10.744 9.79885 10.6343 10.0737 10.4376 10.2809C10.2409 10.4881 9.9722 10.6119 9.68688 10.6268Z" fill="#E26F64"/>
<path d="M9.68688 11.1478C9.60651 11.1478 9.52943 11.1159 9.4726 11.0591C9.41577 11.0022 9.38384 10.9251 9.38384 10.8448V10.3235C9.38384 10.2432 9.41577 10.1661 9.4726 10.1093C9.52943 10.0524 9.60651 10.0205 9.68688 10.0205C9.76725 10.0205 9.84433 10.0524 9.90116 10.1093C9.95799 10.1661 9.98992 10.2432 9.98992 10.3235V10.8448C9.98992 10.9251 9.95799 11.0022 9.90116 11.0591C9.84433 11.1159 9.76725 11.1478 9.68688 11.1478Z" fill="#E26F64"/>
<path d="M9.68688 7.38707C9.60651 7.38707 9.52943 7.35514 9.4726 7.29831C9.41577 7.24148 9.38384 7.1644 9.38384 7.08403V6.5628C9.38384 6.48243 9.41577 6.40535 9.4726 6.34852C9.52943 6.29169 9.60651 6.25977 9.68688 6.25977C9.76725 6.25977 9.84433 6.29169 9.90116 6.34852C9.95799 6.40535 9.98992 6.48243 9.98992 6.5628V7.08403C9.98992 7.1644 9.95799 7.24148 9.90116 7.29831C9.84433 7.35514 9.76725 7.38707 9.68688 7.38707Z" fill="#E26F64"/>
</svg>
