<svg width="202" height="160" viewBox="0 0 202 160" fill="none" xmlns="http://www.w3.org/2000/svg">
<path d="M196.814 36.727H195.377V30.4991C195.377 28.163 193.466 26.2516 191.13 26.2516H96.2238L43.528 0.930476C41.4224 -0.0814641 38.8719 0.813528 37.86 2.91919L1.35571 78.8878C0.343766 80.9935 1.2391 83.5445 3.34465 84.5558L8.22377 86.9004L7.0402 89.3635C6.02826 91.4692 6.92359 94.0196 9.02926 95.0315L37.841 108.876V114.784C37.841 117.12 39.7526 119.031 42.0888 119.031H43.5258V125.259C43.5258 127.595 45.4373 129.507 47.7735 129.507H80.7744L143.365 159.582C145.471 160.594 148.022 159.699 149.033 157.594L162.53 129.507H196.814C199.15 129.507 201.061 127.595 201.061 125.259V40.9746C201.061 38.6385 199.15 36.727 196.814 36.727Z" fill="#BBBBBB"/>
<path d="M191.13 26.2517H96.2238L43.528 0.930476C41.4224 -0.0814642 38.8719 0.813528 37.86 2.91919L1.35571 78.8878C0.343766 80.9935 1.2391 83.5445 3.34465 84.5558L8.22377 86.9004L37.8412 101.132V114.784C37.8412 117.12 39.7527 119.031 42.0889 119.031H75.0895L137.681 149.107C139.786 150.119 142.337 149.224 143.349 147.118L156.845 119.031H191.129C193.466 119.031 195.377 117.12 195.377 114.784V30.4992C195.377 28.163 193.466 26.2517 191.13 26.2517Z" fill="#E2E2E2"/>
<path d="M191.13 26.25H42.0893C39.7532 26.25 37.8416 28.1615 37.8416 30.4975V114.782C37.8416 117.118 39.7531 119.029 42.0893 119.029H191.13C193.466 119.029 195.377 117.118 195.377 114.782V30.4975C195.377 28.1614 193.466 26.25 191.13 26.25Z" fill="white"/>
<path d="M191.13 26.25H42.0893C39.7532 26.25 37.8416 28.1615 37.8416 30.4975V44.4646H195.377V30.4975C195.377 28.1614 193.466 26.25 191.13 26.25Z" fill="#E9E9E9"/>
<path d="M78.8055 54.9121H51.8429C49.5067 54.9121 47.5957 56.8235 47.5957 59.1595V86.1221C47.5957 88.4582 49.5067 90.3693 51.8429 90.3693H78.8055C81.1416 90.3693 83.0532 88.4582 83.0532 86.1221V59.1595C83.0533 56.8233 81.1416 54.9121 78.8055 54.9121Z" fill="#E9E9E9"/>
<path d="M93.6428 66.1673H180.843C181.961 66.1673 182.876 65.2521 182.876 64.1338V56.9456C182.876 55.8271 181.961 54.9121 180.843 54.9121H93.6428C92.5242 54.9121 91.6096 55.8271 91.6096 56.9456V64.1338C91.6095 65.2521 92.5241 66.1673 93.6428 66.1673Z" fill="#E6E7E8"/>
<path d="M92.5226 76.6452H181.963C182.465 76.6452 182.876 76.2344 182.876 75.7323V71.9306C182.876 71.4285 182.465 71.0176 181.963 71.0176H92.5226C92.0202 71.0176 91.6096 71.4284 91.6096 71.9306V75.7323C91.6096 76.2344 92.0202 76.6452 92.5226 76.6452Z" fill="#E6E7E8"/>
<path d="M65.3009 75.0196C69.7979 75.0196 73.4439 71.3739 73.4439 66.877C73.4439 62.38 69.798 58.7344 65.3009 58.7344C60.804 58.7344 57.1587 62.38 57.1587 66.877C57.1586 71.3739 60.804 75.0196 65.3009 75.0196Z" fill="white"/>
<path d="M65.301 76.1035C59.1128 76.1035 54.0903 81.498 54.0151 88.1824H76.5868C76.5122 81.498 71.4891 76.1035 65.301 76.1035Z" fill="white"/>
<path d="M101.919 84.216L101.709 84.1248C101.267 83.933 100.749 84.1375 100.557 84.5791L96.2073 94.5977C96.0155 95.0393 96.22 95.5577 96.6616 95.7495L96.8723 95.8407C97.3137 96.0325 97.8317 95.828 98.0234 95.3864L102.373 85.3678C102.565 84.9261 102.361 84.4077 101.919 84.216Z" fill="#E6E7E8"/>
<path d="M91.7791 95.7495L91.9896 95.8407C92.4312 96.0325 92.9491 95.828 93.1409 95.3864L97.4908 85.3678C97.6826 84.9262 97.4781 84.4078 97.0365 84.216L96.8264 84.1248C96.3848 83.933 95.8665 84.1375 95.6752 84.5791L91.3247 94.5977C91.1336 95.0393 91.3375 95.5577 91.7791 95.7495Z" fill="#E6E7E8"/>
<path d="M101.214 95.7495L101.424 95.8407C101.866 96.0325 102.384 95.828 102.575 95.3864L106.926 85.3678C107.117 84.9262 106.913 84.4078 106.472 84.216L106.261 84.1248C105.819 83.933 105.302 84.1375 105.11 84.5791L100.76 94.5977C100.568 95.0393 100.773 95.5577 101.214 95.7495Z" fill="#E6E7E8"/>
<path d="M106.289 95.7495L106.499 95.8407C106.941 96.0325 107.459 95.828 107.651 95.3864L112 85.3678C112.192 84.9262 111.988 84.4078 111.546 84.216L111.336 84.1248C110.895 83.933 110.376 84.1375 110.185 84.5791L105.834 94.5977C105.643 95.0393 105.847 95.5577 106.289 95.7495Z" fill="#E6E7E8"/>
<path d="M111.548 95.7495L111.758 95.8407C112.2 96.0325 112.718 95.828 112.91 95.3864L117.26 85.3678C117.452 84.9262 117.247 84.4078 116.806 84.216L116.596 84.1248C116.154 83.933 115.636 84.1375 115.444 84.5791L111.094 94.5977C110.902 95.0393 111.107 95.5577 111.548 95.7495Z" fill="#E6E7E8"/>
<path d="M116.808 95.7495L117.018 95.8407C117.459 96.0325 117.977 95.828 118.169 95.3864L122.519 85.3678C122.711 84.9262 122.506 84.4078 122.064 84.216L121.855 84.1248C121.413 83.933 120.895 84.1375 120.703 84.5791L116.353 94.5977C116.161 95.0393 116.366 95.5577 116.808 95.7495Z" fill="#E6E7E8"/>
<path d="M122.436 95.7495L122.646 95.8407C123.087 96.0325 123.606 95.828 123.797 95.3864L128.147 85.3678C128.339 84.9262 128.135 84.4078 127.693 84.216L127.483 84.1248C127.042 83.933 126.523 84.1375 126.331 84.5791L121.981 94.5977C121.79 95.0393 121.994 95.5577 122.436 95.7495Z" fill="#E6E7E8"/>
<path d="M127.972 95.7495L128.182 95.8407C128.624 96.0325 129.142 95.828 129.334 95.3864L133.684 85.3678C133.875 84.9262 133.671 84.4078 133.229 84.216L133.019 84.1248C132.578 83.933 132.06 84.1375 131.868 84.5791L127.518 94.5977C127.326 95.0393 127.531 95.5577 127.972 95.7495Z" fill="#E6E7E8"/>
<path d="M133.693 95.7495L133.903 95.8407C134.345 96.0325 134.863 95.828 135.055 95.3864L139.405 85.3678C139.597 84.9262 139.392 84.4078 138.951 84.216L138.74 84.1248C138.299 83.933 137.781 84.1375 137.589 84.5791L133.239 94.5977C133.047 95.0393 133.252 95.5577 133.693 95.7495Z" fill="#E6E7E8"/>
<path d="M139.045 95.7495L139.255 95.8407C139.697 96.0325 140.215 95.828 140.406 95.3864L144.756 85.3678C144.948 84.9262 144.744 84.4078 144.302 84.216L144.092 84.1248C143.651 83.933 143.132 84.1375 142.941 84.5791L138.591 94.5977C138.399 95.0393 138.603 95.5577 139.045 95.7495Z" fill="#E6E7E8"/>
<path d="M144.674 95.7495L144.884 95.8407C145.326 96.0325 145.844 95.828 146.036 95.3864L150.386 85.3678C150.577 84.9262 150.373 84.4078 149.931 84.216L149.721 84.1248C149.279 83.933 148.761 84.1375 148.57 84.5791L144.22 94.5977C144.028 95.0393 144.232 95.5577 144.674 95.7495Z" fill="#E6E7E8"/>
<path d="M150.026 95.7495L150.236 95.8407C150.678 96.0325 151.196 95.828 151.387 95.3864L155.737 85.3678C155.929 84.9262 155.725 84.4078 155.283 84.216L155.073 84.1248C154.631 83.933 154.113 84.1375 153.922 84.5791L149.571 94.5977C149.38 95.0393 149.584 95.5577 150.026 95.7495Z" fill="#E6E7E8"/>
<path d="M155.747 95.7495L155.957 95.8407C156.398 96.0325 156.917 95.828 157.108 95.3864L161.458 85.3678C161.65 84.9262 161.446 84.4078 161.004 84.216L160.793 84.1248C160.352 83.933 159.834 84.1375 159.642 84.5791L155.292 94.5977C155.1 95.0393 155.305 95.5577 155.747 95.7495Z" fill="#E6E7E8"/>
<path d="M161.097 95.7495L161.308 95.8407C161.749 96.0325 162.267 95.828 162.459 95.3864L166.809 85.3678C167.001 84.9262 166.796 84.4078 166.355 84.216L166.145 84.1248C165.703 83.933 165.185 84.1375 164.993 84.5791L160.643 94.5977C160.452 95.0393 160.656 95.5577 161.097 95.7495Z" fill="#E6E7E8"/>
<path d="M166.634 95.7495L166.844 95.8407C167.286 96.0325 167.804 95.828 167.996 95.3864L172.346 85.3678C172.538 84.9262 172.333 84.4078 171.891 84.216L171.681 84.1248C171.239 83.933 170.721 84.1375 170.53 84.5791L166.18 94.5977C165.988 95.0393 166.193 95.5577 166.634 95.7495Z" fill="#E6E7E8"/>
<path d="M171.5 95.7495L171.71 95.8407C172.151 96.0325 172.67 95.828 172.862 95.3864L177.212 85.3678C177.403 84.9262 177.199 84.4078 176.757 84.216L176.547 84.1248C176.106 83.933 175.587 84.1375 175.395 84.5791L171.045 94.5977C170.854 95.0393 171.058 95.5577 171.5 95.7495Z" fill="#E6E7E8"/>
<path d="M182.897 100.281H51.8429C49.5067 100.281 47.5957 102.193 47.5957 104.529V108.474C47.5957 110.81 49.5067 112.722 51.8429 112.722H182.897C185.233 112.722 187.145 110.81 187.145 108.474V104.529C187.145 102.193 185.233 100.281 182.897 100.281Z" fill="#E6E7E8"/>
<path d="M54.9443 108.845H179.76C180.87 108.845 181.779 107.936 181.779 106.826V106.661C181.779 105.551 180.87 104.643 179.76 104.643H54.9443C53.834 104.643 52.9255 105.551 52.9255 106.661V106.826C52.9255 107.936 53.834 108.845 54.9443 108.845Z" fill="white"/>
</svg>
