<svg width="70" height="70" viewBox="0 0 70 70" fill="none" xmlns="http://www.w3.org/2000/svg">
<rect width="70" height="70" fill="#337265"/>
<rect y="47" width="70" height="23" fill="white"/>
<path d="M35 62C26.717 62 20 55.283 20 47C20 38.717 26.717 32 35 32C43.283 32 50 38.717 50 47C50 55.283 43.283 62 35 62Z" fill="#FF0000"/>
<path d="M44.546 42.1735C44.318 41.3095 43.643 40.6315 42.785 40.4005C41.231 39.9805 35.003 39.9805 35.003 39.9805C35.003 39.9805 28.772 39.9805 27.221 40.4005C26.363 40.6315 25.688 41.3095 25.46 42.1735C25.04 43.7365 25.04 47.0005 25.04 47.0005C25.04 47.0005 25.04 50.2645 25.457 51.8275C25.685 52.6915 26.36 53.3695 27.218 53.6005C28.772 54.0205 35 54.0205 35 54.0205C35 54.0205 41.231 54.0205 42.782 53.6005C43.64 53.3695 44.315 52.6915 44.543 51.8275C44.96 50.2645 44.96 47.0005 44.96 47.0005C44.96 47.0005 44.96 43.7365 44.546 42.1735ZM32.963 49.9615V44.0395L38.168 47.0005L32.963 49.9615Z" fill="white"/>
<path d="M3.65456 19V11.7273H8.55513V12.995H5.19221V14.728H8.303V15.9957H5.19221V17.7322H8.56934V19H3.65456ZM11.0134 13.5455L12.0148 15.4524L13.0411 13.5455H14.593L13.0127 16.2727L14.6356 19H13.0908L12.0148 17.1143L10.9566 19H9.39409L11.0134 16.2727L9.45091 13.5455H11.0134ZM15.4914 19V13.5455H17.0042V19H15.4914ZM16.2513 12.8423C16.0264 12.8423 15.8335 12.7678 15.6725 12.6186C15.5139 12.4671 15.4346 12.286 15.4346 12.0753C15.4346 11.867 15.5139 11.6882 15.6725 11.5391C15.8335 11.3875 16.0264 11.3118 16.2513 11.3118C16.4762 11.3118 16.668 11.3875 16.8266 11.5391C16.9876 11.6882 17.0681 11.867 17.0681 12.0753C17.0681 12.286 16.9876 12.4671 16.8266 12.6186C16.668 12.7678 16.4762 12.8423 16.2513 12.8423ZM21.1173 13.5455V14.6818H17.8325V13.5455H21.1173ZM18.5782 12.2386H20.091V17.3239C20.091 17.4635 20.1123 17.5724 20.1549 17.6506C20.1975 17.7263 20.2567 17.7796 20.3325 17.8104C20.4106 17.8411 20.5006 17.8565 20.6024 17.8565C20.6734 17.8565 20.7444 17.8506 20.8154 17.8388C20.8865 17.8246 20.9409 17.8139 20.9788 17.8068L21.2167 18.9325C21.141 18.9562 21.0344 18.9834 20.8971 19.0142C20.7598 19.0473 20.5929 19.0675 20.3964 19.0746C20.0318 19.0888 19.7122 19.0402 19.4376 18.929C19.1653 18.8177 18.9535 18.6449 18.8019 18.4105C18.6504 18.1761 18.5758 17.8802 18.5782 17.5227V12.2386ZM26.6473 19.1065C26.1454 19.1065 25.7122 19.0166 25.3476 18.8366C24.983 18.6567 24.7024 18.4129 24.5059 18.1051C24.3118 17.795 24.2148 17.4493 24.2148 17.0682C24.2148 16.7841 24.2716 16.532 24.3852 16.3118C24.4988 16.0916 24.6575 15.8892 24.8611 15.7045C25.0647 15.5175 25.3014 15.3317 25.5713 15.147L26.9811 14.2202C27.1634 14.1042 27.2971 13.9822 27.3824 13.8544C27.4676 13.7242 27.5102 13.5833 27.5102 13.4318C27.5102 13.2874 27.4522 13.1536 27.3362 13.0305C27.2202 12.9074 27.0557 12.8471 26.8426 12.8494C26.7006 12.8494 26.5774 12.8814 26.4733 12.9453C26.3691 13.0069 26.2874 13.0885 26.2282 13.1903C26.1714 13.2898 26.143 13.401 26.143 13.5241C26.143 13.6757 26.1856 13.8295 26.2709 13.9858C26.3561 14.142 26.4697 14.3078 26.6118 14.483C26.7538 14.6558 26.9089 14.8428 27.077 15.044L30.5251 19H28.9484L26.072 15.7969C25.8826 15.5814 25.6932 15.3565 25.5038 15.1222C25.3168 14.8854 25.1605 14.6345 25.0351 14.3693C24.9096 14.1018 24.8469 13.8118 24.8469 13.4993C24.8469 13.1465 24.9285 12.8293 25.0919 12.5476C25.2576 12.2659 25.4896 12.0433 25.7879 11.88C26.0862 11.7143 26.4342 11.6314 26.8319 11.6314C27.2202 11.6314 27.5552 11.7107 27.8369 11.8693C28.121 12.0256 28.3388 12.2339 28.4903 12.4943C28.6442 12.7524 28.7211 13.0365 28.7211 13.3466C28.7211 13.6899 28.6359 14.0012 28.4655 14.2805C28.2974 14.5575 28.0606 14.8061 27.7552 15.0263L26.2709 16.0952C26.0696 16.242 25.9205 16.3923 25.8234 16.5462C25.7287 16.6977 25.6814 16.8433 25.6814 16.983C25.6814 17.1558 25.724 17.3108 25.8092 17.4482C25.8944 17.5855 26.0152 17.6944 26.1714 17.7749C26.3277 17.853 26.5112 17.892 26.7219 17.892C26.9775 17.892 27.2297 17.834 27.4782 17.718C27.7292 17.5997 27.9565 17.4328 28.1601 17.2173C28.366 16.9995 28.5306 16.7415 28.6537 16.4432C28.7768 16.1449 28.8383 15.8146 28.8383 15.4524H30.0919C30.0919 15.8975 30.0434 16.2988 29.9463 16.6562C29.8492 17.0114 29.7143 17.3215 29.5415 17.5866C29.3686 17.8494 29.171 18.0649 28.9484 18.233C28.8774 18.2779 28.8087 18.3205 28.7425 18.3608C28.6762 18.401 28.6075 18.4437 28.5365 18.4886C28.2666 18.7064 27.9648 18.8639 27.6309 18.9609C27.2995 19.058 26.9716 19.1065 26.6473 19.1065ZM39.9152 14.2734H38.3598C38.3314 14.0722 38.2734 13.8935 38.1858 13.7372C38.0982 13.5786 37.9858 13.4437 37.8485 13.3324C37.7111 13.2211 37.5525 13.1359 37.3726 13.0767C37.195 13.0175 37.0021 12.9879 36.7938 12.9879C36.4173 12.9879 36.0895 13.0814 35.8101 13.2685C35.5307 13.4531 35.3141 13.723 35.1602 14.0781C35.0064 14.4309 34.9294 14.8594 34.9294 15.3636C34.9294 15.8821 35.0064 16.3177 35.1602 16.6705C35.3165 17.0232 35.5343 17.2895 35.8137 17.4695C36.093 17.6494 36.4162 17.7393 36.7831 17.7393C36.9891 17.7393 37.1797 17.7121 37.3548 17.6577C37.5324 17.6032 37.6898 17.5239 37.8271 17.4197C37.9645 17.3132 38.0781 17.1842 38.1681 17.0327C38.2604 16.8812 38.3243 16.7083 38.3598 16.5142L39.9152 16.5213C39.875 16.8551 39.7744 17.1771 39.6134 17.4872C39.4548 17.795 39.2405 18.0708 38.9706 18.3146C38.7031 18.5561 38.3835 18.7479 38.0118 18.8899C37.6425 19.0296 37.2246 19.0994 36.7583 19.0994C36.1096 19.0994 35.5296 18.9527 35.0182 18.6591C34.5092 18.3655 34.1067 17.9406 33.8108 17.3842C33.5173 16.8279 33.3705 16.1544 33.3705 15.3636C33.3705 14.5705 33.5196 13.8958 33.8179 13.3395C34.1162 12.7831 34.521 12.3594 35.0324 12.0682C35.5438 11.7746 36.1191 11.6278 36.7583 11.6278C37.1797 11.6278 37.5703 11.687 37.9301 11.8054C38.2923 11.9238 38.6131 12.0966 38.8925 12.3239C39.1718 12.5488 39.3991 12.8246 39.5743 13.1513C39.7519 13.478 39.8655 13.852 39.9152 14.2734ZM42.5448 19.103C42.1968 19.103 41.8867 19.0426 41.6144 18.9219C41.3422 18.7988 41.1267 18.6177 40.9681 18.3786C40.8119 18.1371 40.7338 17.8364 40.7338 17.4766C40.7338 17.1735 40.7894 16.919 40.9007 16.7131C41.0119 16.5071 41.1634 16.3414 41.3552 16.2159C41.547 16.0904 41.7648 15.9957 42.0086 15.9318C42.2548 15.8679 42.5129 15.8229 42.7828 15.7969C43.1 15.7637 43.3557 15.733 43.5498 15.7045C43.7439 15.6738 43.8848 15.6288 43.9724 15.5696C44.06 15.5104 44.1038 15.4228 44.1038 15.3068V15.2855C44.1038 15.0606 44.0328 14.8866 43.8907 14.7635C43.751 14.6404 43.5522 14.5788 43.2941 14.5788C43.0219 14.5788 42.8052 14.6392 42.6443 14.7599C42.4833 14.8783 42.3767 15.0275 42.3247 15.2074L40.9255 15.0938C40.9965 14.7623 41.1362 14.4759 41.3445 14.2344C41.5529 13.9905 41.8216 13.8035 42.1507 13.6733C42.4821 13.5407 42.8656 13.4744 43.3012 13.4744C43.6043 13.4744 43.8943 13.5099 44.1713 13.581C44.4506 13.652 44.698 13.7621 44.9134 13.9112C45.1312 14.0604 45.3029 14.2521 45.4284 14.4865C45.5538 14.7185 45.6166 14.9967 45.6166 15.321V19H44.1819V18.2436H44.1393C44.0517 18.4141 43.9345 18.5644 43.7877 18.6946C43.641 18.8224 43.4646 18.9231 43.2586 18.9964C43.0526 19.0675 42.8147 19.103 42.5448 19.103ZM42.9781 18.0589C43.2006 18.0589 43.3971 18.0152 43.5676 17.9276C43.738 17.8376 43.8718 17.7169 43.9688 17.5653C44.0659 17.4138 44.1144 17.2422 44.1144 17.0504V16.4716C44.0671 16.5024 44.002 16.5308 43.9191 16.5568C43.8386 16.5805 43.7475 16.603 43.6457 16.6243C43.5439 16.6432 43.4421 16.661 43.3403 16.6776C43.2385 16.6918 43.1462 16.7048 43.0633 16.7166C42.8857 16.7427 42.7307 16.7841 42.5981 16.8409C42.4655 16.8977 42.3625 16.9747 42.2892 17.0717C42.2158 17.1664 42.1791 17.2848 42.1791 17.4268C42.1791 17.6328 42.2536 17.7902 42.4028 17.8991C42.5543 18.0057 42.7461 18.0589 42.9781 18.0589ZM48.303 15.8466V19H46.7902V13.5455H48.232V14.5078H48.2959C48.4166 14.1906 48.6191 13.9396 48.9031 13.755C49.1872 13.5679 49.5317 13.4744 49.9365 13.4744C50.3153 13.4744 50.6456 13.5573 50.9273 13.723C51.209 13.8887 51.428 14.1255 51.5843 14.4332C51.7405 14.7386 51.8186 15.1032 51.8186 15.527V19H50.3058V15.7969C50.3082 15.4631 50.223 15.2027 50.0502 15.0156C49.8773 14.8262 49.6394 14.7315 49.3364 14.7315C49.1328 14.7315 48.9529 14.7753 48.7966 14.8629C48.6427 14.9505 48.522 15.0784 48.4344 15.2464C48.3492 15.4122 48.3054 15.6122 48.303 15.8466ZM55.4754 19.1065C54.9167 19.1065 54.4361 18.9882 54.0336 18.7514C53.6336 18.5123 53.3258 18.1809 53.1104 17.7571C52.8973 17.3333 52.7907 16.8456 52.7907 16.294C52.7907 15.7353 52.8985 15.2453 53.1139 14.8239C53.3317 14.4001 53.6407 14.0698 54.0407 13.8331C54.4408 13.594 54.9167 13.4744 55.4683 13.4744C55.9442 13.4744 56.3608 13.5608 56.7183 13.7337C57.0758 13.9065 57.3587 14.1491 57.567 14.4616C57.7754 14.7741 57.8902 15.1411 57.9115 15.5625H56.4839C56.4437 15.2902 56.3372 15.0713 56.1643 14.9055C55.9939 14.7375 55.7702 14.6534 55.4932 14.6534C55.2588 14.6534 55.054 14.7173 54.8788 14.8452C54.706 14.9706 54.5711 15.1541 54.474 15.3956C54.3769 15.6371 54.3284 15.9295 54.3284 16.2727C54.3284 16.6207 54.3757 16.9167 54.4704 17.1605C54.5675 17.4044 54.7036 17.5902 54.8788 17.718C55.054 17.8459 55.2588 17.9098 55.4932 17.9098C55.666 17.9098 55.8211 17.8743 55.9584 17.8033C56.098 17.7322 56.2129 17.6293 56.3028 17.4943C56.3952 17.357 56.4555 17.1925 56.4839 17.0007H57.9115C57.8878 17.4174 57.7742 17.7843 57.5706 18.1016C57.3693 18.4164 57.0912 18.6626 56.7361 18.8402C56.3809 19.0178 55.9607 19.1065 55.4754 19.1065ZM61.3659 19.1065C60.8048 19.1065 60.3218 18.9929 59.917 18.7656C59.5145 18.536 59.2044 18.2116 58.9866 17.7926C58.7688 17.3712 58.6599 16.8729 58.6599 16.2976C58.6599 15.7365 58.7688 15.2441 58.9866 14.8203C59.2044 14.3965 59.511 14.0663 59.9063 13.8295C60.3041 13.5928 60.7704 13.4744 61.3055 13.4744C61.6653 13.4744 62.0003 13.5324 62.3105 13.6484C62.623 13.7621 62.8952 13.9337 63.1272 14.1634C63.3616 14.393 63.5439 14.6818 63.6741 15.0298C63.8043 15.3755 63.8694 15.7803 63.8694 16.2443V16.6598H59.2636V15.7223H62.4454C62.4454 15.5045 62.3981 15.3116 62.3034 15.1435C62.2087 14.9754 62.0773 14.844 61.9092 14.7493C61.7435 14.6522 61.5505 14.6037 61.3303 14.6037C61.1007 14.6037 60.8971 14.657 60.7195 14.7635C60.5444 14.8677 60.407 15.0085 60.3076 15.1861C60.2082 15.3613 60.1573 15.5566 60.1549 15.772V16.6634C60.1549 16.9332 60.2046 17.1664 60.3041 17.3629C60.4059 17.5594 60.5491 17.7109 60.7338 17.8175C60.9184 17.924 61.1374 17.9773 61.3907 17.9773C61.5588 17.9773 61.7127 17.9536 61.8524 17.9062C61.992 17.8589 62.1116 17.7879 62.211 17.6932C62.3105 17.5985 62.3862 17.4825 62.4383 17.3452L63.8374 17.4375C63.7664 17.7737 63.6208 18.0672 63.4007 18.3182C63.1829 18.5668 62.9011 18.7609 62.5555 18.9006C62.2122 19.0379 61.8157 19.1065 61.3659 19.1065ZM66.3694 11.7273V19H64.8566V11.7273H66.3694Z" fill="#FEE52B"/>
</svg>
