<svg width="70" height="70" viewBox="0 0 70 70" fill="none" xmlns="http://www.w3.org/2000/svg">
<rect width="70" height="70" fill="#492C82"/>
<rect y="47" width="70" height="23" fill="white"/>
<path d="M35 62C26.717 62 20 55.283 20 47C20 38.717 26.717 32 35 32C43.283 32 50 38.717 50 47C50 55.283 43.283 62 35 62Z" fill="#FF0000"/>
<path d="M44.546 42.1735C44.318 41.3095 43.643 40.6315 42.785 40.4005C41.231 39.9805 35.003 39.9805 35.003 39.9805C35.003 39.9805 28.772 39.9805 27.221 40.4005C26.363 40.6315 25.688 41.3095 25.46 42.1735C25.04 43.7365 25.04 47.0005 25.04 47.0005C25.04 47.0005 25.04 50.2645 25.457 51.8275C25.685 52.6915 26.36 53.3695 27.218 53.6005C28.772 54.0205 35 54.0205 35 54.0205C35 54.0205 41.231 54.0205 42.782 53.6005C43.64 53.3695 44.315 52.6915 44.543 51.8275C44.96 50.2645 44.96 47.0005 44.96 47.0005C44.96 47.0005 44.96 43.7365 44.546 42.1735ZM32.963 49.9615V44.0395L38.168 47.0005L32.963 49.9615Z" fill="white"/>
<path d="M10.9695 21V12.2727H14.4126C15.0746 12.2727 15.6385 12.3991 16.1044 12.652C16.5703 12.902 16.9254 13.25 17.1697 13.696C17.4169 14.1392 17.5405 14.6506 17.5405 15.2301C17.5405 15.8097 17.4155 16.321 17.1655 16.7642C16.9155 17.2074 16.5533 17.5526 16.0788 17.7997C15.6072 18.0469 15.0362 18.1705 14.3658 18.1705H12.1712V16.6918H14.0675C14.4226 16.6918 14.7152 16.6307 14.9453 16.5085C15.1783 16.3835 15.3516 16.2116 15.4652 15.9929C15.5817 15.7713 15.6399 15.517 15.6399 15.2301C15.6399 14.9403 15.5817 14.6875 15.4652 14.4716C15.3516 14.2528 15.1783 14.0838 14.9453 13.9645C14.7124 13.8423 14.4169 13.7812 14.0589 13.7812H12.8146V21H10.9695ZM21.5568 21.1278C20.8949 21.1278 20.3224 20.9872 19.8395 20.706C19.3594 20.4219 18.9886 20.027 18.7273 19.5213C18.4659 19.0128 18.3352 18.4233 18.3352 17.7528C18.3352 17.0767 18.4659 16.4858 18.7273 15.9801C18.9886 15.4716 19.3594 15.0767 19.8395 14.7955C20.3224 14.5114 20.8949 14.3693 21.5568 14.3693C22.2188 14.3693 22.7898 14.5114 23.2699 14.7955C23.7528 15.0767 24.125 15.4716 24.3864 15.9801C24.6477 16.4858 24.7784 17.0767 24.7784 17.7528C24.7784 18.4233 24.6477 19.0128 24.3864 19.5213C24.125 20.027 23.7528 20.4219 23.2699 20.706C22.7898 20.9872 22.2188 21.1278 21.5568 21.1278ZM21.5653 19.7216C21.8665 19.7216 22.1179 19.6364 22.3196 19.4659C22.5213 19.2926 22.6733 19.0568 22.7756 18.7585C22.8807 18.4602 22.9332 18.1207 22.9332 17.7401C22.9332 17.3594 22.8807 17.0199 22.7756 16.7216C22.6733 16.4233 22.5213 16.1875 22.3196 16.0142C22.1179 15.8409 21.8665 15.7543 21.5653 15.7543C21.2614 15.7543 21.0057 15.8409 20.7983 16.0142C20.5938 16.1875 20.4389 16.4233 20.3338 16.7216C20.2315 17.0199 20.1804 17.3594 20.1804 17.7401C20.1804 18.1207 20.2315 18.4602 20.3338 18.7585C20.4389 19.0568 20.5938 19.2926 20.7983 19.4659C21.0057 19.6364 21.2614 19.7216 21.5653 19.7216ZM25.9588 21V14.4545H27.7188V15.5966H27.7869C27.9063 15.1903 28.1065 14.8835 28.3878 14.6761C28.669 14.4659 28.9929 14.3608 29.3594 14.3608C29.4503 14.3608 29.5483 14.3665 29.6534 14.3778C29.7585 14.3892 29.8509 14.4048 29.9304 14.4247V16.0355C29.8452 16.0099 29.7273 15.9872 29.5767 15.9673C29.4261 15.9474 29.2884 15.9375 29.1634 15.9375C28.8963 15.9375 28.6577 15.9957 28.4474 16.1122C28.2401 16.2259 28.0753 16.3849 27.9531 16.5895C27.8338 16.794 27.7741 17.0298 27.7741 17.2969V21H25.9588ZM34.6786 14.4545V15.8182H30.7369V14.4545H34.6786ZM31.6317 12.8864H33.4471V18.9886C33.4471 19.1562 33.4727 19.2869 33.5238 19.3807C33.5749 19.4716 33.646 19.5355 33.7369 19.5724C33.8306 19.6094 33.9386 19.6278 34.0607 19.6278C34.146 19.6278 34.2312 19.6207 34.3164 19.6065C34.4016 19.5895 34.467 19.5767 34.5124 19.5682L34.7979 20.919C34.707 20.9474 34.5792 20.9801 34.4144 21.017C34.2496 21.0568 34.0494 21.081 33.8136 21.0895C33.3761 21.1065 32.9925 21.0483 32.663 20.9148C32.3363 20.7812 32.082 20.5739 31.9002 20.2926C31.7184 20.0114 31.6289 19.6562 31.6317 19.2273V12.8864ZM39.381 14.4545V15.8182H35.3413V14.4545H39.381ZM36.266 21V13.9815C36.266 13.5071 36.3583 13.1136 36.543 12.8011C36.7305 12.4886 36.9862 12.2543 37.31 12.098C37.6339 11.9418 38.0018 11.8636 38.4137 11.8636C38.6921 11.8636 38.9464 11.8849 39.1765 11.9276C39.4094 11.9702 39.5827 12.0085 39.6964 12.0426L39.3725 13.4062C39.3015 13.3835 39.2134 13.3622 39.1083 13.3423C39.006 13.3224 38.9009 13.3125 38.793 13.3125C38.5259 13.3125 38.3398 13.375 38.2347 13.5C38.1296 13.6222 38.0771 13.794 38.0771 14.0156V21H36.266ZM43.2131 21.1278C42.5511 21.1278 41.9787 20.9872 41.4957 20.706C41.0156 20.4219 40.6449 20.027 40.3835 19.5213C40.1222 19.0128 39.9915 18.4233 39.9915 17.7528C39.9915 17.0767 40.1222 16.4858 40.3835 15.9801C40.6449 15.4716 41.0156 15.0767 41.4957 14.7955C41.9787 14.5114 42.5511 14.3693 43.2131 14.3693C43.875 14.3693 44.446 14.5114 44.9261 14.7955C45.4091 15.0767 45.7812 15.4716 46.0426 15.9801C46.304 16.4858 46.4347 17.0767 46.4347 17.7528C46.4347 18.4233 46.304 19.0128 46.0426 19.5213C45.7812 20.027 45.4091 20.4219 44.9261 20.706C44.446 20.9872 43.875 21.1278 43.2131 21.1278ZM43.2216 19.7216C43.5227 19.7216 43.7741 19.6364 43.9759 19.4659C44.1776 19.2926 44.3295 19.0568 44.4318 18.7585C44.5369 18.4602 44.5895 18.1207 44.5895 17.7401C44.5895 17.3594 44.5369 17.0199 44.4318 16.7216C44.3295 16.4233 44.1776 16.1875 43.9759 16.0142C43.7741 15.8409 43.5227 15.7543 43.2216 15.7543C42.9176 15.7543 42.6619 15.8409 42.4545 16.0142C42.25 16.1875 42.0952 16.4233 41.9901 16.7216C41.8878 17.0199 41.8366 17.3594 41.8366 17.7401C41.8366 18.1207 41.8878 18.4602 41.9901 18.7585C42.0952 19.0568 42.25 19.2926 42.4545 19.4659C42.6619 19.6364 42.9176 19.7216 43.2216 19.7216ZM49.4304 12.2727V21H47.6151V12.2727H49.4304ZM50.8846 21V14.4545H52.6999V21H50.8846ZM51.7965 13.6108C51.5266 13.6108 51.2951 13.5213 51.1019 13.3423C50.9116 13.1605 50.8164 12.9432 50.8164 12.6903C50.8164 12.4403 50.9116 12.2259 51.1019 12.0469C51.2951 11.8651 51.5266 11.7741 51.7965 11.7741C52.0664 11.7741 52.2965 11.8651 52.4869 12.0469C52.68 12.2259 52.7766 12.4403 52.7766 12.6903C52.7766 12.9432 52.68 13.1605 52.4869 13.3423C52.2965 13.5213 52.0664 13.6108 51.7965 13.6108ZM57.1115 21.1278C56.4496 21.1278 55.8771 20.9872 55.3942 20.706C54.9141 20.4219 54.5433 20.027 54.282 19.5213C54.0206 19.0128 53.8899 18.4233 53.8899 17.7528C53.8899 17.0767 54.0206 16.4858 54.282 15.9801C54.5433 15.4716 54.9141 15.0767 55.3942 14.7955C55.8771 14.5114 56.4496 14.3693 57.1115 14.3693C57.7734 14.3693 58.3445 14.5114 58.8246 14.7955C59.3075 15.0767 59.6797 15.4716 59.9411 15.9801C60.2024 16.4858 60.3331 17.0767 60.3331 17.7528C60.3331 18.4233 60.2024 19.0128 59.9411 19.5213C59.6797 20.027 59.3075 20.4219 58.8246 20.706C58.3445 20.9872 57.7734 21.1278 57.1115 21.1278ZM57.12 19.7216C57.4212 19.7216 57.6726 19.6364 57.8743 19.4659C58.076 19.2926 58.228 19.0568 58.3303 18.7585C58.4354 18.4602 58.4879 18.1207 58.4879 17.7401C58.4879 17.3594 58.4354 17.0199 58.3303 16.7216C58.228 16.4233 58.076 16.1875 57.8743 16.0142C57.6726 15.8409 57.4212 15.7543 57.12 15.7543C56.8161 15.7543 56.5604 15.8409 56.353 16.0142C56.1484 16.1875 55.9936 16.4233 55.8885 16.7216C55.7862 17.0199 55.7351 17.3594 55.7351 17.7401C55.7351 18.1207 55.7862 18.4602 55.8885 18.7585C55.9936 19.0568 56.1484 19.2926 56.353 19.4659C56.5604 19.6364 56.8161 19.7216 57.12 19.7216Z" fill="#FEE52B"/>
</svg>
