<svg width="20" height="20" viewBox="0 0 20 20" fill="none" xmlns="http://www.w3.org/2000/svg">
<mask id="path-1-inside-1_1652_3753" fill="white">
<path d="M12.1671 13.2554C12.1377 13.2554 12.1085 13.2614 12.0813 13.2731C12.0541 13.2848 12.0294 13.3019 12.0086 13.3235C11.9877 13.3451 11.9712 13.3707 11.96 13.3989C11.9487 13.4272 11.9429 13.4574 11.9429 13.4879V14.6504C11.9428 14.7736 11.8955 14.8918 11.8115 14.979C11.7274 15.0662 11.6134 15.1152 11.4946 15.1153H6.11413C5.99525 15.1152 5.88128 15.0662 5.79722 14.979C5.71316 14.8918 5.66588 14.7736 5.66576 14.6504V5.35085C5.66588 5.22757 5.71316 5.10937 5.79722 5.0222C5.88128 4.93503 5.99525 4.886 6.11413 4.88587H11.4946C11.6134 4.886 11.7274 4.93503 11.8115 5.0222C11.8955 5.10937 11.9428 5.22757 11.9429 5.35085V6.51329C11.9429 6.57495 11.9666 6.63408 12.0086 6.67768C12.0506 6.72128 12.1077 6.74578 12.1671 6.74578C12.2266 6.74578 12.2836 6.72128 12.3256 6.67768C12.3677 6.63408 12.3913 6.57495 12.3913 6.51329V5.35085C12.391 5.1043 12.2965 4.86792 12.1284 4.69359C11.9602 4.51925 11.7323 4.42118 11.4946 4.4209H6.11413C5.87638 4.42118 5.64845 4.51925 5.48034 4.69359C5.31223 4.86792 5.21766 5.1043 5.21739 5.35085V14.6504C5.21766 14.8969 5.31223 15.1333 5.48034 15.3076C5.64845 15.482 5.87638 15.58 6.11413 15.5803H11.4946C11.7323 15.58 11.9602 15.482 12.1284 15.3076C12.2965 15.1333 12.391 14.8969 12.3913 14.6504V13.4879C12.3913 13.4574 12.3855 13.4272 12.3743 13.3989C12.363 13.3707 12.3465 13.3451 12.3257 13.3235C12.3049 13.3019 12.2801 13.2848 12.2529 13.2731C12.2257 13.2614 12.1966 13.2554 12.1671 13.2554Z"/>
</mask>
<path d="M12.1671 13.2554C12.1377 13.2554 12.1085 13.2614 12.0813 13.2731C12.0541 13.2848 12.0294 13.3019 12.0086 13.3235C11.9877 13.3451 11.9712 13.3707 11.96 13.3989C11.9487 13.4272 11.9429 13.4574 11.9429 13.4879V14.6504C11.9428 14.7736 11.8955 14.8918 11.8115 14.979C11.7274 15.0662 11.6134 15.1152 11.4946 15.1153H6.11413C5.99525 15.1152 5.88128 15.0662 5.79722 14.979C5.71316 14.8918 5.66588 14.7736 5.66576 14.6504V5.35085C5.66588 5.22757 5.71316 5.10937 5.79722 5.0222C5.88128 4.93503 5.99525 4.886 6.11413 4.88587H11.4946C11.6134 4.886 11.7274 4.93503 11.8115 5.0222C11.8955 5.10937 11.9428 5.22757 11.9429 5.35085V6.51329C11.9429 6.57495 11.9666 6.63408 12.0086 6.67768C12.0506 6.72128 12.1077 6.74578 12.1671 6.74578C12.2266 6.74578 12.2836 6.72128 12.3256 6.67768C12.3677 6.63408 12.3913 6.57495 12.3913 6.51329V5.35085C12.391 5.1043 12.2965 4.86792 12.1284 4.69359C11.9602 4.51925 11.7323 4.42118 11.4946 4.4209H6.11413C5.87638 4.42118 5.64845 4.51925 5.48034 4.69359C5.31223 4.86792 5.21766 5.1043 5.21739 5.35085V14.6504C5.21766 14.8969 5.31223 15.1333 5.48034 15.3076C5.64845 15.482 5.87638 15.58 6.11413 15.5803H11.4946C11.7323 15.58 11.9602 15.482 12.1284 15.3076C12.2965 15.1333 12.391 14.8969 12.3913 14.6504V13.4879C12.3913 13.4574 12.3855 13.4272 12.3743 13.3989C12.363 13.3707 12.3465 13.3451 12.3257 13.3235C12.3049 13.3019 12.2801 13.2848 12.2529 13.2731C12.2257 13.2614 12.1966 13.2554 12.1671 13.2554Z" fill="#E26F64"/>
<path d="M12.1671 13.2554L12.1667 13.9554L12.1675 13.9554L12.1671 13.2554ZM11.9429 13.4879H12.6429V13.4875L11.9429 13.4879ZM11.9429 14.6504L12.6429 14.651V14.6504H11.9429ZM11.4946 15.1153V15.8153L11.4953 15.8153L11.4946 15.1153ZM6.11413 15.1153L6.1134 15.8153H6.11413V15.1153ZM5.66576 14.6504H4.96576L4.96576 14.651L5.66576 14.6504ZM5.66576 5.35085L4.96576 5.35018V5.35085H5.66576ZM6.11413 4.88587V4.18587L6.1134 4.18587L6.11413 4.88587ZM11.4946 4.88587L11.4953 4.18587H11.4946V4.88587ZM11.9429 5.35085H12.6429L12.6429 5.35018L11.9429 5.35085ZM12.3913 5.35085H13.0913L13.0913 5.35008L12.3913 5.35085ZM11.4946 4.4209L11.4954 3.7209H11.4946V4.4209ZM6.11413 4.4209V3.7209L6.1133 3.7209L6.11413 4.4209ZM5.21739 5.35085L4.51739 5.35008V5.35085H5.21739ZM5.21739 14.6504H4.51739L4.51739 14.6511L5.21739 14.6504ZM6.11413 15.5803L6.1133 16.2803H6.11413V15.5803ZM11.4946 15.5803V16.2803L11.4954 16.2803L11.4946 15.5803ZM12.3913 14.6504L13.0913 14.6511V14.6504H12.3913ZM12.3913 13.4879L11.6913 13.4875V13.4879H12.3913ZM12.1671 13.2554L12.1675 12.5554C12.0425 12.5554 11.9193 12.5809 11.8052 12.6298L12.0813 13.2731L12.3574 13.9164C12.2977 13.942 12.2329 13.9555 12.1667 13.9554L12.1671 13.2554ZM12.0813 13.2731L11.8052 12.6298C11.6912 12.6788 11.5893 12.7498 11.5047 12.8376L12.0086 13.3235L12.5124 13.8094C12.4694 13.854 12.417 13.8908 12.3574 13.9164L12.0813 13.2731ZM12.0086 13.3235L11.5047 12.8376C11.4201 12.9253 11.3543 13.0281 11.3098 13.1395L11.96 13.3989L12.6101 13.6584C12.5882 13.7133 12.5554 13.7648 12.5124 13.8094L12.0086 13.3235ZM11.96 13.3989L11.3098 13.1395C11.2654 13.2508 11.2429 13.3693 11.2429 13.4883L11.9429 13.4879L12.6429 13.4875C12.643 13.5455 12.632 13.6035 12.6101 13.6584L11.96 13.3989ZM11.9429 13.4879H11.2429V14.6504H11.9429H12.6429V13.4879H11.9429ZM11.9429 14.6504L11.2429 14.6497C11.243 14.5956 11.2635 14.5388 11.3076 14.4931L11.8115 14.979L12.3154 15.4649C12.5276 15.2448 12.6426 14.9517 12.6429 14.651L11.9429 14.6504ZM11.8115 14.979L11.3076 14.4931C11.3525 14.4465 11.4189 14.4154 11.4938 14.4153L11.4946 15.1153L11.4953 15.8153C11.8079 15.815 12.1023 15.6858 12.3154 15.4649L11.8115 14.979ZM11.4946 15.1153V14.4153H6.11413V15.1153V15.8153H11.4946V15.1153ZM6.11413 15.1153L6.11485 14.4153C6.18975 14.4154 6.25619 14.4465 6.30111 14.4931L5.79722 14.979L5.29332 15.4649C5.50636 15.6858 5.80075 15.815 6.1134 15.8153L6.11413 15.1153ZM5.79722 14.979L6.30111 14.4931C6.34519 14.5388 6.36571 14.5956 6.36576 14.6497L5.66576 14.6504L4.96576 14.651C4.96605 14.9517 5.08112 15.2448 5.29332 15.4649L5.79722 14.979ZM5.66576 14.6504H6.36576V5.35085H5.66576H4.96576V14.6504H5.66576ZM5.66576 5.35085L6.36576 5.35152C6.36571 5.40562 6.3452 5.46237 6.30111 5.50809L5.79722 5.0222L5.29332 4.5363C5.08112 4.75637 4.96605 5.04952 4.96576 5.35018L5.66576 5.35085ZM5.79722 5.0222L6.30111 5.50809C6.25619 5.55468 6.18975 5.5858 6.11485 5.58587L6.11413 4.88587L6.1134 4.18587C5.80075 4.1862 5.50636 4.31537 5.29332 4.5363L5.79722 5.0222ZM6.11413 4.88587V5.58587H11.4946V4.88587V4.18587H6.11413V4.88587ZM11.4946 4.88587L11.4938 5.58587C11.4189 5.5858 11.3525 5.55468 11.3076 5.50809L11.8115 5.0222L12.3154 4.5363C12.1023 4.31537 11.8079 4.1862 11.4953 4.18587L11.4946 4.88587ZM11.8115 5.0222L11.3076 5.50809C11.2635 5.46237 11.243 5.40562 11.2429 5.35152L11.9429 5.35085L12.6429 5.35018C12.6426 5.04952 12.5276 4.75637 12.3154 4.5363L11.8115 5.0222ZM11.9429 5.35085H11.2429V6.51329H11.9429H12.6429V5.35085H11.9429ZM11.9429 6.51329H11.2429C11.2429 6.75255 11.3343 6.98691 11.5047 7.16358L12.0086 6.67768L12.5125 6.19179C12.5988 6.28126 12.6429 6.39735 12.6429 6.51329H11.9429ZM12.0086 6.67768L11.5047 7.16358C11.6759 7.34111 11.9136 7.44578 12.1671 7.44578V6.74578V6.04578C12.3017 6.04578 12.4254 6.10146 12.5125 6.19179L12.0086 6.67768ZM12.1671 6.74578V7.44578C12.4206 7.44578 12.6583 7.34111 12.8295 7.16358L12.3256 6.67768L11.8218 6.19179C11.9089 6.10146 12.0325 6.04578 12.1671 6.04578V6.74578ZM12.3256 6.67768L12.8295 7.16358C12.9999 6.98691 13.0913 6.75255 13.0913 6.51329H12.3913H11.6913C11.6913 6.39735 11.7355 6.28126 11.8218 6.19179L12.3256 6.67768ZM12.3913 6.51329H13.0913V5.35085H12.3913H11.6913V6.51329H12.3913ZM12.3913 5.35085L13.0913 5.35008C13.0908 4.92618 12.9285 4.5149 12.6322 4.20769L12.1284 4.69359L11.6245 5.17948C11.6645 5.22095 11.6912 5.28241 11.6913 5.35162L12.3913 5.35085ZM12.1284 4.69359L12.6322 4.20769C12.3352 3.89962 11.9269 3.72141 11.4954 3.7209L11.4946 4.4209L11.4937 5.1209C11.5377 5.12095 11.5853 5.13887 11.6245 5.17948L12.1284 4.69359ZM11.4946 4.4209V3.7209H6.11413V4.4209V5.1209H11.4946V4.4209ZM6.11413 4.4209L6.1133 3.7209C5.68181 3.72141 5.27352 3.89962 4.97645 4.20769L5.48034 4.69359L5.98423 5.17948C6.02339 5.13887 6.07095 5.12095 6.11496 5.1209L6.11413 4.4209ZM5.48034 4.69359L4.97645 4.20769C4.68021 4.5149 4.51786 4.92618 4.51739 5.35008L5.21739 5.35085L5.91739 5.35162C5.91747 5.28241 5.94424 5.22095 5.98423 5.17948L5.48034 4.69359ZM5.21739 5.35085H4.51739V14.6504H5.21739H5.91739V5.35085H5.21739ZM5.21739 14.6504L4.51739 14.6511C4.51786 15.075 4.68021 15.4863 4.97645 15.7935L5.48034 15.3076L5.98423 14.8217C5.94424 14.7803 5.91747 14.7188 5.91739 14.6496L5.21739 14.6504ZM5.48034 15.3076L4.97645 15.7935C5.27352 16.1016 5.68181 16.2798 6.1133 16.2803L6.11413 15.5803L6.11496 14.8803C6.07095 14.8803 6.02339 14.8623 5.98423 14.8217L5.48034 15.3076ZM6.11413 15.5803V16.2803H11.4946V15.5803V14.8803H6.11413V15.5803ZM11.4946 15.5803L11.4954 16.2803C11.9269 16.2798 12.3352 16.1016 12.6322 15.7935L12.1284 15.3076L11.6245 14.8217C11.5853 14.8623 11.5377 14.8803 11.4937 14.8803L11.4946 15.5803ZM12.1284 15.3076L12.6322 15.7935C12.9285 15.4863 13.0908 15.075 13.0913 14.6511L12.3913 14.6504L11.6913 14.6496C11.6912 14.7188 11.6645 14.7803 11.6245 14.8217L12.1284 15.3076ZM12.3913 14.6504H13.0913V13.4879H12.3913H11.6913V14.6504H12.3913ZM12.3913 13.4879L13.0913 13.4883C13.0914 13.3693 13.0688 13.2508 13.0244 13.1395L12.3743 13.3989L11.7241 13.6584C11.7022 13.6035 11.6913 13.5455 11.6913 13.4875L12.3913 13.4879ZM12.3743 13.3989L13.0244 13.1395C12.98 13.0281 12.9142 12.9253 12.8296 12.8376L12.3257 13.3235L11.8218 13.8094C11.7788 13.7648 11.7461 13.7133 11.7241 13.6584L12.3743 13.3989ZM12.3257 13.3235L12.8296 12.8376C12.7449 12.7498 12.643 12.6788 12.529 12.6298L12.2529 13.2731L11.9768 13.9164C11.9172 13.8908 11.8648 13.854 11.8218 13.8094L12.3257 13.3235ZM12.2529 13.2731L12.529 12.6298C12.4149 12.5809 12.2917 12.5554 12.1667 12.5554L12.1671 13.2554L12.1675 13.9554C12.1014 13.9555 12.0365 13.942 11.9768 13.9164L12.2529 13.2731Z" fill="#E26F64" mask="url(#path-1-inside-1_1652_3753)"/>
<mask id="path-3-inside-2_1652_3753" fill="white">
<path d="M14.7159 9.80761L12.8939 7.68201C12.851 7.63361 12.7935 7.60683 12.7338 7.60743C12.674 7.60804 12.6169 7.63598 12.5747 7.68524C12.5325 7.73451 12.5085 7.80115 12.508 7.87081C12.5075 7.94048 12.5304 8.0076 12.5719 8.05771L14.0051 9.72977H8.63354C8.57314 9.72977 8.51521 9.75776 8.4725 9.80759C8.42979 9.85742 8.4058 9.925 8.4058 9.99547C8.4058 10.0659 8.42979 10.1335 8.4725 10.1834C8.51521 10.2332 8.57314 10.2612 8.63354 10.2612H14.0051L12.5719 11.9332C12.5502 11.9577 12.5328 11.987 12.5209 12.0195C12.5089 12.0519 12.5027 12.0867 12.5024 12.122C12.5021 12.1573 12.5079 12.1923 12.5193 12.2249C12.5308 12.2576 12.5477 12.2873 12.5691 12.3122C12.5905 12.3372 12.6159 12.3569 12.6439 12.3702C12.6719 12.3836 12.7019 12.3903 12.7321 12.39C12.7624 12.3897 12.7922 12.3824 12.82 12.3685C12.8478 12.3545 12.8729 12.3343 12.8939 12.3089L14.7159 10.1833C14.737 10.1586 14.7538 10.1294 14.7653 10.0971C14.7767 10.0649 14.7826 10.0304 14.7826 9.99546C14.7826 9.96057 14.7767 9.92603 14.7653 9.89379C14.7538 9.86156 14.737 9.83228 14.7159 9.80761Z"/>
</mask>
<path d="M14.7159 9.80761L12.8939 7.68201C12.851 7.63361 12.7935 7.60683 12.7338 7.60743C12.674 7.60804 12.6169 7.63598 12.5747 7.68524C12.5325 7.73451 12.5085 7.80115 12.508 7.87081C12.5075 7.94048 12.5304 8.0076 12.5719 8.05771L14.0051 9.72977H8.63354C8.57314 9.72977 8.51521 9.75776 8.4725 9.80759C8.42979 9.85742 8.4058 9.925 8.4058 9.99547C8.4058 10.0659 8.42979 10.1335 8.4725 10.1834C8.51521 10.2332 8.57314 10.2612 8.63354 10.2612H14.0051L12.5719 11.9332C12.5502 11.9577 12.5328 11.987 12.5209 12.0195C12.5089 12.0519 12.5027 12.0867 12.5024 12.122C12.5021 12.1573 12.5079 12.1923 12.5193 12.2249C12.5308 12.2576 12.5477 12.2873 12.5691 12.3122C12.5905 12.3372 12.6159 12.3569 12.6439 12.3702C12.6719 12.3836 12.7019 12.3903 12.7321 12.39C12.7624 12.3897 12.7922 12.3824 12.82 12.3685C12.8478 12.3545 12.8729 12.3343 12.8939 12.3089L14.7159 10.1833C14.737 10.1586 14.7538 10.1294 14.7653 10.0971C14.7767 10.0649 14.7826 10.0304 14.7826 9.99546C14.7826 9.96057 14.7767 9.92603 14.7653 9.89379C14.7538 9.86156 14.737 9.83228 14.7159 9.80761Z" fill="#E26F64"/>
<path d="M14.7159 9.80761L14.1844 10.2632L14.1845 10.2633L14.7159 9.80761ZM12.8939 7.68201L13.4255 7.22639L13.4175 7.21737L12.8939 7.68201ZM12.5719 8.05771L12.0326 8.50416L12.0404 8.51326L12.5719 8.05771ZM14.0051 9.72977V10.4298H15.527L14.5366 9.27422L14.0051 9.72977ZM14.0051 10.2612L14.5366 10.7167L15.5271 9.56117H14.0051V10.2612ZM12.5719 11.9332L13.0955 12.3979L13.1034 12.3888L12.5719 11.9332ZM12.8939 12.3089L12.3624 11.8533L12.3547 11.8625L12.8939 12.3089ZM14.7159 10.1833L14.1845 9.72765L14.1844 9.72776L14.7159 10.1833ZM14.7159 9.80761L15.2474 9.35206L13.4254 7.22645L12.8939 7.68201L12.3625 8.13756L14.1844 10.2632L14.7159 9.80761ZM12.8939 7.68201L13.4175 7.21737C13.2528 7.03173 13.0074 6.90462 12.7267 6.90747L12.7338 7.60743L12.7409 8.3074C12.5796 8.30903 12.4492 8.23548 12.3704 8.14665L12.8939 7.68201ZM12.7338 7.60743L12.7267 6.90747C12.4462 6.91031 12.204 7.0421 12.0432 7.22969L12.5747 7.68524L13.1062 8.1408C13.0298 8.22986 12.9019 8.30576 12.7409 8.3074L12.7338 7.60743ZM12.5747 7.68524L12.0432 7.22969C11.8851 7.4141 11.8097 7.64379 11.808 7.8656L12.508 7.87081L13.208 7.87603C13.2074 7.95851 13.1798 8.05491 13.1062 8.1408L12.5747 7.68524ZM12.508 7.87081L11.808 7.8656C11.8064 8.08742 11.8784 8.31768 12.0327 8.50409L12.5719 8.05771L13.1111 7.61132C13.1825 7.69751 13.2086 7.79353 13.208 7.87603L12.508 7.87081ZM12.5719 8.05771L12.0404 8.51326L13.4736 10.1853L14.0051 9.72977L14.5366 9.27422L13.1034 7.60216L12.5719 8.05771ZM14.0051 9.72977V9.02977H8.63354V9.72977V10.4298H14.0051V9.72977ZM8.63354 9.72977V9.02977C8.34961 9.02977 8.10371 9.16224 7.94102 9.35204L8.4725 9.80759L9.00398 10.2631C8.92672 10.3533 8.79667 10.4298 8.63354 10.4298V9.72977ZM8.4725 9.80759L7.94102 9.35204C7.7812 9.5385 7.7058 9.77123 7.7058 9.99547H8.4058H9.1058C9.1058 10.0788 9.07839 10.1763 9.00398 10.2631L8.4725 9.80759ZM8.4058 9.99547H7.7058C7.7058 10.2197 7.7812 10.4524 7.94102 10.6389L8.4725 10.1834L9.00398 9.7278C9.07839 9.8146 9.1058 9.91217 9.1058 9.99547H8.4058ZM8.4725 10.1834L7.94102 10.6389C8.10371 10.8287 8.34961 10.9612 8.63354 10.9612V10.2612V9.56117C8.79667 9.56117 8.92672 9.63765 9.00398 9.7278L8.4725 10.1834ZM8.63354 10.2612V10.9612H14.0051V10.2612V9.56117H8.63354V10.2612ZM14.0051 10.2612L13.4736 9.80562L12.0404 11.4777L12.5719 11.9332L13.1034 12.3888L14.5366 10.7167L14.0051 10.2612ZM12.5719 11.9332L12.0484 11.4686C11.9656 11.5619 11.9044 11.6678 11.864 11.7776L12.5209 12.0195L13.1778 12.2613C13.1612 12.3063 13.1348 12.3536 13.0955 12.3979L12.5719 11.9332ZM12.5209 12.0195L11.864 11.7776C11.8235 11.8874 11.8033 12.0025 11.8024 12.1168L12.5024 12.122L13.2024 12.1272C13.2021 12.171 13.1943 12.2163 13.1778 12.2613L12.5209 12.0195ZM12.5024 12.122L11.8024 12.1168C11.8016 12.2311 11.8201 12.3463 11.8588 12.4566L12.5193 12.2249L13.1799 11.9933C13.1957 12.0382 13.2027 12.0835 13.2024 12.1272L12.5024 12.122ZM12.5193 12.2249L11.8588 12.4566C11.8974 12.5668 11.9567 12.6734 12.0376 12.7678L12.5691 12.3122L13.1006 11.8567C13.1387 11.9011 13.1642 11.9484 13.1799 11.9933L12.5193 12.2249ZM12.5691 12.3122L12.0376 12.7678C12.1187 12.8623 12.2211 12.9441 12.3424 13.002L12.6439 12.3702L12.9454 11.7385C13.0107 11.7697 13.0623 11.812 13.1006 11.8567L12.5691 12.3122ZM12.6439 12.3702L12.3424 13.002C12.4641 13.0601 12.5995 13.0914 12.7392 13.09L12.7321 12.39L12.725 11.6901C12.8043 11.6893 12.8796 11.7071 12.9454 11.7385L12.6439 12.3702ZM12.7321 12.39L12.7392 13.09C12.8789 13.0886 13.0134 13.0545 13.1337 12.9943L12.82 12.3685L12.5064 11.7427C12.5711 11.7102 12.6458 11.6909 12.725 11.6901L12.7321 12.39ZM12.82 12.3685L13.1337 12.9943C13.2534 12.9342 13.354 12.8509 13.4331 12.7553L12.8939 12.3089L12.3547 11.8625C12.3919 11.8177 12.4422 11.7748 12.5064 11.7427L12.82 12.3685ZM12.8939 12.3089L13.4254 12.7645L15.2474 10.6389L14.7159 10.1833L14.1844 9.72776L12.3625 11.8534L12.8939 12.3089ZM14.7159 10.1833L15.2473 10.639C15.3273 10.5456 15.3862 10.4404 15.4249 10.3314L14.7653 10.0971L14.1056 9.86286C14.1214 9.81837 14.1468 9.77167 14.1845 9.72765L14.7159 10.1833ZM14.7653 10.0971L15.4249 10.3314C15.4636 10.2224 15.4826 10.1086 15.4826 9.99547L14.7826 9.99546L14.0826 9.99545C14.0826 9.95215 14.0898 9.90736 14.1056 9.86286L14.7653 10.0971ZM14.7826 9.99546L15.4826 9.99547C15.4826 9.88239 15.4636 9.7685 15.4249 9.65954L14.7653 9.89379L14.1056 10.128C14.0898 10.0836 14.0826 10.0388 14.0826 9.99545L14.7826 9.99546ZM14.7653 9.89379L15.4249 9.65954C15.3862 9.55058 15.3273 9.44532 15.2473 9.35196L14.7159 9.80761L14.1845 10.2633C14.1468 10.2192 14.1214 10.1725 14.1056 10.128L14.7653 9.89379Z" fill="#E26F64" mask="url(#path-3-inside-2_1652_3753)"/>
<circle cx="10" cy="10" r="9.65" stroke="#337265" stroke-width="0.7"/>
</svg>
