<svg width="20" height="20" viewBox="0 0 20 20" fill="none" xmlns="http://www.w3.org/2000/svg">
<mask id="path-1-inside-1_1918_7555" fill="white">
<path d="M12.4732 13.5C12.4415 13.5 12.4102 13.5064 12.3809 13.519C12.3517 13.5315 12.3251 13.55 12.3027 13.5732C12.2803 13.5964 12.2625 13.624 12.2504 13.6543C12.2383 13.6846 12.2321 13.7172 12.2321 13.75V15C12.232 15.1326 12.1812 15.2597 12.0908 15.3534C12.0004 15.4471 11.8778 15.4999 11.75 15.5H5.96428C5.83645 15.4999 5.71389 15.4471 5.6235 15.3534C5.53311 15.2597 5.48227 15.1326 5.48214 15V5C5.48227 4.86743 5.53311 4.74033 5.6235 4.64659C5.71389 4.55285 5.83645 4.50013 5.96428 4.5H11.75C11.8778 4.50013 12.0004 4.55285 12.0908 4.64659C12.1812 4.74033 12.232 4.86743 12.2321 5V6.25C12.2321 6.3163 12.2575 6.37989 12.3027 6.42678C12.3479 6.47366 12.4093 6.5 12.4732 6.5C12.5371 6.5 12.5984 6.47366 12.6437 6.42678C12.6889 6.37989 12.7143 6.3163 12.7143 6.25V5C12.714 4.73488 12.6123 4.4807 12.4315 4.29323C12.2507 4.10576 12.0056 4.0003 11.75 4H5.96428C5.70863 4.0003 5.46353 4.10576 5.28275 4.29323C5.10198 4.4807 5.00029 4.73488 5 5V15C5.00029 15.2651 5.10198 15.5193 5.28275 15.7068C5.46353 15.8942 5.70863 15.9997 5.96428 16H11.75C12.0056 15.9997 12.2507 15.8942 12.4315 15.7068C12.6123 15.5193 12.714 15.2651 12.7143 15V13.75C12.7143 13.7172 12.7081 13.6846 12.6959 13.6543C12.6838 13.624 12.6661 13.5964 12.6437 13.5732C12.6213 13.55 12.5947 13.5315 12.5655 13.519C12.5362 13.5064 12.5049 13.5 12.4732 13.5Z"/>
</mask>
<path d="M12.4732 13.5C12.4415 13.5 12.4102 13.5064 12.3809 13.519C12.3517 13.5315 12.3251 13.55 12.3027 13.5732C12.2803 13.5964 12.2625 13.624 12.2504 13.6543C12.2383 13.6846 12.2321 13.7172 12.2321 13.75V15C12.232 15.1326 12.1812 15.2597 12.0908 15.3534C12.0004 15.4471 11.8778 15.4999 11.75 15.5H5.96428C5.83645 15.4999 5.71389 15.4471 5.6235 15.3534C5.53311 15.2597 5.48227 15.1326 5.48214 15V5C5.48227 4.86743 5.53311 4.74033 5.6235 4.64659C5.71389 4.55285 5.83645 4.50013 5.96428 4.5H11.75C11.8778 4.50013 12.0004 4.55285 12.0908 4.64659C12.1812 4.74033 12.232 4.86743 12.2321 5V6.25C12.2321 6.3163 12.2575 6.37989 12.3027 6.42678C12.3479 6.47366 12.4093 6.5 12.4732 6.5C12.5371 6.5 12.5984 6.47366 12.6437 6.42678C12.6889 6.37989 12.7143 6.3163 12.7143 6.25V5C12.714 4.73488 12.6123 4.4807 12.4315 4.29323C12.2507 4.10576 12.0056 4.0003 11.75 4H5.96428C5.70863 4.0003 5.46353 4.10576 5.28275 4.29323C5.10198 4.4807 5.00029 4.73488 5 5V15C5.00029 15.2651 5.10198 15.5193 5.28275 15.7068C5.46353 15.8942 5.70863 15.9997 5.96428 16H11.75C12.0056 15.9997 12.2507 15.8942 12.4315 15.7068C12.6123 15.5193 12.714 15.2651 12.7143 15V13.75C12.7143 13.7172 12.7081 13.6846 12.6959 13.6543C12.6838 13.624 12.6661 13.5964 12.6437 13.5732C12.6213 13.55 12.5947 13.5315 12.5655 13.519C12.5362 13.5064 12.5049 13.5 12.4732 13.5Z" fill="#E26F64"/>
<path d="M12.4732 13.5L12.4728 14.2L12.4736 14.2L12.4732 13.5ZM12.2321 13.75H12.9321V13.7496L12.2321 13.75ZM12.2321 15L12.9321 15.0007V15H12.2321ZM11.75 15.5V16.2L11.7507 16.2L11.75 15.5ZM5.96428 15.5L5.96356 16.2H5.96428V15.5ZM5.48214 15H4.78214L4.78214 15.0007L5.48214 15ZM5.48214 5L4.78214 4.99933V5H5.48214ZM5.96428 4.5V3.8L5.96356 3.8L5.96428 4.5ZM11.75 4.5L11.7507 3.8H11.75V4.5ZM12.2321 5H12.9321L12.9321 4.99933L12.2321 5ZM12.7143 5H13.4143L13.4143 4.99923L12.7143 5ZM11.75 4L11.7508 3.3H11.75V4ZM5.96428 4V3.3L5.96345 3.3L5.96428 4ZM5 5L4.3 4.99923V5H5ZM5 15H4.3L4.3 15.0008L5 15ZM5.96428 16L5.96345 16.7H5.96428V16ZM11.75 16V16.7L11.7508 16.7L11.75 16ZM12.7143 15L13.4143 15.0008V15H12.7143ZM12.7143 13.75L12.0143 13.7496V13.75H12.7143ZM12.4732 13.5L12.4736 12.8C12.3463 12.7999 12.2209 12.8259 12.1048 12.8757L12.3809 13.519L12.657 14.1622C12.5994 14.187 12.5367 14.2 12.4728 14.2L12.4732 13.5ZM12.3809 13.519L12.1048 12.8757C11.9888 12.9256 11.885 12.9979 11.7988 13.0873L12.3027 13.5732L12.8066 14.0591C12.7651 14.102 12.7146 14.1375 12.657 14.1622L12.3809 13.519ZM12.3027 13.5732L11.7988 13.0873C11.7126 13.1766 11.6456 13.2814 11.6003 13.3948L12.2504 13.6543L12.9006 13.9138C12.8795 13.9666 12.848 14.0162 12.8066 14.0591L12.3027 13.5732ZM12.2504 13.6543L11.6003 13.3948C11.555 13.5083 11.5321 13.629 11.5321 13.7504L12.2321 13.75L12.9321 13.7496C12.9321 13.8053 12.9216 13.861 12.9006 13.9138L12.2504 13.6543ZM12.2321 13.75H11.5321V15H12.2321H12.9321V13.75H12.2321ZM12.2321 15L11.5321 14.9993C11.5322 14.9545 11.5491 14.9067 11.5869 14.8675L12.0908 15.3534L12.5947 15.8393C12.8132 15.6127 12.9318 15.3106 12.9321 15.0007L12.2321 15ZM12.0908 15.3534L11.5869 14.8675C11.6255 14.8275 11.6833 14.8001 11.7493 14.8L11.75 15.5L11.7507 16.2C12.0723 16.1997 12.3753 16.0668 12.5947 15.8393L12.0908 15.3534ZM11.75 15.5V14.8H5.96428V15.5V16.2H11.75V15.5ZM5.96428 15.5L5.96501 14.8C6.03095 14.8001 6.0888 14.8275 6.12739 14.8675L5.6235 15.3534L5.11961 15.8393C5.33898 16.0668 5.64195 16.1997 5.96356 16.2L5.96428 15.5ZM5.6235 15.3534L6.12739 14.8675C6.16515 14.9067 6.1821 14.9545 6.18214 14.9993L5.48214 15L4.78214 15.0007C4.78244 15.3106 4.90107 15.6127 5.11961 15.8393L5.6235 15.3534ZM5.48214 15H6.18214V5H5.48214H4.78214V15H5.48214ZM5.48214 5L6.18214 5.00067C6.1821 5.04548 6.16515 5.09333 6.12739 5.13249L5.6235 4.64659L5.11961 4.1607C4.90107 4.38733 4.78244 4.68938 4.78214 4.99933L5.48214 5ZM5.6235 4.64659L6.12739 5.13249C6.0888 5.1725 6.03095 5.19993 5.96501 5.2L5.96428 4.5L5.96356 3.8C5.64195 3.80033 5.33898 3.9332 5.11961 4.1607L5.6235 4.64659ZM5.96428 4.5V5.2H11.75V4.5V3.8H5.96428V4.5ZM11.75 4.5L11.7493 5.2C11.6833 5.19993 11.6255 5.1725 11.5869 5.13249L12.0908 4.64659L12.5947 4.1607C12.3753 3.9332 12.0723 3.80033 11.7507 3.8L11.75 4.5ZM12.0908 4.64659L11.5869 5.13249C11.5491 5.09333 11.5322 5.04548 11.5321 5.00067L12.2321 5L12.9321 4.99933C12.9318 4.68938 12.8132 4.38733 12.5947 4.1607L12.0908 4.64659ZM12.2321 5H11.5321V6.25H12.2321H12.9321V5H12.2321ZM12.2321 6.25H11.5321C11.5321 6.49391 11.6253 6.73272 11.7988 6.91267L12.3027 6.42678L12.8066 5.94088C12.8897 6.02707 12.9321 6.1387 12.9321 6.25H12.2321ZM12.3027 6.42678L11.7988 6.91267C11.9732 7.09349 12.2152 7.2 12.4732 7.2V6.5V5.8C12.6033 5.8 12.7227 5.85383 12.8066 5.94088L12.3027 6.42678ZM12.4732 6.5V7.2C12.7312 7.2 12.9732 7.09349 13.1475 6.91267L12.6437 6.42678L12.1398 5.94088C12.2237 5.85383 12.3431 5.8 12.4732 5.8V6.5ZM12.6437 6.42678L13.1475 6.91267C13.3211 6.73272 13.4143 6.49391 13.4143 6.25H12.7143H12.0143C12.0143 6.1387 12.0567 6.02707 12.1398 5.94088L12.6437 6.42678ZM12.7143 6.25H13.4143V5H12.7143H12.0143V6.25H12.7143ZM12.7143 5L13.4143 4.99923C13.4138 4.55676 13.2443 4.12767 12.9354 3.80733L12.4315 4.29323L11.9276 4.77912C11.9803 4.83372 12.0142 4.91299 12.0143 5.00077L12.7143 5ZM12.4315 4.29323L12.9354 3.80733C12.6257 3.48613 12.2002 3.30053 11.7508 3.3L11.75 4L11.7491 4.7C11.8111 4.70007 11.8758 4.72538 11.9276 4.77912L12.4315 4.29323ZM11.75 4V3.3H5.96428V4V4.7H11.75V4ZM5.96428 4L5.96345 3.3C5.51406 3.30053 5.08859 3.48613 4.77886 3.80733L5.28275 4.29323L5.78665 4.77912C5.83847 4.72538 5.9032 4.70007 5.96511 4.7L5.96428 4ZM5.28275 4.29323L4.77886 3.80733C4.46996 4.12768 4.30049 4.55676 4.3 4.99923L5 5L5.7 5.00077C5.7001 4.91299 5.734 4.83372 5.78665 4.77912L5.28275 4.29323ZM5 5H4.3V15H5H5.7V5H5ZM5 15L4.3 15.0008C4.30049 15.4432 4.46996 15.8723 4.77886 16.1927L5.28275 15.7068L5.78665 15.2209C5.734 15.1663 5.7001 15.087 5.7 14.9992L5 15ZM5.28275 15.7068L4.77886 16.1927C5.08859 16.5139 5.51406 16.6995 5.96345 16.7L5.96428 16L5.96511 15.3C5.9032 15.2999 5.83847 15.2746 5.78665 15.2209L5.28275 15.7068ZM5.96428 16V16.7H11.75V16V15.3H5.96428V16ZM11.75 16L11.7508 16.7C12.2002 16.6995 12.6257 16.5139 12.9354 16.1927L12.4315 15.7068L11.9276 15.2209C11.8758 15.2746 11.8111 15.2999 11.7491 15.3L11.75 16ZM12.4315 15.7068L12.9354 16.1927C13.2443 15.8723 13.4138 15.4432 13.4143 15.0008L12.7143 15L12.0143 14.9992C12.0142 15.087 11.9803 15.1663 11.9276 15.2209L12.4315 15.7068ZM12.7143 15H13.4143V13.75H12.7143H12.0143V15H12.7143ZM12.7143 13.75L13.4143 13.7504C13.4143 13.629 13.3914 13.5083 13.3461 13.3948L12.6959 13.6543L12.0458 13.9138C12.0248 13.861 12.0142 13.8053 12.0143 13.7496L12.7143 13.75ZM12.6959 13.6543L13.3461 13.3948C13.3008 13.2814 13.2337 13.1766 13.1476 13.0873L12.6437 13.5732L12.1398 14.0591C12.0984 14.0162 12.0669 13.9666 12.0458 13.9138L12.6959 13.6543ZM12.6437 13.5732L13.1476 13.0873C13.0614 12.9979 12.9576 12.9256 12.8416 12.8757L12.5655 13.519L12.2894 14.1622C12.2318 14.1375 12.1812 14.102 12.1398 14.0591L12.6437 13.5732ZM12.5655 13.519L12.8416 12.8757C12.7254 12.8259 12.6 12.7999 12.4728 12.8L12.4732 13.5L12.4736 14.2C12.4097 14.2 12.347 14.187 12.2894 14.1622L12.5655 13.519Z" fill="#E26F64" mask="url(#path-1-inside-1_1918_7555)"/>
<path d="M13.1406 12.2832H13.1396H13.1406Z" fill="#E26F64" stroke="#E26F64" stroke-width="0.7"/>
<circle cx="10" cy="10" r="9.65" stroke="#E26F64" stroke-width="0.7"/>
</svg>
