<svg width="118" height="97" viewBox="0 0 118 97" fill="none" xmlns="http://www.w3.org/2000/svg">
<path d="M68.1178 47.6321C67.8567 50.0493 65.309 81.3487 61.5564 97.002C41.4836 96.7249 33.3897 96.2865 13.4465 93.4014C13.4465 93.2149 12.0998 72.4387 11.9141 70.159C11.3023 62.7998 10.4606 52.6469 9.90674 45.1855C31.2746 45.8779 47.0305 45.901 68.1178 47.6321Z" fill="#FF5746"/>
<path d="M68.0747 47.6602C68.0531 47.6602 54.3044 71.0533 54.3044 71.0533C54.3044 71.0533 18.5403 70.2283 11.9143 70.1486C11.5689 65.9969 11.2236 61.8452 10.8782 57.5604C21.9938 58.7313 40.1887 60.5943 40.1887 60.5145C40.1887 60.408 67.8805 47.9795 68.0747 47.6602Z" fill="#BA2525"/>
<path d="M100.752 46.1963C93.4169 78.6555 95.9469 67.4603 95.3996 69.8822L91.6656 90.3479C91.6656 90.3479 62.4198 96.8152 61.5565 97.0013V96.3095C62.97 85.8238 58.0382 122.411 68.1179 47.6334L71.8518 47.4737L100.752 46.1963Z" fill="#BA2525"/>
<path d="M98.9823 53.994L95.3995 69.8821C87.9747 70.5741 75.2187 71.7451 75.3482 71.5057C75.5209 71.1597 67.9667 48.4317 68.2473 48.2189L68.0962 47.7399L68.1178 47.6333L71.8517 47.4736L72.3913 48.0857C76.4966 48.9667 96.1195 53.2551 98.9823 53.994Z" fill="#930D0D"/>
<path d="M114.652 62.9573L78.0893 67.8273L68.0745 47.6547C113.241 45.662 97.6627 46.3493 101.033 46.2006L114.652 62.9573Z" fill="#FF5746"/>
<path d="M68.0746 47.6552L53.3978 66.5122C41.7633 66.1099 82.1991 67.5081 0 64.6658L9.9068 45.1855C40.9707 45.7721 57.263 47.0461 68.0746 47.6552Z" fill="#FF5746"/>
<path d="M66.8659 47.5859L11.1371 47.0089L0.107892 64.6658H0L9.9068 45.1855C29.4617 45.5548 48.4768 46.3165 66.8659 47.5859Z" fill="#FFBBBB"/>
<path d="M114.652 62.9579L100.212 49.0863L73.6863 47.4013L101.033 46.2012L114.652 62.9579Z" fill="#FFBBBB"/>
<g opacity="0.5">
<path d="M67.7293 51.8555C66.8229 61.5032 64.5997 84.3071 61.5565 97.0016C41.4836 96.7245 33.3898 96.2861 13.4465 93.401C13.4465 93.3778 13.4465 93.3778 13.4465 93.3547L13.4681 93.3316C28.9221 92.2238 44.3759 90.8158 59.7866 89.1309C61.8585 76.598 64.1896 63.9959 67.7293 51.8555Z" fill="#BA2525"/>
</g>
<path d="M115.737 60.5825L103.68 45.603C103.358 45.2033 103.422 44.6173 103.821 44.2948C104.221 43.975 104.806 44.0349 105.13 44.4365L117.187 59.416C117.509 59.8158 117.445 60.4018 117.046 60.7243C116.638 61.0508 116.055 60.9766 115.737 60.5825Z" fill="#FF5746"/>
<path d="M94.7273 89.5154C94.2294 89.3928 93.9223 88.8895 94.0459 88.3898L99.0427 68.0046C99.1644 67.5067 99.6623 67.2015 100.167 67.3223C100.667 67.445 100.972 67.9492 100.849 68.448L95.852 88.8331C95.729 89.3369 95.2209 89.6358 94.7273 89.5154Z" fill="#FF5746"/>
<path d="M71.0981 3.37299C71.5934 3.60412 72.0507 3.9092 72.4543 4.27775C73.2708 5.0407 73.8431 6.02829 74.0992 7.11603C74.1129 6.22618 74.418 5.36536 74.9677 4.6655C75.5175 3.96563 76.2815 3.46533 77.1428 3.24125C76.4687 3.14982 75.8306 2.88254 75.2926 2.4663C74.528 1.84762 74.0166 0.970216 73.855 0C73.8447 0.69117 73.6333 1.36437 73.2467 1.93739C72.7317 2.66415 71.9667 3.17533 71.0981 3.37299Z" fill="#FFB833"/>
<path d="M18.8062 34.1402C19.1856 34.3163 19.5358 34.5496 19.8446 34.8318C20.471 35.4144 20.9095 36.1706 21.1039 37.0036C21.1252 36.2619 21.4032 35.5504 21.8905 34.9907C22.3033 34.5309 22.8423 34.2028 23.4404 34.0472C22.9241 33.9749 22.4358 33.7685 22.0242 33.4485C21.4386 32.9756 21.047 32.3041 20.9237 31.5615C20.9141 32.0896 20.7504 32.6034 20.4529 33.0397C20.0578 33.5964 19.4716 33.9881 18.8062 34.1402Z" fill="#FFB833"/>
<path d="M75.3953 29.1617C75.7744 29.3374 76.124 29.5707 76.4318 29.8533C77.0568 30.4362 77.4951 31.1913 77.6911 32.0232C77.7105 31.281 77.9887 30.5689 78.4776 30.0102C78.8893 29.5478 79.4286 29.2175 80.0276 29.0609C79.5121 28.9888 79.0245 28.7831 78.6133 28.4642C78.0273 27.9926 77.6345 27.3227 77.509 26.5811C77.5002 27.1093 77.3365 27.6233 77.0382 28.0593C76.6445 28.616 76.0597 29.0084 75.3953 29.1617Z" fill="#FFB833"/>
<path d="M32.8174 33.4912H64.7068C66.5205 33.4912 67.9907 32.021 67.9907 30.2073V6.84244C67.9907 5.0288 66.5205 3.55856 64.7068 3.55856H32.8174C31.0038 3.55856 29.5336 5.0288 29.5336 6.84244V30.2073C29.5336 32.021 31.0038 33.4912 32.8174 33.4912Z" fill="#AAEEEA"/>
<path d="M67.9907 26.2539C68.0294 30.533 68.0688 34.8126 68.1089 39.093C68.1107 39.3009 68.0534 39.505 67.9437 39.6816C67.8339 39.8581 67.6762 39.9998 67.489 40.0902C67.3018 40.1806 67.0927 40.2159 66.8862 40.1919C66.6797 40.168 66.4842 40.0859 66.3226 39.9551L57.1064 32.4845L67.9907 26.2539Z" fill="#AAEEEA"/>
<path d="M56.3462 11.6529L55.6258 10.9324C54.9366 10.2432 53.8193 10.2432 53.1301 10.9324L41.1737 22.8888C40.4845 23.578 40.4845 24.6953 41.1737 25.3845L41.8942 26.1049C42.5833 26.7941 43.7007 26.7941 44.3898 26.1049L56.3462 14.1485C57.0354 13.4594 57.0354 12.342 56.3462 11.6529Z" fill="#00CCC1"/>
<path d="M41.8892 10.9409L41.1687 11.6614C40.4796 12.3505 40.4796 13.4679 41.1687 14.157L53.1251 26.1134C53.8143 26.8026 54.9316 26.8026 55.6208 26.1134L56.3413 25.3929C57.0304 24.7038 57.0304 23.5864 56.3413 22.8973L44.3849 10.9409C43.6957 10.2517 42.5784 10.2517 41.8892 10.9409Z" fill="#00CCC1"/>
<path d="M30.9786 8.76615C30.8531 8.76623 30.7325 8.7176 30.6421 8.63051C30.5518 8.54341 30.4988 8.42465 30.4943 8.29924C30.4633 7.4371 30.4516 5.36797 31.0154 4.76545C31.5792 4.16292 33.5921 4.2036 34.4233 4.25591C34.5511 4.26438 34.6704 4.32316 34.755 4.41938C34.8396 4.51561 34.8827 4.64144 34.8747 4.76932C34.8672 4.89834 34.809 5.01917 34.7129 5.10553C34.6167 5.19188 34.4904 5.23677 34.3613 5.23042C33.1737 5.15486 31.9376 5.25173 31.7187 5.43966C31.5385 5.66439 31.4165 6.98957 31.4629 8.27212C31.4653 8.33573 31.455 8.39918 31.4328 8.45884C31.4106 8.5185 31.3769 8.5732 31.3335 8.6198C31.2901 8.6664 31.238 8.704 31.1801 8.73044C31.1222 8.75689 31.0597 8.77165 30.996 8.7739L30.9786 8.76615Z" fill="white"/>
<path d="M66.6596 12.1453C66.596 12.1455 66.5329 12.1332 66.474 12.1089C66.4151 12.0847 66.3616 12.049 66.3166 12.004C66.2716 11.9589 66.2359 11.9054 66.2116 11.8466C66.1874 11.7877 66.175 11.7246 66.1753 11.6609V6.58689C66.1753 6.45843 66.2263 6.33523 66.3172 6.2444C66.408 6.15357 66.5312 6.10254 66.6596 6.10254C66.7881 6.10254 66.9113 6.15357 67.0021 6.2444C67.093 6.33523 67.144 6.45843 67.144 6.58689V11.6609C67.1442 11.7246 67.1319 11.7877 67.1076 11.8466C67.0834 11.9054 67.0477 11.9589 67.0027 12.004C66.9577 12.049 66.9042 12.0847 66.8453 12.1089C66.7864 12.1332 66.7233 12.1455 66.6596 12.1453Z" fill="white"/>
<path d="M34.6752 32.368C33.7608 32.368 32.6875 32.3138 32.1818 32.0929C31.8447 31.9437 31.0794 31.2753 31.2441 28.2743C31.2475 28.2107 31.2635 28.1484 31.291 28.091C31.3185 28.0335 31.3571 27.9821 31.4045 27.9395C31.4519 27.897 31.5072 27.8642 31.5673 27.843C31.6273 27.8218 31.691 27.8127 31.7546 27.8161C31.8182 27.8196 31.8805 27.8355 31.938 27.863C31.9954 27.8905 32.0469 27.9291 32.0894 27.9765C32.132 28.0239 32.1648 28.0792 32.1859 28.1393C32.2071 28.1994 32.2162 28.263 32.2128 28.3266C32.1431 29.6344 32.3213 31.039 32.579 31.2095C33.0614 31.4206 34.9232 31.4265 36.0895 31.3606C36.218 31.3534 36.344 31.3975 36.4399 31.4833C36.5359 31.569 36.5938 31.6894 36.601 31.8178C36.6082 31.9463 36.5641 32.0723 36.4783 32.1682C36.3926 32.2642 36.2722 32.3221 36.1438 32.3293C35.9268 32.339 35.3436 32.368 34.6752 32.368Z" fill="white"/>
<path d="M66.6306 32.1332C66.5021 32.1332 66.3789 32.0822 66.2881 31.9914C66.1973 31.9005 66.1462 31.7773 66.1462 31.6489V25.2148C66.1462 25.0864 66.1973 24.9632 66.2881 24.8723C66.3789 24.7815 66.5021 24.7305 66.6306 24.7305C66.759 24.7305 66.8822 24.7815 66.9731 24.8723C67.0639 24.9632 67.1149 25.0864 67.1149 25.2148V31.6489C67.1149 31.7773 67.0639 31.9005 66.9731 31.9914C66.8822 32.0822 66.759 32.1332 66.6306 32.1332Z" fill="white"/>
<path d="M60.6675 34.252C60.5865 34.2525 60.5068 34.2324 60.4357 34.1938C60.3646 34.1552 60.3043 34.0993 60.2606 34.0312C59.8431 33.3619 59.3904 32.7151 58.9044 32.0938C58.4995 32.0454 56.9671 32.0744 55.669 32.1345C55.5405 32.1404 55.415 32.095 55.32 32.0084C55.225 31.9217 55.1683 31.8009 55.1624 31.6724C55.1565 31.5439 55.2018 31.4184 55.2885 31.3234C55.3751 31.2284 55.496 31.1717 55.6244 31.1658C58.9781 31.0147 59.2377 31.1561 59.3636 31.2258C59.4895 31.2956 59.7511 31.4312 61.0743 33.5081C61.1089 33.5616 61.1325 33.6214 61.1439 33.6841C61.1553 33.7468 61.1543 33.8111 61.1408 33.8734C61.1273 33.9357 61.1016 33.9947 61.0653 34.047C61.0289 34.0993 60.9826 34.144 60.929 34.1784C60.8508 34.2278 60.7599 34.2534 60.6675 34.252Z" fill="white"/>
<path d="M66.747 33.6055C65.8751 33.6055 66.003 34.9616 66.8729 34.9616C67.7428 34.9616 67.6168 33.6055 66.747 33.6055Z" fill="white"/>
<path d="M66.6598 20.7842C65.7861 20.7842 65.9159 22.1404 66.7858 22.1404C67.6557 22.1404 67.5181 20.7842 66.6598 20.7842Z" fill="white"/>
<path d="M51.829 31.1201C50.9572 31.1201 51.087 32.4763 51.955 32.4763C52.8229 32.4763 52.6989 31.1201 51.829 31.1201Z" fill="white"/>
<path d="M38.955 31.1201C38.0812 31.1201 38.211 32.4763 39.0789 32.4763C39.9469 32.4763 39.8287 31.1201 38.955 31.1201Z" fill="white"/>
<path d="M31.3991 24.7334C30.5273 24.7334 30.6571 26.0896 31.525 26.0896C32.393 26.0896 32.2729 24.7334 31.3991 24.7334Z" fill="white"/>
<path d="M31.0118 11.5713C30.14 11.5713 30.2679 12.9275 31.1378 12.9275C32.0077 12.9275 31.8837 11.5713 31.0118 11.5713Z" fill="white"/>
<path d="M37.6921 4.2627C36.8203 4.2627 36.9501 5.61887 37.818 5.61887C38.686 5.61887 38.5678 4.2627 37.6921 4.2627Z" fill="white"/>
<path d="M66.4059 14.3994C65.5322 14.3994 65.662 15.7556 66.5319 15.7556C67.4017 15.7556 67.2739 14.3994 66.4059 14.3994Z" fill="white"/>
</svg>
