<svg width="257" height="57" viewBox="0 0 257 57" fill="none" xmlns="http://www.w3.org/2000/svg">
<path d="M81.363 37.7723V21.7057C81.363 19.8015 80.9455 19.0875 78.5592 17.8974L76.3519 16.8263L89.7149 13.3154V17.3023L87.5673 19.9801L88.4621 20.8726C91.6836 16.8858 95.2033 13.3749 99.8565 13.3749C105.285 13.3749 108.686 16.6477 108.686 22.2413V37.7723C108.686 40.0335 109.819 41.2831 111.668 41.4616L113.04 41.5806V43.4253H96.5157V41.5806L97.8282 41.4616C99.4985 41.2831 100.334 40.0335 100.334 37.7723V23.3719C100.334 20.0396 98.544 18.1949 95.5612 18.1949C93.2943 18.1949 91.266 19.623 89.7149 21.8247V37.7723C89.7149 40.0335 90.5501 41.2831 92.2205 41.4616L93.5329 41.5806V43.4253H77.0678V41.5806L78.4399 41.4616C80.2892 41.2831 81.363 40.093 81.363 37.7723Z" fill="#1D2A33"/>
<path d="M64.4292 42.9104C61.7435 43.625 59.1443 43.6472 56.6316 42.977C54.1188 42.3069 51.9296 41.0803 50.0639 39.2972C48.2322 37.5051 46.9656 35.3093 46.2642 32.7099C45.7086 30.6506 45.5803 28.6224 45.8794 26.6251C46.1786 24.6279 46.8428 22.7686 47.8723 21.0474C48.9266 19.2834 50.2715 17.7858 51.9069 16.5546C53.5331 15.2897 55.3831 14.3814 57.4568 13.8296C60.1425 13.115 62.7417 13.0928 65.2544 13.7629C67.7672 14.4331 69.9394 15.6642 71.7711 17.4563C73.6277 19.2056 74.9113 21.3969 75.6218 24.03C76.1774 26.0893 76.3057 28.1176 76.0066 30.1148C75.7075 32.1121 75.0307 33.9927 73.9764 35.7568C72.9469 37.478 71.6191 38.971 69.9928 40.236C68.3915 41.4581 66.5369 42.3495 64.4292 42.9104ZM64.8013 38.4152C66.603 37.9358 67.8089 36.8008 68.4188 35.0103C69.0197 33.186 68.9512 30.9067 68.2134 28.1722C67.5939 25.8766 66.7029 23.9247 65.5402 22.3164C64.3775 20.7081 63.06 19.539 61.5878 18.8091C60.1156 18.0791 58.6146 17.9177 57.0848 18.3248C55.283 18.8042 54.0817 19.956 53.4808 21.7803C52.8709 23.5708 52.9348 25.8333 53.6727 28.5677C54.283 30.8296 55.174 32.7815 56.3458 34.4236C57.5085 36.0319 58.826 37.201 60.2982 37.9309C61.8044 38.6518 63.3054 38.8132 64.8013 38.4152Z" fill="#1D2A33"/>
<path d="M124.832 13.8303C127.517 13.1157 130.116 13.0935 132.629 13.7636C135.142 14.4338 137.331 15.6604 139.197 17.4435C141.029 19.2356 142.295 21.4313 142.996 24.0307C143.552 26.09 143.68 28.1183 143.381 30.1155C143.082 32.1128 142.418 33.972 141.388 35.6933C140.334 37.4573 138.989 38.9549 137.354 40.186C135.728 41.4509 133.878 42.3593 131.804 42.9111C129.118 43.6257 126.519 43.6479 124.006 42.9777C121.494 42.3076 119.321 41.0765 117.49 39.2844C115.633 37.535 114.349 35.3438 113.639 32.7106C113.083 30.6513 112.955 28.6231 113.254 26.6258C113.553 24.6286 114.23 22.7479 115.284 20.9839C116.314 19.2627 117.642 17.7696 119.268 16.5047C120.869 15.2826 122.724 14.3911 124.832 13.8303ZM124.459 18.3255C122.658 18.8049 121.452 19.9398 120.842 21.7304C120.241 23.5546 120.31 25.834 121.047 28.5684C121.667 30.864 122.558 32.816 123.721 34.4243C124.883 36.0326 126.201 37.2017 127.673 37.9316C129.145 38.6615 130.646 38.823 132.176 38.4159C133.978 37.9365 135.179 36.7846 135.78 34.9604C136.39 33.1699 136.326 30.9074 135.588 28.1729C134.978 25.9111 134.087 23.9592 132.915 22.3171C131.752 20.7088 130.435 19.5397 128.963 18.8098C127.456 18.0889 125.955 17.9275 124.459 18.3255Z" fill="#1D2A33"/>
<path d="M28.8511 10.0033H22.3473C22.8309 17.6999 29.0946 23.8416 36.8781 24.1944V17.9743C36.8781 13.5706 33.2824 10 28.8478 10L28.8511 10.0033Z" fill="#1D2A33"/>
<path d="M24.683 27.8173C24.683 24.6681 22.1104 22.1134 18.9391 22.1134C15.7678 22.1134 13.1952 24.6681 13.1952 27.8173C13.1952 30.9665 15.7678 33.5212 18.9391 33.5212C22.1104 33.5212 24.683 30.9665 24.683 27.8173Z" fill="#1D2A33"/>
<path d="M9.027 10.0033H15.5308C15.0473 17.6999 8.78685 23.8416 1 24.1976V17.9776C1 13.5739 4.5957 10.0033 9.027 10.0033Z" fill="#1D2A33"/>
<path d="M1.00002 31.4434V37.6635C1.00002 42.0672 4.59572 45.6378 9.03031 45.6378H15.5342C15.0506 37.9412 8.78687 31.7995 1.00331 31.4467L1.00002 31.4434Z" fill="#1D2A33"/>
<path d="M28.8544 45.6345H22.3506L22.3539 45.6313C22.8375 37.9346 29.0979 31.793 36.8847 31.4402V37.6602C36.8847 42.0639 33.289 45.6345 28.8544 45.6345Z" fill="#1D2A33"/>
<path opacity="0.6" d="M163.975 14.9H165.184V24H163.975V14.9ZM169.996 17.331C170.759 17.331 171.37 17.5737 171.829 18.059C172.288 18.5357 172.518 19.1857 172.518 20.009V24H171.387V20.074C171.387 19.5453 171.244 19.138 170.958 18.852C170.672 18.5573 170.278 18.41 169.775 18.41C169.212 18.41 168.757 18.5877 168.41 18.943C168.063 19.2897 167.89 19.827 167.89 20.555V24H166.759V17.5H167.89V18.436C168.349 17.6993 169.051 17.331 169.996 17.331ZM179.219 14.9H180.35V24H179.219V22.882C178.656 23.74 177.837 24.169 176.762 24.169C175.852 24.169 175.076 23.8397 174.435 23.181C173.794 22.5137 173.473 21.7033 173.473 20.75C173.473 19.7967 173.794 18.9907 174.435 18.332C175.076 17.6647 175.852 17.331 176.762 17.331C177.837 17.331 178.656 17.76 179.219 18.618V14.9ZM176.905 23.077C177.564 23.077 178.114 22.856 178.556 22.414C178.998 21.9633 179.219 21.4087 179.219 20.75C179.219 20.0913 178.998 19.541 178.556 19.099C178.114 18.6483 177.564 18.423 176.905 18.423C176.255 18.423 175.709 18.6483 175.267 19.099C174.825 19.541 174.604 20.0913 174.604 20.75C174.604 21.4087 174.825 21.9633 175.267 22.414C175.709 22.856 176.255 23.077 176.905 23.077ZM182.376 16.317C182.159 16.317 181.977 16.2433 181.83 16.096C181.682 15.9487 181.609 15.771 181.609 15.563C181.609 15.355 181.682 15.1773 181.83 15.03C181.977 14.874 182.159 14.796 182.376 14.796C182.584 14.796 182.761 14.874 182.909 15.03C183.056 15.1773 183.13 15.355 183.13 15.563C183.13 15.771 183.056 15.9487 182.909 16.096C182.761 16.2433 182.584 16.317 182.376 16.317ZM181.804 24V17.5H182.935V24H181.804ZM189.782 17.5H190.913V24H189.782V22.882C189.219 23.74 188.4 24.169 187.325 24.169C186.415 24.169 185.639 23.8397 184.998 23.181C184.357 22.5137 184.036 21.7033 184.036 20.75C184.036 19.7967 184.357 18.9907 184.998 18.332C185.639 17.6647 186.415 17.331 187.325 17.331C188.4 17.331 189.219 17.76 189.782 18.618V17.5ZM187.468 23.077C188.127 23.077 188.677 22.856 189.119 22.414C189.561 21.9633 189.782 21.4087 189.782 20.75C189.782 20.0913 189.561 19.541 189.119 19.099C188.677 18.6483 188.127 18.423 187.468 18.423C186.818 18.423 186.272 18.6483 185.83 19.099C185.388 19.541 185.167 20.0913 185.167 20.75C185.167 21.4087 185.388 21.9633 185.83 22.414C186.272 22.856 186.818 23.077 187.468 23.077ZM194.057 14.887L193.212 18.046H192.237L192.757 14.887H194.057ZM195.329 19.255C195.329 19.5063 195.454 19.71 195.706 19.866C195.957 20.0133 196.26 20.1347 196.616 20.23C196.971 20.3167 197.326 20.4207 197.682 20.542C198.037 20.6547 198.34 20.854 198.592 21.14C198.843 21.4173 198.969 21.777 198.969 22.219C198.969 22.8083 198.739 23.2807 198.28 23.636C197.829 23.9913 197.248 24.169 196.538 24.169C195.905 24.169 195.363 24.0303 194.913 23.753C194.462 23.4757 194.141 23.1073 193.951 22.648L194.926 22.089C195.03 22.401 195.225 22.648 195.511 22.83C195.797 23.012 196.139 23.103 196.538 23.103C196.91 23.103 197.218 23.0337 197.461 22.895C197.703 22.7477 197.825 22.5223 197.825 22.219C197.825 21.9677 197.699 21.7683 197.448 21.621C197.196 21.465 196.893 21.3437 196.538 21.257C196.182 21.1617 195.827 21.0533 195.472 20.932C195.116 20.8107 194.813 20.6113 194.562 20.334C194.31 20.0567 194.185 19.7013 194.185 19.268C194.185 18.7047 194.401 18.241 194.835 17.877C195.277 17.513 195.827 17.331 196.486 17.331C197.014 17.331 197.482 17.4523 197.89 17.695C198.306 17.929 198.618 18.2583 198.826 18.683L197.877 19.216C197.643 18.6613 197.179 18.384 196.486 18.384C196.165 18.384 195.892 18.462 195.667 18.618C195.441 18.7653 195.329 18.9777 195.329 19.255ZM206.626 17.331C207.536 17.331 208.311 17.6647 208.953 18.332C209.594 18.9907 209.915 19.7967 209.915 20.75C209.915 21.7033 209.594 22.5137 208.953 23.181C208.311 23.8397 207.536 24.169 206.626 24.169C205.551 24.169 204.732 23.74 204.169 22.882V26.6H203.038V17.5H204.169V18.618C204.732 17.76 205.551 17.331 206.626 17.331ZM206.483 23.077C207.133 23.077 207.679 22.856 208.121 22.414C208.563 21.9633 208.784 21.4087 208.784 20.75C208.784 20.0913 208.563 19.541 208.121 19.099C207.679 18.6483 207.133 18.423 206.483 18.423C205.824 18.423 205.274 18.6483 204.832 19.099C204.39 19.541 204.169 20.0913 204.169 20.75C204.169 21.4087 204.39 21.9633 204.832 22.414C205.274 22.856 205.824 23.077 206.483 23.077ZM212.135 18.592C212.508 17.786 213.184 17.383 214.163 17.383V18.566C213.609 18.54 213.132 18.6873 212.733 19.008C212.335 19.3287 212.135 19.8443 212.135 20.555V24H211.004V17.5H212.135V18.592ZM215.447 21.27C215.56 21.8507 215.824 22.3013 216.24 22.622C216.665 22.9427 217.185 23.103 217.8 23.103C218.658 23.103 219.282 22.7867 219.672 22.154L220.634 22.7C220.002 23.6793 219.048 24.169 217.774 24.169C216.743 24.169 215.902 23.8483 215.252 23.207C214.611 22.557 214.29 21.738 214.29 20.75C214.29 19.7707 214.607 18.956 215.239 18.306C215.872 17.656 216.691 17.331 217.696 17.331C218.65 17.331 219.425 17.669 220.023 18.345C220.63 19.0123 220.933 19.8183 220.933 20.763C220.933 20.9277 220.92 21.0967 220.894 21.27H215.447ZM217.696 18.397C217.09 18.397 216.587 18.5703 216.188 18.917C215.79 19.255 215.543 19.71 215.447 20.282H219.789C219.694 19.6667 219.451 19.1987 219.061 18.878C218.671 18.5573 218.216 18.397 217.696 18.397ZM228.994 17.331C229.722 17.331 230.311 17.5693 230.762 18.046C231.212 18.514 231.438 19.151 231.438 19.957V24H230.307V19.996C230.307 19.4933 230.177 19.1033 229.917 18.826C229.657 18.5487 229.31 18.41 228.877 18.41C228.391 18.41 228.001 18.5747 227.707 18.904C227.421 19.2247 227.278 19.7187 227.278 20.386V24H226.147V19.996C226.147 19.4933 226.021 19.1033 225.77 18.826C225.527 18.5487 225.193 18.41 224.769 18.41C224.292 18.41 223.893 18.5747 223.573 18.904C223.261 19.2333 223.105 19.7273 223.105 20.386V24H221.974V17.5H223.105V18.371C223.547 17.6777 224.192 17.331 225.042 17.331C225.917 17.331 226.554 17.6993 226.953 18.436C227.403 17.6993 228.084 17.331 228.994 17.331ZM233.318 16.317C233.101 16.317 232.919 16.2433 232.772 16.096C232.624 15.9487 232.551 15.771 232.551 15.563C232.551 15.355 232.624 15.1773 232.772 15.03C232.919 14.874 233.101 14.796 233.318 14.796C233.526 14.796 233.703 14.874 233.851 15.03C233.998 15.1773 234.072 15.355 234.072 15.563C234.072 15.771 233.998 15.9487 233.851 16.096C233.703 16.2433 233.526 16.317 233.318 16.317ZM232.746 24V17.5H233.877V24H232.746ZM236.135 21.27C236.248 21.8507 236.512 22.3013 236.928 22.622C237.353 22.9427 237.873 23.103 238.488 23.103C239.346 23.103 239.97 22.7867 240.36 22.154L241.322 22.7C240.69 23.6793 239.736 24.169 238.462 24.169C237.431 24.169 236.59 23.8483 235.94 23.207C235.299 22.557 234.978 21.738 234.978 20.75C234.978 19.7707 235.295 18.956 235.927 18.306C236.56 17.656 237.379 17.331 238.384 17.331C239.338 17.331 240.113 17.669 240.711 18.345C241.318 19.0123 241.621 19.8183 241.621 20.763C241.621 20.9277 241.608 21.0967 241.582 21.27H236.135ZM238.384 18.397C237.778 18.397 237.275 18.5703 236.876 18.917C236.478 19.255 236.231 19.71 236.135 20.282H240.477C240.382 19.6667 240.139 19.1987 239.749 18.878C239.359 18.5573 238.904 18.397 238.384 18.397ZM243.792 18.592C244.165 17.786 244.841 17.383 245.82 17.383V18.566C245.266 18.54 244.789 18.6873 244.39 19.008C243.992 19.3287 243.792 19.8443 243.792 20.555V24H242.661V17.5H243.792V18.592ZM169.253 33.5H170.371V39.727C170.371 40.689 170.046 41.4343 169.396 41.963C168.746 42.5003 167.966 42.769 167.056 42.769C166.328 42.769 165.7 42.6303 165.171 42.353C164.642 42.0843 164.244 41.6943 163.975 41.183L164.963 40.624C165.318 41.352 166.025 41.716 167.082 41.716C167.758 41.716 168.287 41.5383 168.668 41.183C169.058 40.8277 169.253 40.3423 169.253 39.727V38.804C168.681 39.6707 167.866 40.104 166.809 40.104C165.882 40.104 165.097 39.7747 164.456 39.116C163.815 38.4573 163.494 37.6557 163.494 36.711C163.494 35.7663 163.815 34.969 164.456 34.319C165.097 33.6603 165.882 33.331 166.809 33.331C167.875 33.331 168.69 33.76 169.253 34.618V33.5ZM165.288 38.362C165.73 38.804 166.28 39.025 166.939 39.025C167.598 39.025 168.148 38.804 168.59 38.362C169.032 37.92 169.253 37.3697 169.253 36.711C169.253 36.061 169.032 35.515 168.59 35.073C168.148 34.631 167.598 34.41 166.939 34.41C166.28 34.41 165.73 34.631 165.288 35.073C164.846 35.515 164.625 36.061 164.625 36.711C164.625 37.3697 164.846 37.92 165.288 38.362ZM177.207 33.5H178.338V40H177.207V38.882C176.643 39.74 175.824 40.169 174.75 40.169C173.84 40.169 173.064 39.8397 172.423 39.181C171.781 38.5137 171.461 37.7033 171.461 36.75C171.461 35.7967 171.781 34.9907 172.423 34.332C173.064 33.6647 173.84 33.331 174.75 33.331C175.824 33.331 176.643 33.76 177.207 34.618V33.5ZM174.893 39.077C175.551 39.077 176.102 38.856 176.544 38.414C176.986 37.9633 177.207 37.4087 177.207 36.75C177.207 36.0913 176.986 35.541 176.544 35.099C176.102 34.6483 175.551 34.423 174.893 34.423C174.243 34.423 173.697 34.6483 173.255 35.099C172.813 35.541 172.592 36.0913 172.592 36.75C172.592 37.4087 172.813 37.9633 173.255 38.414C173.697 38.856 174.243 39.077 174.893 39.077ZM186.811 33.331C187.539 33.331 188.128 33.5693 188.579 34.046C189.03 34.514 189.255 35.151 189.255 35.957V40H188.124V35.996C188.124 35.4933 187.994 35.1033 187.734 34.826C187.474 34.5487 187.127 34.41 186.694 34.41C186.209 34.41 185.819 34.5747 185.524 34.904C185.238 35.2247 185.095 35.7187 185.095 36.386V40H183.964V35.996C183.964 35.4933 183.838 35.1033 183.587 34.826C183.344 34.5487 183.011 34.41 182.586 34.41C182.109 34.41 181.711 34.5747 181.39 34.904C181.078 35.2333 180.922 35.7273 180.922 36.386V40H179.791V33.5H180.922V34.371C181.364 33.6777 182.01 33.331 182.859 33.331C183.734 33.331 184.371 33.6993 184.77 34.436C185.221 33.6993 185.901 33.331 186.811 33.331ZM191.356 37.27C191.469 37.8507 191.733 38.3013 192.149 38.622C192.574 38.9427 193.094 39.103 193.709 39.103C194.567 39.103 195.191 38.7867 195.581 38.154L196.543 38.7C195.911 39.6793 194.957 40.169 193.683 40.169C192.652 40.169 191.811 39.8483 191.161 39.207C190.52 38.557 190.199 37.738 190.199 36.75C190.199 35.7707 190.516 34.956 191.148 34.306C191.781 33.656 192.6 33.331 193.605 33.331C194.559 33.331 195.334 33.669 195.932 34.345C196.539 35.0123 196.842 35.8183 196.842 36.763C196.842 36.9277 196.829 37.0967 196.803 37.27H191.356ZM193.605 34.397C192.999 34.397 192.496 34.5703 192.097 34.917C191.699 35.255 191.452 35.71 191.356 36.282H195.698C195.603 35.6667 195.36 35.1987 194.97 34.878C194.58 34.5573 194.125 34.397 193.605 34.397ZM206.358 39.181C205.691 39.8397 204.881 40.169 203.927 40.169C202.974 40.169 202.164 39.8397 201.496 39.181C200.838 38.5223 200.508 37.712 200.508 36.75C200.508 35.788 200.838 34.9777 201.496 34.319C202.164 33.6603 202.974 33.331 203.927 33.331C204.881 33.331 205.691 33.6603 206.358 34.319C207.026 34.9777 207.359 35.788 207.359 36.75C207.359 37.712 207.026 38.5223 206.358 39.181ZM203.927 39.064C204.577 39.064 205.123 38.843 205.565 38.401C206.007 37.959 206.228 37.4087 206.228 36.75C206.228 36.0913 206.007 35.541 205.565 35.099C205.123 34.657 204.577 34.436 203.927 34.436C203.286 34.436 202.744 34.657 202.302 35.099C201.86 35.541 201.639 36.0913 201.639 36.75C201.639 37.4087 201.86 37.959 202.302 38.401C202.744 38.843 203.286 39.064 203.927 39.064ZM211.533 31.823C210.389 31.7277 209.817 32.2217 209.817 33.305V33.5H211.533V34.592H209.817V40H208.686V34.592H207.646V33.5H208.686V33.305C208.686 32.4297 208.928 31.7667 209.414 31.316C209.908 30.8653 210.614 30.6703 211.533 30.731V31.823ZM216.099 35.255C216.099 35.5063 216.224 35.71 216.476 35.866C216.727 36.0133 217.03 36.1347 217.386 36.23C217.741 36.3167 218.096 36.4207 218.452 36.542C218.807 36.6547 219.11 36.854 219.362 37.14C219.613 37.4173 219.739 37.777 219.739 38.219C219.739 38.8083 219.509 39.2807 219.05 39.636C218.599 39.9913 218.018 40.169 217.308 40.169C216.675 40.169 216.133 40.0303 215.683 39.753C215.232 39.4757 214.911 39.1073 214.721 38.648L215.696 38.089C215.8 38.401 215.995 38.648 216.281 38.83C216.567 39.012 216.909 39.103 217.308 39.103C217.68 39.103 217.988 39.0337 218.231 38.895C218.473 38.7477 218.595 38.5223 218.595 38.219C218.595 37.9677 218.469 37.7683 218.218 37.621C217.966 37.465 217.663 37.3437 217.308 37.257C216.952 37.1617 216.597 37.0533 216.242 36.932C215.886 36.8107 215.583 36.6113 215.332 36.334C215.08 36.0567 214.955 35.7013 214.955 35.268C214.955 34.7047 215.171 34.241 215.605 33.877C216.047 33.513 216.597 33.331 217.256 33.331C217.784 33.331 218.252 33.4523 218.66 33.695C219.076 33.929 219.388 34.2583 219.596 34.683L218.647 35.216C218.413 34.6613 217.949 34.384 217.256 34.384C216.935 34.384 216.662 34.462 216.437 34.618C216.211 34.7653 216.099 34.9777 216.099 35.255ZM226.253 40H224.849L221.885 36.919V40H220.754V30.9H221.885V36.373L224.693 33.5H226.149L223.042 36.646L226.253 40ZM227.617 32.317C227.4 32.317 227.218 32.2433 227.071 32.096C226.924 31.9487 226.85 31.771 226.85 31.563C226.85 31.355 226.924 31.1773 227.071 31.03C227.218 30.874 227.4 30.796 227.617 30.796C227.825 30.796 228.003 30.874 228.15 31.03C228.297 31.1773 228.371 31.355 228.371 31.563C228.371 31.771 228.297 31.9487 228.15 32.096C228.003 32.2433 227.825 32.317 227.617 32.317ZM227.045 40V33.5H228.176V40H227.045ZM229.642 40V30.51H230.773V40H229.642ZM232.238 40V30.51H233.369V40H232.238ZM235.797 35.255C235.797 35.5063 235.922 35.71 236.174 35.866C236.425 36.0133 236.728 36.1347 237.084 36.23C237.439 36.3167 237.794 36.4207 238.15 36.542C238.505 36.6547 238.808 36.854 239.06 37.14C239.311 37.4173 239.437 37.777 239.437 38.219C239.437 38.8083 239.207 39.2807 238.748 39.636C238.297 39.9913 237.716 40.169 237.006 40.169C236.373 40.169 235.831 40.0303 235.381 39.753C234.93 39.4757 234.609 39.1073 234.419 38.648L235.394 38.089C235.498 38.401 235.693 38.648 235.979 38.83C236.265 39.012 236.607 39.103 237.006 39.103C237.378 39.103 237.686 39.0337 237.929 38.895C238.171 38.7477 238.293 38.5223 238.293 38.219C238.293 37.9677 238.167 37.7683 237.916 37.621C237.664 37.465 237.361 37.3437 237.006 37.257C236.65 37.1617 236.295 37.0533 235.94 36.932C235.584 36.8107 235.281 36.6113 235.03 36.334C234.778 36.0567 234.653 35.7013 234.653 35.268C234.653 34.7047 234.869 34.241 235.303 33.877C235.745 33.513 236.295 33.331 236.954 33.331C237.482 33.331 237.95 33.4523 238.358 33.695C238.774 33.929 239.086 34.2583 239.294 34.683L238.345 35.216C238.111 34.6613 237.647 34.384 236.954 34.384C236.633 34.384 236.36 34.462 236.135 34.618C235.909 34.7653 235.797 34.9777 235.797 35.255Z" fill="black"/>
<path opacity="0.2" d="M154 14L154 42" stroke="black"/>
</svg>
