<svg width="30" height="30" viewBox="0 0 30 30" fill="none" xmlns="http://www.w3.org/2000/svg">
<path d="M10.8791 25.1758H16.7216C16.9972 25.1758 17.2226 24.9504 17.2226 24.6748V23.7794H24.5116C24.7871 23.7794 25.0126 23.5539 25.0126 23.2784V13.9354C25.0126 13.6599 24.7871 13.4345 24.5116 13.4345H18.4562C18.3184 13.4345 18.1869 13.4908 18.0868 13.591L15.2062 16.6845V9.57079C15.2062 9.29526 14.9808 9.06982 14.7052 9.06982H4.26016C3.33964 9.06982 2.5882 9.82127 2.5882 10.7418V23.2847C2.5882 23.5602 2.81363 23.7856 3.08916 23.7856H10.3782V24.6811C10.3782 24.9504 10.6036 25.1758 10.8791 25.1758ZM16.2207 24.1739H11.3801V23.2784C11.3801 23.0029 11.1547 22.7774 10.8791 22.7774H3.59012V10.7418C3.59012 10.3723 3.8907 10.0718 4.26016 10.0718H14.2043V17.9619C14.2043 18.1686 14.3295 18.3502 14.5237 18.4253C14.7178 18.5005 14.9307 18.4504 15.0747 18.3001L18.6754 14.4364H24.0106V22.7774H16.7216C16.4461 22.7774 16.2207 23.0029 16.2207 23.2784V24.1739Z" fill="#337265"/>
<path d="M3.46493 27.9999H24.1359C25.8517 27.9999 27.2482 26.6035 27.2482 24.8877V23.2783C27.2482 23.0028 27.0227 22.7773 26.7472 22.7773H16.7279C16.4524 22.7773 16.227 23.0028 16.227 23.2783V24.1738H11.3864V23.2783C11.3864 23.0028 11.161 22.7773 10.8855 22.7773H0.866182C0.590652 22.7773 0.365219 23.0028 0.365219 23.2783V24.8877C0.358957 26.6035 1.74913 27.9999 3.46493 27.9999ZM26.2462 23.7855V24.8939C26.2462 26.0587 25.3007 27.0042 24.1359 27.0042H3.46493C2.30019 27.0042 1.35462 26.0587 1.35462 24.8939V23.7855H10.372V24.681C10.372 24.9565 10.5974 25.182 10.8729 25.182H16.7154C16.9909 25.182 17.2164 24.9565 17.2164 24.681V23.7855H26.2462Z" fill="#E26F64"/>
<path d="M14.7053 18.4629C14.8431 18.4629 14.9746 18.4066 15.0748 18.3064L18.6754 14.4364H28.2501C29.0203 14.4364 29.6465 13.8102 29.6465 13.04V3.39644C29.6465 2.6262 29.0203 2 28.2501 2H15.607C14.8368 2 14.2106 2.6262 14.2106 3.39644V17.9557C14.2106 18.1623 14.3359 18.3439 14.53 18.4191C14.5801 18.4504 14.6427 18.4629 14.7053 18.4629ZM28.2501 3.00193C28.4693 3.00193 28.6446 3.17726 28.6446 3.39644V13.04C28.6446 13.2592 28.4693 13.4345 28.2501 13.4345H18.4563C18.3185 13.4345 18.187 13.4908 18.0868 13.591L15.2063 16.6845V3.39644C15.2063 3.17726 15.3816 3.00193 15.6008 3.00193H28.2501Z" fill="#E26F64"/>
<path d="M21.9254 10.0594C22.201 10.0594 22.4264 9.83398 22.4264 9.55845V5.15624C22.4264 4.88071 22.201 4.65527 21.9254 4.65527C21.6499 4.65527 21.4245 4.88071 21.4245 5.15624V9.56471C21.4245 9.84024 21.6499 10.0594 21.9254 10.0594Z" fill="#337265"/>
<path d="M21.9254 11.7878C21.9567 11.7878 21.988 11.7815 22.0256 11.7815C22.0569 11.7752 22.0882 11.7627 22.1196 11.7502C22.1509 11.7377 22.1759 11.7189 22.2072 11.7064C22.2323 11.6876 22.2573 11.6688 22.2824 11.6437C22.3074 11.6187 22.3262 11.5936 22.345 11.5686C22.3638 11.5436 22.3763 11.5122 22.3888 11.4809C22.4013 11.4496 22.4076 11.4183 22.4139 11.387C22.4201 11.3557 22.4264 11.3244 22.4264 11.2868C22.4264 11.2492 22.4264 11.2242 22.4139 11.1866C22.4076 11.1553 22.3951 11.124 22.3888 11.0927C22.3763 11.0614 22.3575 11.0363 22.345 11.005C22.3325 10.9737 22.3074 10.9549 22.2824 10.9299C22.2573 10.9048 22.2323 10.886 22.2072 10.8673C22.1822 10.8485 22.1509 10.8359 22.1196 10.8234C22.0882 10.8109 22.0569 10.7984 22.0256 10.7921C21.963 10.7796 21.8941 10.7796 21.8315 10.7921C21.8002 10.7984 21.7689 10.8109 21.7376 10.8234C21.7063 10.8359 21.6812 10.8485 21.6499 10.8673C21.6248 10.886 21.5935 10.9048 21.5748 10.9299C21.5497 10.9549 21.5309 10.98 21.5121 11.005C21.4933 11.0301 21.4808 11.0614 21.4683 11.0927C21.4558 11.124 21.4433 11.1553 21.437 11.1866C21.4307 11.2179 21.4245 11.2492 21.4245 11.2868C21.4245 11.3244 21.4245 11.3494 21.437 11.387C21.4433 11.4183 21.4558 11.4496 21.4683 11.4809C21.4808 11.5122 21.4996 11.5373 21.5121 11.5686C21.5309 11.5936 21.5497 11.625 21.5748 11.6437C21.5998 11.6688 21.6248 11.6876 21.6499 11.7064C21.6749 11.7252 21.7063 11.7377 21.7376 11.7502C21.7689 11.7627 21.8002 11.769 21.8315 11.7815C21.8565 11.7815 21.8941 11.7878 21.9254 11.7878Z" fill="#337265"/>
<path d="M6.05114 13.7666H11.2862C11.5617 13.7666 11.7872 13.5411 11.7872 13.2656C11.7872 12.9901 11.5617 12.7646 11.2862 12.7646H6.05114C5.77561 12.7646 5.55018 12.9901 5.55018 13.2656C5.55018 13.5411 5.77561 13.7666 6.05114 13.7666Z" fill="#337265"/>
<path d="M6.05114 17.3418H11.2862C11.5617 17.3418 11.7872 17.1163 11.7872 16.8408C11.7872 16.5653 11.5617 16.3398 11.2862 16.3398H6.05114C5.77561 16.3398 5.55018 16.5653 5.55018 16.8408C5.55018 17.1163 5.77561 17.3418 6.05114 17.3418Z" fill="#337265"/>
<path d="M6.05114 20.9175H11.2862C11.5617 20.9175 11.7872 20.692 11.7872 20.4165C11.7872 20.141 11.5617 19.9155 11.2862 19.9155H6.05114C5.77561 19.9155 5.55018 20.141 5.55018 20.4165C5.55018 20.692 5.77561 20.9175 6.05114 20.9175Z" fill="#337265"/>
</svg>
