<svg width="31" height="33" viewBox="0 0 31 33" fill="none" xmlns="http://www.w3.org/2000/svg">
<path d="M24.839 2.96373C22.3635 1.02324 17.9167 0.238809 14.0037 0.575854C6.14451 0.962423 -0.673454 8.13411 0.0532468 16.0588C0.329295 20.1579 3.30815 24.4082 7.40258 26.319C6.53228 27.2679 4.73018 27.9584 4.51457 29.3391C3.98675 31.4374 6.1101 33.0695 8.1706 32.9149C11.678 32.9334 14.5813 31.3258 16.3287 28.4906C16.6944 27.923 16.7107 27.9208 16.8653 27.9008C18.2094 27.729 19.5352 27.7122 20.9212 27.4529C32.2933 25.4909 34.6578 9.47428 24.839 2.96373Z" fill="white"/>
<path d="M23.7986 4.38688C21.1289 2.43574 17.3116 2.11146 14.1267 2.33444C7.11096 2.82517 1.2997 8.6807 1.81172 15.9347C2.00102 18.6168 3.47437 21.0621 5.39256 22.8736C6.27687 23.7084 7.33845 24.3428 8.43223 24.8578C10.8001 25.9721 8.28771 28.115 7.0676 28.8358C6.51026 29.1601 5.92503 29.7525 6.33842 30.4274C6.61391 30.8771 7.20904 31.0963 7.70991 31.1416C10.4266 31.2622 12.829 30.3293 14.4607 28.1072C15.1357 27.1877 15.3918 26.3146 16.6375 26.1524C17.9595 25.9802 19.2825 25.9633 20.6 25.7195C26.737 24.5821 29.9408 18.7903 29.1522 12.7762C28.7015 9.34005 26.5438 6.39302 23.7986 4.38688Z" fill="#5F5F5F"/>
<path d="M16.7115 20.9641C16.5938 21.6049 16.1349 21.9526 15.4899 21.9667C14.5752 21.987 14.3637 21.1009 14.5955 20.3902C14.7704 20.0209 15.0332 19.7443 15.4746 19.7346C16.1245 19.7206 16.8358 20.2891 16.7115 20.9641Z" fill="white"/>
<path d="M22.3076 4.6295C18.9391 2.98703 14.5485 2.76746 10.9781 3.87926C6.99741 5.11844 4.13714 8.40559 3.10237 12.4165C2.41833 15.0689 2.75469 17.8461 4.32538 20.1368C5.55521 21.9301 7.05661 22.9863 8.92335 24.0191C11.8707 25.6499 9.60757 28.4654 7.55872 29.6757C7.10125 29.9405 7.26411 30.1546 7.78944 30.1737C9.00724 30.2218 10.2898 30.13 11.3832 29.5372C12.5675 28.8957 13.4359 27.9669 14.1584 26.8431C14.5248 26.2733 14.8485 25.5688 15.5606 25.3806C18.2418 24.6717 21.0254 25.1146 23.5605 23.6963C30.6989 19.7034 29.2943 8.03685 22.3076 4.6295ZM17.6207 21.3357C17.2844 22.4421 16.2172 23.1866 15.0338 22.8857C14.1275 22.6552 13.6095 21.9558 13.5339 21.1401C13.4649 20.4019 13.7455 19.6752 14.2728 19.2206C14.7534 18.8058 15.4142 18.628 16.0635 18.863C17.1289 19.2489 17.9873 20.1307 17.6207 21.3357ZM19.7718 13.4148C19.357 14.0531 18.8429 14.492 18.3136 14.9657C17.8626 15.3697 17.6791 15.5439 17.5507 16.247C17.4732 16.6724 17.4197 17.1061 17.1484 17.4765C16.7903 17.9644 16.1339 18.1589 15.5522 18.0387C14.3056 17.7808 13.8465 16.6384 13.9332 15.5125C13.9973 14.6817 14.2737 13.9988 15.1134 13.1277C15.4889 12.7385 16.0719 12.4315 16.3972 12.0136C16.7204 11.5988 16.9288 10.7198 16.4703 10.3078C15.7571 9.66762 14.7844 10.0412 14.1902 10.6354C13.8317 11.0634 13.5141 11.6254 12.9539 11.8152C12.4464 11.9871 11.897 11.862 11.4995 11.4998C10.9326 10.9831 10.7076 10.2931 10.7334 9.58861C10.7697 8.61143 11.2205 7.77444 12.229 6.96748C14.0569 5.50441 16.8201 5.36224 18.8058 6.7598C19.9763 7.58348 20.6371 9.14464 20.5581 10.5593C20.5032 11.5398 20.3174 12.5747 19.7718 13.4148Z" fill="#007AFF"/>
<path d="M16.6208 16.0729C16.5569 16.4937 16.4935 17.0399 15.9736 17.0989C14.7925 17.2328 14.7889 15.6998 15.0288 14.9527C15.2876 14.3043 15.7744 13.8161 16.2751 13.3474C16.612 13.0321 17.032 12.8558 17.2794 12.4498C17.6752 11.8005 17.7851 11.0705 17.5816 10.3368C17.1553 8.80117 15.4309 8.80928 14.2329 9.43066C13.6221 9.74757 13.4803 9.9788 13.212 10.3443C12.9489 10.7033 12.6304 11.0586 12.2152 10.8284C11.5639 10.4674 11.6076 9.43518 11.8572 8.85967C13.0485 6.78171 15.7337 6.23099 17.805 7.26774C19.0698 7.9012 19.5432 9.22874 19.5864 10.5592C19.6435 12.3289 18.5913 13.3219 17.4755 14.4C16.9672 14.8913 16.7851 14.9915 16.6208 16.0729Z" fill="white"/>
<path d="M19.2917 14.4907C20.5403 13.0485 21.0749 11.3992 20.7983 9.49634C20.2973 6.04992 16.5948 4.64715 13.5519 5.83994C12.2109 6.36577 11.0616 7.44716 10.7519 8.88269C10.6391 9.4071 10.6323 10.1492 10.9118 10.6533C10.7761 10.317 10.7196 9.95454 10.7329 9.58742C10.7692 8.61023 11.22 7.77324 12.2285 6.96629C14.0564 5.50321 16.8196 5.36104 18.8053 6.75861C19.9757 7.58229 20.6366 9.14344 20.5576 10.5581C20.5027 11.5385 20.3169 12.5735 19.7713 13.4135C19.3565 14.0518 18.8424 14.4907 18.3131 14.9644C17.8622 15.3684 17.6786 15.5426 17.5503 16.2457C17.4727 16.6711 17.4193 17.1049 17.1479 17.4752C17.1074 17.5304 17.0619 17.5807 17.0145 17.628C17.2159 17.5247 17.3953 17.376 17.5456 17.1554C17.7946 16.791 17.833 16.2916 18.0345 15.9C18.3149 15.3556 18.8958 14.948 19.2917 14.4907Z" fill="#007AFF"/>
<path d="M17.1629 22.1817C17.9306 21.5425 17.9934 20.3401 17.4059 19.5357C16.6457 18.4943 15.2723 18.3419 14.2656 19.09C13.9127 19.352 13.7205 19.7464 13.646 20.178C13.7696 19.806 13.982 19.4716 14.2723 19.2211C14.753 18.8063 15.4137 18.6285 16.063 18.8635C17.1284 19.2494 17.9868 20.1312 17.6202 21.3362C17.5238 21.6539 17.3656 21.94 17.1629 22.1817Z" fill="#007AFF"/>
<path d="M27.7943 12.767C27.9396 15.1682 27.6252 17.6273 26.5553 19.7992C25.4989 21.9435 23.4048 23.4137 21.135 24.0438C19.9519 24.3724 18.7006 24.4219 17.4867 24.5667C16.7292 24.6569 15.7831 24.7062 15.093 25.0584C14.37 25.4277 13.9544 26.07 13.5481 26.7502C12.8775 27.873 12.0845 28.6985 10.8931 29.2669C10.2973 29.5511 9.64047 29.6875 8.98683 29.7393C8.54341 29.775 8.53839 29.4673 8.84503 29.2369C8.99959 29.1208 9.14269 28.9963 9.28969 28.8712C9.94618 28.313 10.4931 27.6264 10.815 26.8247C11.35 25.4934 10.6365 24.3472 9.56934 23.5844C8.91966 23.1201 8.18453 22.7832 7.50035 22.3749C6.53828 21.7999 5.7247 20.9642 5.06171 20.069C3.60352 18.0999 3.13149 15.5839 3.29471 13.1811C3.39694 11.6725 3.85547 10.2992 4.52205 9.01953C3.89634 10.062 3.41495 11.2053 3.10237 12.4164C2.41833 15.0688 2.75469 17.846 4.32538 20.1367C5.55521 21.93 7.05661 22.9862 8.92335 24.019C11.8707 25.6498 9.60757 28.4652 7.55872 29.6756C7.10125 29.9403 7.26411 30.1545 7.78944 30.1736C9.00724 30.2216 10.2898 30.1299 11.3832 29.5371C12.5675 28.8955 13.4359 27.9668 14.1584 26.843C14.5248 26.2732 14.8485 25.5687 15.5606 25.3804C18.2418 24.6716 21.0254 25.1145 23.5605 23.6962C28.0744 21.1713 29.1689 15.5791 27.5991 10.9459C27.7006 11.5568 27.7585 12.1744 27.7943 12.767Z" fill="#007AFF"/>
<path d="M16.7114 20.965C16.7264 20.8842 16.7285 20.8053 16.7212 20.7287C16.635 21.1816 16.3632 21.5599 15.8045 21.6344C14.9786 21.7444 14.5862 20.9577 14.6689 20.252C14.6429 20.2966 14.6182 20.3428 14.5955 20.3911C14.3637 21.1018 14.5752 21.9879 15.4899 21.9675C16.1348 21.9535 16.5937 21.6058 16.7114 20.965Z" fill="white"/>
<path d="M18.0333 10.4175C17.7709 9.13966 16.513 8.43456 15.259 8.61884C14.5424 8.72448 13.8658 8.98864 13.3194 9.47726C12.9721 9.78823 12.4117 10.6089 11.8882 10.5063C11.9694 10.6371 12.0728 10.7515 12.2146 10.8302C12.6298 11.0603 12.9483 10.7051 13.2114 10.3461C13.4797 9.98057 13.6215 9.74934 14.2323 9.43243C15.4303 8.81104 17.1547 8.80294 17.581 10.3385C17.7846 11.0722 17.6746 11.8023 17.2789 12.4516C17.0314 12.8576 16.6114 13.034 16.2745 13.3492C15.7739 13.8178 15.2871 14.3061 15.0283 14.9545C14.8048 15.6509 14.7934 17.0287 15.7495 17.1043C15.4173 16.7566 15.345 16.1921 15.3803 15.6646C15.4364 14.8167 15.9727 14.1944 16.5597 13.6318C17.5355 12.6964 18.3305 11.8649 18.0333 10.4175Z" fill="white"/>
<path d="M15.7687 20.0957C15.4723 20.057 15.2395 20.3096 15.2709 20.5662C15.3089 20.8724 15.5982 21.0708 15.9254 21.0225C16.0678 21.0018 16.1799 20.9111 16.2449 20.8012C16.3739 20.5844 16.3192 20.1677 15.7687 20.0957Z" fill="#FBE134"/>
<path d="M17.805 7.26874C15.7734 6.2518 13.1547 6.76593 11.9309 8.74674C13.0843 7.47568 14.8678 6.88613 16.5702 7.19982C18.4585 7.54769 19.4584 9.5524 19.1402 11.2802C18.9772 12.1651 18.6623 12.7017 18.0969 13.3793C17.6121 13.9595 16.6941 14.6807 16.5972 15.4589C16.5668 15.7033 16.573 15.9419 16.606 16.1692C16.6109 16.1372 16.6161 16.1048 16.6206 16.074C16.7849 14.9926 16.967 14.8924 17.4754 14.4011C18.5912 13.323 19.6434 12.3299 19.5863 10.5602C19.5432 9.22973 19.0697 7.90219 17.805 7.26874Z" fill="#FBE134"/>
</svg>
