<svg width="20" height="20" viewBox="0 0 20 20" fill="none" xmlns="http://www.w3.org/2000/svg">
<path d="M6.84786 5.05283C7.06489 4.84118 7.14149 4.53073 7.04775 4.24249C6.95401 3.95425 6.70937 3.74816 6.4097 3.70472L5.42642 3.56182C5.3869 3.55611 5.35277 3.53128 5.33513 3.49552L4.8955 2.60467C4.76126 2.33292 4.48968 2.16406 4.18674 2.16406C3.88364 2.16406 3.61206 2.33292 3.47782 2.60467L3.03836 3.49535C3.02056 3.53128 2.98643 3.55611 2.94674 3.56182L1.96379 3.70472C1.66395 3.74816 1.41948 3.95425 1.32574 4.24233C1.232 4.53057 1.30859 4.84118 1.52563 5.05299L2.23717 5.7464C2.26575 5.77416 2.27881 5.8145 2.27211 5.85386L2.10391 6.83306C2.05279 7.13158 2.17331 7.42783 2.41828 7.60583C2.66389 7.78416 2.98267 7.80719 3.25082 7.66626L4.1304 7.20377C4.16568 7.18531 4.20765 7.18515 4.24325 7.20393L5.1225 7.66626C5.23927 7.7275 5.36534 7.75787 5.49093 7.75787C5.65423 7.75787 5.8164 7.70659 5.95505 7.60583C6.20001 7.42783 6.32053 7.13158 6.26942 6.83306L6.10137 5.85353C6.09468 5.81434 6.10774 5.77433 6.13649 5.7464L6.84786 5.05283ZM5.66959 5.26725C5.48309 5.44902 5.398 5.71064 5.4421 5.96687L5.60998 6.94606C5.62108 7.01074 5.5845 7.04813 5.5618 7.06479C5.53894 7.08145 5.49174 7.10464 5.43377 7.0741L4.55468 6.61194C4.43938 6.55118 4.31314 6.52097 4.18674 6.52097C4.06034 6.52097 3.93411 6.55119 3.81897 6.61177L2.93956 7.0741C2.88142 7.10464 2.83439 7.08145 2.81152 7.06479C2.78882 7.04813 2.75224 7.01074 2.76318 6.94606L2.93139 5.9667C2.97516 5.71031 2.89024 5.44869 2.70407 5.26725L1.99269 4.57401C1.9455 4.52795 1.95317 4.47602 1.96183 4.44924C1.97065 4.42246 1.99482 4.37608 2.05998 4.36677L3.04293 4.22387C3.3003 4.18648 3.52289 4.0248 3.63819 3.79143L4.07782 2.90058C4.10689 2.84179 4.15849 2.83297 4.18674 2.83297C4.21483 2.83297 4.26644 2.84179 4.29551 2.90058L4.7353 3.7916C4.85043 4.0248 5.07302 4.18648 5.33023 4.22387L6.31351 4.36677C6.37851 4.37624 6.40284 4.42246 6.4115 4.4494C6.42032 4.47619 6.42783 4.52812 6.38079 4.57384L5.66959 5.26725Z" fill="#E26F64"/>
<path d="M8.26521 7.60583C8.40386 7.70659 8.56603 7.75787 8.72933 7.75787C8.85492 7.75787 8.98116 7.7275 9.09776 7.66626L9.97734 7.20377C10.0124 7.18531 10.0544 7.18515 10.0902 7.20393L10.9696 7.66626C11.2379 7.80703 11.5565 7.78384 11.802 7.606C12.0471 7.42783 12.1675 7.13158 12.1164 6.83306L11.9485 5.85402C11.9416 5.8145 11.9547 5.77416 11.9834 5.7464L12.6948 5.05283C12.9118 4.84118 12.9884 4.53057 12.8947 4.24233C12.8009 3.95425 12.5565 3.74816 12.2568 3.70472L11.2735 3.56182C11.234 3.55611 11.1999 3.53145 11.1821 3.49535L10.7424 2.60467C10.6082 2.33292 10.3368 2.16406 10.0338 2.16406C9.73091 2.16406 9.45916 2.33276 9.32476 2.60467L8.88513 3.49568C8.86749 3.53145 8.83336 3.55611 8.79368 3.56182L7.81072 3.70472C7.51089 3.74816 7.26642 3.95425 7.17268 4.24233C7.07894 4.53057 7.15553 4.84118 7.37257 5.05299L8.0841 5.7464C8.11268 5.77416 8.12575 5.8145 8.11889 5.85386L7.95117 6.83289C7.89973 7.13142 8.02008 7.42766 8.26521 7.60583ZM7.83963 4.57401C7.79243 4.52795 7.80011 4.47602 7.80876 4.44924C7.81758 4.42246 7.84175 4.37608 7.90691 4.36677L8.88987 4.22387C9.14757 4.18648 9.37016 4.0248 9.48513 3.79143L9.92459 2.90075C9.95382 2.84179 10.0054 2.83297 10.0337 2.83297C10.0619 2.83297 10.1134 2.84179 10.1424 2.90058L10.5822 3.79127C10.6972 4.0248 10.9198 4.18648 11.1773 4.22387L12.1606 4.36677C12.2256 4.37608 12.2498 4.42246 12.2586 4.44924C12.2673 4.47602 12.2749 4.52795 12.2277 4.57384L11.5165 5.26725C11.3302 5.44869 11.2453 5.71031 11.289 5.96687L11.4569 6.94606C11.468 7.01074 11.4314 7.0483 11.4087 7.06479C11.386 7.08161 11.3388 7.1048 11.2809 7.0741L10.4016 6.61194C10.2863 6.55118 10.1601 6.52097 10.0337 6.52097C9.90728 6.52097 9.78104 6.55119 9.66591 6.61177L8.78649 7.0741C8.72803 7.10464 8.68148 7.08145 8.65862 7.06479C8.63576 7.0483 8.59918 7.0109 8.61044 6.94606L8.77833 5.9667C8.82209 5.71031 8.73717 5.44869 8.551 5.26725L7.83963 4.57401Z" fill="#E26F64"/>
<path d="M18.5417 5.05283C18.7588 4.84118 18.8354 4.53057 18.7416 4.24233C18.6479 3.95425 18.4034 3.74816 18.1037 3.70472L17.1205 3.56182C17.0809 3.55611 17.0468 3.53128 17.0292 3.49552L16.5895 2.60467C16.4553 2.33292 16.1837 2.16406 15.8806 2.16406C15.5777 2.16406 15.3061 2.33292 15.1719 2.60467L14.7324 3.49535C14.7146 3.53128 14.6805 3.55611 14.6406 3.56182L13.6577 3.70472C13.3578 3.74816 13.1134 3.95425 13.0196 4.24249C12.9259 4.53073 13.0025 4.84118 13.2195 5.05299L13.931 5.7464C13.9596 5.77433 13.9727 5.81434 13.9658 5.85386L13.7979 6.83306C13.7468 7.13158 13.8674 7.42783 14.1123 7.60583C14.3576 7.78416 14.6767 7.80719 14.9449 7.66626L15.8243 7.20377C15.8594 7.18531 15.9014 7.18515 15.9371 7.20393L16.8165 7.66626C16.9333 7.7275 17.0594 7.75787 17.185 7.75787C17.3483 7.75787 17.5104 7.70659 17.6491 7.60583C17.8941 7.42783 18.0146 7.13158 17.9633 6.83306L17.7954 5.85402C17.7886 5.8145 17.8016 5.77416 17.8304 5.7464L18.5417 5.05283ZM17.3635 5.26725C17.1771 5.44869 17.0922 5.71031 17.1361 5.96687L17.304 6.94606C17.3151 7.01074 17.2785 7.04813 17.2558 7.06479C17.233 7.08145 17.1859 7.10464 17.1278 7.0741L16.2486 6.61194C16.1333 6.55118 16.007 6.52097 15.8806 6.52097C15.7542 6.52097 15.628 6.55119 15.5129 6.61177L14.6336 7.0741C14.5751 7.10464 14.5286 7.08145 14.5056 7.06479C14.4829 7.04813 14.4463 7.01074 14.4574 6.94606L14.6251 5.96719C14.6694 5.71064 14.5843 5.44902 14.3979 5.26725L13.6866 4.57401C13.6394 4.52812 13.6471 4.47619 13.6559 4.44924C13.6645 4.42246 13.6889 4.37608 13.7539 4.36677L14.7368 4.22387C14.9943 4.18648 15.2169 4.02496 15.3322 3.79143L15.7719 2.90058C15.8009 2.84179 15.8525 2.83297 15.8806 2.83297C15.9089 2.83297 15.9605 2.84179 15.9895 2.90058L16.4293 3.7916C16.5445 4.0248 16.7671 4.18648 17.0243 4.22387L18.0076 4.36677C18.0726 4.37608 18.0967 4.42246 18.1055 4.44924C18.1142 4.47602 18.1219 4.52795 18.0747 4.57384L17.3635 5.26725Z" fill="#E26F64"/>
<path d="M18.86 0.689453H1.20734C0.541531 0.689453 0 1.23262 0 1.90022V8.12783C0 8.79544 0.541531 9.33844 1.20734 9.33844H7.82248C8.00718 9.33844 8.15694 9.18868 8.15694 9.00398C8.15694 8.81928 8.00718 8.66953 7.82248 8.66953H1.20734C0.910445 8.66953 0.668912 8.42652 0.668912 8.12783V1.90022C0.668912 1.60137 0.910445 1.35837 1.20734 1.35837H18.86C19.1569 1.35837 19.3984 1.60137 19.3984 1.90022V8.12783C19.3984 8.42652 19.1569 8.66953 18.86 8.66953H12.0868C11.9021 8.66953 11.7523 8.81928 11.7523 9.00398C11.7523 9.18868 11.9021 9.33844 12.0868 9.33844H18.86C19.5258 9.33844 20.0674 8.79544 20.0674 8.12783V1.90022C20.0674 1.23262 19.5258 0.689453 18.86 0.689453Z" fill="#337265"/>
<path d="M6.89162 13.0636C6.47649 13.3629 6.31106 13.9089 6.49103 14.3952L7.79423 17.7832C7.9061 18.07 8.06124 18.3282 8.26097 18.5565L8.81801 19.1237C9.12552 19.4313 9.46602 19.6382 9.82987 19.7387C10.0325 19.7945 10.2409 19.8229 10.4493 19.8229H13.3265C14.6155 19.8229 15.6641 18.7743 15.6641 17.4853V13.5112C15.6641 13.3574 15.6347 13.213 15.5793 13.0881C15.4114 12.6867 15.0192 12.4274 14.5802 12.4274C14.3841 12.4274 14.1961 12.4806 14.0334 12.5756C13.8497 12.2369 13.4898 12.0062 13.0768 12.0062C12.8628 12.0062 12.6631 12.0684 12.4949 12.1755C12.3409 11.9216 12.0899 11.7353 11.7899 11.677C11.5738 11.635 11.3548 11.658 11.1584 11.7395V9.34099C11.1584 9.0418 11.0397 8.76336 10.8239 8.55727C10.6082 8.35101 10.3229 8.24225 10.0244 8.25841C9.45443 8.28405 8.99079 8.7877 8.99079 9.38116V9.89787C8.98589 9.93641 8.98344 9.97789 8.98344 10.0145V14.2193L8.54578 13.4167C8.34605 13.0662 7.97011 12.8485 7.56462 12.8485C7.32194 12.8485 7.0827 12.9251 6.89162 13.0636ZM7.96162 13.7423L9.02427 15.6914C9.0976 15.8258 9.25176 15.8926 9.40053 15.8555C9.54866 15.8176 9.65236 15.6842 9.65236 15.5314V10.0145C9.65236 10.0024 9.65317 9.98834 9.65513 9.97642C9.65824 9.95813 9.65971 9.93984 9.65971 9.92138V9.38116C9.65971 9.14028 9.83673 8.93647 10.0544 8.92667C10.1687 8.92243 10.2793 8.96211 10.3616 9.04066C10.4441 9.11954 10.4895 9.22618 10.4895 9.34099V12.7398C10.4895 12.7406 10.49 12.7413 10.49 12.7422V14.2878C10.49 14.4725 10.6397 14.6222 10.8244 14.6222C11.0091 14.6222 11.1589 14.4725 11.1589 14.2878V12.7401C11.1589 12.7395 11.1585 12.739 11.1585 12.7384C11.1589 12.6153 11.214 12.4996 11.3099 12.4203C11.4084 12.3392 11.5333 12.309 11.6622 12.3335C11.8493 12.3699 11.9904 12.5569 11.9904 12.7683V13.2173C11.9904 13.2218 11.9929 13.2255 11.9931 13.23V14.2878C11.9931 14.4725 12.1428 14.6222 12.3275 14.6222C12.5122 14.6222 12.662 14.4725 12.662 14.2878V13.2163C12.662 13.216 12.6618 13.2158 12.6618 13.2155V13.0876C12.6618 12.8601 12.848 12.6751 13.0768 12.6751C13.3069 12.6751 13.494 12.8601 13.494 13.0876V13.2173C13.494 13.231 13.4948 13.2444 13.4965 13.2576V13.5093C13.4965 13.5099 13.4962 13.5103 13.4962 13.5109V14.2878C13.4962 14.4725 13.6459 14.6222 13.8306 14.6222C14.0153 14.6222 14.1651 14.4725 14.1651 14.2878V13.5128C14.1651 13.5123 14.1654 13.5118 14.1654 13.5112C14.1654 13.452 14.1757 13.3972 14.1963 13.351C14.2637 13.1962 14.4144 13.0963 14.5802 13.0963C14.7487 13.0963 14.8986 13.1944 14.9649 13.3527C14.9847 13.3972 14.9952 13.4521 14.9952 13.5112V17.4853C14.9952 18.4054 14.2466 19.154 13.3265 19.154H10.4493C10.301 19.154 10.1524 19.1338 10.0079 19.0939C9.75704 19.0247 9.51583 18.8756 9.29112 18.6507L8.86162 18.2215L8.75922 18.1102C8.616 17.9464 8.50103 17.7546 8.41791 17.5417L7.11683 14.1592C7.04236 13.9579 7.11062 13.7304 7.28357 13.6056C7.36195 13.5488 7.4619 13.5174 7.56462 13.5174C7.73283 13.5174 7.88242 13.6037 7.96162 13.7423Z" fill="#337265"/>
</svg>
