<svg width="32" height="33" viewBox="0 0 32 33" fill="none" xmlns="http://www.w3.org/2000/svg">
<path d="M29.8734 9.16274L29.8588 9.17732C29.8135 9.22259 29.8135 9.29597 29.8588 9.34123L30.6507 10.1331C30.696 10.1784 30.7693 10.1784 30.8146 10.1331L30.8292 10.1185C30.8744 10.0733 30.8744 9.99989 30.8292 9.95462L30.0373 9.16274C29.992 9.11748 29.9187 9.11748 29.8734 9.16274Z" fill="#FFB833"/>
<path d="M29.8585 10.1188L29.8731 10.1334C29.9184 10.1786 29.9918 10.1786 30.037 10.1334L30.8289 9.3415C30.8742 9.29624 30.8742 9.22285 30.8289 9.17759L30.8143 9.16301C30.7691 9.11775 30.6957 9.11775 30.6504 9.16301L29.8585 9.95489C29.8133 10.0002 29.8133 10.0735 29.8585 10.1188Z" fill="#FFB833"/>
<path d="M28.822 24.5487L28.7697 24.601C28.7217 24.649 28.7217 24.7269 28.7697 24.775L29.809 25.8142C29.857 25.8623 29.9349 25.8623 29.9829 25.8142L30.0352 25.7619C30.0833 25.7139 30.0833 25.636 30.0352 25.588L28.996 24.5487C28.9479 24.5007 28.87 24.5007 28.822 24.5487Z" fill="#FFB833"/>
<path d="M28.7697 25.7614L28.822 25.8137C28.87 25.8617 28.9479 25.8617 28.9959 25.8137L30.0352 24.7744C30.0832 24.7264 30.0832 24.6485 30.0352 24.6004L29.9829 24.5482C29.9348 24.5001 29.857 24.5001 29.8089 24.5482L28.7697 25.5874C28.7216 25.6354 28.7216 25.7133 28.7697 25.7614Z" fill="#FFB833"/>
<path d="M11.4772 23.7072L11.4249 23.7595C11.3768 23.8075 11.3768 23.8854 11.4249 23.9334L12.4641 24.9727C12.5122 25.0207 12.59 25.0207 12.6381 24.9727L12.6904 24.9204C12.7384 24.8723 12.7384 24.7945 12.6904 24.7464L11.6511 23.7072C11.6031 23.6591 11.5252 23.6591 11.4772 23.7072Z" fill="#FFB833"/>
<path d="M11.4242 24.9201L11.4765 24.9723C11.5245 25.0204 11.6024 25.0204 11.6505 24.9723L12.6897 23.9331C12.7377 23.8851 12.7377 23.8072 12.6897 23.7591L12.6374 23.7068C12.5894 23.6588 12.5115 23.6588 12.4635 23.7068L11.4242 24.7461C11.3762 24.7941 11.3762 24.872 11.4242 24.9201Z" fill="#FFB833"/>
<path d="M25.0413 21.9155C25.0413 21.9155 24.87 25.3883 25.549 26.2017C26.2281 27.0151 30.5313 26.2557 31.4983 31.3006C31.4983 31.3006 20.6556 34.4469 12.8086 30.5412C12.8086 30.5412 14.685 27.6529 16.2721 26.7577C17.8591 25.8625 19.4888 26.1889 20.3826 25.5369C21.2764 24.8848 21.0972 21.5486 21.0972 21.5486C21.0972 21.5486 23.4365 20.6954 25.0413 21.9155Z" fill="#FFB08D"/>
<path d="M26.3048 26.5522C25.8782 26.7968 23.8453 27.8982 21.5089 27.1708C20.712 26.9188 19.9808 26.4934 19.3679 25.925C18.4869 26.1028 17.3692 26.1384 16.2713 26.7577C14.6843 27.6529 12.8079 30.5411 12.8079 30.5411C20.6549 34.4469 31.4976 31.3005 31.4976 31.3005C30.7183 27.2369 27.7753 26.939 26.3048 26.5522Z" fill="#0BB592"/>
<path d="M1.48393 22.1289L27.208 22.1289C28.0275 22.1289 28.6919 21.4645 28.6919 20.645L28.6919 1.98584C28.6919 1.16628 28.0275 0.501896 27.208 0.501896L1.48393 0.501896C0.66437 0.501896 -1.52588e-05 1.16628 -1.52588e-05 1.98584L-1.52588e-05 20.645C-1.52588e-05 21.4645 0.66437 22.1289 1.48393 22.1289Z" fill="#AAEEEA"/>
<path d="M8.16274 3.25273C8.48515 3.25273 8.74651 2.99137 8.74651 2.66897C8.74651 2.34657 8.48515 2.08521 8.16274 2.08521C7.84034 2.08521 7.57898 2.34657 7.57898 2.66897C7.57898 2.99137 7.84034 3.25273 8.16274 3.25273Z" fill="#0BB592"/>
<path d="M5.69253 3.25273C6.01493 3.25273 6.27629 2.99137 6.27629 2.66897C6.27629 2.34657 6.01493 2.08521 5.69253 2.08521C5.37012 2.08521 5.10876 2.34657 5.10876 2.66897C5.10876 2.99137 5.37012 3.25273 5.69253 3.25273Z" fill="#0BB592"/>
<path d="M3.22244 3.25273C3.54484 3.25273 3.8062 2.99137 3.8062 2.66897C3.8062 2.34657 3.54484 2.08521 3.22244 2.08521C2.90003 2.08521 2.63867 2.34657 2.63867 2.66897C2.63867 2.99137 2.90003 3.25273 3.22244 3.25273Z" fill="#0BB592"/>
<path d="M18.7351 10.583L26.2686 10.583C26.5246 10.583 26.7322 10.3754 26.7322 10.1194V4.61809C26.7322 4.36205 26.5246 4.15449 26.2686 4.15449L18.7351 4.15449C18.4791 4.15449 18.2715 4.36205 18.2715 4.61809V10.1194C18.2715 10.3754 18.4791 10.583 18.7351 10.583Z" fill="#0BB592"/>
<path d="M15.8903 4.84131H2.47156" stroke="#0BB592" stroke-width="3" stroke-linecap="round" stroke-linejoin="round"/>
<path d="M15.8903 6.99414H2.47156" stroke="#0BB592" stroke-width="3" stroke-linecap="round" stroke-linejoin="round"/>
<path d="M15.8903 9.16016H2.47156" stroke="#0BB592" stroke-width="3" stroke-linecap="round" stroke-linejoin="round"/>
<path d="M27.2044 11.3267H2.47229" stroke="#0BB592" stroke-width="3" stroke-linecap="round" stroke-linejoin="round"/>
<path d="M27.2044 13.4924H2.47229" stroke="#0BB592" stroke-width="3" stroke-linecap="round" stroke-linejoin="round"/>
<path d="M27.2044 15.6589H2.47229" stroke="#0BB592" stroke-width="3" stroke-linecap="round" stroke-linejoin="round"/>
<path d="M27.2044 17.825H2.47229" stroke="#0BB592" stroke-width="3" stroke-linecap="round" stroke-linejoin="round"/>
<path d="M27.2044 19.9915H2.47229" stroke="#0BB592" stroke-width="3" stroke-linecap="round" stroke-linejoin="round"/>
<path d="M30.1417 18.9468H20.1836" stroke="#0BB592" stroke-width="3" stroke-linecap="round" stroke-linejoin="round"/>
<path d="M11.393 19.4054C14.2055 19.4054 16.4855 17.1254 16.4855 14.3129C16.4855 11.5004 14.2055 9.22046 11.393 9.22046C8.58051 9.22046 6.30054 11.5004 6.30054 14.3129C6.30054 17.1254 8.58051 19.4054 11.393 19.4054Z" fill="#FF832F"/>
<path d="M3.38098 26.1475L2.99844 25.8794C2.90629 25.8148 2.828 25.7325 2.7682 25.6371C2.70841 25.5418 2.66831 25.4355 2.65029 25.3244C2.63226 25.2133 2.63666 25.0997 2.66324 24.9904C2.68982 24.881 2.73804 24.7781 2.80504 24.6877L7.94871 17.7579C8.07966 17.5818 8.27414 17.4636 8.49082 17.4285C8.7075 17.3935 8.92931 17.4443 9.10912 17.5702C9.2887 17.6963 9.41203 17.8875 9.45292 18.1031C9.49382 18.3187 9.44905 18.5418 9.32812 18.7249L4.56415 25.9228C4.50209 26.0163 4.42197 26.0964 4.3285 26.1585C4.23503 26.2205 4.1301 26.2633 4.01987 26.2842C3.90964 26.3051 3.79633 26.3038 3.68662 26.2803C3.5769 26.2569 3.47299 26.2117 3.38098 26.1475Z" fill="#FF832F"/>
<path d="M11.3929 18.4428C13.6737 18.4428 15.5226 16.5939 15.5226 14.3131C15.5226 12.0323 13.6737 10.1833 11.3929 10.1833C9.11212 10.1833 7.26318 12.0323 7.26318 14.3131C7.26318 16.5939 9.11212 18.4428 11.3929 18.4428Z" fill="#D9FFFC"/>
<path d="M13.9556 13.1377H8.82971" stroke="#0BB592" stroke-width="3" stroke-linecap="round" stroke-linejoin="round"/>
<path d="M13.9556 16.0259H8.82971" stroke="#0BB592" stroke-width="3" stroke-linecap="round" stroke-linejoin="round"/>
<path d="M24.6653 23.7429C28.4387 23.7429 31.4977 20.6839 31.4977 16.9105C31.4977 13.1371 28.4387 10.0781 24.6653 10.0781C20.8919 10.0781 17.8329 13.1371 17.8329 16.9105C17.8329 20.6839 20.8919 23.7429 24.6653 23.7429Z" fill="#FFB08D"/>
<path d="M18.46 14.0477C18.46 14.0477 16.2714 17.8162 17.8329 20.8311C19.3943 23.8459 23.4266 24.6366 27.7007 22.7864C27.7007 22.7864 26.6156 11.6529 18.46 14.0477Z" fill="#FFB08D"/>
<path d="M21.5602 14.7653C21.3288 14.4511 21.0059 14.2161 20.6358 14.0926C20.3862 14.0052 20.0485 13.8864 19.88 14.0492C19.8425 14.0844 19.815 14.1288 19.8004 14.178C19.7858 14.2273 19.7846 14.2795 19.7968 14.3294C19.8636 14.5256 20.2063 14.4787 20.687 14.6294C21.3191 14.8278 21.6519 15.1983 21.723 15.1229C21.7742 15.0675 21.6206 14.8506 21.5602 14.7653Z" fill="#383333"/>
<path d="M21.0831 17.9656C21.1569 17.7238 20.9023 17.4317 20.5143 17.3133C20.1263 17.1949 19.7519 17.295 19.6781 17.5369C19.6043 17.7788 19.859 18.0708 20.247 18.1892C20.635 18.3076 21.0093 18.2075 21.0831 17.9656Z" fill="#FF8C5F"/>
<path d="M23.9755 16.99C24.058 16.9488 24.5017 16.7397 24.9767 16.9331C25.0478 16.9609 25.3222 17.0753 25.4559 17.3142C25.8007 17.9378 25.1373 19.3393 24.1597 19.4381C23.6136 19.4929 23.1727 19.121 23.027 18.9859L23.9755 16.99Z" fill="#FFB08D"/>
<path d="M25.0413 17.9017L24.2279 17.5959C24.2279 17.5959 24.8984 18.3909 23.9755 18.8424" stroke="#383333" stroke-width="0.75" stroke-linecap="round" stroke-linejoin="round"/>
<path d="M18.4607 14.3264C18.4607 14.3264 18.0981 15.164 17.5215 15.1541C16.9448 15.1441 16.4058 16.2149 17.9218 16.5761L18.4607 14.3264Z" fill="#FFB08D"/>
<path d="M17.6992 18.9512C17.6992 18.9512 17.8791 19.2583 18.2332 19.2299" stroke="#383333" stroke-width="0.75" stroke-linecap="round" stroke-linejoin="round"/>
<path fill-rule="evenodd" clip-rule="evenodd" d="M20.0562 16.5002C19.9561 16.5583 19.841 16.5853 19.7254 16.5779C19.6099 16.5704 19.4992 16.5289 19.4072 16.4586C19.3153 16.3882 19.2463 16.2922 19.209 16.1826C19.1717 16.073 19.1677 15.9548 19.1975 15.843C19.2274 15.7311 19.2897 15.6306 19.3767 15.5542C19.4637 15.4778 19.5713 15.4289 19.6861 15.4138C19.8009 15.3986 19.9176 15.4177 20.0214 15.4689C20.1253 15.52 20.2116 15.6008 20.2696 15.701C20.3466 15.8354 20.3674 15.9949 20.3275 16.1446C20.2875 16.2943 20.19 16.4221 20.0562 16.5002Z" fill="#383333"/>
<path d="M6.01602 20.2552C6.01602 20.2552 5.0874 20.0824 4.98714 21.2037C4.98714 21.2037 4.31805 21.1198 4.38489 21.9567C4.38489 21.9567 3.81606 21.9404 3.74922 22.7765C3.74922 22.7765 3.26571 22.8697 3.23016 23.4627C3.19461 24.0557 3.59848 25.6769 4.78094 26.5913C5.9634 27.5057 6.16392 30.1166 6.16392 30.1166C6.16392 30.1166 8.59212 29.9268 9.94381 28.6945C9.94381 28.6945 8.37312 25.3868 8.08301 23.7357C7.79291 22.0847 6.01602 20.2552 6.01602 20.2552Z" fill="#FFB08D"/>
<path d="M8.91073 27.0619C8.91073 27.0619 8.07668 23.3802 8.13783 22.3833C8.19898 21.3864 9.18164 20.0774 8.81545 19.793C8.44927 19.5085 6.75343 21.0017 7.0798 22.8305C7.40617 24.6593 7.66997 25.6989 7.66997 25.6989L8.91073 27.0619Z" fill="#FFB08D"/>
<path d="M21.7329 10.7407C21.7329 10.7407 21.6718 13.5713 23.706 13.9709C23.706 13.9709 23.4074 14.9721 23.706 15.6618C24.0047 16.3515 22.9602 17.423 23.1095 17.7544C23.2588 18.0857 24.0559 17.1095 24.2877 16.9132C24.5195 16.717 25.3706 16.9296 25.5078 17.4401C25.6451 17.9506 25.1523 19.3151 24.2877 19.4196C23.5823 19.505 23.4686 19.227 23.2211 19.2063C23.1542 19.2063 23.0878 19.2169 23.0242 19.2376C22.6203 19.3699 20.7168 22.374 21.9398 23.7044C22.2498 24.0414 22.6658 24.1687 23.1337 24.2469C24.3247 24.4453 26.9299 24.5164 29.1007 22.7281C31.3469 20.8794 32.3651 17.6669 31.5965 15.0489C30.9828 12.9634 29.2102 11.1595 27.5009 10.2209C26.0127 9.40393 24.4861 9.18564 24.2727 8.13187C24.085 7.20752 25.0684 6.38129 24.8153 6.12532C24.5764 5.88356 23.4742 6.38769 22.7533 7.18263C21.6497 8.40207 21.6789 10.0545 21.7329 10.7407Z" fill="#383333"/>
<path d="M18.2424 18.947C18.5428 18.947 18.7864 18.5704 18.7864 18.1058C18.7864 17.6412 18.5428 17.2646 18.2424 17.2646C17.942 17.2646 17.6985 17.6412 17.6985 18.1058C17.6985 18.5704 17.942 18.947 18.2424 18.947Z" fill="white"/>
<path d="M4.98718 21.2039C5.19475 21.5277 5.42474 21.8365 5.67547 22.1282" stroke="#383333" stroke-width="0.75" stroke-linecap="round" stroke-linejoin="round"/>
<path d="M4.38489 21.9568C4.38489 21.9568 4.6174 22.5662 4.86129 22.7496" stroke="#383333" stroke-width="0.75" stroke-linecap="round" stroke-linejoin="round"/>
<path d="M3.74927 22.7766C3.74927 22.7766 3.94623 23.4542 4.19011 23.7429" stroke="#383333" stroke-width="0.75" stroke-linecap="round" stroke-linejoin="round"/>
<path d="M23.3533 9.64868C23.3533 9.64868 23.0227 12.1238 25.5483 13.1378C25.5483 13.1378 24.422 14.9317 25.1622 15.9926" stroke="white" stroke-linecap="round" stroke-linejoin="round"/>
<path d="M29.4022 17.406C29.4022 17.406 29.3894 22.0989 25.5483 22.7225" stroke="white" stroke-linecap="round" stroke-linejoin="round"/>
<path d="M29.1306 12.8206C29.1306 12.8206 31.295 14.7759 30.7041 18.2394" stroke="white" stroke-linecap="round" stroke-linejoin="round"/>
<path d="M26.5537 20.064C26.5537 20.064 25.1978 21.8885 23.8148 22.126" stroke="white" stroke-linecap="round" stroke-linejoin="round"/>
</svg>
