<svg width="32" height="32" viewBox="0 0 32 32" fill="none" xmlns="http://www.w3.org/2000/svg">
<path d="M7.34667 7.18406H11.8528C11.9567 7.18406 12.0564 7.14278 12.1299 7.0693C12.2033 6.99581 12.2446 6.89615 12.2446 6.79223C12.2446 6.68831 12.2033 6.58864 12.1299 6.51516C12.0564 6.44167 11.9567 6.40039 11.8528 6.40039H7.34667C7.24275 6.40039 7.14308 6.44167 7.0696 6.51516C6.99612 6.58864 6.95483 6.68831 6.95483 6.79223C6.95483 6.89615 6.99612 6.99581 7.0696 7.0693C7.14308 7.14278 7.24275 7.18406 7.34667 7.18406Z" fill="#2C2D32"/>
<path d="M7.34667 8.75047H13.812C13.9159 8.75047 14.0156 8.70919 14.089 8.6357C14.1625 8.56222 14.2038 8.46256 14.2038 8.35863C14.2038 8.25471 14.1625 8.15505 14.089 8.08156C14.0156 8.00808 13.9159 7.9668 13.812 7.9668H7.34667C7.24275 7.9668 7.14308 8.00808 7.0696 8.08156C6.99612 8.15505 6.95483 8.25471 6.95483 8.35863C6.95483 8.46256 6.99612 8.56222 7.0696 8.6357C7.14308 8.70919 7.24275 8.75047 7.34667 8.75047Z" fill="#2C2D32"/>
<path d="M14.2038 9.92602C14.2038 9.8221 14.1625 9.72243 14.089 9.64895C14.0156 9.57547 13.9159 9.53418 13.812 9.53418H7.34667C7.24275 9.53418 7.14308 9.57546 7.0696 9.64895C6.99612 9.72243 6.95483 9.82209 6.95483 9.92602C6.95483 10.0299 6.99612 10.1296 7.0696 10.2031C7.14308 10.2766 7.24275 10.3179 7.34667 10.3179H13.812C13.9159 10.3178 14.0156 10.2766 14.089 10.2031C14.1625 10.1296 14.2038 10.0299 14.2038 9.92602Z" fill="#2C2D32"/>
<path d="M20.0814 15.8047H10.4814C10.3775 15.8047 10.2778 15.846 10.2044 15.9195C10.1309 15.9929 10.0896 16.0926 10.0896 16.1965C10.0896 16.3004 10.1309 16.4001 10.2044 16.4736C10.2778 16.5471 10.3775 16.5884 10.4814 16.5884H20.0814C20.1854 16.5884 20.285 16.5471 20.3585 16.4736C20.432 16.4001 20.4733 16.3004 20.4733 16.1965C20.4733 16.0926 20.432 15.9929 20.3585 15.9195C20.285 15.846 20.1854 15.8047 20.0814 15.8047Z" fill="#2C2D32"/>
<path d="M20.0814 19.7236H10.4814C10.3775 19.7236 10.2778 19.7649 10.2044 19.8384C10.1309 19.9119 10.0896 20.0115 10.0896 20.1155C10.0896 20.2194 10.1309 20.3191 10.2044 20.3925C10.2778 20.466 10.3775 20.5073 10.4814 20.5073H20.0814C20.1854 20.5073 20.285 20.466 20.3585 20.3925C20.432 20.3191 20.4733 20.2194 20.4733 20.1155C20.4733 20.0115 20.432 19.9119 20.3585 19.8384C20.285 19.7649 20.1854 19.7236 20.0814 19.7236Z" fill="#2C2D32"/>
<path d="M16.7508 18.5473C16.8547 18.5473 16.9544 18.5061 17.0278 18.4326C17.1013 18.3591 17.1426 18.2594 17.1426 18.1555C17.1426 18.0516 17.1013 17.9519 17.0278 17.8784C16.9544 17.805 16.8547 17.7637 16.7508 17.7637H13.812C13.7081 17.7637 13.6084 17.805 13.5349 17.8784C13.4614 17.9519 13.4202 18.0516 13.4202 18.1555C13.4202 18.2594 13.4614 18.3591 13.5349 18.4326C13.6084 18.5061 13.7081 18.5473 13.812 18.5473H16.7508Z" fill="#2C2D32"/>
<path d="M20.0814 17.7637H18.3181C18.2142 17.7637 18.1145 17.805 18.041 17.8784C17.9676 17.9519 17.9263 18.0516 17.9263 18.1555C17.9263 18.2594 17.9676 18.3591 18.041 18.4326C18.1145 18.5061 18.2142 18.5473 18.3181 18.5473H20.0814C20.1853 18.5473 20.285 18.5061 20.3584 18.4326C20.4319 18.3591 20.4732 18.2594 20.4732 18.1555C20.4732 18.0516 20.4319 17.9519 20.3584 17.8784C20.285 17.805 20.1853 17.7637 20.0814 17.7637Z" fill="#2C2D32"/>
<path d="M10.4814 18.5473H12.2447C12.3486 18.5473 12.4483 18.5061 12.5218 18.4326C12.5953 18.3591 12.6365 18.2594 12.6365 18.1555C12.6365 18.0516 12.5953 17.9519 12.5218 17.8784C12.4483 17.805 12.3486 17.7637 12.2447 17.7637H10.4814C10.3775 17.7637 10.2778 17.805 10.2044 17.8784C10.1309 17.9519 10.0896 18.0516 10.0896 18.1555C10.0896 18.2594 10.1309 18.3591 10.2044 18.4326C10.2778 18.5061 10.3775 18.5473 10.4814 18.5473Z" fill="#2C2D32"/>
<path d="M15.4342 9.5248C15.4454 9.62177 15.4434 9.71982 15.4284 9.81628C15.3694 10.0946 15.4175 10.3849 15.5632 10.6292C15.7518 10.8443 16.0146 10.9803 16.2991 11.0099C16.3937 11.025 16.486 11.0526 16.5734 11.092C16.6363 11.1621 16.6897 11.24 16.7324 11.3238C16.8488 11.5876 17.0611 11.7973 17.3262 11.9106C17.6011 11.9724 17.8891 11.9286 18.1332 11.788C18.2225 11.7423 18.3177 11.7095 18.4162 11.6906C18.5147 11.7095 18.61 11.7423 18.6992 11.788C18.8789 11.8799 19.0755 11.9339 19.277 11.9464C19.3547 11.9466 19.4321 11.9346 19.5061 11.9106C19.7713 11.7973 19.9835 11.5876 20.1 11.3237C20.1426 11.2399 20.196 11.162 20.2588 11.092C20.3463 11.0526 20.4385 11.025 20.5332 11.01C20.8177 10.9803 21.0806 10.8443 21.2691 10.6292C21.4148 10.3849 21.463 10.0946 21.4039 9.81638C21.3889 9.71992 21.387 9.62187 21.3982 9.52489C21.4448 9.44612 21.501 9.37346 21.5655 9.3086C21.7823 9.11476 21.9172 8.84563 21.9427 8.55592C21.9172 8.26617 21.7823 7.99701 21.5654 7.80314C21.5009 7.73835 21.4447 7.66576 21.3982 7.58705C21.387 7.49007 21.3889 7.39202 21.4039 7.29556C21.463 7.01727 21.4148 6.72696 21.2691 6.48262C21.0806 6.26753 20.8178 6.13158 20.5333 6.10197C20.4386 6.08686 20.3463 6.05922 20.2589 6.0198C20.1961 5.94979 20.1426 5.87187 20.0999 5.78801C19.9835 5.52423 19.7713 5.3145 19.5062 5.20121C19.2313 5.13943 18.9433 5.18321 18.6992 5.32386C18.6099 5.36953 18.5146 5.40231 18.4162 5.42123C18.3177 5.40232 18.2224 5.36953 18.1331 5.32384C17.8891 5.18314 17.6011 5.13936 17.3263 5.20121C17.0611 5.31451 16.8488 5.52428 16.7324 5.78811C16.6897 5.87191 16.6363 5.9498 16.5735 6.0198C16.4861 6.05919 16.3938 6.08679 16.2992 6.10188C16.0146 6.13155 15.7518 6.26752 15.5632 6.48261C15.4175 6.72692 15.3694 7.0172 15.4284 7.29546C15.4434 7.39192 15.4454 7.48997 15.4342 7.58695C15.3876 7.66572 15.3314 7.73838 15.2669 7.80324C15.05 7.99708 14.9152 8.26621 14.8896 8.55592C14.9152 8.84567 15.0501 9.11483 15.2669 9.3087C15.3315 9.37349 15.3876 9.44608 15.4342 9.5248ZM15.8517 8.3248C15.9945 8.18427 16.1062 8.01536 16.1796 7.82898C16.2313 7.63037 16.2412 7.42317 16.2085 7.22056C16.1957 7.1292 16.1927 7.03675 16.1994 6.94476C16.2857 6.90927 16.3757 6.88328 16.4677 6.86727C16.6695 6.83625 16.8627 6.7634 17.0347 6.65337C17.1908 6.52456 17.3183 6.36454 17.4089 6.18357C17.4528 6.10004 17.5058 6.02165 17.5671 5.94986C17.6545 5.97221 17.7395 6.00326 17.8208 6.04256C18.0058 6.13753 18.2086 6.19283 18.4162 6.2049C18.6238 6.19283 18.8266 6.13753 19.0116 6.04256C19.0929 6.00328 19.1779 5.97222 19.2654 5.94986C19.3265 6.02163 19.3795 6.09994 19.4233 6.18338C19.514 6.3645 19.6416 6.52463 19.7978 6.65346C19.9698 6.76347 20.1629 6.83629 20.3647 6.86727C20.4567 6.8833 20.5466 6.90928 20.633 6.94476C20.6397 7.03679 20.6367 7.12927 20.6239 7.22065C20.5912 7.42327 20.6011 7.63046 20.6528 7.82906C20.7262 8.01543 20.8378 8.18432 20.9806 8.32479C21.0493 8.39397 21.1089 8.47164 21.1579 8.55592C21.1089 8.64019 21.0493 8.71786 20.9806 8.78704C20.8379 8.92757 20.7262 9.09648 20.6528 9.28287C20.601 9.48147 20.5912 9.68867 20.6239 9.89128C20.6367 9.98264 20.6397 10.0751 20.633 10.1671C20.5466 10.2026 20.4566 10.2286 20.3646 10.2446C20.1628 10.2756 19.9697 10.3484 19.7977 10.4585C19.6415 10.5873 19.5141 10.7473 19.4234 10.9283C19.3795 11.0118 19.3265 11.0902 19.2653 11.162C19.1778 11.1396 19.0929 11.1086 19.0116 11.0693C18.8266 10.9743 18.6238 10.919 18.4162 10.9069C18.2086 10.919 18.0058 10.9743 17.8208 11.0693C17.7395 11.1086 17.6545 11.1396 17.567 11.162C17.5059 11.0902 17.4529 11.0119 17.409 10.9285C17.3184 10.7473 17.1908 10.5872 17.0345 10.4584C16.8625 10.3484 16.6694 10.2755 16.4676 10.2446C16.3757 10.2285 16.2857 10.2026 16.1994 10.1671C16.1927 10.0751 16.1957 9.98257 16.2085 9.89119C16.2411 9.68857 16.2313 9.48138 16.1796 9.28278C16.1062 9.09641 15.9945 8.92752 15.8517 8.78705C15.7843 8.71848 15.7243 8.64293 15.6728 8.56167C15.7207 8.47445 15.7809 8.39466 15.8517 8.3248Z" fill="#2C2D32"/>
<path d="M18.4162 10.122C18.7262 10.122 19.0292 10.0301 19.287 9.85785C19.5447 9.68563 19.7456 9.44085 19.8643 9.15445C19.9829 8.86806 20.0139 8.55291 19.9535 8.24888C19.893 7.94484 19.7437 7.66557 19.5245 7.44637C19.3053 7.22717 19.026 7.0779 18.722 7.01742C18.418 6.95695 18.1028 6.98798 17.8164 7.10661C17.53 7.22524 17.2852 7.42613 17.113 7.68388C16.9408 7.94163 16.8489 8.24466 16.8489 8.55465C16.8489 8.97034 17.014 9.369 17.3079 9.66293C17.6019 9.95687 18.0005 10.122 18.4162 10.122ZM18.4162 7.77098C18.5712 7.77098 18.7227 7.81694 18.8516 7.90305C18.9805 7.98916 19.0809 8.11156 19.1402 8.25475C19.1996 8.39795 19.2151 8.55552 19.1848 8.70754C19.1546 8.85956 19.08 8.99919 18.9704 9.10879C18.8608 9.21839 18.7211 9.29303 18.5691 9.32327C18.4171 9.35351 18.2595 9.33799 18.1163 9.27867C17.9731 9.21936 17.8507 9.11891 17.7646 8.99004C17.6785 8.86116 17.6326 8.70965 17.6326 8.55465C17.6328 8.34688 17.7154 8.14769 17.8623 8.00077C18.0093 7.85385 18.2085 7.77121 18.4162 7.77098Z" fill="#2C2D32"/>
<path d="M22.3346 3.65723H7.05294C6.63743 3.65778 6.23908 3.82308 5.94527 4.1169C5.65145 4.41072 5.48615 4.80906 5.4856 5.22457V25.2082C5.4856 25.3532 5.49147 25.4943 5.50519 25.6334C5.51107 25.7098 5.5189 25.7842 5.53066 25.8587C5.74813 27.5122 6.79629 28.7348 8.03253 28.7348H24.8815C26.3097 28.7348 27.4285 27.1857 27.4285 25.2082C27.4285 23.2308 26.3097 21.6817 24.8815 21.6817H23.9019V5.22457C23.9014 4.80906 23.7361 4.41072 23.4422 4.1169C23.1484 3.82308 22.7501 3.65778 22.3346 3.65723ZM8.03253 27.9511C7.16658 27.9511 6.39858 26.9029 6.28494 25.5648C6.27515 25.4473 6.26927 25.3297 6.26927 25.2082V5.22457C6.26924 5.12165 6.28949 5.01973 6.32886 4.92464C6.36824 4.82955 6.42596 4.74314 6.49874 4.67037C6.57151 4.59759 6.65792 4.53987 6.75301 4.50049C6.8481 4.46112 6.95002 4.44087 7.05294 4.4409H22.3346C22.4375 4.44087 22.5394 4.46112 22.6345 4.50049C22.7296 4.53987 22.816 4.59759 22.8888 4.67037C22.9616 4.74314 23.0193 4.82955 23.0587 4.92464C23.098 5.01973 23.1183 5.12165 23.1182 5.22457V21.6817H8.03253C7.92861 21.6817 7.82895 21.723 7.75546 21.7965C7.68198 21.87 7.6407 21.9696 7.6407 22.0736C7.6407 22.1775 7.68198 22.2771 7.75546 22.3506C7.82895 22.4241 7.92861 22.4654 8.03253 22.4654C8.98862 22.4654 9.7958 23.7212 9.7958 25.2082C9.7958 25.3297 9.78992 25.4473 9.78013 25.5668C9.66649 26.9029 8.89849 27.9511 8.03253 27.9511ZM24.8815 22.4654C25.8373 22.4654 26.6448 23.7214 26.6448 25.2082C26.6448 26.695 25.8373 27.9511 24.8815 27.9511H9.6317C10.1816 27.2988 10.507 26.4869 10.5599 25.6354C10.5736 25.4943 10.5795 25.3532 10.5795 25.2082C10.5795 24.0888 10.2203 23.1071 9.64975 22.4654H24.8815Z" fill="#2C2D32"/>
<path d="M15.2813 13.9236C15.3583 13.9232 15.4348 13.912 15.5086 13.8903L16.0748 13.7179L16.1316 14.3096C16.146 14.4707 16.2101 14.6235 16.315 14.7467C16.42 14.8699 16.5606 14.9574 16.7174 14.9972C16.7809 15.0128 16.846 15.0207 16.9114 15.0207C17.0399 15.0207 17.1664 14.989 17.2799 14.9285C17.3933 14.868 17.4901 14.7806 17.5618 14.674L18.416 13.4005L19.2702 14.674C19.3419 14.7806 19.4388 14.868 19.5522 14.9285C19.6656 14.989 19.7921 15.0207 19.9207 15.0207C19.986 15.0207 20.0511 15.0128 20.1146 14.9972C20.2715 14.9574 20.4121 14.8699 20.517 14.7467C20.622 14.6235 20.6861 14.4707 20.7004 14.3096L20.7572 13.7179L21.3235 13.8903C21.3973 13.912 21.4738 13.9232 21.5507 13.9236C21.6929 13.9239 21.8324 13.8854 21.9544 13.8123C22.0764 13.7393 22.1761 13.6344 22.243 13.5089C22.3099 13.3835 22.3413 13.2421 22.3339 13.1002C22.3266 12.9582 22.2807 12.8209 22.2012 12.703L21.3744 11.4707C21.2803 11.5099 21.1843 11.5412 21.0923 11.5706C20.9618 11.6052 20.8366 11.6573 20.72 11.7254C20.694 11.7454 20.6697 11.7677 20.6475 11.792L21.5507 13.1399L20.0657 12.6893L19.9207 14.2371L18.7961 12.562C18.6743 12.5146 18.5463 12.4849 18.416 12.4738C18.334 12.4774 18.2528 12.4925 18.175 12.5189C18.1319 12.5326 18.0849 12.5463 18.0359 12.562L17.9439 12.6972L16.9114 14.2371L16.7664 12.6893L15.2813 13.1399L16.1845 11.792C16.1624 11.7677 16.1381 11.7454 16.112 11.7254C15.9955 11.6573 15.8703 11.6052 15.7398 11.5706C15.6477 11.5412 15.5517 11.5099 15.4577 11.4707L14.6309 12.703C14.5514 12.8209 14.5055 12.9582 14.4981 13.1002C14.4908 13.2421 14.5222 13.3835 14.589 13.5089C14.6559 13.6344 14.7557 13.7393 14.8776 13.8123C14.9996 13.8854 15.1392 13.9239 15.2813 13.9236Z" fill="#2C2D32"/>
</svg>
