<svg width="16" height="20" viewBox="0 0 16 20" fill="none" xmlns="http://www.w3.org/2000/svg">
<path d="M10.562 1.21739H9.4601C9.33423 0.525836 8.72728 0 8 0C7.27272 0 6.66577 0.525765 6.53983 1.21739H5.43794C5.29091 1.21739 5.17158 1.33672 5.17158 1.48375V2.40664H1.02498C0.877952 2.40664 0.758621 2.52597 0.758621 2.67301V19.6775C0.758621 19.8246 0.877952 19.9439 1.02498 19.9439H14.975C15.122 19.9439 15.2414 19.8246 15.2414 19.6775V2.67301C15.2414 2.52597 15.122 2.40664 14.975 2.40664H10.8283V1.48375C10.8283 1.33672 10.7091 1.21739 10.562 1.21739ZM5.70438 1.75011H6.78233C6.92936 1.75011 7.04869 1.63078 7.04869 1.48375C7.04869 0.959333 7.47566 0.532726 8.00007 0.532726C8.52449 0.532726 8.95145 0.959333 8.95145 1.48375C8.95145 1.63078 9.07078 1.75011 9.21781 1.75011H10.2958V3.72908H5.70445L5.70438 1.75011ZM14.7087 2.93937V19.4112H1.29135V2.93937H5.17165V3.99544C5.17165 4.14248 5.29098 4.26181 5.43801 4.26181H10.5621C10.7091 4.26181 10.8284 4.14248 10.8284 3.99544V2.93937H14.7087Z" fill="#337265"/>
<path d="M7.99999 11.7725C6.05185 11.7725 4.46688 13.3574 4.46688 15.3059C4.46688 17.2541 6.05185 18.839 7.99999 18.839C9.94814 18.839 11.5331 17.2541 11.5331 15.3059C11.5331 13.3575 9.94814 11.7725 7.99999 11.7725ZM7.99999 18.3064C6.34563 18.3064 4.99961 16.9604 4.99961 15.306C4.99961 13.6513 6.34563 12.3053 7.99999 12.3053C9.65436 12.3053 11.0004 13.6513 11.0004 15.306C11.0004 16.9604 9.65436 18.3064 7.99999 18.3064Z" fill="#E26F64"/>
<path d="M9.37273 12.8743C9.24544 12.8021 9.08243 12.8469 9.00998 12.9749C8.93753 13.1029 8.98256 13.2655 9.11056 13.3376C9.45463 13.5326 9.74315 13.8153 9.94466 14.1555C9.9946 14.2394 10.083 14.2859 10.1742 14.2859C10.2203 14.2859 10.2672 14.2738 10.3098 14.2488C10.436 14.1735 10.478 14.0102 10.4031 13.8836C10.1541 13.4639 9.79791 13.1147 9.37273 12.8743Z" fill="#E26F64"/>
<path d="M6.72018 13.3949C6.76599 13.3949 6.81244 13.3831 6.85506 13.3581C7.19458 13.158 7.58376 13.0504 7.98053 13.047C8.12757 13.0455 8.24583 12.9252 8.24448 12.7782C8.24313 12.6311 8.10853 12.5042 7.9757 12.5142C7.48567 12.5187 7.00458 12.6516 6.58458 12.8989C6.458 12.9734 6.41567 13.1368 6.49025 13.2637C6.53983 13.348 6.62897 13.3949 6.72018 13.3949Z" fill="#E26F64"/>
<path d="M10.2599 15.3067C10.2599 15.7031 10.1555 16.0933 9.95851 16.4346C9.885 16.5618 9.92868 16.7249 10.056 16.7984C10.0979 16.8227 10.1437 16.8341 10.1888 16.8341C10.2811 16.8341 10.3706 16.7862 10.4198 16.7009C10.6636 16.2789 10.7926 15.7964 10.7926 15.3067V15.2765C10.7926 15.1295 10.6733 15.0254 10.5263 15.0254C10.3792 15.0254 10.2599 15.1596 10.2599 15.3067Z" fill="#E26F64"/>
<path d="M6.87765 17.2689C6.53429 17.0719 6.24747 16.7875 6.04802 16.4462C5.97344 16.3197 5.81078 16.2766 5.68349 16.3508C5.55656 16.4251 5.51387 16.5881 5.5881 16.7154C5.83436 17.1368 6.1888 17.4881 6.61264 17.7309C6.65426 17.7548 6.70001 17.7663 6.74476 17.7663C6.83738 17.7663 6.92681 17.718 6.9761 17.6324C7.04933 17.5047 7.00529 17.3421 6.87765 17.2689Z" fill="#E26F64"/>
<path d="M5.7401 15.3066C5.7401 14.9144 5.8421 14.528 6.03459 14.1898C6.1074 14.0622 6.063 13.8995 5.93508 13.8267C5.80672 13.7525 5.64371 13.798 5.57197 13.9262C5.33338 14.3445 5.20744 14.8221 5.20744 15.3066V15.3212C5.20744 15.4682 5.32677 15.5802 5.47381 15.5802C5.62084 15.5802 5.7401 15.4537 5.7401 15.3066Z" fill="#E26F64"/>
<path d="M9.13342 17.2624C8.79283 17.4604 8.40302 17.5655 8.0066 17.5665C7.85957 17.5669 7.74059 17.6865 7.74095 17.8336C7.7413 17.9803 7.86063 18.0993 8.00731 18.0993C8.49735 18.0982 8.97986 17.9681 9.40121 17.7229C9.52849 17.6491 9.57147 17.4861 9.4976 17.3588C9.42372 17.2322 9.26106 17.1889 9.13342 17.2624Z" fill="#E26F64"/>
<path d="M8.06833 16.1357L9.34986 14.8541C9.45392 14.7501 9.45392 14.5815 9.34986 14.4775C9.2458 14.3734 9.07724 14.3734 8.97319 14.4775L7.87996 15.5707L7.3944 15.0848C7.29034 14.9811 7.12179 14.9804 7.01773 15.0848C6.91367 15.1888 6.91367 15.3574 7.01773 15.4614L7.69159 16.1357C7.74152 16.1856 7.80914 16.2137 7.87989 16.2137C7.95064 16.2137 8.0184 16.1857 8.06833 16.1357Z" fill="#E26F64"/>
<path d="M3.4687 6.6648C3.4687 6.81183 3.58803 6.93116 3.73507 6.93116H12.2649C12.412 6.93116 12.5313 6.81183 12.5313 6.6648C12.5313 6.51777 12.412 6.39844 12.2649 6.39844H3.73507C3.58803 6.39844 3.4687 6.5177 3.4687 6.6648Z" fill="#337265"/>
<path d="M12.2649 8.33887H3.73507C3.58803 8.33887 3.4687 8.4582 3.4687 8.60523C3.4687 8.75226 3.58803 8.87159 3.73507 8.87159H12.2649C12.412 8.87159 12.5313 8.75226 12.5313 8.60523C12.5313 8.4582 12.412 8.33887 12.2649 8.33887Z" fill="#337265"/>
<path d="M12.2649 10.2793H3.73507C3.58803 10.2793 3.4687 10.3986 3.4687 10.5457C3.4687 10.6927 3.58803 10.812 3.73507 10.812H12.2649C12.412 10.812 12.5313 10.6927 12.5313 10.5457C12.5313 10.3986 12.412 10.2793 12.2649 10.2793Z" fill="#337265"/>
</svg>
