<svg width="28" height="28" viewBox="0 0 28 28" fill="none" xmlns="http://www.w3.org/2000/svg">
<rect width="28" height="28" fill="#6A6A6A"/>
<g id="Help">
<g clip-path="url(#clip0_312_4985)">
<rect x="-187" y="-178" width="402" height="874" rx="16" fill="#F5F5F5"/>
<g id="Frame 181">
<rect x="-41" y="-14" width="110" height="89" rx="10" fill="white"/>
<g id="Frame 1686556185">
<g id="Group">
<g id="Group_2">
<path id="Vector" fill-rule="evenodd" clip-rule="evenodd" d="M13.9778 24.2307C11.5654 24.2307 9.26163 23.3866 7.42244 21.8371L7.6287 22.5205C7.68225 22.6969 7.58304 22.8827 7.40511 22.9362C7.22873 22.9898 7.04291 22.889 6.98942 22.7126L6.42096 20.8277C6.41151 20.7994 6.40524 20.771 6.40363 20.7411C6.40363 20.7254 6.40363 20.708 6.40518 20.6923C6.41307 20.6151 6.44768 20.5411 6.50756 20.4828L6.51856 20.4718C6.57839 20.4199 6.65083 20.3931 6.72482 20.39C6.74054 20.39 6.75632 20.39 6.77365 20.3915C6.79099 20.3931 6.80832 20.3962 6.82404 20.401L8.73728 20.8781C8.91522 20.9222 9.02387 21.1049 8.97977 21.2828C8.93566 21.4623 8.75456 21.5709 8.57507 21.5269L7.88535 21.3552C9.81431 22.9645 12.285 23.7472 14.8297 23.5251C15.8406 23.437 16.8233 23.1929 17.7461 22.7992C17.9161 22.7267 18.113 22.8054 18.1838 22.9755C18.2562 23.1456 18.1775 23.3408 18.009 23.4133C17.0201 23.8337 15.9698 24.0951 14.888 24.1896C14.5841 24.2164 14.2801 24.2306 13.9778 24.2306V24.2307ZM21.2639 7.61142C21.2418 7.61142 21.2182 7.60986 21.1962 7.60514C21.1836 7.60197 21.171 7.59886 21.16 7.5957L19.2656 7.12329C19.0861 7.07763 18.9775 6.89653 19.0215 6.7186C19.0672 6.53905 19.2483 6.43045 19.4278 6.4745L20.1064 6.64455C18.179 5.03522 15.7099 4.25417 13.1683 4.47621C12.1605 4.56281 11.1795 4.80691 10.2536 5.20054C10.0851 5.27298 9.88831 5.19266 9.81587 5.02261C9.74343 4.85257 9.82376 4.65731 9.9938 4.58487C10.9843 4.16445 12.033 3.90459 13.1101 3.81015C15.8516 3.57078 18.5113 4.42271 20.582 6.17058L20.3741 5.48086C20.3206 5.30292 20.4198 5.11711 20.5977 5.06355C20.7741 5.01 20.9599 5.11077 21.0134 5.28715L21.585 7.17995C21.6197 7.29489 21.5898 7.41932 21.5063 7.50593C21.4418 7.5752 21.3552 7.61142 21.2638 7.61142H21.2639Z" fill="#E26F64"/>
<path id="Vector_2" fill-rule="evenodd" clip-rule="evenodd" d="M7.38152 19.3886C4.41007 19.3886 1.99292 16.9714 1.99292 14C1.99292 12.6977 2.46377 11.4411 3.32038 10.4601C4.16753 9.4901 5.33284 8.85392 6.60202 8.6681C6.78467 8.64133 6.95316 8.76887 6.97993 8.94997C7.00671 9.13262 6.88072 9.30272 6.69807 9.32944C4.39585 9.66325 2.66059 11.6726 2.66059 14C2.66059 16.603 4.77854 18.7209 7.38152 18.7209C9.98449 18.7209 12.1008 16.603 12.1008 14C12.1008 12.1891 11.0442 10.5152 9.40814 9.73575C9.24121 9.65703 9.17038 9.45705 9.25065 9.29167C9.32937 9.12474 9.5278 9.05391 9.69473 9.13262C11.5623 10.0223 12.7685 11.9324 12.7685 14C12.7701 16.9714 10.353 19.3886 7.38152 19.3886Z" fill="#E26F64"/>
<path id="Vector_3" fill-rule="evenodd" clip-rule="evenodd" d="M7.38147 18.2041C5.06353 18.2041 3.17706 16.3192 3.17706 13.9997C3.17706 11.6802 5.06353 9.79688 7.38147 9.79688H7.38775C7.57201 9.79688 7.72155 9.94648 7.72155 10.1307C7.72155 10.3149 7.57195 10.4645 7.38775 10.4645H7.38147C5.432 10.4645 3.84474 12.0518 3.84474 13.9997C3.84474 15.9476 5.432 17.538 7.38147 17.538C9.33093 17.538 10.9182 15.9507 10.9182 13.9997C10.9182 12.6864 10.197 11.4896 9.03329 10.8739C8.87108 10.7873 8.8097 10.5858 8.89474 10.4236C8.98135 10.2598 9.18289 10.1983 9.34665 10.2834C10.7277 11.0156 11.5859 12.4391 11.5859 14.0012C11.5859 16.3176 9.70096 18.2041 7.38147 18.2041Z" fill="#E26F64"/>
<path id="Vector_4" fill-rule="evenodd" clip-rule="evenodd" d="M7.38153 16.5898C7.19726 16.5898 7.04772 16.4402 7.04772 16.256V15.9931C6.44621 15.8576 5.99896 15.3695 5.99896 14.7884C5.99896 14.6042 6.14856 14.4546 6.33277 14.4546C6.51698 14.4546 6.66658 14.6042 6.66658 14.7884C6.66658 15.105 6.98783 15.3616 7.38147 15.3616C7.77511 15.3616 8.0948 15.105 8.0948 14.7884C8.0948 14.4326 7.93576 14.346 7.34369 14.2152C6.86184 14.1098 6.1359 13.9491 6.1359 13.0941C6.1359 12.5791 6.52326 12.1445 7.04766 12.0122V11.743C7.04766 11.5587 7.19726 11.4092 7.38147 11.4092C7.56568 11.4092 7.71528 11.5588 7.71528 11.743V12.0122C8.24124 12.1445 8.62704 12.5791 8.62704 13.0941C8.62704 13.2783 8.47744 13.4279 8.29323 13.4279C8.10903 13.4279 7.95943 13.2783 7.95943 13.0941C7.95943 12.8468 7.69489 12.639 7.38153 12.639C7.06188 12.639 6.80362 12.8437 6.80362 13.0941C6.80362 13.3618 6.91228 13.4358 7.48702 13.5633C7.99409 13.6751 8.76253 13.8452 8.76253 14.7884C8.76253 15.3695 8.31534 15.8576 7.71539 15.9931V16.256C7.71539 16.4403 7.56573 16.5898 7.38153 16.5898Z" fill="#E26F64"/>
</g>
<path id="Vector_5" fill-rule="evenodd" clip-rule="evenodd" d="M7.87592 3.99074C6.83033 3.99074 5.78791 3.98919 4.74543 3.98758C3.7014 3.98602 2.65742 3.98602 1.61022 3.98441C1.02443 3.98441 0.547302 3.50728 0.547302 2.92149V1.06341C0.547302 0.477619 1.02443 0.000488281 1.61022 0.000488281H7.87431C8.4601 0.000488281 8.93723 0.477619 8.93723 1.06341V2.92782C8.93723 3.51361 8.46171 3.99074 7.87592 3.99074ZM1.61028 0.66816C1.39296 0.66816 1.21503 0.846092 1.21503 1.06341V2.92155C1.21503 3.14042 1.39296 3.31835 1.61028 3.31835C2.65742 3.31835 3.70145 3.31991 4.74549 3.32152C5.78791 3.32152 6.83039 3.32307 7.87597 3.32468C8.09329 3.32468 8.26967 3.14675 8.26967 2.92944V1.06341C8.26967 0.846092 8.09329 0.66816 7.87597 0.66816H1.61028Z" fill="#337265"/>
<path id="Vector_6" fill-rule="evenodd" clip-rule="evenodd" d="M2.16762 12.639C1.1992 11.7462 -0.0684314 10.1935 0.00400763 9.36682C0.00556307 9.35266 0.00872951 9.33688 0.0118959 9.32116L1.33619 3.5767C1.37713 3.39716 1.55667 3.28383 1.73616 3.32477C1.91564 3.36727 2.02747 3.54681 1.98653 3.7263L0.668513 9.44554C0.65907 9.84234 1.41651 10.9809 2.40222 11.9414C2.30772 12.1682 2.23056 12.4012 2.16757 12.639L2.16762 12.639ZM8.68841 11.0139C8.07901 11.0139 7.36096 10.7053 6.83661 10.0187C6.31065 9.32744 6.17049 8.63299 6.04455 8.02042C5.94851 7.54174 5.86507 7.12916 5.61781 6.80635C5.57531 6.75279 5.52804 6.70085 5.47449 6.64886C5.52959 6.98111 5.57842 7.32914 5.61148 7.60312C5.68075 8.17785 5.70908 8.58571 5.70908 8.87702C5.4776 8.95263 5.25084 9.04396 5.03352 9.151C5.11696 8.58882 4.76898 6.19534 4.62727 5.8898C4.56111 5.74654 4.60366 5.57488 4.72965 5.48039C4.8572 5.3859 5.03041 5.39223 5.14851 5.49611C5.30755 5.63471 5.44299 5.74804 5.5642 5.84725C5.80196 6.04251 5.98939 6.19528 6.14527 6.39999C6.48858 6.84562 6.5909 7.35108 6.69956 7.88649C6.8145 8.4565 6.93421 9.04546 7.36723 9.61391C7.93252 10.354 8.74352 10.4611 9.08838 10.2516C9.42064 10.0517 9.27892 9.61391 9.16554 9.36982C8.7388 8.45333 8.47743 7.34475 8.22545 6.27244C8.01285 5.37173 7.81287 4.5198 7.52472 3.79229C7.457 3.62064 7.54205 3.42699 7.7121 3.35927C7.88375 3.29155 8.0774 3.37499 8.14512 3.54665C8.4506 4.31981 8.66636 5.23469 8.87579 6.11968C9.11988 7.15899 9.37336 8.23446 9.77177 9.08795C10.1812 9.96822 9.86627 10.5618 9.4348 10.8233C9.22854 10.9476 8.97028 11.0138 8.68841 11.0138V11.0139Z" fill="#337265"/>
<path id="Vector_7" fill-rule="evenodd" clip-rule="evenodd" d="M21.3521 19.3348C21.1883 19.3348 21.0466 19.2151 21.0214 19.0482C20.9946 18.8671 21.1221 18.697 21.3048 18.6703C23.6054 18.3365 25.3407 16.3287 25.3407 13.9997C25.3407 11.3984 23.2227 9.28041 20.6198 9.28041C18.0168 9.28041 15.9005 11.3984 15.9005 13.9997C15.9005 15.8122 16.957 17.4861 18.5931 18.2656C18.7601 18.3443 18.8309 18.5427 18.7522 18.7096C18.6719 18.8766 18.4719 18.9474 18.3066 18.8671C16.439 17.979 15.2328 16.0673 15.2328 13.9998C15.2328 11.0299 17.6499 8.61279 20.6198 8.61279C23.5896 8.61279 26.0084 11.0299 26.0084 13.9998C26.0084 15.3021 25.5375 16.5602 24.6809 17.5412C23.8338 18.5112 22.6685 19.1474 21.3993 19.3317C21.3835 19.3332 21.3678 19.3348 21.3521 19.3348V19.3348Z" fill="#E26F64"/>
<path id="Vector_8" fill-rule="evenodd" clip-rule="evenodd" d="M20.6199 18.2041H20.6136C20.4293 18.2041 20.2798 18.0545 20.2798 17.8703C20.2798 17.6861 20.4294 17.5365 20.6136 17.5365H20.6199C22.5709 17.5365 24.1566 15.9507 24.1566 13.9997C24.1566 12.0487 22.5709 10.4645 20.6199 10.4645C18.6689 10.4645 17.0831 12.0503 17.0831 13.9997C17.0831 15.3146 17.8059 16.5129 18.9681 17.1286C19.1318 17.2137 19.1933 17.4167 19.1067 17.579C19.0216 17.7412 18.8185 17.8042 18.6563 17.7176C17.2737 16.9869 16.4155 15.5618 16.4155 13.9997C16.4155 11.6818 18.302 9.79688 20.6199 9.79688C22.9379 9.79688 24.8243 11.6818 24.8243 13.9997C24.8243 16.3177 22.9379 18.2041 20.6199 18.2041L20.6199 18.2041Z" fill="#E26F64"/>
<path id="Vector_9" fill-rule="evenodd" clip-rule="evenodd" d="M26.3911 27.9999H20.127C19.5412 27.9999 19.0625 27.5228 19.0625 26.9355V25.0726C19.0625 24.4868 19.5412 24.0112 20.127 24.0112C21.3788 24.0112 22.6292 24.0128 23.8795 24.0144C24.7156 24.0144 25.5533 24.016 26.3927 24.016C26.9785 24.016 27.4556 24.4931 27.4556 25.0789V26.9354C27.4556 27.5227 26.9785 27.9999 26.3911 27.9999L26.3911 27.9999ZM20.127 24.6773C19.9081 24.6773 19.7317 24.8553 19.7317 25.0726V26.9355C19.7317 27.1543 19.9081 27.3323 20.127 27.3323H26.3911C26.6099 27.3323 26.7879 27.1543 26.7879 26.9355V25.0789C26.7879 24.8616 26.6099 24.6837 26.3911 24.6837C25.5533 24.6837 24.7156 24.6821 23.8779 24.6821C22.6276 24.679 21.3788 24.6774 20.127 24.6774V24.6773Z" fill="#337265"/>
<path id="Vector_10" fill-rule="evenodd" clip-rule="evenodd" d="M26.3422 24.6844C26.317 24.6844 26.2918 24.6813 26.2666 24.6765C26.0871 24.6356 25.9753 24.4561 26.0163 24.2766L27.3327 18.5573C27.3422 18.1605 26.5863 17.022 25.599 16.0583C25.6935 15.8331 25.7722 15.6001 25.8337 15.3623C26.8036 16.2551 28.0713 17.8093 27.9957 18.6361C27.9942 18.6502 27.9925 18.666 27.9894 18.6802L26.6667 24.4262C26.6305 24.5805 26.4935 24.6844 26.3423 24.6844H26.3422ZM20.1663 24.6656C20.034 24.6656 19.908 24.5852 19.8561 24.4546C19.5506 23.6814 19.3349 22.7665 19.127 21.8815C18.8814 20.8422 18.6295 19.7668 18.2311 18.9117C17.8216 18.0314 18.1366 17.4394 18.568 17.178C19.2199 16.7828 20.3994 16.978 21.1663 17.9827C21.6922 18.6739 21.8324 19.3684 21.9568 19.981C22.0544 20.4581 22.1379 20.8707 22.3851 21.1919C22.4276 21.247 22.4749 21.299 22.5284 21.3509C22.4733 21.0187 22.4245 20.6706 22.3914 20.3982C22.3221 19.8219 22.2938 19.414 22.2938 19.1227C22.5253 19.0471 22.7504 18.9558 22.9694 18.8503C22.8859 19.4077 23.2355 21.8028 23.3756 22.1099C23.4418 22.2532 23.3992 22.4248 23.2732 22.5193C23.1457 22.6138 22.9725 22.6074 22.8544 22.5035C22.6985 22.3681 22.5646 22.2563 22.445 22.1587C22.204 21.9603 22.0135 21.8044 21.856 21.5981C21.5143 21.1556 21.4119 20.6486 21.3033 20.1132C21.1883 19.5447 21.0686 18.9558 20.6356 18.3873C20.0703 17.6472 19.2593 17.5401 18.9145 17.7496C18.5822 17.9496 18.7239 18.3873 18.8373 18.6314C19.264 19.5479 19.5254 20.6565 19.7774 21.7288C19.99 22.6295 20.19 23.4815 20.4781 24.209C20.5458 24.3806 20.4608 24.5759 20.2907 24.6436C20.2498 24.6578 20.2073 24.6657 20.1664 24.6657L20.1663 24.6656Z" fill="#337265"/>
<path id="Vector_11" fill-rule="evenodd" clip-rule="evenodd" d="M21.0985 16.3015C20.1632 16.3015 19.3553 15.7393 18.9948 14.9347H18.4909C18.3066 14.9347 18.157 14.7851 18.157 14.6008C18.157 14.4166 18.3066 14.267 18.4909 14.267H18.8121C18.8027 14.1789 18.7964 14.0907 18.7964 13.9993C18.7964 13.9096 18.8011 13.8214 18.8121 13.7332H18.4909C18.3066 13.7332 18.157 13.5836 18.157 13.3994C18.157 13.2152 18.3066 13.0656 18.4909 13.0656H18.9948C19.3538 12.2609 20.1616 11.6987 21.0985 11.6987C21.5631 11.6987 22.0103 11.8373 22.3929 12.0971C22.5457 12.2011 22.585 12.4073 22.4811 12.5601C22.3787 12.7129 22.1709 12.7522 22.0181 12.6483C21.7457 12.464 21.4292 12.3664 21.0985 12.3664C20.5443 12.3664 20.0545 12.6435 19.7585 13.0656H21.3836C21.5678 13.0656 21.7174 13.2152 21.7174 13.3994C21.7174 13.5852 21.5678 13.7332 21.3836 13.7332H19.4861C19.4719 13.8213 19.4641 13.9096 19.4641 13.9993C19.4641 14.0907 19.4719 14.1804 19.4861 14.267H21.3836C21.5678 14.267 21.7174 14.4166 21.7174 14.6025C21.7174 14.7867 21.5678 14.9363 21.3836 14.9363H19.7585C20.0545 15.3583 20.5443 15.6354 21.0985 15.6354C21.4292 15.6354 21.7457 15.5378 22.0181 15.352C22.1709 15.2481 22.3787 15.289 22.4811 15.4418C22.585 15.5929 22.5457 15.8008 22.3929 15.9047C22.0103 16.1646 21.5631 16.3015 21.0985 16.3015Z" fill="#E26F64"/>
</g>
</g>
</g>
</g>
</g>
<defs>
<clipPath id="clip0_312_4985">
<rect x="-187" y="-178" width="402" height="874" rx="16" fill="white"/>
</clipPath>
</defs>
</svg>
