<svg width="20" height="20" viewBox="0 0 20 20" fill="none" xmlns="http://www.w3.org/2000/svg">
<path d="M4.43307 17.2587H4.41288C4.31563 17.2535 4.22446 17.2098 4.15942 17.1373C4.09437 17.0648 4.06079 16.9694 4.06604 16.8722C4.08399 16.5647 4.03571 16.257 3.92447 15.9699C3.81323 15.6827 3.64163 15.4227 3.42127 15.2076C2.50312 14.3158 1.19475 12.6664 0.817623 11.7937C0.685869 11.4877 0.656947 11.0132 0.725808 10.2975C0.778143 9.75422 0.888321 9.08099 1.05336 8.29597C1.33615 6.95042 1.72912 5.53784 1.91757 4.96445C1.98115 4.77164 2.16226 4.42825 2.40166 4.27377C2.66012 4.10644 2.94613 3.94944 3.34828 4.02564C3.95265 4.14041 4.39176 4.73951 4.32749 5.36087L3.90812 9.40418C3.89808 9.50106 3.84996 9.58999 3.77434 9.6514C3.69873 9.7128 3.60182 9.74166 3.50494 9.73161C3.40805 9.72157 3.31912 9.67345 3.25772 9.59784C3.19631 9.52222 3.16746 9.42532 3.1775 9.32843L3.59641 5.28512C3.62143 5.0425 3.44124 4.79115 3.21079 4.74731C3.10267 4.72688 3.0244 4.74547 2.80014 4.89054C2.75286 4.92543 2.65163 5.08244 2.61491 5.19399C2.43127 5.75131 2.04864 7.129 1.77158 8.447C1.28657 10.7571 1.43508 11.3702 1.49315 11.5024C1.80096 12.2169 2.98745 13.761 3.93429 14.6796C4.22957 14.9682 4.45951 15.3167 4.6086 15.7016C4.75768 16.0866 4.82244 16.4991 4.7985 16.9112C4.79346 17.0048 4.7528 17.093 4.68486 17.1576C4.61692 17.2222 4.52684 17.2584 4.43307 17.2587Z" fill="#337265"/>
<path d="M7.73658 16.3853C7.64163 16.3854 7.55035 16.3487 7.48187 16.2829C7.4134 16.2171 7.37306 16.1274 7.36932 16.0325C7.31423 14.6399 7.22724 14.2455 7.19212 14.1406C7.08217 13.8103 5.93632 11.1449 4.42986 9.75439C4.29375 9.62884 4.13146 9.57076 3.97446 9.59372C3.8225 9.61507 3.68845 9.70986 3.59687 9.86044C3.59159 9.86939 3.58516 9.88018 3.57896 9.89143C3.52792 9.98457 3.50555 10.0907 3.51465 10.1965C3.52376 10.3024 3.56394 10.4031 3.63015 10.4862L4.85175 12.047C4.91178 12.1238 4.93886 12.2212 4.92704 12.3179C4.91523 12.4146 4.86548 12.5027 4.78874 12.5627C4.71201 12.6227 4.61457 12.6498 4.51787 12.638C4.42116 12.6262 4.33311 12.5764 4.27309 12.4997L3.05149 10.9374C2.89593 10.7408 2.80203 10.5025 2.78161 10.2525C2.76119 10.0026 2.81515 9.75222 2.93672 9.53289C2.94682 9.51522 2.95715 9.49731 2.9677 9.47964C3.17429 9.14038 3.50299 8.91704 3.87185 8.86516C4.24623 8.8126 4.63094 8.93954 4.92773 9.21337C6.56984 10.7295 7.76505 13.536 7.88877 13.9072C7.92549 14.0181 8.03774 14.3548 8.10293 16.0022C8.10483 16.0504 8.09723 16.0985 8.08054 16.1438C8.06385 16.189 8.03841 16.2305 8.00567 16.266C7.97293 16.3014 7.93353 16.33 7.88972 16.3502C7.84591 16.3704 7.79856 16.3818 7.75036 16.3837L7.73658 16.3853Z" fill="#337265"/>
<path d="M4.43124 19.6983C4.21486 19.698 4.00463 19.6263 3.83317 19.4944C3.66171 19.3624 3.53862 19.1775 3.48301 18.9684L3.18829 17.8542C3.12213 17.6027 3.15842 17.3353 3.28919 17.1105C3.41997 16.8858 3.63454 16.7221 3.88585 16.6553L8.0841 15.5453C8.33559 15.4788 8.60317 15.5149 8.82801 15.6458C9.05284 15.7766 9.21649 15.9913 9.28298 16.2428L9.57748 17.3568C9.61042 17.4813 9.61852 17.6111 9.60131 17.7387C9.58409 17.8663 9.5419 17.9893 9.47715 18.1007C9.41239 18.212 9.32634 18.3095 9.2239 18.3875C9.12147 18.4656 9.00465 18.5227 8.88014 18.5557L4.68373 19.6657C4.60133 19.6875 4.51646 19.6984 4.43124 19.6983ZM3.89848 17.6664L4.19298 18.7806C4.20978 18.8437 4.25092 18.8975 4.30738 18.9303C4.36384 18.9631 4.431 18.9722 4.49413 18.9555L8.69238 17.8457C8.72365 17.8374 8.75298 17.8231 8.77871 17.8035C8.80443 17.7838 8.82603 17.7593 8.84227 17.7314C8.85852 17.7034 8.86909 17.6725 8.87338 17.6404C8.87767 17.6084 8.8756 17.5758 8.86729 17.5445L8.57279 16.4306C8.56454 16.3993 8.55022 16.37 8.53063 16.3443C8.51104 16.3185 8.48657 16.2969 8.45863 16.2806C8.43068 16.2644 8.3998 16.2538 8.36775 16.2495C8.33571 16.2451 8.30312 16.2472 8.27186 16.2555L4.07362 17.3655C4.01053 17.3823 3.95667 17.4233 3.92384 17.4798C3.89101 17.5362 3.88189 17.6033 3.89848 17.6664Z" fill="#337265"/>
<path d="M16.044 17.2587C15.9499 17.2589 15.8594 17.2229 15.7911 17.1582C15.7227 17.0936 15.6818 17.0052 15.6768 16.9112C15.6532 16.499 15.7183 16.0866 15.8677 15.7017C16.0171 15.3168 16.2473 14.9684 16.5428 14.6801C17.4906 13.7617 18.6771 12.2176 18.9839 11.5024C19.0411 11.3697 19.1905 10.7566 18.7046 8.44654C18.4275 7.12854 18.0447 5.75085 17.8613 5.19353C17.8245 5.08198 17.7236 4.92497 17.6747 4.88917C17.4518 4.74502 17.3735 4.72642 17.2652 4.74685C17.0356 4.79069 16.8547 5.04204 16.8798 5.28489L17.2987 9.32797C17.3087 9.42486 17.2799 9.52176 17.2185 9.59738C17.1571 9.67299 17.0681 9.72111 16.9712 9.73115C16.8744 9.7412 16.7774 9.71234 16.7018 9.65094C16.6262 9.58953 16.5781 9.5006 16.5681 9.40372L16.1501 5.36087C16.0858 4.73951 16.5251 4.14064 17.129 4.02564C17.5314 3.94944 17.8177 4.10644 18.0761 4.27377C18.3153 4.42825 18.4964 4.77164 18.56 4.96445C18.7484 5.5383 19.1414 6.95042 19.4242 8.29597C19.5892 9.08076 19.6996 9.75422 19.7517 10.2975C19.8206 11.0123 19.7912 11.4877 19.6599 11.7934C19.2823 12.6664 17.974 14.3158 17.0558 15.2074C16.8357 15.4225 16.6643 15.6824 16.5532 15.9695C16.4421 16.2566 16.3938 16.5642 16.4117 16.8715C16.417 16.9688 16.3834 17.0641 16.3184 17.1366C16.2533 17.2091 16.1622 17.2528 16.0649 17.258L16.044 17.2587Z" fill="#337265"/>
<path d="M12.7417 16.3856H12.727C12.6788 16.3837 12.6314 16.3724 12.5876 16.3522C12.5438 16.332 12.5044 16.3033 12.4717 16.2679C12.4389 16.2325 12.4135 16.191 12.3968 16.1457C12.3801 16.1004 12.3725 16.0523 12.3744 16.0041C12.4396 14.3567 12.5518 14.02 12.5886 13.9091C12.7123 13.538 13.9075 10.7314 15.5496 9.21533C15.8462 8.94149 16.2309 8.81455 16.6055 8.86712C16.9743 8.91899 17.3035 9.14256 17.5087 9.47998C17.5202 9.49927 17.5305 9.51717 17.5408 9.53553C17.6623 9.75475 17.7163 10.005 17.6959 10.2548C17.6754 10.5046 17.5816 10.7428 17.4261 10.9394L16.2045 12.5016C16.1444 12.5784 16.0564 12.6281 15.9597 12.6399C15.863 12.6517 15.7655 12.6247 15.6888 12.5646C15.6121 12.5046 15.5623 12.4166 15.5505 12.3198C15.5387 12.2231 15.5658 12.1257 15.6258 12.049L16.8474 10.4881C16.9136 10.4052 16.9538 10.3046 16.9629 10.1989C16.9721 10.0932 16.9498 9.98713 16.8988 9.89407C16.8924 9.88213 16.886 9.87112 16.8795 9.86079C16.7891 9.71182 16.6551 9.61702 16.5031 9.59567C16.3454 9.57272 16.1838 9.63056 16.0477 9.75635C14.5412 11.1469 13.3954 13.8123 13.2854 14.1426C13.2503 14.2475 13.1633 14.6418 13.1082 16.0344C13.1041 16.1289 13.0637 16.2181 12.9954 16.2836C12.9271 16.349 12.8362 16.3855 12.7417 16.3856Z" fill="#337265"/>
<path d="M16.0459 19.6983C15.9612 19.6984 15.877 19.6874 15.7952 19.6657L11.5963 18.5557C11.4717 18.5227 11.3549 18.4656 11.2525 18.3875C11.1501 18.3095 11.064 18.212 10.9993 18.1007C10.9345 17.9893 10.8923 17.8663 10.8751 17.7387C10.8579 17.6111 10.866 17.4813 10.8989 17.3568L11.1934 16.2428C11.2599 15.9913 11.4236 15.7766 11.6484 15.6458C11.8732 15.5149 12.1408 15.4788 12.3923 15.5453L16.5905 16.6553C16.8419 16.7221 17.0564 16.8858 17.1872 17.1105C17.318 17.3353 17.3543 17.6027 17.2881 17.8542L16.9934 18.9684C16.9378 19.1774 16.8148 19.3622 16.6435 19.4941C16.4722 19.6261 16.2621 19.6979 16.0459 19.6983ZM12.1412 16.2472C12.0869 16.2473 12.0341 16.2654 11.9912 16.2986C11.9482 16.3318 11.9174 16.3783 11.9036 16.4308L11.6091 17.545C11.6008 17.5763 11.5987 17.6088 11.603 17.6409C11.6073 17.673 11.6179 17.7039 11.6341 17.7318C11.6504 17.7598 11.672 17.7843 11.6977 17.8039C11.7234 17.8235 11.7528 17.8379 11.784 17.8461L15.9823 18.956C16.0454 18.9726 16.1126 18.9635 16.1691 18.9307C16.2255 18.8979 16.2667 18.844 16.2834 18.7808L16.5779 17.6669C16.5945 17.6038 16.5854 17.5366 16.5526 17.4802C16.5197 17.4238 16.4659 17.3827 16.4028 17.366L12.2045 16.2559C12.1839 16.2503 12.1626 16.2474 12.1412 16.2472Z" fill="#337265"/>
<path d="M10.2386 12.3165C10.1479 12.3165 10.0604 12.283 9.99295 12.2224C8.49659 10.8771 7.30736 9.38392 6.45646 7.7845C5.59408 6.16236 5.05765 4.38734 4.86209 2.50789C4.85301 2.42009 4.87585 2.33196 4.92643 2.25963C4.97701 2.18729 5.05195 2.1356 5.13753 2.114L5.40701 2.04514C7.04981 1.63174 8.60195 1.239 10.0051 0.0837362C10.0709 0.0296008 10.1534 0 10.2386 0C10.3237 0 10.4062 0.0296008 10.472 0.0837362C11.8752 1.239 13.4273 1.63174 15.0706 2.04491L15.34 2.11377C15.4256 2.13537 15.5006 2.18706 15.5511 2.2594C15.6017 2.33173 15.6246 2.41986 15.6155 2.50766C15.4199 4.38688 14.8835 6.16213 14.0211 7.78427C13.1718 9.38369 11.981 10.8768 10.4846 12.2222C10.4171 12.283 10.3294 12.3166 10.2386 12.3165ZM5.62897 2.74706C6.04811 6.0632 7.59749 8.98843 10.2386 11.4514C12.8796 8.98843 14.429 6.0632 14.8481 2.74706C13.2258 2.33757 11.6883 1.94368 10.2386 0.835932C8.78879 1.94276 7.25135 2.33757 5.62897 2.74706Z" fill="#E26F64"/>
<path d="M9.58964 7.82371C9.49229 7.82373 9.39891 7.78509 9.33003 7.71629L8.03246 6.41848C7.96526 6.34926 7.928 6.25637 7.92872 6.1599C7.92945 6.06343 7.9681 5.97112 8.03634 5.90292C8.10457 5.83472 8.1969 5.7961 8.29337 5.79542C8.38984 5.79473 8.48271 5.83204 8.5519 5.89927L9.58964 6.93701L11.9252 4.60169C11.9941 4.5328 12.0876 4.49412 12.185 4.49414C12.2824 4.49416 12.3759 4.53289 12.4447 4.6018C12.5136 4.67071 12.5523 4.76417 12.5523 4.86161C12.5523 4.95904 12.5135 5.05248 12.4446 5.12136L9.84948 7.71629C9.81534 7.75038 9.77483 7.77742 9.73025 7.79585C9.68566 7.81428 9.63788 7.82375 9.58964 7.82371Z" fill="#E26F64"/>
</svg>
