<svg width="33" height="34" viewBox="0 0 33 34" fill="none" xmlns="http://www.w3.org/2000/svg">
<path d="M28.1054 11.4798C28.1054 11.4798 26.9903 10.3522 23.4526 11.0503C19.9149 11.7483 5.70733 13.5897 5.16418 15.272C4.62103 16.9544 4.25698 27.5276 4.79222 28.9097C5.32746 30.2917 6.05979 30.9873 8.42976 31.2898C10.7997 31.5923 22.5064 22.7534 22.9247 22.4784C23.343 22.2033 30.3059 14.8261 28.1054 11.4798Z" fill="#2C2D32"/>
<path d="M25.9561 12.2089C25.9561 12.2089 24.9038 15.8269 22.8675 15.5834C22.8577 15.5822 22.221 15.5011 22.2112 15.4999C20.1633 15.2389 18.7147 13.3672 18.9757 11.3193C19.2367 9.27146 21.1084 7.82288 23.1563 8.08385C23.1628 8.08468 23.9533 8.18544 23.9598 8.1863C25.9974 8.45663 26.2162 10.1675 25.9561 12.2089Z" fill="#2C2D32"/>
<path d="M27.205 12.3679C27.0796 13.3513 26.5688 14.2447 25.7848 14.8515C25.0008 15.4582 24.0079 15.7287 23.0244 15.6034C22.041 15.4781 21.1476 14.9672 20.5409 14.1832C19.9341 13.3992 19.6636 12.4063 19.7889 11.4229C19.9143 10.4394 20.4251 9.54607 21.2091 8.93929C21.9931 8.33252 22.9861 8.06205 23.9695 8.18737C24.9529 8.31269 25.8463 8.82354 26.453 9.60755C27.0598 10.3915 27.3303 11.3845 27.205 12.3679Z" fill="#FFB020"/>
<path d="M10.4865 12.5992C10.4865 12.5992 12.9305 9.73286 14.6869 10.7905C14.6953 10.7956 15.2424 11.1308 15.2509 11.136C17.0106 12.2143 17.563 14.5149 16.4847 16.2747C15.4064 18.0344 13.1057 18.5868 11.346 17.5085C11.3404 17.5051 10.6611 17.0888 10.6555 17.0853C8.909 16.0027 9.41164 14.3533 10.4865 12.5992Z" fill="#2C2D32"/>
<path d="M9.41317 11.9401C9.93099 11.095 10.7633 10.4903 11.727 10.2589C12.6907 10.0275 13.7068 10.1885 14.5519 10.7063C15.3969 11.2241 16.0017 12.0564 16.2331 13.0201C16.4644 13.9838 16.3035 14.9999 15.7857 15.845C15.2679 16.69 14.4356 17.2948 13.4719 17.5262C12.5082 17.7575 11.492 17.5966 10.647 17.0788C9.80194 16.561 9.1972 15.7287 8.96582 14.765C8.73443 13.8013 8.89535 12.7851 9.41317 11.9401Z" fill="#FFB020"/>
<path d="M13.9838 13.4629L13.8632 13.8066H10.9998L11.1181 13.4629H13.9838ZM12.8252 16.5L11.0362 14.6973L11.0316 14.4453H11.8146C12.0513 14.4453 12.2532 14.416 12.4201 14.3574C12.587 14.2975 12.7145 14.209 12.8025 14.0918C12.892 13.9746 12.9368 13.8294 12.9368 13.6562C12.9368 13.401 12.8435 13.2005 12.6568 13.0547C12.4717 12.9076 12.2061 12.834 11.8602 12.834H10.9998L11.1181 12.5H11.8602C12.194 12.5 12.4732 12.5495 12.6978 12.6484C12.9239 12.7474 13.0938 12.8841 13.2076 13.0586C13.323 13.2318 13.3806 13.431 13.3806 13.6562C13.3806 13.8672 13.3252 14.0573 13.2145 14.2266C13.1052 14.3945 12.936 14.528 12.7069 14.627C12.4793 14.7246 12.1887 14.7734 11.8351 14.7734H11.6712L13.3556 16.4707V16.5H12.8252ZM13.9998 12.5L13.8814 12.8437L11.4686 12.834L11.5779 12.5H13.9998Z" fill="white"/>
<path d="M28.1055 11.4805C28.1055 11.4805 29.5736 14.1312 23.0459 14.6666C16.5182 15.202 6.19451 15.3494 5.78658 16.8301C5.37865 18.3108 5.25982 27.8204 5.9074 30.0379C6.55498 32.2554 7.98404 31.7809 10.597 31.8954C13.2099 32.0099 26.0628 30.4884 28.1611 29.0592C30.2594 27.6301 29.9541 12.8659 28.1055 11.4805Z" fill="#E26F64"/>
<path d="M9.04876 22.4469C8.34154 22.3387 7.2787 22.724 6.45658 22.732C6.06716 22.7358 5.71868 22.6716 5.4296 22.5879C5.4296 22.5879 4.64191 23.2256 4.78462 24.0376C4.92733 24.8495 5.49598 26.0531 5.49598 26.0531C6.45645 26.1771 7.5915 26.056 8.49751 25.9347C10.0151 25.7315 10.1539 23.4639 9.61529 22.7519C9.48063 22.5739 9.2845 22.483 9.04876 22.4469Z" fill="#FFB020"/>
<path d="M9.12944 24.3484C9.10952 24.5045 9.05903 24.6552 8.98088 24.7918C8.90272 24.9284 8.79842 25.0483 8.67392 25.1446C8.54943 25.2409 8.40719 25.3118 8.25531 25.3531C8.10344 25.3945 7.94491 25.4055 7.78878 25.3856C7.63265 25.3656 7.48197 25.3151 7.34535 25.237C7.20873 25.1588 7.08883 25.0545 6.99252 24.93C6.89621 24.8055 6.82536 24.6633 6.78402 24.5114C6.74268 24.3595 6.73166 24.201 6.75159 24.0449C6.79183 23.7296 6.95569 23.4431 7.20711 23.2486C7.45853 23.0541 7.77693 22.9675 8.09225 23.0077C8.40757 23.0479 8.69399 23.2118 8.8885 23.4632C9.08302 23.7146 9.16968 24.033 9.12944 24.3484Z" fill="#E26F64"/>
<path d="M4.61796 21.1352C3.32325 21.0931 3.00889 24.4401 3.91399 25.3904C4.27874 25.7734 4.84767 25.9689 5.49601 26.0527C5.4408 24.8625 5.43095 22.9507 5.42963 22.5875C4.90499 22.4356 4.57898 22.2182 4.57898 22.2182L4.61796 21.1352Z" fill="#2C2D32"/>
<path d="M17.7708 4.14722C17.7708 4.14722 19.9121 7.1918 18.256 8.39765C18.2481 8.40344 17.7263 8.77724 17.7183 8.78298C16.0401 9.98522 13.5024 9.74441 12.0504 8.24512C10.5983 6.74584 10.7817 4.55582 12.4599 3.35359C12.4653 3.34977 13.1132 2.88567 13.1185 2.88188C14.7968 1.6926 16.3234 2.6527 17.7708 4.14722Z" fill="#2C2D32"/>
<path d="M18.7943 3.41311C19.4916 4.13309 19.8402 5.05293 19.7634 5.97027C19.6866 6.88761 19.1907 7.72731 18.3848 8.30464C17.5788 8.88198 16.5289 9.14965 15.466 9.04878C14.403 8.94791 13.4141 8.48676 12.7168 7.76678C12.0195 7.0468 11.6709 6.12696 11.7477 5.20962C11.8245 4.29228 12.3204 3.45258 13.1264 2.87525C13.5254 2.58938 13.9886 2.37654 14.4894 2.24886C14.9902 2.12118 15.5188 2.08117 16.0452 2.13111C16.5715 2.18106 17.0851 2.31998 17.5568 2.53994C18.0285 2.75991 18.449 3.05661 18.7943 3.41311Z" fill="#FFB020"/>
<path d="M21.496 7.3783C21.3281 7.35687 21.3962 6.40246 21.2927 6.26862C21.1892 6.13477 20.2482 5.96099 20.2696 5.79312C20.2911 5.62526 21.2455 5.69336 21.3793 5.58982C21.5132 5.48627 21.687 4.54534 21.8548 4.56677C22.0227 4.58819 21.9546 5.5426 22.0581 5.67645C22.1617 5.81029 23.1026 5.98408 23.0812 6.15194C23.0598 6.3198 22.1053 6.2517 21.9715 6.35525C21.8377 6.45879 21.6639 7.39972 21.496 7.3783Z" fill="#FFB020"/>
<path d="M8.37935 11.7967C8.15924 11.8289 7.90792 10.5964 7.72948 10.4636C7.55104 10.3307 6.29824 10.4435 6.266 10.2233C6.23376 10.0032 7.46626 9.75192 7.5991 9.57348C7.73195 9.39504 7.61921 8.14224 7.83932 8.11C8.05944 8.07775 8.31075 9.31025 8.48919 9.4431C8.66763 9.57594 9.92043 9.46321 9.95267 9.68332C9.98491 9.90343 8.75242 10.1547 8.61957 10.3332C8.48673 10.5116 8.59946 11.7644 8.37935 11.7967Z" fill="#599EFC"/>
<path d="M24.0655 3.24902C24.0449 3.41116 23.9606 3.55844 23.8313 3.65845C23.702 3.75847 23.5383 3.80304 23.3762 3.78234C23.2959 3.7721 23.2184 3.74614 23.1482 3.70595C23.0779 3.66576 23.0163 3.61213 22.9667 3.54811C22.9172 3.4841 22.8808 3.41096 22.8595 3.33287C22.8383 3.25477 22.8326 3.17326 22.8428 3.09297C22.8531 3.01269 22.8791 2.93521 22.9192 2.86496C22.9594 2.79471 23.0131 2.73306 23.0771 2.68354C23.1411 2.63401 23.2142 2.59758 23.2923 2.57632C23.3704 2.55507 23.4519 2.5494 23.5322 2.55965C23.6944 2.58034 23.8416 2.66459 23.9417 2.79388C24.0417 2.92316 24.0862 3.08688 24.0655 3.24902Z" fill="#599EFC"/>
<path d="M17.7841 10.5615C17.7738 10.6418 17.7478 10.7193 17.7077 10.7895C17.6675 10.8598 17.6138 10.9214 17.5498 10.971C17.4858 11.0205 17.4127 11.0569 17.3346 11.0782C17.2565 11.0994 17.175 11.1051 17.0947 11.0948C17.0144 11.0846 16.9369 11.0586 16.8667 11.0184C16.7964 10.9783 16.7348 10.9246 16.6852 10.8606C16.6357 10.7966 16.5993 10.7235 16.578 10.6454C16.5568 10.5673 16.5511 10.4858 16.5614 10.4055C16.5716 10.3252 16.5976 10.2477 16.6377 10.1775C16.6779 10.1072 16.7316 10.0456 16.7956 9.99604C16.8596 9.94651 16.9327 9.91008 17.0108 9.88882C17.0889 9.86757 17.1704 9.8619 17.2507 9.87215C17.4129 9.89284 17.5601 9.97709 17.6602 10.1064C17.7602 10.2357 17.8047 10.3994 17.7841 10.5615Z" fill="#80D092"/>
<path d="M6.48476 5.89716C6.47945 5.9388 6.46599 5.97897 6.44515 6.0154C6.42431 6.05183 6.3965 6.0838 6.3633 6.10948C6.33011 6.13517 6.29218 6.15406 6.25168 6.16508C6.21118 6.1761 6.16891 6.17904 6.12728 6.17373C6.08565 6.16842 6.04547 6.15496 6.00904 6.13411C5.97261 6.11327 5.94064 6.08546 5.91496 6.05227C5.88928 6.01907 5.87039 5.98114 5.85936 5.94065C5.84834 5.90015 5.8454 5.85788 5.85072 5.81625C5.85603 5.77461 5.86949 5.73444 5.89033 5.69801C5.91117 5.66158 5.93898 5.62961 5.97218 5.60393C6.00537 5.57824 6.0433 5.55935 6.0838 5.54833C6.1243 5.53731 6.16657 5.53437 6.2082 5.53968C6.29228 5.55041 6.36865 5.5941 6.42052 5.66114C6.47239 5.72819 6.4955 5.81308 6.48476 5.89716Z" fill="#80D092"/>
<path d="M10.029 6.73298C10.0175 6.82292 9.98842 6.90973 9.94339 6.98844C9.89837 7.06714 9.83828 7.13621 9.76656 7.19169C9.69484 7.24718 9.61289 7.28799 9.5254 7.31181C9.43791 7.33563 9.34658 7.34197 9.25664 7.3305C9.16669 7.31902 9.07989 7.28993 9.00118 7.24491C8.92247 7.19988 8.85341 7.13979 8.79792 7.06807C8.74244 6.99636 8.70162 6.91441 8.67781 6.82692C8.65399 6.73943 8.64764 6.6481 8.65912 6.55815C8.6823 6.3765 8.7767 6.21149 8.92154 6.09944C9.06638 5.98738 9.24981 5.93745 9.43146 5.96064C9.61312 5.98382 9.77812 6.07822 9.89018 6.22306C10.0022 6.3679 10.0522 6.55132 10.029 6.73298Z" fill="#E26F64"/>
<path d="M25.755 6.30342C25.7443 6.38749 25.7006 6.46387 25.6336 6.51573C25.5665 6.5676 25.4816 6.59071 25.3975 6.57998C25.3559 6.57467 25.3157 6.56121 25.2793 6.54037C25.2429 6.51952 25.2109 6.49171 25.1852 6.45852C25.1595 6.42532 25.1407 6.38739 25.1296 6.3469C25.1186 6.3064 25.1157 6.26413 25.121 6.2225C25.1317 6.13842 25.1754 6.06204 25.2424 6.01018C25.3095 5.95831 25.3944 5.9352 25.4785 5.94593C25.5625 5.95666 25.6389 6.00035 25.6908 6.0674C25.7426 6.13444 25.7658 6.21934 25.755 6.30342Z" fill="#E26F64"/>
<path d="M26.984 15.1164C26.9818 15.1161 26.9796 15.1159 26.9774 15.1157C26.952 15.1136 26.9265 15.1186 26.9037 15.1302C26.8809 15.1417 26.8618 15.1592 26.8483 15.1809C26.8084 15.245 26.7528 15.3065 26.6905 15.3682C26.6776 15.3811 26.6673 15.3963 26.6602 15.4132C26.6532 15.43 26.6495 15.448 26.6495 15.4663C26.6494 15.4845 26.6529 15.5026 26.6598 15.5195C26.6668 15.5363 26.6769 15.5517 26.6898 15.5646C26.7027 15.5776 26.718 15.5878 26.7348 15.5948C26.7516 15.6019 26.7697 15.6055 26.788 15.6055C26.8062 15.6055 26.8243 15.602 26.8411 15.595C26.858 15.5881 26.8733 15.5778 26.8862 15.5649C26.955 15.4968 27.0258 15.4209 27.0838 15.3279C27.0935 15.3124 27.1001 15.2952 27.1032 15.2771C27.1062 15.2591 27.1057 15.2407 27.1016 15.2229C27.0975 15.205 27.0899 15.1882 27.0793 15.1733C27.0687 15.1585 27.0552 15.1458 27.0397 15.1362C27.0228 15.1256 27.0037 15.1189 26.984 15.1164ZM25.8871 15.9377C25.8829 15.9371 25.8786 15.9366 25.8743 15.9364C25.8513 15.935 25.8283 15.9395 25.8074 15.9492C25.7257 15.9875 25.6431 16.024 25.5598 16.0576C25.5429 16.0644 25.5275 16.0745 25.5145 16.0872C25.5015 16.1 25.4911 16.1152 25.484 16.132C25.4768 16.1487 25.4731 16.1668 25.4729 16.185C25.4727 16.2032 25.4762 16.2213 25.483 16.2382C25.4898 16.2551 25.4999 16.2705 25.5126 16.2835C25.5254 16.2965 25.5406 16.3069 25.5574 16.314C25.5741 16.3212 25.5921 16.3249 25.6104 16.3251C25.6286 16.3253 25.6467 16.3219 25.6636 16.315C25.7519 16.2794 25.8393 16.241 25.9251 16.2008C25.9416 16.193 25.9564 16.1821 25.9687 16.1686C25.9809 16.1551 25.9904 16.1393 25.9966 16.1222C26.0027 16.105 26.0054 16.0868 26.0046 16.0686C26.0037 16.0504 25.9993 16.0326 25.9915 16.0161C25.9818 15.9955 25.9673 15.9775 25.9491 15.9639C25.9309 15.9502 25.9096 15.9412 25.8871 15.9377ZM24.5734 16.3812C24.5561 16.3787 24.5385 16.3794 24.5215 16.3834C24.4323 16.4046 24.3437 16.425 24.2554 16.4427C24.2194 16.45 24.1879 16.4713 24.1675 16.5018C24.1472 16.5323 24.1397 16.5696 24.1468 16.6056C24.154 16.6416 24.1752 16.6733 24.2057 16.6938C24.2362 16.7142 24.2735 16.7217 24.3096 16.7147C24.4027 16.696 24.4951 16.675 24.5859 16.6534C24.6216 16.6447 24.6524 16.6223 24.6716 16.591C24.6908 16.5598 24.6968 16.5221 24.6883 16.4864C24.6819 16.4594 24.6675 16.4349 24.647 16.4162C24.6265 16.3974 24.6009 16.3852 24.5734 16.3812ZM23.1978 16.6118C23.1886 16.611 23.1794 16.6111 23.1702 16.6121C23.0795 16.6226 22.9889 16.6321 22.8983 16.64C22.8616 16.6432 22.8278 16.6608 22.8041 16.6889C22.7805 16.7171 22.769 16.7535 22.7721 16.7901C22.7753 16.8268 22.7929 16.8607 22.821 16.8844C22.8492 16.9081 22.8856 16.9196 22.9223 16.9164C23.0159 16.9083 23.1089 16.8986 23.2019 16.8878C23.2201 16.8857 23.2376 16.8801 23.2536 16.8713C23.2696 16.8624 23.2837 16.8505 23.295 16.8362C23.3064 16.822 23.3148 16.8056 23.3198 16.788C23.3248 16.7704 23.3263 16.7521 23.3242 16.7339C23.3206 16.7036 23.3071 16.6753 23.2858 16.6534C23.2645 16.6315 23.2366 16.6173 23.2064 16.6129C23.2035 16.6125 23.2007 16.6121 23.1978 16.6118ZM21.8176 16.7046C21.8111 16.7038 21.8045 16.7035 21.7979 16.7037L21.5203 16.7122C21.502 16.7128 21.4841 16.7169 21.4674 16.7244C21.4508 16.7318 21.4358 16.7425 21.4233 16.7558C21.4108 16.7691 21.401 16.7847 21.3945 16.8018C21.3881 16.8188 21.3851 16.837 21.3856 16.8552C21.3861 16.8735 21.3903 16.8915 21.3978 16.9081C21.4053 16.9248 21.416 16.9398 21.4293 16.9523C21.4425 16.9648 21.4582 16.9746 21.4753 16.981C21.4923 16.9875 21.5105 16.9905 21.5288 16.9899L21.8065 16.9814C21.8432 16.9802 21.878 16.9644 21.9031 16.9376C21.9282 16.9107 21.9417 16.875 21.9405 16.8383C21.9395 16.805 21.9265 16.7731 21.904 16.7486C21.8814 16.724 21.8508 16.7084 21.8176 16.7046ZM20.4326 16.7517C20.4314 16.7516 20.4303 16.7515 20.4291 16.7514C20.4226 16.7506 20.416 16.7503 20.4094 16.7505L20.1326 16.7613C20.1144 16.7619 20.0964 16.7662 20.0798 16.7738C20.0632 16.7814 20.0482 16.7923 20.0358 16.8057C20.0234 16.8191 20.0138 16.8348 20.0074 16.852C20.0011 16.8691 19.9982 16.8873 19.999 16.9056C19.9997 16.9238 20.004 16.9417 20.0117 16.9583C20.0193 16.9748 20.0302 16.9897 20.0436 17.0021C20.057 17.0144 20.0727 17.024 20.0898 17.0303C20.1069 17.0366 20.1251 17.0394 20.1433 17.0387L20.4207 17.0279C20.4574 17.0265 20.492 17.0105 20.5169 16.9835C20.5419 16.9566 20.5551 16.9208 20.5537 16.8841C20.5525 16.8513 20.5396 16.8199 20.5175 16.7957C20.4953 16.7714 20.4652 16.7558 20.4326 16.7517ZM19.0421 16.8086C19.0355 16.8079 19.0289 16.8076 19.0223 16.8078L18.9269 16.8121C18.9267 16.8121 18.9266 16.8121 18.9264 16.812L18.7447 16.8207C18.7079 16.8224 18.6733 16.8386 18.6485 16.8658C18.6238 16.893 18.6108 16.929 18.6125 16.9657C18.6143 17.0025 18.6305 17.037 18.6577 17.0618C18.6849 17.0865 18.7209 17.0995 18.7576 17.0977L18.9393 17.0891L19.0348 17.0854C19.053 17.0846 19.0709 17.0802 19.0874 17.0725C19.104 17.0648 19.1188 17.0539 19.1311 17.0404C19.1434 17.0269 19.153 17.0112 19.1592 16.994C19.1654 16.9768 19.1682 16.9586 19.1673 16.9404C19.1658 16.907 19.1523 16.8753 19.1293 16.8511C19.1063 16.8269 19.0753 16.8118 19.0421 16.8086ZM17.655 16.8748C17.6484 16.874 17.6419 16.8737 17.6353 16.8738L17.358 16.8885C17.3213 16.8904 17.2869 16.9069 17.2623 16.9342C17.2377 16.9615 17.2249 16.9974 17.2268 17.0341C17.2287 17.0708 17.2452 17.1053 17.2725 17.1299C17.2998 17.1545 17.3358 17.1672 17.3725 17.1653L17.6493 17.1512C17.6676 17.1503 17.6854 17.1458 17.7019 17.138C17.7184 17.1302 17.7331 17.1192 17.7454 17.1057C17.7576 17.0921 17.767 17.0763 17.7732 17.0591C17.7793 17.0419 17.7819 17.0237 17.781 17.0055C17.7792 16.9722 17.7655 16.9407 17.7423 16.9167C17.7192 16.8927 17.6882 16.8778 17.655 16.8748ZM16.2713 16.9495C16.2703 16.9494 16.2694 16.9493 16.2684 16.9492C16.2619 16.9487 16.2553 16.9485 16.2487 16.9489L16.0723 16.9588L15.9718 16.9646C15.9536 16.9656 15.9357 16.9702 15.9193 16.9782C15.9028 16.9861 15.8881 16.9972 15.8759 17.0108C15.8638 17.0245 15.8544 17.0404 15.8484 17.0577C15.8425 17.0749 15.8399 17.0932 15.841 17.1114C15.8433 17.1482 15.86 17.1825 15.8875 17.2069C15.9151 17.2313 15.9512 17.2437 15.9879 17.2415L16.0886 17.2357L16.2644 17.2257C16.3011 17.2237 16.3355 17.2071 16.36 17.1797C16.3845 17.1522 16.3971 17.1162 16.3951 17.0795C16.3932 17.0467 16.3797 17.0156 16.3571 16.9918C16.3344 16.9679 16.304 16.9529 16.2713 16.9495ZM14.8855 17.0327C14.8843 17.0326 14.8831 17.0325 14.8819 17.0324C14.8756 17.0319 14.8692 17.0318 14.8628 17.0321L14.5855 17.0499C14.5488 17.0524 14.5146 17.0693 14.4904 17.097C14.4661 17.1247 14.4539 17.1609 14.4563 17.1976C14.4575 17.2158 14.4622 17.2336 14.4702 17.25C14.4783 17.2664 14.4895 17.281 14.5032 17.293C14.5169 17.3051 14.5328 17.3143 14.5501 17.3202C14.5674 17.3261 14.5857 17.3285 14.6039 17.3273L14.8806 17.3094C14.8988 17.3082 14.9166 17.3035 14.933 17.2955C14.9494 17.2874 14.964 17.2762 14.976 17.2625C14.9881 17.2488 14.9973 17.2329 15.0032 17.2156C15.0091 17.1983 15.0115 17.1801 15.0103 17.1619C15.0082 17.129 14.9945 17.098 14.9716 17.0744C14.9488 17.0507 14.9183 17.036 14.8855 17.0327ZM13.4995 17.1269C13.4985 17.1268 13.4976 17.1268 13.4966 17.1267C13.4901 17.1261 13.4836 17.126 13.477 17.1264L13.2 17.1466C13.1818 17.1479 13.1641 17.1528 13.1478 17.161C13.1315 17.1692 13.1169 17.1805 13.105 17.1943C13.0931 17.2081 13.084 17.2242 13.0783 17.2415C13.0726 17.2588 13.0704 17.2771 13.0717 17.2953C13.0745 17.3319 13.0916 17.366 13.1194 17.39C13.1472 17.414 13.1834 17.426 13.2201 17.4234L13.497 17.4034C13.5337 17.4006 13.5677 17.3835 13.5918 17.3557C13.6158 17.3279 13.6278 17.2917 13.6251 17.255C13.6227 17.2223 13.6088 17.1914 13.5858 17.1679C13.5628 17.1445 13.5322 17.1299 13.4995 17.1269ZM12.115 17.2339C12.114 17.2338 12.113 17.2337 12.112 17.2337C12.1055 17.2333 12.0989 17.2334 12.0923 17.2339C11.9996 17.2414 11.9072 17.2496 11.8149 17.2578C11.7967 17.2593 11.779 17.2645 11.7628 17.2729C11.7466 17.2813 11.7323 17.2928 11.7205 17.3068C11.7088 17.3207 11.7 17.3368 11.6945 17.3542C11.689 17.3716 11.687 17.3899 11.6885 17.4081C11.6901 17.4263 11.6953 17.444 11.7037 17.4602C11.7121 17.4764 11.7237 17.4908 11.7377 17.5025C11.7517 17.5142 11.7679 17.5231 11.7853 17.5285C11.8027 17.534 11.8211 17.536 11.8393 17.5343C11.9313 17.5262 12.0228 17.5182 12.1145 17.5107C12.1327 17.5093 12.1504 17.5043 12.1667 17.496C12.1829 17.4876 12.1974 17.4762 12.2092 17.4623C12.221 17.4484 12.23 17.4323 12.2356 17.415C12.2411 17.3976 12.2433 17.3793 12.2418 17.3611C12.2392 17.3283 12.225 17.2976 12.2018 17.2743C12.1785 17.251 12.1478 17.2366 12.115 17.2339ZM10.7354 17.3615C10.7262 17.3605 10.7169 17.3604 10.7077 17.3613L10.5882 17.3735C10.588 17.3735 10.5879 17.3734 10.5877 17.3734L10.4313 17.3902C10.4131 17.3921 10.3955 17.3975 10.3794 17.4062C10.3634 17.4149 10.3492 17.4267 10.3377 17.4409C10.3262 17.4551 10.3176 17.4714 10.3124 17.4889C10.3073 17.5064 10.3056 17.5248 10.3075 17.543C10.3115 17.5796 10.3298 17.6131 10.3584 17.6362C10.3871 17.6593 10.4237 17.67 10.4603 17.6661L10.6166 17.6499L10.7356 17.6376C10.7537 17.6358 10.7714 17.6305 10.7874 17.6218C10.8035 17.6132 10.8177 17.6015 10.8293 17.5873C10.8408 17.5732 10.8494 17.5569 10.8547 17.5395C10.8599 17.522 10.8617 17.5036 10.8598 17.4855C10.8567 17.4551 10.8436 17.4266 10.8227 17.4044C10.8017 17.3822 10.7739 17.3675 10.7438 17.3627C10.741 17.3622 10.7383 17.3618 10.7354 17.3615ZM9.36133 17.5221C9.34926 17.5206 9.33705 17.5207 9.325 17.5224C9.23219 17.5347 9.13969 17.5483 9.04767 17.5622C9.01143 17.5678 8.97888 17.5875 8.95712 17.617C8.93537 17.6465 8.92618 17.6834 8.93156 17.7197C8.93425 17.7378 8.94048 17.7551 8.94988 17.7707C8.95928 17.7864 8.97168 17.8 8.98636 17.8109C9.00103 17.8217 9.01771 17.8296 9.03542 17.8339C9.05314 17.8383 9.07154 17.8392 9.08959 17.8365C9.18052 17.8227 9.27113 17.8096 9.36174 17.7976C9.37981 17.7952 9.39724 17.7892 9.41301 17.7801C9.42879 17.771 9.44261 17.7588 9.45368 17.7443C9.46475 17.7298 9.47286 17.7133 9.47755 17.6957C9.48223 17.6781 9.4834 17.6597 9.48098 17.6416C9.47699 17.6113 9.4631 17.5831 9.44146 17.5615C9.41983 17.5399 9.39166 17.5261 9.36133 17.5221ZM7.99482 17.7773C7.99363 17.7772 7.99244 17.7771 7.99124 17.777C7.97375 17.7757 7.95618 17.7777 7.93944 17.783C7.85084 17.8106 7.75008 17.8413 7.65225 17.9C7.62072 17.919 7.59803 17.9497 7.58916 17.9854C7.58029 18.0212 7.58597 18.0589 7.60496 18.0905C7.62394 18.122 7.65467 18.1447 7.69039 18.1536C7.72611 18.1624 7.76388 18.1567 7.79541 18.1378C7.85654 18.1011 7.9347 18.0749 8.02205 18.0477C8.05714 18.0366 8.0864 18.0121 8.10341 17.9795C8.12043 17.9469 8.1238 17.9089 8.11278 17.8738C8.10467 17.8479 8.08918 17.825 8.06822 17.8079C8.04726 17.7908 8.02174 17.7801 7.99482 17.7773ZM7.53861 18.9479C7.53761 18.9478 7.53661 18.9477 7.5356 18.9477C7.53449 18.9477 7.53337 18.9478 7.53226 18.9478C7.49563 18.9456 7.4596 18.9579 7.43204 18.9821C7.40448 19.0063 7.38763 19.0405 7.3852 19.0771C7.37923 19.1697 7.37347 19.2626 7.36882 19.3561C7.36788 19.3743 7.37054 19.3926 7.37665 19.4098C7.38277 19.427 7.39222 19.4428 7.40446 19.4563C7.4167 19.4699 7.43149 19.4809 7.44798 19.4887C7.46448 19.4965 7.48236 19.501 7.50059 19.5019C7.53732 19.5036 7.57325 19.4907 7.60048 19.466C7.62771 19.4413 7.64401 19.4068 7.64581 19.3701C7.65035 19.2788 7.65633 19.1871 7.66226 19.095C7.6646 19.0592 7.65305 19.024 7.63 18.9966C7.60696 18.9692 7.57421 18.9517 7.53861 18.9479ZM7.48396 20.3346C7.4803 20.3341 7.47663 20.3338 7.47295 20.3337C7.47183 20.3337 7.47071 20.3338 7.4696 20.3338C7.45138 20.3334 7.43325 20.3366 7.41625 20.3432C7.39926 20.3497 7.38373 20.3596 7.37054 20.3722C7.35736 20.3848 7.34679 20.3999 7.33944 20.4165C7.33208 20.4332 7.32808 20.4512 7.32766 20.4694L7.32227 20.7178C7.32224 20.718 7.32222 20.7182 7.3222 20.7184L7.3218 20.7474C7.32145 20.7657 7.32469 20.7838 7.33135 20.8008C7.33801 20.8178 7.34794 20.8333 7.3606 20.8464C7.37325 20.8595 7.38836 20.87 7.40508 20.8773C7.4218 20.8846 7.43979 20.8885 7.45803 20.8889C7.47626 20.8892 7.49439 20.886 7.51137 20.8793C7.52835 20.8727 7.54385 20.8627 7.55698 20.8501C7.57012 20.8374 7.58063 20.8223 7.58792 20.8056C7.59521 20.7889 7.59913 20.7709 7.59947 20.7527L7.59976 20.7242L7.60515 20.4758C7.60601 20.4414 7.59408 20.408 7.57169 20.3819C7.54929 20.3558 7.51805 20.3389 7.48396 20.3346ZM26.6738 27.3598C26.6486 27.3567 26.6229 27.3605 26.5997 27.371C26.5765 27.3815 26.5566 27.3982 26.5422 27.4192C26.4935 27.4902 26.44 27.5574 26.382 27.621C26.3697 27.6344 26.3602 27.6502 26.354 27.6673C26.3478 27.6845 26.345 27.7026 26.3459 27.7208C26.3467 27.7391 26.3511 27.7569 26.3588 27.7734C26.3666 27.7899 26.3775 27.8047 26.391 27.817C26.4181 27.8419 26.454 27.8549 26.4907 27.8533C26.5275 27.8517 26.5621 27.8356 26.587 27.8085C26.6537 27.7354 26.7154 27.6574 26.7713 27.5758C26.7816 27.5608 26.7889 27.5439 26.7926 27.526C26.7963 27.5082 26.7965 27.4898 26.7932 27.4719C26.7898 27.454 26.7829 27.4369 26.773 27.4216C26.763 27.4064 26.7501 27.3932 26.7351 27.3829C26.7168 27.3705 26.6958 27.3625 26.6738 27.3598ZM25.5758 28.1728C25.5556 28.1707 25.5352 28.173 25.516 28.1796C25.4358 28.2073 25.3501 28.2292 25.261 28.2513C25.2433 28.2557 25.2266 28.2636 25.212 28.2744C25.1973 28.2853 25.185 28.2989 25.1756 28.3145C25.1662 28.3301 25.16 28.3475 25.1573 28.3655C25.1546 28.3835 25.1555 28.4019 25.16 28.4196C25.1688 28.4552 25.1914 28.4859 25.2227 28.5049C25.2541 28.5239 25.2918 28.5297 25.3274 28.5211C25.4178 28.4987 25.5117 28.4746 25.6065 28.4419C25.6412 28.4299 25.6699 28.4047 25.686 28.3717C25.7022 28.3386 25.7046 28.3006 25.6927 28.2658C25.6846 28.2421 25.6702 28.2211 25.6511 28.2049C25.632 28.1888 25.6088 28.1781 25.5841 28.174C25.5813 28.1736 25.5785 28.1733 25.5757 28.173L25.5758 28.1728ZM24.2216 28.4708C24.2204 28.4708 24.2193 28.4707 24.2181 28.4706C24.2062 28.4695 24.1942 28.4699 24.1823 28.4718L24.0138 28.5024L23.9093 28.5208C23.8913 28.524 23.8742 28.5307 23.8588 28.5406C23.8434 28.5504 23.8301 28.5632 23.8197 28.5782C23.8093 28.5932 23.8019 28.6101 23.798 28.6279C23.7941 28.6458 23.7938 28.6642 23.7971 28.6822C23.8035 28.7183 23.8241 28.7505 23.8543 28.7715C23.8844 28.7925 23.9216 28.8008 23.9578 28.7944L24.0623 28.7759C24.0624 28.7759 24.0626 28.7759 24.0628 28.7759L24.2319 28.7448C24.2681 28.7382 24.3002 28.7175 24.3211 28.6872C24.342 28.657 24.3501 28.6197 24.3435 28.5835C24.3381 28.554 24.3233 28.5271 24.3013 28.5067C24.2793 28.4864 24.2513 28.4737 24.2215 28.4706L24.2216 28.4708ZM7.48483 26.6868C7.47833 26.6859 7.47177 26.6855 7.46521 26.6856C7.44696 26.6859 7.42895 26.6897 7.41221 26.697C7.39547 26.7042 7.38032 26.7147 7.36764 26.7278C7.35495 26.7409 7.34498 26.7564 7.33828 26.7734C7.33159 26.7904 7.32831 26.8085 7.32863 26.8268C7.33012 26.9215 7.33394 27.0153 7.33824 27.1083C7.33995 27.1451 7.35619 27.1797 7.3834 27.2045C7.41061 27.2292 7.44654 27.2422 7.48331 27.2405C7.52007 27.2388 7.55464 27.2225 7.57943 27.1953C7.60421 27.1681 7.61717 27.1322 7.61546 27.0954C7.61122 27.0036 7.60781 26.9123 7.6064 26.822C7.60577 26.7886 7.59313 26.7566 7.57081 26.7318C7.54848 26.707 7.51795 26.6909 7.48483 26.6868ZM22.8566 28.7061C22.8553 28.706 22.8541 28.7059 22.8528 28.7059C22.8409 28.7047 22.8288 28.7051 22.817 28.7071L22.7217 28.7224L22.5435 28.7513C22.5255 28.7542 22.5082 28.7606 22.4926 28.7701C22.4771 28.7797 22.4635 28.7922 22.4528 28.807C22.4421 28.8218 22.4344 28.8385 22.4302 28.8563C22.426 28.8741 22.4253 28.8925 22.4282 28.9105C22.4312 28.9285 22.4376 28.9458 22.4472 28.9613C22.4568 28.9768 22.4693 28.9903 22.4841 29.0009C22.4989 29.0116 22.5156 29.0192 22.5334 29.0234C22.5511 29.0276 22.5695 29.0282 22.5875 29.0253L22.7663 28.9965C22.7665 28.9965 22.7667 28.9965 22.7669 28.9965L22.8617 28.9807C22.8797 28.9778 22.897 28.9714 22.9125 28.9618C22.928 28.9522 22.9415 28.9396 22.9521 28.9248C22.9628 28.91 22.9704 28.8932 22.9746 28.8755C22.9788 28.8577 22.9794 28.8393 22.9765 28.8213C22.9716 28.7917 22.9573 28.7645 22.9357 28.7437C22.9141 28.723 22.8863 28.7098 22.8566 28.7061ZM21.4833 28.9223C21.4714 28.9209 21.4594 28.9212 21.4475 28.923L21.1766 28.9648L21.1737 28.9655C21.1374 28.9709 21.1047 28.9906 21.0828 29.0201C21.0609 29.0496 21.0517 29.0866 21.057 29.1229C21.0597 29.141 21.0659 29.1583 21.0753 29.174C21.0847 29.1896 21.0971 29.2033 21.1118 29.2141C21.1265 29.2249 21.1432 29.2328 21.1609 29.2372C21.1786 29.2416 21.197 29.2424 21.215 29.2397L21.2178 29.2395C21.2181 29.2393 21.2183 29.2392 21.2185 29.239L21.49 29.1973C21.5263 29.1916 21.5588 29.1718 21.5805 29.1421C21.6021 29.1125 21.6112 29.0754 21.6056 29.0391C21.601 29.0089 21.5865 28.981 21.5644 28.9598C21.5423 28.9386 21.5138 28.9255 21.4833 28.9223ZM20.1119 29.1276C20.1 29.1262 20.0881 29.1263 20.0763 29.1279L19.8088 29.1672L19.8022 29.1679C19.7841 29.1705 19.7667 29.1766 19.751 29.1859C19.7353 29.1952 19.7216 29.2075 19.7107 29.2221C19.6997 29.2367 19.6918 29.2534 19.6873 29.2711C19.6827 29.2888 19.6818 29.3072 19.6844 29.3252C19.6896 29.3616 19.7091 29.3944 19.7385 29.4164C19.7679 29.4385 19.8048 29.448 19.8412 29.4428L19.8484 29.4416C19.8486 29.4416 19.8488 29.4417 19.849 29.4417L20.1164 29.4024C20.1345 29.3997 20.1518 29.3936 20.1675 29.3842C20.1831 29.3749 20.1968 29.3626 20.2077 29.348C20.2185 29.3334 20.2264 29.3167 20.2309 29.2991C20.2354 29.2814 20.2363 29.263 20.2337 29.245C20.2292 29.2147 20.2148 29.1867 20.1928 29.1655C20.1708 29.1442 20.1424 29.1308 20.1119 29.1274L20.1119 29.1276ZM18.7391 29.3234C18.7272 29.322 18.7152 29.3221 18.7033 29.3237L18.4283 29.362C18.4103 29.3646 18.3929 29.3706 18.3772 29.3799C18.3614 29.3891 18.3477 29.4014 18.3367 29.416C18.3257 29.4305 18.3177 29.4471 18.3132 29.4648C18.3086 29.4824 18.3076 29.5008 18.3101 29.5189C18.3152 29.5553 18.3346 29.5882 18.364 29.6104C18.3934 29.6326 18.4304 29.6421 18.4668 29.637L18.7418 29.5985C18.7599 29.596 18.7772 29.59 18.793 29.5807C18.8087 29.5715 18.8224 29.5592 18.8334 29.5447C18.8443 29.5301 18.8523 29.5136 18.8569 29.4959C18.8615 29.4783 18.8625 29.4599 18.86 29.4419C18.8557 29.4115 18.8416 29.3834 18.8197 29.362C18.7978 29.3406 18.7695 29.3271 18.7391 29.3234ZM7.59208 28.0693C7.58001 28.0678 7.5678 28.0678 7.55575 28.0695C7.5377 28.072 7.52033 28.0781 7.50462 28.0873C7.48892 28.0966 7.47519 28.1088 7.46421 28.1234C7.45324 28.1379 7.44524 28.1545 7.44067 28.1721C7.4361 28.1898 7.43505 28.2082 7.43758 28.2262L7.45347 28.343C7.45352 28.3437 7.45357 28.3443 7.45363 28.345L7.47809 28.5022C7.48083 28.5203 7.4871 28.5376 7.49652 28.5532C7.50595 28.5688 7.51836 28.5823 7.53304 28.5931C7.54772 28.604 7.56438 28.6118 7.58208 28.6161C7.59977 28.6205 7.61816 28.6213 7.63617 28.6186C7.67254 28.613 7.70521 28.5932 7.72699 28.5636C7.74878 28.5339 7.7579 28.4968 7.75235 28.4605L7.7284 28.3037L7.71251 28.1881C7.70839 28.1577 7.69434 28.1296 7.67256 28.108C7.65077 28.0865 7.62248 28.0728 7.59208 28.069L7.59208 28.0693ZM17.365 29.5113C17.3531 29.5097 17.3411 29.5097 17.3292 29.5112L17.054 29.5479C17.036 29.5503 17.0185 29.5563 17.0028 29.5654C16.987 29.5746 16.9732 29.5867 16.9621 29.6012C16.951 29.6157 16.9429 29.6322 16.9382 29.6499C16.9335 29.6675 16.9324 29.6858 16.9348 29.7039C16.9372 29.722 16.9432 29.7394 16.9523 29.7552C16.9614 29.771 16.9736 29.7848 16.9881 29.7959C17.0026 29.8069 17.0191 29.815 17.0367 29.8197C17.0543 29.8244 17.0727 29.8256 17.0908 29.8232L17.366 29.7864C17.3841 29.784 17.4015 29.7781 17.4173 29.7689C17.433 29.7598 17.4468 29.7476 17.4579 29.7331C17.469 29.7187 17.4771 29.7021 17.4818 29.6845C17.4865 29.6669 17.4876 29.6485 17.4852 29.6304C17.4811 29.6001 17.4671 29.5719 17.4454 29.5504C17.4236 29.5288 17.3953 29.5151 17.365 29.5113ZM15.9897 29.6909C15.9779 29.6893 15.9659 29.6893 15.954 29.6908L15.6785 29.7253C15.6604 29.7276 15.6429 29.7334 15.6271 29.7425C15.6112 29.7515 15.5973 29.7636 15.5862 29.778C15.575 29.7924 15.5668 29.8089 15.562 29.8265C15.5572 29.8441 15.5559 29.8625 15.5582 29.8806C15.5605 29.8987 15.5663 29.9162 15.5754 29.932C15.5844 29.9479 15.5965 29.9618 15.6109 29.973C15.6254 29.9841 15.6419 29.9924 15.6595 29.9972C15.6771 30.0019 15.6955 30.0032 15.7136 30.0009L15.9886 29.9657C16.0251 29.9611 16.0582 29.9422 16.0808 29.9132C16.1033 29.8841 16.1134 29.8474 16.1089 29.8109C16.105 29.7805 16.0912 29.7523 16.0697 29.7306C16.0481 29.7089 16.02 29.6949 15.9897 29.6909ZM14.6055 29.8606C14.5963 29.8598 14.587 29.8599 14.5778 29.8609L14.3426 29.8891L14.3025 29.8938C14.2844 29.8959 14.2669 29.9016 14.251 29.9105C14.235 29.9193 14.221 29.9313 14.2097 29.9456C14.1984 29.9599 14.19 29.9763 14.1851 29.9938C14.1801 30.0114 14.1787 30.0297 14.1808 30.0479C14.1829 30.066 14.1886 30.0835 14.1974 30.0994C14.2063 30.1153 14.2183 30.1293 14.2326 30.1407C14.2469 30.152 14.2633 30.1603 14.2808 30.1653C14.2984 30.1703 14.3167 30.1717 14.3348 30.1696L14.3755 30.1648L14.6107 30.1367C14.6288 30.1345 14.6464 30.1288 14.6623 30.1198C14.6782 30.1109 14.6922 30.0989 14.7035 30.0845C14.7147 30.0701 14.723 30.0537 14.7279 30.0361C14.7328 30.0185 14.7342 30.0001 14.732 29.982C14.7282 29.9517 14.7146 29.9236 14.6933 29.9018C14.6719 29.8801 14.644 29.866 14.6139 29.8617C14.6111 29.8612 14.6083 29.8609 14.6055 29.8606ZM13.2279 30.0201C13.2188 30.0193 13.2097 30.0194 13.2007 30.0204L12.973 30.0457L12.9251 30.0505C12.8886 30.0545 12.855 30.0728 12.8319 30.1014C12.8089 30.13 12.7981 30.1667 12.802 30.2033C12.8039 30.2214 12.8094 30.2389 12.8181 30.2549C12.8268 30.271 12.8386 30.2851 12.8528 30.2965C12.867 30.308 12.8833 30.3165 12.9008 30.3217C12.9182 30.3268 12.9366 30.3285 12.9547 30.3266L13.0032 30.3212C13.0034 30.3212 13.0035 30.3212 13.0037 30.3212L13.2309 30.2958C13.2674 30.2918 13.3008 30.2734 13.3238 30.2448C13.3469 30.2162 13.3576 30.1796 13.3536 30.1431C13.3503 30.1126 13.3369 30.0842 13.3157 30.0621C13.2945 30.0401 13.2666 30.0256 13.2363 30.0211C13.2335 30.0207 13.2307 30.0204 13.2279 30.0201ZM7.89921 29.4217C7.87621 29.4182 7.8527 29.4205 7.83083 29.4285C7.81367 29.4346 7.79789 29.4441 7.7844 29.4564C7.77091 29.4686 7.75997 29.4834 7.7522 29.4999C7.74443 29.5164 7.73998 29.5343 7.73912 29.5525C7.73825 29.5707 7.74098 29.5889 7.74715 29.606C7.77962 29.6961 7.81569 29.786 7.85773 29.8748C7.86555 29.8912 7.87653 29.906 7.89006 29.9182C7.90358 29.9304 7.91938 29.9399 7.93655 29.946C7.95372 29.9521 7.97193 29.9547 7.99013 29.9538C8.00833 29.9529 8.02618 29.9484 8.04264 29.9406C8.05912 29.9328 8.07392 29.9219 8.08618 29.9084C8.09843 29.8949 8.10791 29.8791 8.11408 29.862C8.12024 29.8448 8.12297 29.8266 8.1221 29.8084C8.12123 29.7902 8.11678 29.7724 8.10901 29.7559C8.07181 29.6774 8.03873 29.5953 8.00849 29.5114C7.99998 29.488 7.98535 29.4674 7.96613 29.4516C7.9469 29.4358 7.92379 29.4255 7.89921 29.4217ZM11.8494 30.1652C11.8404 30.1642 11.8313 30.1642 11.8222 30.165L11.7161 30.1756L11.5461 30.1918C11.5096 30.1953 11.476 30.2132 11.4527 30.2415C11.4293 30.2698 11.4181 30.3062 11.4215 30.3427C11.4249 30.3793 11.4427 30.4131 11.471 30.4365C11.4993 30.46 11.5357 30.4713 11.5723 30.468L11.7428 30.4518C11.743 30.4519 11.7432 30.4519 11.7434 30.4519L11.849 30.4413C11.8672 30.4395 11.8848 30.4342 11.9009 30.4257C11.917 30.4171 11.9312 30.4054 11.9428 30.3914C11.9544 30.3773 11.9631 30.3611 11.9684 30.3437C11.9737 30.3262 11.9755 30.3079 11.9738 30.2898C11.9708 30.2593 11.9578 30.2306 11.9368 30.2083C11.9159 30.1859 11.8881 30.1712 11.8578 30.1663C11.855 30.1659 11.8522 30.1654 11.8494 30.1652ZM10.4662 30.2859C10.4649 30.2858 10.4635 30.2857 10.4622 30.2857C10.4558 30.2853 10.4493 30.2854 10.4429 30.2859L10.3632 30.2922L10.1666 30.3055C10.1484 30.3068 10.1306 30.3116 10.1143 30.3198C10.098 30.3279 10.0835 30.3392 10.0715 30.353C10.0596 30.3667 10.0505 30.3827 10.0447 30.4C10.0389 30.4173 10.0366 30.4356 10.0379 30.4537C10.0392 30.4719 10.0441 30.4897 10.0522 30.506C10.0603 30.5223 10.0716 30.5368 10.0854 30.5488C10.0992 30.5607 10.1152 30.5699 10.1324 30.5756C10.1497 30.5814 10.168 30.5837 10.1862 30.5824L10.3826 30.5691C10.383 30.569 10.3834 30.569 10.3838 30.5689L10.4637 30.5631C10.4819 30.5618 10.4996 30.5569 10.5159 30.5486C10.5322 30.5404 10.5467 30.5291 10.5586 30.5153C10.5705 30.5014 10.5796 30.4854 10.5853 30.468C10.591 30.4507 10.5932 30.4324 10.5918 30.4142C10.5895 30.3814 10.5755 30.3505 10.5525 30.3271C10.5295 30.3036 10.499 30.2889 10.4662 30.2859ZM9.08737 30.3511C9.08105 30.3503 9.07468 30.3499 9.0683 30.3499C8.97733 30.3494 8.88754 30.3471 8.79995 30.3408C8.78176 30.3395 8.7635 30.3418 8.7462 30.3476C8.72891 30.3534 8.71292 30.3625 8.69916 30.3745C8.6854 30.3865 8.67414 30.401 8.66601 30.4174C8.65788 30.4337 8.65305 30.4514 8.65179 30.4696C8.64923 30.5062 8.66128 30.5424 8.68529 30.5701C8.70931 30.5979 8.74334 30.615 8.77994 30.6177C8.8769 30.6247 8.97284 30.627 9.06686 30.6274C9.08509 30.6275 9.10317 30.624 9.12006 30.6171C9.13695 30.6102 9.15231 30.6001 9.16527 30.5873C9.17823 30.5744 9.18853 30.5591 9.19558 30.5423C9.20264 30.5255 9.20631 30.5075 9.20638 30.4892C9.20656 30.4557 9.1946 30.4233 9.17273 30.3979C9.15085 30.3725 9.12053 30.3559 9.08737 30.3511Z" fill="white"/>
<path d="M26.0979 18.2464C26.0979 18.2464 26.2147 22.8977 26.1177 24.8296C26.0207 26.7615 26.6523 24.4491 26.7908 22.4851C26.9293 20.5211 26.2168 16.7286 26.0979 18.2464Z" fill="#2C2D32"/>
<path d="M8.31624 24.2615C8.29829 24.3285 8.25283 24.3932 8.18245 24.4519C8.11207 24.5106 8.01814 24.5621 7.90603 24.6034C7.79393 24.6448 7.66584 24.6752 7.52907 24.6929C7.39231 24.7107 7.24955 24.7154 7.10895 24.7069C6.96835 24.6983 6.83266 24.6766 6.70963 24.6431C6.5866 24.6095 6.47864 24.5647 6.39191 24.5113C6.30518 24.4578 6.24138 24.3967 6.20415 24.3315C6.16692 24.2663 6.157 24.1982 6.17494 24.1312C6.21118 23.9958 6.35874 23.8728 6.58515 23.7892C6.81156 23.7057 7.09828 23.6685 7.38223 23.6858C7.66618 23.7031 7.92411 23.7734 8.09927 23.8814C8.27443 23.9894 8.35247 24.1261 8.31624 24.2615Z" fill="white"/>
<path d="M19.4129 24.023C19.4129 24.023 21.8308 23.8042 23.2124 23.643C24.5941 23.4818 24.6632 23.5509 24.8935 24.8174C25.1237 26.0839 24.7773 26.6739 23.8112 26.959C22.6493 27.3019 19.8044 27.7765 19.3668 27.1777C18.9293 26.579 18.6069 24.069 19.4129 24.023Z" fill="white"/>
<path d="M19.9311 24.8407C19.9311 24.8407 24.4675 24.1498 24.007 24.4837C23.5464 24.8176 20.5644 25.1515 19.9887 25.1976C19.413 25.2436 19.5166 24.9558 19.9311 24.8407Z" fill="#2C2D32"/>
<path d="M20.219 26.1064C20.219 26.1064 22.4411 25.715 21.9806 26.0489C21.52 26.3828 20.8522 26.4173 20.2765 26.4634C19.7008 26.5094 19.8045 26.2216 20.219 26.1064Z" fill="#2C2D32"/>
<path d="M24.8492 11.2919L24.7706 11.6477L21.9277 11.9906L22.0041 11.6351L24.8492 11.2919ZM24.0627 14.4459L22.0706 12.8704L22.0359 12.6209L22.8132 12.5271C23.0482 12.4987 23.2451 12.4455 23.4038 12.3673C23.5624 12.2878 23.6783 12.1847 23.7516 12.0578C23.8265 11.9307 23.8535 11.7812 23.8328 11.6093C23.8022 11.3559 23.6856 11.168 23.4828 11.0456C23.2814 10.9217 23.0089 10.8805 22.6654 10.9219L21.8112 11.0249L21.8887 10.6792L22.6254 10.5903C22.9569 10.5503 23.24 10.566 23.4748 10.6374C23.7111 10.7085 23.8963 10.8239 24.0301 10.9835C24.1654 11.1416 24.2465 11.3325 24.2735 11.5561C24.2987 11.7656 24.2665 11.9609 24.1768 12.1422C24.0885 12.3221 23.9365 12.4749 23.7208 12.6005C23.5065 12.7248 23.2239 12.808 22.8729 12.8504L22.7102 12.87L24.5857 14.3533L24.5892 14.3824L24.0627 14.4459ZM24.7496 10.3341L24.6733 10.6895L22.2768 10.9688L22.3452 10.6241L24.7496 10.3341Z" fill="white"/>
<path d="M17.1324 4.40797L17.1389 4.77221L14.4542 5.76805L14.4456 5.40459L17.1324 4.40797ZM17.1024 7.65842L14.7981 6.59041L14.7062 6.35577L15.4403 6.08346C15.6622 6.00113 15.8413 5.90347 15.9774 5.79049C16.1131 5.67628 16.2018 5.54894 16.2435 5.40845C16.2867 5.26745 16.2782 5.11576 16.218 4.95339C16.1292 4.71411 15.972 4.55857 15.7463 4.48675C15.5215 4.41318 15.247 4.43656 14.9226 4.55688L14.1159 4.85611L14.1107 4.50181L14.8064 4.24374C15.1194 4.12764 15.3984 4.07693 15.6434 4.09161C15.8898 4.10576 16.0967 4.17483 16.2641 4.29884C16.4324 4.4211 16.5558 4.58783 16.6341 4.79903C16.7075 4.9968 16.7217 5.1943 16.6767 5.39153C16.6327 5.58701 16.5204 5.77098 16.34 5.94345C16.1606 6.11417 15.9051 6.26101 15.5736 6.38398L15.42 6.44097L17.5895 7.4465L17.5996 7.47397L17.1024 7.65842ZM16.8125 3.49964L16.8211 3.8631L14.5555 4.69304L14.5418 4.3419L16.8125 3.49964Z" fill="white"/>
</svg>
